<?xml version="1.0" encoding="UTF-8" standalone="no"?>
<svg width="32px" height="16px" viewBox="0 0 32 16" version="1.1" xmlns="http://www.w3.org/2000/svg" xmlns:xlink="http://www.w3.org/1999/xlink" xmlns:sketch="http://www.bohemiancoding.com/sketch/ns">
    <!-- Generator: Sketch 3.5.2 (25235) - http://www.bohemiancoding.com/sketch -->
    <title>btn-hamburger-fixed</title>
    <desc>Created with Sketch.</desc>
    <defs></defs>
    <g id="assets" stroke="none" stroke-width="1" fill="none" fill-rule="evenodd" sketch:type="MSPage">
        <g id="guidelines-assets-mobile" sketch:type="MSArtboardGroup" transform="translate(-585.000000, -164.000000)" fill="#616161">
            <g id="btn-hamburger-fixed" sketch:type="MSLayerGroup" transform="translate(585.000000, 164.000000)">
                <path d="M1,2 L31,2 C31.5522847,2 32,1.55228475 32,1 C32,0.44771525 31.5522847,0 31,0 L1,0 C0.44771525,0 0,0.44771525 0,1 C0,1.55228475 0.44771525,2 1,2 L1,2 Z" id="Shape" sketch:type="MSShapeGroup"></path>
                <path d="M1,9 L31,9 C31.5522847,9 32,8.55228475 32,8 C32,7.44771525 31.5522847,7 31,7 L1,7 C0.44771525,7 0,7.44771525 0,8 C0,8.55228475 0.44771525,9 1,9 L1,9 Z" id="Shape" sketch:type="MSShapeGroup"></path>
                <path d="M1,16 L31,16 C31.5522847,16 32,15.5522847 32,15 C32,14.4477153 31.5522847,14 31,14 L1,14 C0.44771525,14 0,14.4477153 0,15 C0,15.5522847 0.44771525,16 1,16 L1,16 Z" id="Shape" sketch:type="MSShapeGroup"></path>
            </g>
        </g>
    </g>
</svg>