<?xml version="1.0" encoding="UTF-8" standalone="no"?>
<svg width="51px" height="51px" viewBox="0 0 51 51" version="1.1" xmlns="http://www.w3.org/2000/svg" xmlns:xlink="http://www.w3.org/1999/xlink" xmlns:sketch="http://www.bohemiancoding.com/sketch/ns">
    <!-- Generator: Sketch 3.5.1 (25234) - http://www.bohemiancoding.com/sketch -->
    <title>logo-slack</title>
    <desc>Created with Sketch.</desc>
    <defs></defs>
    <g id="2016-website" stroke="none" stroke-width="1" fill="none" fill-rule="evenodd" sketch:type="MSPage">
        <g id="guidelines-assets" sketch:type="MSArtboardGroup" transform="translate(-790.000000, -254.000000)">
            <g id="logo-slack" sketch:type="MSLayerGroup" transform="translate(790.000000, 254.000000)">
                <path d="M21.3359286,22.5791131 L23.516381,29.111334 L30.2791429,26.8383388 L28.0990952,20.306118 L21.3359286,22.5791131" id="Fill-8" fill="#292E30" sketch:type="MSShapeGroup"></path>
                <path d="M21.3359286,22.5791131 L23.516381,29.111334 L30.2791429,26.8383388 L28.0990952,20.306118 L21.3359286,22.5791131" id="Fill-9" fill="#C9C9C9" sketch:type="MSShapeGroup"></path>
                <path d="M39.7175599,29.708772 L36.478045,30.7935417 L37.6007996,34.145412 C38.0554193,35.5028735 37.3237095,36.9718907 35.966248,37.4261105 C35.6711651,37.5252712 35.3704844,37.5680542 35.076601,37.5600574 C34.017821,37.5328682 33.0414083,36.8539375 32.6859493,35.7919588 L31.5631947,32.4396887 L24.8826449,34.6768012 L26.0053995,38.0290714 C26.4600192,39.386133 25.7283094,40.8551502 24.3708479,41.3097699 C24.075765,41.4085307 23.7754841,41.4513137 23.4812009,41.4437168 C22.4228207,41.4161277 21.4464081,40.737197 21.0905492,39.6752183 L19.9677946,36.3229482 L16.7278799,37.4081177 C16.4323971,37.5068785 16.1321162,37.5496615 15.837833,37.5420645 C14.7794528,37.5144755 13.8030402,36.8355448 13.4471814,35.7735661 C12.9925617,34.4161046 13.7246713,32.9474872 15.0817329,32.4928676 L18.3216477,31.4080979 L16.1677021,24.9778488 L12.9281872,26.0626184 C12.6331043,26.1613793 12.3324236,26.2041623 12.0381403,26.1965653 C10.98016,26.1689763 10.0033475,25.4900456 9.64788854,24.4280669 C9.19326889,23.0706054 9.92497862,21.601988 11.2824401,21.1473683 L14.5215552,20.0625987 L13.3988006,16.7103285 C12.9441809,15.3532669 13.6758906,13.8846495 15.0333521,13.42963 C16.3908136,12.9754102 17.859431,13.7071199 18.3136508,15.0641815 L19.4364054,18.4164517 L26.1169553,16.1793392 L24.9942007,12.827069 C24.539581,11.4696075 25.2716906,10.0009901 26.6287522,9.54637046 C27.9858139,9.0917508 29.4548311,9.82386038 29.9094508,11.180922 L31.0322054,14.5331922 L34.2717203,13.4480227 C35.6295816,12.9938029 37.0977991,13.7255126 37.5524188,15.0825742 C38.0070384,16.4400357 37.2749289,17.9086531 35.9178672,18.3632728 L32.6783523,19.4480425 L34.831898,25.8786914 L38.0718128,24.7935219 C39.4292742,24.3393021 40.8978916,25.0710118 41.3521115,26.4280735 C41.8067311,27.7851351 41.0750214,29.2541524 39.7175599,29.708772 L39.7175599,29.708772 Z M48.4073127,18.5555965 C43.2529574,1.37521196 35.8079108,-2.63359774 18.6275263,2.52075752 C1.44714178,7.67511279 -2.56166792,15.1201593 2.59268735,32.3005439 C7.74704261,49.4809284 15.1920892,53.4897381 32.3724737,48.3353828 C49.5528582,43.1810276 53.5616679,35.735981 48.4073127,18.5555965 L48.4073127,18.5555965 Z" id="Fill-11" fill="#C9C9C9" sketch:type="MSShapeGroup"></path>
            </g>
        </g>
    </g>
</svg>