<?xml version="1.0" encoding="UTF-8" standalone="no"?>
<svg width="17px" height="17px" viewBox="0 0 17 17" version="1.1" xmlns="http://www.w3.org/2000/svg" xmlns:xlink="http://www.w3.org/1999/xlink" xmlns:sketch="http://www.bohemiancoding.com/sketch/ns">
    <!-- Generator: Sketch 3.5.1 (25234) - http://www.bohemiancoding.com/sketch -->
    <title>icn-js</title>
    <desc>Created with Sketch.</desc>
    <defs></defs>
    <g id="2016-website" stroke="none" stroke-width="1" fill="none" fill-rule="evenodd" sketch:type="MSPage">
        <g id="guidelines-assets" sketch:type="MSArtboardGroup" transform="translate(-829.000000, -166.000000)" fill="#4A4A4A" opacity="0.7">
            <path d="M829,166 L846,166 L846,183 L829,183 L829,166 Z M840.419683,179.281317 C840.762111,179.840429 841.207619,180.251397 841.995556,180.251397 C842.657476,180.251397 843.080317,179.920571 843.080317,179.46346 C843.080317,178.915683 842.645873,178.721667 841.917302,178.402984 L841.517937,178.231635 C840.365175,177.740524 839.599365,177.125286 839.599365,175.824651 C839.599365,174.626556 840.512238,173.714492 841.938889,173.714492 C842.954571,173.714492 843.684762,174.067984 844.210952,174.99354 L842.966984,175.79227 C842.693095,175.301159 842.397619,175.107683 841.938889,175.107683 C841.470984,175.107683 841.174429,175.404508 841.174429,175.79227 C841.174429,176.271508 841.471254,176.465524 842.156651,176.762349 L842.556016,176.933429 C843.913317,177.515476 844.679667,178.108857 844.679667,179.442952 C844.679667,180.881206 843.549841,181.669143 842.032524,181.669143 C840.548937,181.669143 839.59046,180.962159 839.121476,180.035524 L840.419683,179.281317 Z M834.776492,179.419746 C835.027444,179.864984 835.25573,180.241413 835.804587,180.241413 C836.329429,180.241413 836.660524,180.036063 836.660524,179.237603 L836.660524,173.805698 L838.257984,173.805698 L838.257984,179.25919 C838.257984,180.913317 837.288175,181.666175 835.872587,181.666175 C834.59354,181.666175 833.852825,181.004254 833.476127,180.207008 L834.776492,179.419746 Z" id="icn-js" sketch:type="MSShapeGroup"></path>
        </g>
    </g>
</svg>