<?xml version="1.0" encoding="UTF-8" standalone="no"?>
<svg width="24px" height="20px" viewBox="0 0 24 20" version="1.1" xmlns="http://www.w3.org/2000/svg" xmlns:xlink="http://www.w3.org/1999/xlink" xmlns:sketch="http://www.bohemiancoding.com/sketch/ns">
    <!-- Generator: Sketch 3.5.2 (25235) - http://www.bohemiancoding.com/sketch -->
    <title>icn-docker</title>
    <desc>Created with Sketch.</desc>
    <defs></defs>
    <g id="assets" stroke="none" stroke-width="1" fill="none" fill-rule="evenodd" sketch:type="MSPage">
        <g id="guidelines-assets" sketch:type="MSArtboardGroup" transform="translate(-960.000000, -163.000000)">
            <g id="icn-docker" sketch:type="MSLayerGroup" transform="translate(960.000000, 163.000000)">
                <g id="Group-9" sketch:type="MSShapeGroup">
                    <path d="M3.62033473,16.2025436 L3.62033473,14.6787531 C3.62033473,14.4786534 3.74635983,14.3177057 3.95497908,14.3177057 L4.01282008,14.3177057 C4.22138912,14.3177057 4.34681172,14.4787531 4.34681172,14.6787531 L4.34681172,17.8867332 C4.34681172,18.6690274 3.95769038,19.2914214 3.27976569,19.68798 C2.96540586,19.8717207 2.61805858,19.965985 2.25364017,19.965985 L2.10958996,19.965985 C1.32190795,19.965985 0.696050209,19.579202 0.29623431,18.9061347 C0.110711297,18.5936658 0.0164686192,18.2491272 0.0164686192,17.8867332 L0.0164686192,17.7437406 C0.0164686192,16.961197 0.405790795,16.3391521 1.08321339,15.9418953 C1.39782427,15.7574065 1.74466946,15.6638903 2.10958996,15.6638903 L2.25364017,15.6638903 C2.7867113,15.6638903 3.23899582,15.8691272 3.62033473,16.2025436 L3.62033473,16.2025436 Z M0.742845188,17.8151122 C0.742845188,18.3801995 1.01859414,18.8050374 1.51707113,19.0759601 C1.71861088,19.1855362 1.9374728,19.244389 2.16743096,19.244389 C2.72580753,19.244389 3.13993305,18.9827431 3.42562343,18.5127182 C3.55847699,18.294015 3.62033473,18.0548628 3.62033473,17.8004988 C3.62033473,17.3106234 3.38686192,16.9283791 2.98950628,16.6444389 C2.7485523,16.4723192 2.47732218,16.385985 2.18153975,16.385985 C1.57295397,16.385985 1.13497908,16.6913716 0.872083682,17.2339651 C0.783364017,17.4174065 0.742845188,17.6122195 0.742845188,17.8151122 L0.742845188,17.8151122 Z M6.86701255,15.6638903 L6.96768201,15.6638903 C7.80938912,15.6638903 8.44945607,16.0694763 8.85514644,16.7993017 C9.01737238,17.0912718 9.10413389,17.4098753 9.10413389,17.7437406 L9.10413389,17.8867332 C9.10413389,18.6689776 8.7158159,19.2923192 8.03678661,19.6880798 C7.72242678,19.8712219 7.37517992,19.965985 7.01086192,19.965985 L6.86701255,19.965985 C6.07933054,19.965985 5.45337238,19.579202 5.0536569,18.9061347 C4.86813389,18.5936658 4.77369038,18.2491272 4.77369038,17.8867332 L4.77369038,17.7437406 C4.77369038,16.9610973 5.16446862,16.3410973 5.84023431,15.9420948 C6.15444351,15.7566085 6.50189121,15.6638903 6.86701255,15.6638903 L6.86701255,15.6638903 Z M5.50006695,17.8151122 C5.50006695,18.3636409 5.77109623,18.7671322 6.23748954,19.0508229 C6.45650209,19.1840898 6.6976569,19.244389 6.95357322,19.244389 C7.49919665,19.244389 7.90247699,18.9695761 8.18319665,18.5121197 C8.31705439,18.294015 8.37760669,18.0544638 8.37760669,17.8004988 C8.37760669,17.2904738 8.13027615,16.900798 7.70751464,16.618404 C7.47579916,16.4635411 7.21787448,16.385985 6.93886192,16.385985 C6.33027615,16.385985 5.89230126,16.6913716 5.62950628,17.2339651 C5.54058577,17.4174065 5.50006695,17.6122195 5.50006695,17.8151122 L5.50006695,17.8151122 Z M12.1241674,16.4436409 C12.0145105,16.3926185 11.8091548,16.3756608 11.6906109,16.3711721 C11.083682,16.3484788 10.6445523,16.68798 10.3869289,17.2198504 C10.2980084,17.4032918 10.2573891,17.5975062 10.2573891,17.8004988 C10.2573891,18.4186035 10.5840502,18.8513217 11.1394644,19.1151122 C11.3423598,19.2114214 11.6043013,19.2297756 11.8260251,19.2297756 C12.0210879,19.2297756 12.296636,19.1110224 12.4697071,19.0293766 L12.4997322,19.0152618 L12.6339916,19.0152618 L12.6488033,19.0182544 C12.8140418,19.0523691 12.9387615,19.156409 12.9387615,19.3330175 L12.9387615,19.4044389 C12.9387615,19.8437406 12.1304435,19.944389 11.8220084,19.9657357 C10.7335732,20.0405985 9.91953138,19.446783 9.60918828,18.4154613 C9.5552636,18.2364589 9.53101255,18.0585536 9.53101255,17.8719202 L9.53101255,17.7291272 C9.53101255,16.9465835 9.92189121,16.326783 10.5975565,15.9280299 C10.9117657,15.7426933 11.2592134,15.6496259 11.6242343,15.6496259 L11.7681841,15.6496259 C12.1553473,15.6496259 12.5119833,15.7588529 12.8316653,15.9757606 L12.8579749,15.9938155 L12.8745439,16.0209975 C12.9090377,16.0778554 12.9387615,16.1435411 12.9387615,16.2112219 L12.9387615,16.2826434 C12.9387615,16.4668329 12.8000335,16.5658853 12.6325356,16.5979551 L12.6186778,16.600399 L12.575749,16.600399 C12.4672971,16.600399 12.2209205,16.4888778 12.1241674,16.4436409 L12.1241674,16.4436409 Z M14.4804351,16.9322693 C14.7625607,16.6516209 15.0457908,16.3714713 15.3321339,16.0954115 C15.4119665,16.0184539 15.7141255,15.6925187 15.8330711,15.6925187 L15.9632134,15.6925187 L15.9780251,15.6955112 C16.1437155,15.7297257 16.2678828,15.8339651 16.2678828,16.0108728 L16.2678828,16.0822444 C16.2678828,16.2029426 16.12559,16.3431421 16.047113,16.4257357 C15.8802176,16.6014464 15.7044854,16.7714713 15.5336736,16.943591 L14.6560669,17.8285786 C15.0339414,18.204788 15.4114644,18.5813965 15.7862762,18.9604988 C15.8899582,19.0653367 15.9936904,19.1703242 16.0957657,19.2767082 C16.1318661,19.314414 16.1851381,19.3613466 16.2154142,19.4136658 C16.2478996,19.4625935 16.2678828,19.5178055 16.2678828,19.5767581 L16.2678828,19.6513716 L16.2636653,19.6685287 C16.2228452,19.8331172 16.1176569,19.965985 15.9339916,19.965985 L15.8762008,19.965985 C15.756,19.965985 15.6202845,19.8308728 15.5378912,19.7537656 C15.3683347,19.5948628 15.2044519,19.4277805 15.038159,19.2654863 L14.4804351,18.7216459 L14.4804351,19.5908728 C14.4804351,19.7910723 14.3542594,19.9519701 14.145841,19.9519701 L14.0886025,19.9519701 C13.8799833,19.9519701 13.7540084,19.7910723 13.7540084,19.5908728 L13.7540084,14.6927681 C13.7540084,14.4924688 13.8800837,14.3323192 14.0886025,14.3323192 L14.145841,14.3323192 C14.3542594,14.3323192 14.4804351,14.4924688 14.4804351,14.6927681 L14.4804351,16.9322693 L14.4804351,16.9322693 Z M23.5345607,15.6925187 L23.6066611,15.6925187 C23.824569,15.6925187 23.9699749,15.8383541 23.9699749,16.0535162 C23.9699749,16.3522693 23.682477,16.4287282 23.4336904,16.4287282 C23.107431,16.4287282 22.7959833,16.6249377 22.5710962,16.8449875 C22.2906276,17.119601 22.1678661,17.4713716 22.1678661,17.858005 L22.1678661,19.6049875 C22.1678661,19.8052868 22.0420418,19.965985 21.8331715,19.965985 L21.7758828,19.965985 C21.567113,19.965985 21.4412887,19.8052868 21.4412887,19.6049875 L21.4412887,17.7577556 C21.4412887,17.0483791 21.7889372,16.4693766 22.3684017,16.0632419 C22.7145439,15.8205985 23.1108452,15.6925187 23.5345607,15.6925187 L23.5345607,15.6925187 Z M18.3712971,19.1545636 C18.6356485,19.2462344 18.9371046,19.2331671 19.2083347,19.1862344 C19.3470126,19.1276808 19.701841,18.9739651 19.8323347,18.9964589 L19.8527197,18.9998504 L19.8714477,19.0090274 C19.9510795,19.0473815 20.0271967,19.1016459 20.0678159,19.1821446 C20.1629121,19.3710224 20.1172218,19.5607481 19.9304937,19.6679302 L19.8683347,19.703591 C19.1792134,20.0987032 18.4463096,20.0439401 17.7594477,19.6749127 C17.4310293,19.4986035 17.1797824,19.2367581 16.9944603,18.9176559 L16.9510795,18.8430424 C16.5087364,18.0820449 16.5684351,17.2814963 17.0673138,16.5578055 C17.2395816,16.3076808 17.4646695,16.114414 17.7278661,15.9632918 L17.827431,15.9062344 C18.4763849,15.5341147 19.1718828,15.5595511 19.83841,15.8861845 C20.1967531,16.0617955 20.487113,16.3236409 20.6871967,16.6678803 L20.7231464,16.7298753 C20.8685021,16.98 20.6802176,17.198005 20.4858577,17.3469825 C20.260318,17.5198504 20.032569,17.7278304 19.8163682,17.913217 C19.3343598,18.3265337 18.8530544,18.7408479 18.3712971,19.1545636 L18.3712971,19.1545636 Z M17.7473975,18.7193017 C18.2865439,18.2600998 18.8257908,17.8005985 19.3633808,17.3395511 C19.5470962,17.1821446 19.7485858,17.018803 19.9308954,16.8532668 C19.7845858,16.6702244 19.540318,16.5382544 19.3327029,16.4595511 C18.9137573,16.3009476 18.5005356,16.3542145 18.1162845,16.5745636 C17.6132385,16.8630424 17.399046,17.3224938 17.4178745,17.8942145 C17.4252552,18.1193516 17.4862594,18.3363092 17.6065607,18.5278803 C17.6489372,18.5954115 17.6962845,18.658803 17.7473975,18.7193017 L17.7473975,18.7193017 Z" id="Fill-1" fill="#464646"></path>
                    <path d="M13.8269623,4.25890274 L15.9706444,4.25890274 L15.9706444,6.43571072 L17.0545607,6.43571072 C17.5550962,6.43571072 18.0699414,6.34713217 18.5439665,6.18758105 C18.776887,6.10912718 19.0383264,5.99995012 19.2680837,5.86264339 C18.9654728,5.47017456 18.8109791,4.97461347 18.7654895,4.48613466 C18.7037322,3.82174564 18.8386444,2.95695761 19.2913305,2.43695761 L19.5166695,2.17805486 L19.7851883,2.39246883 C20.4612552,2.93201995 21.0298243,3.68593516 21.1300418,4.54538653 C21.9440837,4.30753117 22.8998159,4.36379052 23.6173556,4.77516209 L23.9117322,4.94389027 L23.7567866,5.24428928 C23.1499582,6.42074813 21.8813222,6.78518703 20.6410042,6.72069825 C18.7850209,11.3126185 14.7443347,13.4865835 9.84502092,13.4865835 C7.31387448,13.4865835 4.99159833,12.5466833 3.66918828,10.3159102 L3.64749791,10.2795012 L3.45484519,9.89012469 C3.00783264,8.90817955 2.85936402,7.83246883 2.96008368,6.75765586 L2.99030962,6.43571072 L4.82339749,6.43571072 L4.82339749,4.25890274 L6.96702929,4.25890274 L6.96702929,2.12942643 L11.2544937,2.12942643 L11.2544937,0 L13.8269623,0 L13.8269623,4.25890274" id="Fill-2" fill="#464646"></path>
                    <path d="M20.7722008,5.06418953 C20.9159498,3.95456359 20.0799665,3.08294264 19.5615063,2.66912718 C18.9640669,3.35526185 18.8712301,5.15351621 19.8085356,5.91062344 C19.2854561,6.37216958 18.1831632,6.79052369 17.0545607,6.79052369 L3.31596653,6.79052369 C3.20620921,7.96084788 3.41307113,9.03855362 3.88543933,9.96104738 L4.04174059,10.2449875 C4.14070293,10.4118204 4.24880335,10.572818 4.36564017,10.7278304 L4.36569038,10.7278304 C4.93049372,10.7638404 5.4512636,10.7763092 5.92769874,10.7658354 L5.92789958,10.7658354 C6.86420084,10.7452369 7.62813389,10.6355112 8.20714644,10.4362095 C8.29335565,10.4064339 8.38729707,10.4518703 8.41712134,10.5374065 C8.4468954,10.6229426 8.40130544,10.7163092 8.31519665,10.745985 C8.23822594,10.7724688 8.15794142,10.7972569 8.07504603,10.820798 C8.07494561,10.8208479 8.07484519,10.8208479 8.07474477,10.8208978 C7.61884519,10.9501746 7.13000837,11.037207 6.49923013,11.0758603 C6.53663598,11.0764589 6.46021757,11.0814464 6.46001674,11.0814963 C6.43857741,11.082793 6.41156485,11.0858354 6.3900251,11.0870324 C6.14179079,11.1008479 5.87382427,11.1037406 5.59988285,11.1037406 C5.30028452,11.1037406 5.00520502,11.0981047 4.67533054,11.0814963 L4.6668954,11.0870324 C5.81161506,12.3650873 7.6014728,13.1316209 9.84502092,13.1316209 C14.5933054,13.1316209 18.6208368,11.0407481 20.4042678,6.34663342 C21.66959,6.47561097 22.8856067,6.15511222 23.4387615,5.08249377 C22.5576402,4.57740648 21.4246192,4.73845387 20.7722008,5.06418953" id="Fill-3" fill="#9E9E9E"></path>
                    <path d="M20.7722008,5.06418953 C20.9159498,3.95456359 20.0799665,3.08294264 19.5615063,2.66912718 C18.9640669,3.35526185 18.8712301,5.15351621 19.8085356,5.91062344 C19.2854561,6.37216958 18.1831632,6.79052369 17.0545607,6.79052369 L4.12950628,6.79052369 C4.07342259,8.58284289 4.74301255,9.94334165 5.92769874,10.7658354 L5.92789958,10.7658354 C6.86420084,10.7452369 7.62813389,10.6355112 8.20714644,10.4362095 C8.29335565,10.4064339 8.38729707,10.4518703 8.41712134,10.5374065 C8.4468954,10.6229426 8.40130544,10.7163092 8.31519665,10.745985 C8.23822594,10.7724688 8.15794142,10.7972569 8.07504603,10.820798 C8.07494561,10.8208479 8.07484519,10.8208479 8.07474477,10.8208978 C7.61884519,10.9501746 7.08798326,11.0483791 6.45720502,11.0870324 C6.45705439,11.0870324 6.44194142,11.0725187 6.44174059,11.0725686 C8.05767364,11.8959601 10.4008368,11.8930175 13.0872301,10.8679302 C16.0994812,9.71845387 18.90241,7.52842893 20.8582092,5.02359102 C20.8286862,5.03680798 20.7999665,5.05037406 20.7722008,5.06418953" id="Fill-4" fill="#DEDEDE"></path>
                    <path d="M3.34167364,8.21246883 C3.4270795,8.83935162 3.61164854,9.42633416 3.88543933,9.96104738 L4.04174059,10.2449875 C4.14070293,10.4118204 4.24880335,10.572818 4.36569038,10.7278304 C4.93059414,10.7638404 5.45141423,10.7763092 5.92789958,10.7658354 C6.86420084,10.7452369 7.62813389,10.6355112 8.20714644,10.4362095 C8.29335565,10.4064339 8.38729707,10.4518703 8.41712134,10.5374065 C8.4468954,10.6229426 8.40130544,10.7163092 8.31519665,10.745985 C8.23822594,10.7724688 8.15794142,10.7972569 8.07504603,10.820798 C8.07494561,10.8208479 8.07484519,10.8208479 8.07474477,10.8208978 C7.61884519,10.9501746 7.09079498,11.042793 6.46001674,11.0814963 C6.43837657,11.082793 6.40061925,11.0830424 6.37877824,11.0842394 C6.13064435,11.0981047 5.86543933,11.1065337 5.5914477,11.1065337 C5.29189958,11.1065337 4.98557322,11.1008479 4.65574895,11.0842394 C5.80041841,12.3622943 7.6014728,13.1316209 9.84502092,13.1316209 C13.9100084,13.1316209 17.4466444,11.5989526 19.4992971,8.21246883 L3.34167364,8.21246883" id="Fill-5" fill="#464646"></path>
                    <path d="M4.25317155,8.21246883 C4.4961841,9.31316708 5.08016736,10.1773067 5.92789958,10.7658354 C6.86420084,10.7452369 7.62813389,10.6355112 8.20714644,10.4362095 C8.29335565,10.4064339 8.38729707,10.4518703 8.41712134,10.5374065 C8.4468954,10.6229426 8.40130544,10.7163092 8.31519665,10.745985 C8.23822594,10.7724688 8.15794142,10.7972569 8.07504603,10.820798 C8.07494561,10.8208479 8.07484519,10.8208479 8.07474477,10.8208978 C7.61884519,10.9501746 7.07959833,11.042793 6.44882008,11.0814963 C8.06465272,11.9047382 10.4010377,11.8929177 13.0872301,10.8679302 C14.7123013,10.2477307 16.276318,9.3244389 17.6795146,8.21246883 L4.25317155,8.21246883" id="Fill-6" fill="#9F9F9F"></path>
                    <path d="M5.18068619,4.61376559 L7.0385272,4.61376559 L7.0385272,6.45935162 L5.18068619,6.45935162 L5.18068619,4.61376559 Z M5.33543096,4.76758105 L5.48204184,4.76758105 L5.48204184,6.30563591 L5.33543096,6.30563591 L5.33543096,4.76758105 Z M5.6110795,4.76758105 L5.76356485,4.76758105 L5.76356485,6.30563591 L5.6110795,6.30563591 L5.6110795,4.76758105 Z M5.89250209,4.76758105 L6.04498745,4.76758105 L6.04498745,6.30563591 L5.89250209,6.30563591 L5.89250209,4.76758105 Z M6.17407531,4.76758105 L6.32656067,4.76758105 L6.32656067,6.30563591 L6.17407531,6.30563591 L6.17407531,4.76758105 Z M6.45559833,4.76758105 L6.60808368,4.76758105 L6.60808368,6.30563591 L6.45559833,6.30563591 L6.45559833,4.76758105 Z M6.73707113,4.76758105 L6.88378243,4.76758105 L6.88378243,6.30563591 L6.73707113,6.30563591 L6.73707113,4.76758105 Z" id="Fill-7" fill="#9E9E9E"></path>
                    <path d="M7.32426778,2.48433915 L9.18230962,2.48433915 L9.18230962,4.32982544 L7.32426778,4.32982544 L7.32426778,2.48433915 Z M7.47921339,2.63815461 L7.62572385,2.63815461 L7.62572385,4.17605985 L7.47921339,4.17605985 L7.47921339,2.63815461 Z M7.75486192,2.63815461 L7.90724686,2.63815461 L7.90724686,4.17605985 L7.75486192,4.17605985 L7.75486192,2.63815461 Z M8.03623431,2.63815461 L8.18871967,2.63815461 L8.18871967,4.17605985 L8.03623431,4.17605985 L8.03623431,2.63815461 Z M8.31775732,2.63815461 L8.47024268,2.63815461 L8.47024268,4.17605985 L8.31775732,4.17605985 L8.31775732,2.63815461 Z M8.59933054,2.63815461 L8.7518159,2.63815461 L8.7518159,4.17605985 L8.59933054,4.17605985 L8.59933054,2.63815461 Z M8.88075314,2.63815461 L9.02756485,2.63815461 L9.02756485,4.17605985 L8.88075314,4.17605985 L8.88075314,2.63815461 Z" id="Fill-8" fill="#9E9E9E"></path>
                    <path d="M7.32426778,4.61376559 L9.18230962,4.61376559 L9.18230962,6.45935162 L7.32426778,6.45935162 L7.32426778,4.61376559 Z M7.47921339,4.76758105 L7.62572385,4.76758105 L7.62572385,6.30563591 L7.47921339,6.30563591 L7.47921339,4.76758105 Z M7.75486192,4.76758105 L7.90724686,4.76758105 L7.90724686,6.30563591 L7.75486192,6.30563591 L7.75486192,4.76758105 Z M8.03623431,4.76758105 L8.18871967,4.76758105 L8.18871967,6.30563591 L8.03623431,6.30563591 L8.03623431,4.76758105 Z M8.31775732,4.76758105 L8.47024268,4.76758105 L8.47024268,6.30563591 L8.31775732,6.30563591 L8.31775732,4.76758105 Z M8.59933054,4.76758105 L8.7518159,4.76758105 L8.7518159,6.30563591 L8.59933054,6.30563591 L8.59933054,4.76758105 Z M8.88075314,4.76758105 L9.02756485,4.76758105 L9.02756485,6.30563591 L8.88075314,6.30563591 L8.88075314,4.76758105 Z" id="Fill-9" fill="#DEDEDE"></path>
                    <path d="M9.46805021,4.61376559 L11.3259916,4.61376559 L11.3259916,6.45935162 L9.46805021,6.45935162 L9.46805021,4.61376559 Z M9.6228954,4.76758105 L9.76940586,4.76758105 L9.76940586,6.30563591 L9.6228954,6.30563591 L9.6228954,4.76758105 Z M9.89849372,4.76758105 L10.0509791,4.76758105 L10.0509791,6.30563591 L9.89849372,6.30563591 L9.89849372,4.76758105 Z M10.1800167,4.76758105 L10.3325021,4.76758105 L10.3325021,6.30563591 L10.1800167,6.30563591 L10.1800167,4.76758105 Z M10.4615397,4.76758105 L10.6140251,4.76758105 L10.6140251,6.30563591 L10.4615397,6.30563591 L10.4615397,4.76758105 Z M10.7430126,4.76758105 L10.8955983,4.76758105 L10.8955983,6.30563591 L10.7430126,6.30563591 L10.7430126,4.76758105 Z M11.0245356,4.76758105 L11.1711464,4.76758105 L11.1711464,6.30563591 L11.0245356,6.30563591 L11.0245356,4.76758105 Z" id="Fill-10" fill="#9E9E9E"></path>
                    <path d="M9.46805021,2.48433915 L11.3259916,2.48433915 L11.3259916,4.32982544 L9.46805021,4.32982544 L9.46805021,2.48433915 Z M9.6228954,2.63815461 L9.76940586,2.63815461 L9.76940586,4.17605985 L9.6228954,4.17605985 L9.6228954,2.63815461 Z M9.89849372,2.63815461 L10.0509791,2.63815461 L10.0509791,4.17605985 L9.89849372,4.17605985 L9.89849372,2.63815461 Z M10.1800167,2.63815461 L10.3325021,2.63815461 L10.3325021,4.17605985 L10.1800167,4.17605985 L10.1800167,2.63815461 Z M10.4615397,2.63815461 L10.6140251,2.63815461 L10.6140251,4.17605985 L10.4615397,4.17605985 L10.4615397,2.63815461 Z M10.7430126,2.63815461 L10.8955983,2.63815461 L10.8955983,4.17605985 L10.7430126,4.17605985 L10.7430126,2.63815461 Z M11.0245356,2.63815461 L11.1711464,2.63815461 L11.1711464,4.17605985 L11.0245356,4.17605985 L11.0245356,2.63815461 Z" id="Fill-11" fill="#DEDEDE"></path>
                    <path d="M11.6117824,4.61376559 L13.4696736,4.61376559 L13.4696736,6.45935162 L11.6117824,6.45935162 L11.6117824,4.61376559 Z M11.7666276,4.76758105 L11.9131883,4.76758105 L11.9131883,6.30563591 L11.7666276,6.30563591 L11.7666276,4.76758105 Z M12.0422762,4.76758105 L12.1947615,4.76758105 L12.1947615,6.30563591 L12.0422762,6.30563591 L12.0422762,4.76758105 Z M12.3236987,4.76758105 L12.4761841,4.76758105 L12.4761841,6.30563591 L12.3236987,6.30563591 L12.3236987,4.76758105 Z M12.605272,4.76758105 L12.7577573,4.76758105 L12.7577573,6.30563591 L12.605272,6.30563591 L12.605272,4.76758105 Z M12.886795,4.76758105 L13.0392803,4.76758105 L13.0392803,6.30563591 L12.886795,6.30563591 L12.886795,4.76758105 Z M13.1682678,4.76758105 L13.3149289,4.76758105 L13.3149289,6.30563591 L13.1682678,6.30563591 L13.1682678,4.76758105 Z" id="Fill-12" fill="#DEDEDE"></path>
                    <path d="M11.6117824,2.48433915 L13.4696736,2.48433915 L13.4696736,4.32982544 L11.6117824,4.32982544 L11.6117824,2.48433915 Z M11.7666276,2.63815461 L11.9131883,2.63815461 L11.9131883,4.17605985 L11.7666276,4.17605985 L11.7666276,2.63815461 Z M12.0422762,2.63815461 L12.1947615,2.63815461 L12.1947615,4.17605985 L12.0422762,4.17605985 L12.0422762,2.63815461 Z M12.3236987,2.63815461 L12.4761841,2.63815461 L12.4761841,4.17605985 L12.3236987,4.17605985 L12.3236987,2.63815461 Z M12.605272,2.63815461 L12.7577573,2.63815461 L12.7577573,4.17605985 L12.605272,4.17605985 L12.605272,2.63815461 Z M12.886795,2.63815461 L13.0392803,2.63815461 L13.0392803,4.17605985 L12.886795,4.17605985 L12.886795,2.63815461 Z M13.1682678,2.63815461 L13.3149289,2.63815461 L13.3149289,4.17605985 L13.1682678,4.17605985 L13.1682678,2.63815461 Z" id="Fill-13" fill="#9E9E9E"></path>
                    <path d="M11.6117824,0.354862843 L13.4696736,0.354862843 L13.4696736,2.20044888 L11.6117824,2.20044888 L11.6117824,0.354862843 Z M11.7666276,0.508578554 L11.9131883,0.508578554 L11.9131883,2.04663342 L11.7666276,2.04663342 L11.7666276,0.508578554 Z M12.0422762,0.508578554 L12.1947615,0.508578554 L12.1947615,2.04663342 L12.0422762,2.04663342 L12.0422762,0.508578554 Z M12.3236987,0.508578554 L12.4761841,0.508578554 L12.4761841,2.04663342 L12.3236987,2.04663342 L12.3236987,0.508578554 Z M12.605272,0.508578554 L12.7577573,0.508578554 L12.7577573,2.04663342 L12.605272,2.04663342 L12.605272,0.508578554 Z M12.886795,0.508578554 L13.0392803,0.508578554 L13.0392803,2.04663342 L12.886795,2.04663342 L12.886795,0.508578554 Z M13.1682678,0.508578554 L13.3149289,0.508578554 L13.3149289,2.04663342 L13.1682678,2.04663342 L13.1682678,0.508578554 Z" id="Fill-14" fill="#DEDEDE"></path>
                    <path d="M13.7554644,4.61376559 L15.6134059,4.61376559 L15.6134059,6.45935162 L13.7554644,6.45935162 L13.7554644,4.61376559 Z M13.9102092,4.76758105 L14.0569205,4.76758105 L14.0569205,6.30563591 L13.9102092,6.30563591 L13.9102092,4.76758105 Z M14.1858577,4.76758105 L14.3383431,4.76758105 L14.3383431,6.30563591 L14.1858577,6.30563591 L14.1858577,4.76758105 Z M14.467431,4.76758105 L14.6199163,4.76758105 L14.6199163,6.30563591 L14.467431,6.30563591 L14.467431,4.76758105 Z M14.7488536,4.76758105 L14.9013389,4.76758105 L14.9013389,6.30563591 L14.7488536,6.30563591 L14.7488536,4.76758105 Z M15.030477,4.76758105 L15.1829121,4.76758105 L15.1829121,6.30563591 L15.030477,6.30563591 L15.030477,4.76758105 Z M15.3119498,4.76758105 L15.4585607,4.76758105 L15.4585607,6.30563591 L15.3119498,6.30563591 L15.3119498,4.76758105 Z" id="Fill-15" fill="#9E9E9E"></path>
                    <path d="M9.0659749,9.45157107 C9.34900418,9.45157107 9.57846025,9.679601 9.57846025,9.96074813 C9.57846025,10.2418953 9.34900418,10.4698254 9.0659749,10.4698254 C8.7828954,10.4698254 8.55338912,10.2418953 8.55338912,9.96074813 C8.55338912,9.679601 8.7828954,9.45157107 9.0659749,9.45157107" id="Fill-16" fill="#C4C4C4"></path>
                    <path d="M9.0659749,9.59600998 C9.11287029,9.59600998 9.15760669,9.60478803 9.19887866,9.62069825 C9.15414226,9.64638404 9.12386611,9.69451372 9.12386611,9.74957606 C9.12386611,9.83177057 9.19094561,9.89830424 9.27369038,9.89830424 C9.33037657,9.89830424 9.3796318,9.86703242 9.40508787,9.82084788 C9.42306276,9.86389027 9.43305439,9.91117207 9.43305439,9.96074813 C9.43305439,10.1620948 9.26871967,10.3253367 9.0659749,10.3253367 C8.86328033,10.3253367 8.69884519,10.1620948 8.69884519,9.96074813 C8.69884519,9.75930175 8.86328033,9.59600998 9.0659749,9.59600998" id="Fill-17" fill="#464646"></path>
                    <path d="M0,8.39650873 L23.8431967,8.39650873 C23.3240335,8.26568579 22.2006025,8.08897756 22.3858745,7.41311721 C21.4418912,8.49820449 19.1653054,8.17436409 18.5907615,7.63930175 C17.9509456,8.56109726 14.2262762,8.21072319 13.9664937,7.49261845 C13.1644017,8.4276808 10.6789456,8.4276808 9.87680335,7.49261845 C9.6169205,8.21072319 5.89230126,8.56109726 5.25243515,7.63930175 C4.67789121,8.17436409 2.40150628,8.49820449 1.45742259,7.41311721 C1.64269456,8.08897756 0.519263598,8.26568579 0,8.39650873" id="Fill-18" fill="#464646"></path>
                    <path d="M10.4285021,13.1205985 C9.15916318,12.5222444 8.46241004,11.7088778 8.07474477,10.8208978 C7.60328033,10.9546135 7.03646862,11.0400499 6.37792469,11.0767581 C6.129841,11.0905736 5.86890377,11.0976559 5.59501255,11.0976559 C5.27929707,11.0976559 4.94661088,11.0883791 4.59735565,11.0699751 C5.76140586,12.225586 7.1934728,13.1153616 9.84502092,13.1316209 C10.0407866,13.1316209 10.2351464,13.1278304 10.4285021,13.1205985" id="Fill-19" fill="#979797"></path>
                    <path d="M8.54625941,11.6402494 C8.37062762,11.4034414 8.20026778,11.1058354 8.07504603,10.820798 C7.60348117,10.9545636 7.03656904,11.0400499 6.37792469,11.0767581 C6.83030962,11.3206983 7.47735565,11.5467332 8.54625941,11.6402494" id="Fill-20" fill="#C4C4C4"></path>
                </g>
            </g>
        </g>
    </g>
</svg>