<?xml version="1.0" encoding="UTF-8" standalone="no"?>
<svg width="18px" height="18px" viewBox="0 0 18 18" version="1.1" xmlns="http://www.w3.org/2000/svg" xmlns:xlink="http://www.w3.org/1999/xlink" xmlns:sketch="http://www.bohemiancoding.com/sketch/ns">
    <!-- Generator: Sketch 3.5.2 (25235) - http://www.bohemiancoding.com/sketch -->
    <title>icn-github</title>
    <desc>Created with Sketch.</desc>
    <defs></defs>
    <g id="assets" stroke="none" stroke-width="1" fill="none" fill-rule="evenodd" sketch:type="MSPage">
        <g id="guidelines-assets" sketch:type="MSArtboardGroup" transform="translate(-1009.000000, -164.000000)" fill="#4A4A4A">
            <path d="M1017.99917,164 C1013.02996,164 1009,168.131378 1009,173.228048 C1009,177.305044 1011.57853,180.763438 1015.15489,181.983647 C1015.60518,182.06862 1015.76927,181.783678 1015.76927,181.538956 C1015.76927,181.320293 1015.76153,180.739645 1015.75711,179.969792 C1013.25372,180.527213 1012.72553,178.732587 1012.72553,178.732587 C1012.31612,177.666462 1011.72605,177.382652 1011.72605,177.382652 C1010.9089,176.810502 1011.78793,176.821832 1011.78793,176.821832 C1012.69127,176.886978 1013.16643,177.772961 1013.16643,177.772961 C1013.96921,179.182943 1015.27312,178.77564 1015.78584,178.539416 C1015.86761,177.943473 1016.10022,177.536737 1016.35713,177.306177 C1014.35873,177.073351 1012.25756,176.281405 1012.25756,172.745403 C1012.25756,171.738191 1012.6084,170.913955 1013.18411,170.269295 C1013.09129,170.035903 1012.78244,169.097236 1013.27251,167.827176 C1013.27251,167.827176 1014.02778,167.579055 1015.74717,168.773206 C1016.46487,168.568139 1017.23506,168.466171 1018.00028,168.462206 C1018.76494,168.466171 1019.53458,168.568139 1020.25338,168.773206 C1021.97167,167.579055 1022.72584,167.827176 1022.72584,167.827176 C1023.21701,169.097236 1022.90816,170.035903 1022.81589,170.269295 C1023.39271,170.913955 1023.74078,171.738191 1023.74078,172.745403 C1023.74078,176.290469 1021.6363,177.070519 1019.63182,177.298813 C1019.95448,177.583755 1020.24233,178.146841 1020.24233,179.007899 C1020.24233,180.241138 1020.23128,181.236453 1020.23128,181.538956 C1020.23128,181.785944 1020.39372,182.073152 1020.85009,181.983081 C1024.42368,180.760039 1027,177.303911 1027,173.228048 C1027,168.131378 1022.97004,164 1017.99917,164" id="icn-github" sketch:type="MSShapeGroup"></path>
        </g>
    </g>
</svg>