<?xml version="1.0" encoding="UTF-8" standalone="no"?>
<svg width="18px" height="22px" viewBox="0 0 18 22" version="1.1" xmlns="http://www.w3.org/2000/svg" xmlns:xlink="http://www.w3.org/1999/xlink" xmlns:sketch="http://www.bohemiancoding.com/sketch/ns">
    <!-- Generator: Sketch 3.5.2 (25235) - http://www.bohemiancoding.com/sketch -->
    <title>icn-nodejs</title>
    <desc>Created with Sketch.</desc>
    <defs></defs>
    <g id="assets" stroke="none" stroke-width="1" fill="none" fill-rule="evenodd" sketch:type="MSPage">
        <g id="guidelines-assets" sketch:type="MSArtboardGroup" transform="translate(-917.000000, -163.000000)" fill="#4A4A4A" opacity="0.7">
            <g id="icn-nodejs" sketch:type="MSLayerGroup" transform="translate(926.000000, 174.000000) scale(1, -1) translate(-926.000000, -174.000000) translate(917.000000, 163.000000)">
                <path d="M8.89822181,0.909901826 C8.62927998,0.909901826 8.36221449,0.981004354 8.12704675,1.11851917 L5.67091988,2.58698483 C5.30440846,2.79436404 5.48328605,2.86769129 5.60399714,2.91040337 C6.09372145,3.08198483 6.19254193,3.12148624 6.71478944,3.42071096 C6.76920325,3.45157261 6.84112955,3.43996868 6.8974197,3.40663581 L8.78376517,2.27467725 C8.85256424,2.23640829 8.94888294,2.23640829 9.012053,2.27467725 L16.3672993,6.56477626 C16.4360983,6.60427767 16.4798796,6.68401994 16.4798796,6.76598694 L16.4798796,15.3439919 C16.4798796,15.4279244 16.4360983,15.5064216 16.3660484,15.5488935 L9.01330389,19.8355228 C8.94513026,19.8755298 8.85506602,19.8755298 8.78626695,19.8355228 L1.43539882,15.5476295 C1.36409797,15.5064216 1.31906585,15.4254596 1.31906585,15.3439919 L1.31906585,6.76598694 C1.31906585,6.68401994 1.36409797,6.60624958 1.43477338,6.56724115 L3.44996074,5.39084508 C4.54324054,4.83856489 5.21309333,5.48910562 5.21309333,6.14260421 L5.21309333,14.6119834 C5.21309333,14.7316885 5.30816113,14.826239 5.42637045,14.826239 L6.35953605,14.826239 C6.47586902,14.826239 6.57218772,14.7316885 6.57218772,14.6119834 L6.57218772,6.14260421 C6.57218772,4.66821587 5.77787116,3.82263933 4.39438437,3.82263933 C3.96908101,3.82263933 3.63446734,3.82263933 2.70005086,4.28801011 L0.771175054,5.41010281 C0.294585118,5.68833806 0,6.20877065 0,6.76598694 L0,15.3439919 C0,15.9014357 0.294585118,16.4215902 0.771175054,16.6988584 L8.12704675,20.9938935 C8.59237866,21.2600382 9.21094486,21.2600382 9.67252409,20.9938935 L17.0277703,16.6988584 C17.5043603,16.4203893 17.8001963,15.9014357 17.8001963,15.3439919 L17.8001963,6.76598694 C17.8001963,6.20877065 17.5043603,5.69030997 17.0277703,5.41010281 L9.67252409,1.11851917 C9.43735635,0.981004354 9.17091631,0.909901826 8.89822181,0.909901826" id="path30" sketch:type="MSShapeGroup"></path>
                <path d="M11.1704675,7 C7.9512964,7 7.27706549,8.4929382 7.27706549,9.74535393 C7.27706549,9.86436376 7.3721333,9.95941994 7.48971717,9.95941994 L8.4410207,9.95941994 C8.54734654,9.95941994 8.63553444,9.8823764 8.65242148,9.77746067 C8.79564864,8.79902669 9.22407923,8.30529073 11.1704675,8.30529073 C12.7196975,8.30529073 13.3795432,8.65953933 13.3795432,9.49033287 C13.3795432,9.96927949 13.1925348,10.3247921 10.7845673,10.5630014 C8.77188169,10.7642374 7.52724393,11.2135421 7.52724393,12.8405576 C7.52724393,14.3403469 8.77813615,15.2347851 10.875257,15.2347851 C13.2319379,15.2347851 14.3977695,14.4082261 14.5453747,12.6351503 C14.5510037,12.5739073 14.5297386,12.515382 14.48971,12.4696868 C14.449056,12.4270253 14.3927659,12.4010492 14.3339739,12.4010492 L13.3789177,12.4010492 C13.2800973,12.4010492 13.1925348,12.4721517 13.1725205,12.5689775 C12.9436072,13.5984789 12.3863348,13.927573 10.875257,13.927573 C9.18342523,13.927573 8.98703515,13.3318287 8.98703515,12.885684 C8.98703515,12.345052 9.21907566,12.187552 11.5032049,11.8821587 C13.7635671,11.5801784 14.8374581,11.1526152 14.8374581,9.54708848 C14.8374581,7.9275309 13.5008797,7 11.1704675,7" id="path32" sketch:type="MSShapeGroup"></path>
            </g>
        </g>
    </g>
</svg>