<?xml version="1.0" encoding="UTF-8" standalone="no"?>
<svg width="40px" height="50px" viewBox="0 0 40 50" version="1.1" xmlns="http://www.w3.org/2000/svg" xmlns:xlink="http://www.w3.org/1999/xlink" xmlns:sketch="http://www.bohemiancoding.com/sketch/ns">
    <!-- Generator: Sketch 3.5.1 (25234) - http://www.bohemiancoding.com/sketch -->
    <title>logo-apple</title>
    <desc>Created with Sketch.</desc>
    <defs></defs>
    <g id="2016-website" stroke="none" stroke-width="1" fill="none" fill-rule="evenodd" sketch:type="MSPage">
        <g id="guidelines-assets" sketch:type="MSArtboardGroup" transform="translate(-730.000000, -254.000000)" fill="#C9C9C9">
            <path d="M763.40678,280.563429 C763.475812,288.130011 769.928513,290.64798 770,290.680118 C769.945439,290.857699 768.968966,294.268469 766.600411,297.791551 C764.552899,300.837434 762.427852,303.872159 759.080275,303.935011 C755.790945,303.996699 754.733243,301.949688 750.972608,301.949688 C747.213109,301.949688 746.037953,303.872154 742.924236,303.996699 C739.692975,304.121153 737.232404,300.702981 735.167876,297.668255 C730.949265,291.460623 727.725372,280.126944 732.054245,272.476526 C734.204736,268.677298 738.047827,266.271467 742.219158,266.209774 C745.392174,266.148171 748.387124,268.382495 750.326829,268.382495 C752.265304,268.382495 755.904805,265.695524 759.730879,266.09014 C761.332604,266.157993 765.828673,266.74867 768.715723,271.049829 C768.483098,271.196607 763.350992,274.237488 763.40678,280.563436 M757.224866,261.983249 C758.940364,259.869722 760.094993,256.927495 759.779998,254 C757.307236,254.101153 754.317112,255.677129 752.543455,257.789494 C750.953917,259.660091 749.56184,262.654102 749.937446,265.523656 C752.69363,265.740696 755.509283,264.098121 757.224866,261.983253" id="logo-apple" sketch:type="MSShapeGroup"></path>
        </g>
    </g>
</svg>