<?xml version="1.0" encoding="UTF-8" standalone="no"?>
<svg width="26px" height="23px" viewBox="0 0 26 23" version="1.1" xmlns="http://www.w3.org/2000/svg" xmlns:xlink="http://www.w3.org/1999/xlink" xmlns:sketch="http://www.bohemiancoding.com/sketch/ns">
    <!-- Generator: Sketch 3.5.2 (25235) - http://www.bohemiancoding.com/sketch -->
    <title>icn-react</title>
    <desc>Created with Sketch.</desc>
    <defs></defs>
    <g id="assets" stroke="none" stroke-width="1" fill="none" fill-rule="evenodd" sketch:type="MSPage">
        <g id="guidelines-assets" sketch:type="MSArtboardGroup" transform="translate(-732.000000, -163.000000)" opacity="0.7">
            <g id="icn-react" sketch:type="MSLayerGroup" transform="translate(733.000000, 164.000000)">
                <ellipse id="Oval" fill="#4A4A4A" sketch:type="MSShapeGroup" cx="12.0012913" cy="10.4616101" rx="2.23378108" ry="2.20861006"></ellipse>
                <path d="M12.0012913,5.97104403 C15.0004453,5.97104403 17.7865826,6.39654717 19.8873173,7.11160377 C22.4184045,7.97313208 23.9746197,9.27909434 23.9746197,10.4616101 C23.9746197,11.6939182 22.3252987,13.081239 19.6072876,13.9716478 C17.5523265,14.6448365 14.8482968,14.9962013 12.0012913,14.9962013 C9.08237477,14.9962013 6.31832282,14.6663648 4.24069759,13.9642075 C1.61156215,13.0756918 0.0279628942,11.6703648 0.0279628942,10.4616101 C0.0279628942,9.28869182 1.5138256,7.99285535 4.00933581,7.13260377 C6.11790724,6.40579245 8.97283859,5.97104403 12.0012913,5.97104403 L12.0012913,5.97104403 Z" id="Shape" stroke="#4A4A4A" stroke-width="1.0584" sketch:type="MSShapeGroup"></path>
                <path d="M8.0476141,8.22927044 C9.54589981,5.66049057 11.31059,3.4867044 12.986538,2.04461635 C15.005833,0.307119497 16.9274805,-0.373377358 17.9635325,0.217352201 C19.0432208,0.832955975 19.4347904,2.93872327 18.8570538,5.71151572 C18.4202449,7.80790566 17.3772468,10.2994654 15.9549685,12.7379748 C14.496757,15.2380755 12.8269536,17.4406981 11.1738033,18.8694465 C9.08188497,20.6774717 7.05951763,21.3317296 6.00044527,20.7278805 C4.97280891,20.1419057 4.57976994,18.2219245 5.0727718,15.6547296 C5.48932096,13.4856101 6.53467904,10.8231887 8.0476141,8.22927044 L8.0476141,8.22927044 Z" id="Shape" stroke="#4A4A4A" stroke-width="1.0584" sketch:type="MSShapeGroup"></path>
                <path d="M8.05139889,12.7444906 C6.54879406,10.1781761 5.52534323,7.58091195 5.09873098,5.42508805 C4.58471243,2.8276478 4.948141,0.841672956 5.98321336,0.249226415 C7.06183302,-0.36818239 9.10254545,0.348018868 11.2436215,2.22771698 C12.8624416,3.64884906 14.5247199,5.78657862 15.9511391,8.22275472 C17.4135807,10.720434 18.5096994,13.2508239 18.9360445,15.3804528 C19.475577,18.0753648 19.0388571,20.1344654 17.9808089,20.7400755 C16.9541521,21.3277233 15.0754731,20.7055597 13.0722078,19.0011258 C11.3796067,17.5610189 9.56874212,15.3358994 8.05139889,12.7444906 L8.05139889,12.7444906 Z" id="Shape" stroke="#4A4A4A" stroke-width="1.0584" sketch:type="MSShapeGroup"></path>
            </g>
        </g>
    </g>
</svg>