<?xml version="1.0" encoding="UTF-8" standalone="no"?>
<svg width="18px" height="18px" viewBox="0 0 18 18" version="1.1" xmlns="http://www.w3.org/2000/svg" xmlns:xlink="http://www.w3.org/1999/xlink" xmlns:sketch="http://www.bohemiancoding.com/sketch/ns">
    <!-- Generator: Sketch 3.5.2 (25235) - http://www.bohemiancoding.com/sketch -->
    <title>icn-dribbble</title>
    <desc>Created with Sketch.</desc>
    <defs></defs>
    <g id="assets" stroke="none" stroke-width="1" fill="none" fill-rule="evenodd" sketch:type="MSPage">
        <g id="guidelines-assets" sketch:type="MSArtboardGroup" transform="translate(-1083.000000, -164.000000)" fill="#4A4A4A">
            <path d="M1083,173 C1083,171.368 1083.402,169.862 1084.206,168.482 C1085.01,167.102 1086.102,166.01 1087.482,165.206 C1088.862,164.402 1090.368,164 1092,164 C1093.632,164 1095.138,164.402 1096.518,165.206 C1097.898,166.01 1098.99,167.102 1099.794,168.482 C1100.598,169.862 1101,171.368 1101,173 C1101,174.632 1100.598,176.138 1099.794,177.518 C1098.99,178.898 1097.898,179.99 1096.518,180.794 C1095.138,181.598 1093.632,182 1092,182 C1090.368,182 1088.862,181.598 1087.482,180.794 C1086.102,179.99 1085.01,178.898 1084.206,177.518 C1083.402,176.138 1083,174.632 1083,173 L1083,173 Z M1084.494,173 C1084.494,174.872 1085.124,176.522 1086.384,177.95 C1086.96,176.822 1087.872,175.748 1089.12,174.728 C1090.368,173.708 1091.586,173.066 1092.774,172.802 C1092.594,172.382 1092.42,172.004 1092.252,171.668 C1090.188,172.328 1087.956,172.658 1085.556,172.658 C1085.088,172.658 1084.74,172.652 1084.512,172.64 C1084.512,172.688 1084.509,172.748 1084.503,172.82 C1084.497,172.892 1084.494,172.952 1084.494,173 L1084.494,173 Z M1084.728,171.146 C1084.992,171.17 1085.382,171.182 1085.898,171.182 C1087.902,171.182 1089.804,170.912 1091.604,170.372 C1090.692,168.752 1089.69,167.402 1088.598,166.322 C1087.65,166.802 1086.837,167.468 1086.159,168.32 C1085.481,169.172 1085.004,170.114 1084.728,171.146 L1084.728,171.146 Z M1087.41,178.922 C1088.766,179.978 1090.296,180.506 1092,180.506 C1092.888,180.506 1093.77,180.338 1094.646,180.002 C1094.406,177.95 1093.938,175.964 1093.242,174.044 C1092.138,174.284 1091.025,174.89 1089.903,175.862 C1088.781,176.834 1087.95,177.854 1087.41,178.922 L1087.41,178.922 Z M1090.164,165.746 C1091.22,166.838 1092.198,168.2 1093.098,169.832 C1094.73,169.148 1095.96,168.278 1096.788,167.222 C1095.396,166.07 1093.8,165.494 1092,165.494 C1091.388,165.494 1090.776,165.578 1090.164,165.746 L1090.164,165.746 Z M1093.746,171.11 C1093.926,171.494 1094.13,171.98 1094.358,172.568 C1095.246,172.484 1096.212,172.442 1097.256,172.442 C1098,172.442 1098.738,172.46 1099.47,172.496 C1099.374,170.864 1098.786,169.412 1097.706,168.14 C1096.926,169.304 1095.606,170.294 1093.746,171.11 L1093.746,171.11 Z M1094.808,173.828 C1095.42,175.604 1095.834,177.428 1096.05,179.3 C1096.998,178.688 1097.772,177.902 1098.372,176.942 C1098.972,175.982 1099.332,174.944 1099.452,173.828 C1098.576,173.768 1097.778,173.738 1097.058,173.738 C1096.398,173.738 1095.648,173.768 1094.808,173.828 L1094.808,173.828 Z" id="icn-dribbble" sketch:type="MSShapeGroup"></path>
        </g>
    </g>
</svg>