<?xml version="1.0" encoding="UTF-8" standalone="no"?>
<svg width="50px" height="50px" viewBox="0 0 50 50" version="1.1" xmlns="http://www.w3.org/2000/svg" xmlns:xlink="http://www.w3.org/1999/xlink" xmlns:sketch="http://www.bohemiancoding.com/sketch/ns">
    <!-- Generator: Sketch 3.5.1 (25234) - http://www.bohemiancoding.com/sketch -->
    <title>icn-world</title>
    <desc>Created with Sketch.</desc>
    <defs></defs>
    <g id="website" stroke="none" stroke-width="1" fill="none" fill-rule="evenodd" sketch:type="MSPage">
        <g sketch:type="MSArtboardGroup" transform="translate(-528.000000, -7576.000000)" id="section" fill="#C9C9C9">
            <g sketch:type="MSLayerGroup" transform="translate(0.000000, 6206.000000)">
                <g id="divs" transform="translate(416.000000, 1182.000000)" sketch:type="MSShapeGroup">
                    <g id="row" transform="translate(0.000000, 188.000000)">
                        <g id="div">
                            <g id="icn-world" transform="translate(112.000000, 0.000000)">
                                <path d="M25,48 L25,48 C37.7025492,48 48,37.7025492 48,25 C48,12.2974508 37.7025492,2 25,2 C12.2974508,2 2,12.2974508 2,25 C2,37.7025492 12.2974508,48 25,48 L25,48 Z M25,50 L25,50 C11.1928813,50 0,38.8071187 0,25 C0,11.1928813 11.1928813,0 25,0 C38.8071187,0 50,11.1928813 50,25 C50,38.8071187 38.8071187,50 25,50 L25,50 Z" id="Shape"></path>
                                <path d="M24.5,1 L24.5,48 L25.5,48 L25.5,1 L24.5,1 L24.5,1 Z" id="Shape"></path>
                                <path d="M1,25.5 L49,25.5 L49,24.5 L1,24.5 L1,25.5 L1,25.5 Z" id="Shape"></path>
                                <path d="M7.6359,8.34268235 C7.69684567,8.40743712 7.81155804,8.52382302 7.97805573,8.68447078 C8.25245447,8.94922849 8.57462317,9.2434404 8.94259686,9.55973239 C9.99126782,10.4611181 11.1991369,11.3617222 12.5507468,12.2023577 C21.8399089,17.9797634 32.1613928,17.9797634 42.3433118,8.36350658 L41.6566882,7.63649342 C31.8386072,16.9091255 22.011943,16.9091255 13.0788828,11.3531979 C11.7730853,10.5410555 10.6059544,9.67082634 9.59444018,8.80137872 C9.24134906,8.49787905 8.93330942,8.21657012 8.67240723,7.96483477 C8.51772436,7.81558671 8.41426544,7.71061844 8.3641,7.65731765 L7.6359,8.34268235 L7.6359,8.34268235 Z" id="Shape"></path>
                                <path d="M42.3641,42.2128732 C42.3031543,42.1481184 42.188442,42.0317325 42.0219443,41.8710848 C41.7475455,41.6063271 41.4253768,41.3121152 41.0574031,40.9958232 C40.0087322,40.0944374 38.8008631,39.1938333 37.4492532,38.3531979 C28.1600911,32.5757922 17.8386072,32.5757922 7.65668823,42.192049 L8.34331177,42.9190621 C18.1613928,33.64643 27.988057,33.64643 36.9211172,39.2023577 C38.2269147,40.0145 39.3940456,40.8847292 40.4055598,41.7541768 C40.7586509,42.0576765 41.0666906,42.3389854 41.3275928,42.5907208 C41.4822756,42.7399689 41.5857346,42.8449371 41.6359,42.8982379 L42.3641,42.2128732 L42.3641,42.2128732 Z" id="Shape"></path>
                                <path d="M24.6464466,0.646446609 C24.5578697,0.735023478 24.3963929,0.903677018 24.1724239,1.14897643 C23.8018768,1.55481377 23.3897165,2.03038328 22.9463547,2.57226999 C21.6816882,4.11797348 20.4177248,5.8875222 19.2379202,7.85386323 C15.8614994,13.4812312 13.8333333,19.5657294 13.8333333,25.8888889 C13.8333333,34.0237533 17.2208485,41.9279553 24.6464466,49.3535534 L25.3535534,48.6464466 C18.1124849,41.4053781 14.8333333,33.7540245 14.8333333,25.8888889 C14.8333333,19.7676039 16.8051673,13.8521021 20.0954131,8.36835899 C21.2489418,6.44581114 22.4849785,4.71535985 23.720312,3.20550778 C24.1519501,2.67795005 24.5522899,2.21601957 24.9109094,1.82324579 C25.1244404,1.58937854 25.2754636,1.43164319 25.3535534,1.35355339 L24.6464466,0.646446609 L24.6464466,0.646446609 Z" id="Shape"></path>
                                <path d="M25.6868867,49.3535534 C25.7754636,49.2649765 25.9369404,49.096323 26.1609094,48.8510236 C26.5314565,48.4451862 26.9436168,47.9696167 27.3869786,47.42773 C28.6516451,45.8820265 29.9156085,44.1124778 31.0954131,42.1461368 C34.4718339,36.5187688 36.5,30.4342706 36.5,24.1111111 C36.5,15.9762467 33.1124849,8.07204474 25.6868867,0.646446609 L24.9797799,1.35355339 C32.2208485,8.59462193 35.5,16.2459755 35.5,24.1111111 C35.5,30.2323961 33.5281661,36.1478979 30.2379202,41.631641 C29.0843915,43.5541889 27.8483549,45.2846401 26.6130214,46.7944922 C26.1813832,47.3220499 25.7810435,47.7839804 25.4224239,48.1767542 C25.2088929,48.4106215 25.0578697,48.5683568 24.9797799,48.6464466 L25.6868867,49.3535534 L25.6868867,49.3535534 Z" id="Shape"></path>
                            </g>
                        </g>
                    </g>
                </g>
            </g>
        </g>
    </g>
</svg>