<?xml version="1.0" encoding="UTF-8" standalone="no"?>
<svg width="20px" height="19px" viewBox="0 0 20 19" version="1.1" xmlns="http://www.w3.org/2000/svg" xmlns:xlink="http://www.w3.org/1999/xlink" xmlns:sketch="http://www.bohemiancoding.com/sketch/ns">
    <!-- Generator: Sketch 3.5.1 (25234) - http://www.bohemiancoding.com/sketch -->
    <title>icn-cordova</title>
    <desc>Created with Sketch.</desc>
    <defs></defs>
    <g id="2016-website" stroke="none" stroke-width="1" fill="none" fill-rule="evenodd" sketch:type="MSPage">
        <g id="guidelines-assets" sketch:type="MSArtboardGroup" transform="translate(-874.000000, -164.000000)" fill="#4A4A4A" opacity="0.7">
            <path d="M878.550142,164 L874,171.230626 L875.861865,183 L879.062713,183 L878.801215,180.266309 L880.443503,180.266309 L880.652656,183 L887.357767,183 L887.566921,180.266309 L889.198784,180.266309 L888.937287,183 L892.158983,183 L894,171.230626 L889.449747,164 L878.550142,164 L878.550142,164 Z M879.470707,167.599605 L882.368137,167.599605 L882.211327,168.955997 L885.809632,168.955997 L885.621328,167.599605 L888.571102,167.599605 L890.370311,171.230626 L889.481131,178.492556 L878.550142,178.492556 L877.62969,171.230626 L879.470707,167.599605 Z M886.962477,176.065778 C887.209619,176.065778 887.409967,175.318073 887.409967,174.395733 C887.409967,173.473392 887.209619,172.725687 886.962477,172.725687 C886.715335,172.725687 886.514987,173.473392 886.514987,174.395733 C886.514987,175.318073 886.715335,176.065778 886.962477,176.065778 Z M881.222767,176.19858 C881.469909,176.19858 881.670257,175.450875 881.670257,174.528534 C881.670257,173.606193 881.469909,172.858488 881.222767,172.858488 C880.975625,172.858488 880.775277,173.606193 880.775277,174.528534 C880.775277,175.450875 880.975625,176.19858 881.222767,176.19858 Z" id="icn-cordova" sketch:type="MSShapeGroup"></path>
        </g>
    </g>
</svg>