<?xml version="1.0" encoding="UTF-8" standalone="no"?>
<svg width="34px" height="50px" viewBox="0 0 34 50" version="1.1" xmlns="http://www.w3.org/2000/svg" xmlns:xlink="http://www.w3.org/1999/xlink" xmlns:sketch="http://www.bohemiancoding.com/sketch/ns">
    <!-- Generator: Sketch 3.5.1 (25234) - http://www.bohemiancoding.com/sketch -->
    <title>icn-bulb</title>
    <desc>Created with Sketch.</desc>
    <defs></defs>
    <g id="website" stroke="none" stroke-width="1" fill="none" fill-rule="evenodd" sketch:type="MSPage">
        <g sketch:type="MSArtboardGroup" transform="translate(-870.000000, -7576.000000)" id="section" fill="#C9C9C9">
            <g sketch:type="MSLayerGroup" transform="translate(0.000000, 6206.000000)">
                <g id="divs" transform="translate(416.000000, 1182.000000)" sketch:type="MSShapeGroup">
                    <g id="row" transform="translate(0.000000, 188.000000)">
                        <g id="div" transform="translate(334.000000, 0.000000)">
                            <g id="icn-bulb" transform="translate(120.000000, 0.000000)">
                                <rect id="Rectangle-path" x="8.75794118" y="37.3038462" width="15.5617647" height="1"></rect>
                                <rect id="Rectangle-path" x="8.50817647" y="34.4166667" width="16.1169412" height="1"></rect>
                                <rect id="Rectangle-path" x="10.2134706" y="42.7032051" width="12.7865294" height="1"></rect>
                                <rect id="Rectangle-path" x="9.48005882" y="40.0480769" width="14.1744706" height="1"></rect>
                                <path d="M14.2650588,24.8833333 C13.7985294,24.8833333 13.3125882,24.6884615 12.9314706,24.349359 C12.5755882,24.0320513 12.3400588,23.6205128 12.2682353,23.1897436 C12.1925294,22.7326923 12.3070588,22.3083333 12.5911176,21.9961538 C13.1391765,21.3923077 14.2624706,21.4352564 14.9897647,22.0839744 C15.7448824,22.7570513 15.8969412,23.8128205 15.3301176,24.4378205 C15.0687059,24.725 14.6901765,24.8833333 14.2650588,24.8833333 L14.2650588,24.8833333 Z M13.6561765,22.1903846 C13.4167647,22.1903846 13.2090588,22.2737179 13.0718824,22.424359 C12.9224118,22.5891026 12.8635294,22.824359 12.9068824,23.0852564 C12.9547647,23.3730769 13.1171765,23.6525641 13.3643529,23.8730769 C13.8328235,24.2903846 14.5355294,24.3544872 14.8487059,24.0089744 C15.1774118,23.6474359 15.0460588,22.9967949 14.5562353,22.5602564 C14.2935294,22.325 13.9654706,22.1903846 13.6561765,22.1903846 L13.6561765,22.1903846 Z" id="Shape"></path>
                                <path d="M19.2318824,24.8833333 L19.2318824,24.8833333 C18.8061176,24.8833333 18.4282353,24.725 18.1668235,24.4371795 C17.6,23.8121795 17.7520588,22.7564103 18.5065294,22.0833333 C19.2351176,21.4339744 20.3558235,21.3916667 20.9051765,21.9955128 C21.1892353,22.3083333 21.3037647,22.7320513 21.2280588,23.1891026 C21.1568824,23.6198718 20.9207059,24.0314103 20.5648235,24.3487179 C20.1837059,24.6884615 19.6977647,24.8833333 19.2318824,24.8833333 L19.2318824,24.8833333 Z M19.8401176,22.1903846 C19.5308235,22.1903846 19.2034118,22.325 18.9387647,22.5602564 C18.4495882,22.9967949 18.3188824,23.6467949 18.6475882,24.0089744 C18.9594706,24.3544872 19.6641176,24.2903846 20.1312941,23.8730769 C20.3791176,23.6525641 20.5415294,23.3730769 20.5894118,23.0852564 C20.6321176,22.824359 20.5745294,22.5897436 20.4237647,22.424359 C20.2872353,22.2737179 20.0795294,22.1903846 19.8401176,22.1903846 L19.8401176,22.1903846 Z" id="Shape"></path>
                                <path d="M16.8008824,24.8141026 L16.8008824,24.8141026 L16.7381176,24.8128205 C16.3602353,24.7961538 16.0056471,24.6262821 15.7403529,24.3346154 C15.4317059,23.9948718 15.2718824,23.5192308 15.3022941,23.0294872 C15.3585882,22.1115385 16.0502941,21.3923077 16.8759412,21.3923077 C17.3172353,21.4102564 17.6711765,21.5801282 17.9358235,21.8724359 C18.2444706,22.2121795 18.4042941,22.6871795 18.3738824,23.1769231 C18.3175882,24.0942308 17.6265294,24.8141026 16.8008824,24.8141026 L16.8008824,24.8141026 Z M16.9089412,22.0339744 C16.3997059,22.0339744 15.9842941,22.4980769 15.9493529,23.0692308 C15.9299412,23.3884615 16.0295882,23.6929487 16.2224118,23.9057692 C16.3272353,24.0211538 16.5064706,24.1608974 16.7672353,24.1724359 L16.8008824,24.4935897 L16.8008824,24.1730769 C17.2771176,24.1730769 17.6931765,23.7083333 17.7287647,23.1371795 C17.7481765,22.8179487 17.6491765,22.5134615 17.4557059,22.300641 C17.3508824,22.1852564 17.1716471,22.0455128 16.9102353,22.0339744 L16.9089412,22.0339744 L16.9089412,22.0339744 Z" id="Shape"></path>
                                <rect id="Rectangle-path" x="15.0234118" y="23.7314103" width="1" height="10.7371795"></rect>
                                <rect id="Rectangle-path" x="17.5299988" y="24.8833333" width="1" height="9.58525641"></rect>
                                <rect id="Rectangle-path" x="14.1802941" y="24.2423077" width="5.14670588" height="0.641025641"></rect>
                                <path d="M16.7539746,47.2500076 C11.9795295,47.2500076 10.0936697,44.8920385 10.0161326,44.7916029 C8.75122665,43.161306 7.72156034,40.1657327 7.72156034,38.1136063 L7.72156034,34.1933773 C7.72156034,32.4438537 6.65969642,29.9219477 5.40267558,28.6875616 C5.20948994,28.4970579 0.652542998,23.9657916 0.130810356,18.6478876 C0.0769286473,18.0971117 0.049987793,17.539208 0.049987793,16.9871361 C0.049987793,7.79630511 7.46069402,0.320007324 16.5706453,0.320007324 C25.6805967,0.320007324 33.0899887,7.79760105 33.0899887,16.9877841 C33.0899887,22.9970739 27.9114308,28.3862547 27.6913043,28.6123968 C26.458596,29.8772377 25.4177591,32.4283023 25.4177591,34.1823618 L25.4177591,38.1136063 C25.4177591,40.1560132 24.4584018,43.184633 23.2789181,44.8641757 C23.2105803,44.9620195 21.5481325,47.2500076 16.7539746,47.2500076 L16.7539746,47.2500076 Z M16.5672941,1.86858974 C8.31923529,1.86858974 1.60858824,8.68333333 1.60858824,17.0602564 C1.60858824,17.5647436 1.63382353,18.075 1.68235294,18.5782051 C2.15147059,23.3788462 6.45117647,27.6730769 6.49517647,27.7160256 C7.99117647,29.1929487 9.16364706,31.9891026 9.16364706,34.0820513 L9.16364706,37.9602564 C9.16364706,39.7179487 10.0753529,42.3814103 11.154,43.7775641 C11.2135294,43.8519231 12.7386471,45.7012821 16.7491176,45.7012821 C20.7285294,45.7012821 22.0478824,43.9673077 22.1022353,43.8935897 C23.1129412,42.4474359 23.9715882,39.7275641 23.9715882,37.9602564 L23.9715882,34.0711538 C23.9715882,31.9833333 25.1149412,29.1685897 26.5747059,27.6621795 C26.6232353,27.6115385 31.526,22.4788462 31.526,17.0608974 C31.526,8.68333333 24.8153529,1.86858974 16.5672941,1.86858974 L16.5672941,1.86858974 Z" id="Shape"></path>
                                <path d="M12.75,46 C12.75,46.4556047 12.8752912,47.0999595 13.2556105,47.7519355 C13.892304,48.84341 15.0413365,49.5 16.75,49.5 C18.4586635,49.5 19.607696,48.84341 20.2443895,47.7519355 C20.6247088,47.0999595 20.75,46.4556047 20.75,46 L19.75,46 C19.75,46.0635415 19.7389461,46.1961887 19.7045048,46.3733152 C19.6462263,46.6730334 19.5414976,46.972258 19.3806105,47.2480645 C18.923554,48.03159 18.1038365,48.5 16.75,48.5 C15.3961635,48.5 14.576446,48.03159 14.1193895,47.2480645 C13.9585024,46.972258 13.8537737,46.6730334 13.7954952,46.3733152 C13.7610539,46.1961887 13.75,46.0635415 13.75,46 L12.75,46 L12.75,46 Z" id="Shape"></path>
                                <path d="M5.44141176,15.8583333 L4.79435294,15.8583333 C4.79435294,9.93782051 9.65635294,5.12115385 15.6325882,5.12115385 L15.6325882,5.76217949 C10.0135294,5.76217949 5.44141176,10.2916667 5.44141176,15.8583333 L5.44141176,15.8583333 Z" id="Shape" stroke="#C9C9C9" stroke-width="0.5"></path>
                            </g>
                        </g>
                    </g>
                </g>
            </g>
        </g>
    </g>
</svg>