<?xml version="1.0" encoding="UTF-8" standalone="no"?>
<svg width="20px" height="18px" viewBox="0 0 20 18" version="1.1" xmlns="http://www.w3.org/2000/svg" xmlns:xlink="http://www.w3.org/1999/xlink" xmlns:sketch="http://www.bohemiancoding.com/sketch/ns">
    <!-- Generator: Sketch 3.5.1 (25234) - http://www.bohemiancoding.com/sketch -->
    <title>icn-sketch</title>
    <desc>Created with Sketch.</desc>
    <defs></defs>
    <g id="2016-website" stroke="none" stroke-width="1" fill="none" fill-rule="evenodd" sketch:type="MSPage">
        <g id="guidelines-assets" sketch:type="MSArtboardGroup" transform="translate(-780.000000, -122.000000)" fill="#4A4A4A" opacity="0.7">
            <path d="M797.166138,123.489867 L793.672094,122 L786.327906,122 L782.833862,123.489867 L780,126.707929 L790.000528,140 L800,126.707929 L797.166138,123.489867 Z M798.797677,126.842446 L796.157909,128.869292 L794.057013,125.83065 L797.012844,124.431479 L798.797677,126.842446 Z M794.880656,129.470636 L785.119344,129.470636 L787.119496,125.944554 L792.880537,125.944554 L794.880656,129.470636 Z M792.872475,122.658943 L795.573285,123.814356 L792.861425,125.082856 L787.138575,125.082856 L784.426715,123.814356 L787.097491,122.658165 L792.872475,122.658943 Z M782.954147,124.431479 L785.909978,125.83065 L783.809082,128.869292 L781.169346,126.842446 L782.954147,124.431479 Z M782.243297,128.835466 L783.934715,130.15275 L787.976742,136.693641 L782.243297,128.835466 Z M785.354204,130.544956 L794.645829,130.544956 L790.000528,138.764175 L785.354204,130.544956 Z M791.990249,136.693641 L796.032276,130.15275 L797.723694,128.835466 L791.990249,136.693641 Z" id="icn-sketch" sketch:type="MSShapeGroup"></path>
        </g>
    </g>
</svg>