<?xml version="1.0" encoding="UTF-8" standalone="no"?>
<svg width="16px" height="16px" viewBox="0 0 16 16" version="1.1" xmlns="http://www.w3.org/2000/svg" xmlns:xlink="http://www.w3.org/1999/xlink" xmlns:sketch="http://www.bohemiancoding.com/sketch/ns">
    <!-- Generator: Sketch 3.5.2 (25235) - http://www.bohemiancoding.com/sketch -->
    <title>icn-linkedin</title>
    <desc>Created with Sketch.</desc>
    <defs></defs>
    <g id="assets" stroke="none" stroke-width="1" fill="none" fill-rule="evenodd" sketch:type="MSPage">
        <g id="guidelines-assets" sketch:type="MSArtboardGroup" transform="translate(-1118.000000, -165.000000)" fill="#4A4A4A">
            <path d="M1118,179.708792 C1118,180.335437 1118.52088,180.843739 1119.16344,180.843739 L1132.58041,180.843739 C1133.22296,180.843739 1133.74386,180.335437 1133.74386,179.708792 L1133.74386,166.134947 C1133.74386,165.50809 1133.22296,165 1132.58041,165 L1119.16344,165 C1118.52088,165 1118,165.50809 1118,166.134947 L1118,179.708792 L1118,179.708792 Z M1122.77245,167.580887 L1122.77245,174.735223 L1120.39448,174.735223 L1120.39448,167.580887 L1122.77245,167.580887 L1122.77245,167.580887 Z M1121.58346,175.712026 C1122.4127,175.712026 1122.92884,176.261399 1122.92884,176.947956 C1122.91338,177.649968 1122.4127,178.184098 1121.59919,178.184098 C1120.78575,178.184098 1120.25391,177.649968 1120.25391,176.947956 C1120.25391,176.261399 1120.76994,175.712026 1121.56796,175.712026 L1121.58341,175.712026 L1121.58346,175.712026 Z M1124.08826,167.580887 L1126.4662,167.580887 L1126.4662,171.576171 C1126.4662,171.789992 1126.48166,172.003602 1126.54445,172.156453 C1126.71635,172.583672 1127.10763,173.026134 1127.76454,173.026134 C1128.62502,173.026134 1128.96923,172.370062 1128.96923,171.40829 L1128.96923,167.580887 L1131.34698,167.580887 L1131.34698,171.683082 C1131.34698,173.880572 1130.17382,174.903104 1128.60931,174.903104 C1127.32646,174.903104 1126.76329,174.186062 1126.45039,173.69766 L1126.46627,173.69766 L1126.46627,174.735223 L1124.08832,174.735223 C1124.11952,174.063908 1124.08832,167.580887 1124.08832,167.580887 L1124.08826,167.580887 Z" id="icn-linkedin" sketch:type="MSShapeGroup" transform="translate(1125.871928, 172.921869) scale(1, -1) translate(-1125.871928, -172.921869) "></path>
        </g>
    </g>
</svg>