<?xml version="1.0" encoding="UTF-8" standalone="no"?>
<svg width="18px" height="14px" viewBox="0 0 18 14" version="1.1" xmlns="http://www.w3.org/2000/svg" xmlns:xlink="http://www.w3.org/1999/xlink" xmlns:sketch="http://www.bohemiancoding.com/sketch/ns">
    <!-- Generator: Sketch 3.5.2 (25235) - http://www.bohemiancoding.com/sketch -->
    <title>icn-twitter</title>
    <desc>Created with Sketch.</desc>
    <defs></defs>
    <g id="assets" stroke="none" stroke-width="1" fill="none" fill-rule="evenodd" sketch:type="MSPage">
        <g id="guidelines-assets" sketch:type="MSArtboardGroup" transform="translate(-1046.000000, -166.000000)" fill="#4A4A4A">
            <path d="M1064,178.34298 C1063.33807,178.061824 1062.62623,177.871799 1061.87936,177.786188 C1062.64163,178.223796 1063.22693,178.916396 1063.50266,179.741516 C1062.78924,179.336335 1061.99919,179.042437 1061.15764,178.88402 C1060.48439,179.570748 1059.5246,180 1058.4625,180 C1056.42298,180 1054.76992,178.417715 1054.76992,176.46579 C1054.76992,176.188679 1054.80227,175.918852 1054.86549,175.660343 C1051.79639,175.807544 1049.07543,177.215028 1047.25409,179.353097 C1046.93622,178.83134 1046.75413,178.2243 1046.75413,177.576477 C1046.75413,176.350121 1047.40578,175.268521 1048.39692,174.634473 C1047.79162,174.652583 1047.22214,174.811644 1046.72424,175.076555 C1046.72368,175.061684 1046.72368,175.046964 1046.72368,175.032193 C1046.72368,173.319469 1047.99672,171.891317 1049.68586,171.566416 C1049.37626,171.485632 1049.05011,171.442908 1048.7133,171.442908 C1048.47511,171.442908 1048.24417,171.464472 1048.0183,171.505922 C1048.48853,170.101842 1049.85202,169.079879 1051.46821,169.05127 C1050.20336,168.10316 1048.61137,167.538427 1046.88115,167.538427 C1046.58328,167.538427 1046.28912,167.555214 1046,167.587704 C1047.63489,166.584922 1049.57566,166 1051.66127,166 C1058.45338,166 1062.16716,171.385313 1062.16716,176.056173 C1062.16716,176.209335 1062.16348,176.361451 1062.15676,176.513025 C1062.87795,177.011731 1063.50394,177.634046 1063.9993,178.342955" id="icn-twitter" sketch:type="MSShapeGroup" transform="translate(1055.000000, 173.000000) scale(-1, 1) rotate(-180.000000) translate(-1055.000000, -173.000000) "></path>
        </g>
    </g>
</svg>