<?xml version="1.0" encoding="UTF-8" standalone="no"?>
<svg width="17px" height="17px" viewBox="0 0 17 17" version="1.1" xmlns="http://www.w3.org/2000/svg" xmlns:xlink="http://www.w3.org/1999/xlink" xmlns:sketch="http://www.bohemiancoding.com/sketch/ns">
    <!-- Generator: Sketch 3.5.1 (25234) - http://www.bohemiancoding.com/sketch -->
    <title>icn-invision</title>
    <desc>Created with Sketch.</desc>
    <defs></defs>
    <g id="2016-website" stroke="none" stroke-width="1" fill="none" fill-rule="evenodd" sketch:type="MSPage">
        <g id="guidelines-assets" sketch:type="MSArtboardGroup" transform="translate(-736.000000, -121.000000)" fill="#4A4A4A" opacity="0.7">
            <path d="M751.458924,121 L737.541076,121 C736.689981,121 736,121.689981 736,122.541076 L736,136.458924 C736,137.310019 736.689981,138 737.541076,138 L751.458924,138 C752.310019,138 753,137.310019 753,136.458924 L753,122.541076 C753,121.689981 752.310019,121 751.458924,121 Z M741.681413,126.348689 C742.246534,126.348689 742.719894,125.905723 742.719894,125.325212 C742.719894,124.745087 742.246534,124.30225 741.681413,124.30225 C741.116292,124.30225 740.642996,124.745087 740.642996,125.325212 C740.642996,125.905723 741.116292,126.348689 741.681413,126.348689 Z M739.52808,131.828549 C739.467098,132.088186 739.436447,132.368557 739.436447,132.597284 C739.436447,133.498477 739.925133,134.096761 740.963678,134.096761 C741.825011,134.096761 742.523235,133.585216 743.025958,132.759364 L742.718992,133.991413 L744.429295,133.991413 L745.406795,130.070852 C745.651106,129.078155 746.12453,128.562939 746.842394,128.562939 C747.407451,128.562939 747.75872,128.914337 747.75872,129.494462 C747.75872,129.662595 747.743394,129.845667 747.682348,130.044258 L747.178273,131.846322 C747.101902,132.105958 747.071508,132.365788 747.071508,132.609905 C747.071508,133.465443 747.575326,134.091223 748.629133,134.091223 C749.530197,134.091223 750.247932,133.511163 750.645049,132.121348 L749.973163,131.861905 C749.637091,132.793042 749.346932,132.961367 749.117883,132.961367 C748.888769,132.961367 748.766549,132.808754 748.766549,132.503462 C748.766549,132.366045 748.797201,132.213496 748.84292,132.029845 L749.331735,130.274144 C749.453826,129.861894 749.499739,129.49633 749.499739,129.160451 C749.499739,127.847072 748.705504,127.161663 747.743394,127.161663 C746.842394,127.161663 745.926004,127.974379 745.46797,128.829723 L745.803848,127.294443 L743.192417,127.294443 L742.825822,128.646716 L744.047633,128.646716 L743.295318,131.658936 C742.704439,132.972314 741.619144,132.993629 741.482951,132.963106 C741.259311,132.912686 741.116292,132.82775 741.116292,132.53714 C741.116292,132.369458 741.146814,132.128625 741.223186,131.838208 L742.368689,127.294443 L739.467098,127.294443 L739.100504,128.646716 L740.306924,128.646716 L739.52808,131.828549 Z" id="icn-invision" sketch:type="MSShapeGroup"></path>
        </g>
    </g>
</svg>