<?xml version="1.0" encoding="utf-8"?>
<!-- Generator: Adobe Illustrator 19.1.0, SVG Export Plug-In . SVG Version: 6.00 Build 0)  -->
<svg version="1.1" id="Layer_1" xmlns:sketch="http://www.bohemiancoding.com/sketch/ns"
	 xmlns="http://www.w3.org/2000/svg" xmlns:xlink="http://www.w3.org/1999/xlink" x="0px" y="0px" viewBox="126 203 863 387"
	 style="enable-background:new 126 203 863 387;" xml:space="preserve">
<style type="text/css">
	.st0{opacity:4.415812e-02;}
	.st1{fill:#FFFFFF;}
	.st2{fill:none;stroke:#FFFFFF;stroke-width:2;}
	.st3{opacity:1.000000e-02;fill:#FFFFFF;enable-background:new    ;}
	.st4{fill:none;stroke:#FFFFFF;stroke-width:2;stroke-dasharray:2;}
	.st5{fill:#9A4C84;}
	.st6{fill:none;stroke:#9A4C84;stroke-width:2;stroke-linecap:round;stroke-linejoin:round;}
	.st7{fill:none;stroke:#FFFFFF;stroke-width:2;stroke-linecap:square;}
	.st8{fill:#D1697E;}
	.st9{fill:none;stroke:#D1697E;stroke-linejoin:round;}
	.st10{fill:#FFFFFF;fill-opacity:0;}
	.st11{fill:#E9897C;}
	.st12{fill:none;stroke:#E9897C;stroke-width:2;}
</style>
<title>img-graph</title>
<desc>Created with Sketch.</desc>
<g id="imgs" transform="translate(-133.000000, -2265.000000)" sketch:type="MSArtboardGroup">
	<g id="graphs" transform="translate(0.000000, 1417.000000)" sketch:type="MSLayerGroup">
		<g id="img-graph" transform="translate(133.000000, 848.000000)">
			<g id="step">
				<g id="bg" transform="translate(12.000000, 53.000000)" sketch:type="MSShapeGroup" class="st0">
					<circle id="Oval-20" class="st1" cx="265.5" cy="342.5" r="139.5"/>
				</g>
				<path id="Oval-20_1_" sketch:type="MSShapeGroup" class="st2" d="M418.7,345.8C398.4,287.1,342.6,245,277,245
					c-65.6,0-121.4,42.2-141.8,100.9c-5.3,15.4-8.2,31.9-8.2,49.1c0,17.1,2.9,33.6,8.2,49l0,0c20.3,58.8,76.1,101,141.8,101
					c65.7,0,121.6-42.3,141.8-101.1"/>
				<rect id="Rectangle-5" x="126" y="378" sketch:type="MSShapeGroup" class="st3" width="0.5" height="35">
				</rect>
				<path id="Oval-20_2_" sketch:type="MSShapeGroup" class="st4" d="M417,449c0.6-1.7,1.3-3.4,1.8-5.1c5.3-15.3,8.2-31.8,8.2-48.9
					c0-17.2-2.9-33.8-8.3-49.2c-0.7-2.1-1.5-4.1-2.3-6.2"/>
				<g id="icn" transform="translate(114.000000, 148.000000)" sketch:type="MSShapeGroup">
					<path id="Rectangle-120" class="st1" d="M164,203L164,203c21,0,38,17,38,38l0,0c0,21-17,38-38,38l0,0c-21,0-38-17-38-38l0,0
						C126,220,143,203,164,203z"/>
					<g id="icn-develop" transform="translate(19.000000, 23.000000)">
						<circle id="Oval-32" class="st5" cx="158" cy="228" r="1"/>
						<path id="Shape" class="st5" d="M161,208L161,208v-2c0-1.3-0.6-2.2-1.6-2.6c-0.5-0.3-1.1-0.4-1.4-0.4h-26
							c-0.4,0-0.9,0.1-1.4,0.4c-1,0.5-1.6,1.4-1.6,2.6c0,1,0,1,0,3c0,2.3,0,2.3,0,4.9c0,2.3,0,2.3,0,4.4c0,2.9,0,2.9,0,3.7l0,0
							c0,0.4,0.1,0.9,0.4,1.4c0.5,1,1.4,1.6,2.6,1.6h16c0.6,0,1-0.4,1-1s-0.4-1-1-1h-16c-0.5,0-0.7-0.1-0.9-0.4
							c-0.1-0.2-0.1-0.4-0.1-0.6l0,0c0-0.8,0-0.8,0-3.7c0-2.1,0-2.1,0-4.4c0-2.6,0-2.6,0-4.9c0-2,0-2,0-3c0-0.5,0.1-0.7,0.4-0.9
							c0.2-0.1,0.4-0.1,0.6-0.1h26c0.1,0,0.3,0,0.6,0.1c0.3,0.1,0.4,0.4,0.4,0.9v1.9v0.1c0,0.6,0.4,1,1,1S161,208.6,161,208L161,208
							z"/>
						<path id="Shape_1_" class="st5" d="M154,211c-0.4,0-0.9,0.1-1.4,0.4c-1,0.5-1.6,1.4-1.6,2.6v16c0,0.4,0.1,0.9,0.4,1.4
							c0.5,1,1.4,1.6,2.6,1.6h8c0.4,0,0.9-0.1,1.4-0.4c1-0.5,1.6-1.4,1.6-2.6v-16c0-0.4-0.1-0.9-0.4-1.4c-0.5-1-1.4-1.6-2.6-1.6H154
							L154,211z M154,213h8c0.5,0,0.7,0.1,0.9,0.4c0.1,0.2,0.1,0.4,0.1,0.6v16c0,0.5-0.1,0.7-0.4,0.9c-0.2,0.1-0.4,0.1-0.6,0.1h-8
							c-0.5,0-0.7-0.1-0.9-0.4c-0.1-0.2-0.1-0.4-0.1-0.6v-16c0-0.5,0.1-0.7,0.4-0.9C153.7,213,153.9,213,154,213L154,213z"/>
						<path id="Shape_2_" class="st5" d="M156,216h4v-1h-4V216L156,216z"/>
						<path id="Path-133" class="st6" d="M148,228h-22v3c0,0,0,1,3,1h19"/>
						<path id="Shape_3_" class="st5" d="M134,210h4v-1h-4V210L134,210z"/>
						<path id="Shape_4_" class="st5" d="M134,214h4v-1h-4V214L134,214z"/>
						<path id="Shape_5_" class="st5" d="M142,212v-1h-8v1H142z"/>
						<path id="Shape_6_" class="st5" d="M142,216v-1h-8v1H142z"/>
						<path id="Shape_7_" class="st5" d="M142,218v-1h-8v1H142z"/>
					</g>
				</g>
				<g id="labels" transform="translate(117.000000, 112.000000)" sketch:type="MSShapeGroup">
					<path id="Build" class="st1" d="M128.6,205.2h6.5c3,0,5.2,0.5,6.6,1.4s2,2.3,2,4.3c0,1.4-0.4,2.5-1.1,3.4s-1.9,1.5-3.3,1.7v0.2
						c3.5,0.6,5.2,2.4,5.2,5.5c0,2-0.7,3.6-2.1,4.8s-3.3,1.7-5.8,1.7h-8V205.2z M131.2,214.9h4.4c1.9,0,3.2-0.3,4-0.9s1.2-1.6,1.2-3
						c0-1.3-0.5-2.2-1.4-2.8s-2.4-0.9-4.4-0.9h-3.9V214.9z M131.2,217.2v8.5h4.8c1.8,0,3.2-0.4,4.2-1.1s1.4-1.8,1.4-3.4
						c0-1.4-0.5-2.5-1.4-3.1s-2.4-1-4.4-1H131.2z M150.3,210.9V222c0,1.4,0.3,2.4,1,3.1s1.6,1,3,1c1.8,0,3.1-0.5,3.9-1.5
						s1.2-2.6,1.2-4.8v-9h2.6V228h-2.1l-0.4-2.3h-0.1c-0.5,0.8-1.3,1.5-2.2,1.9s-2,0.7-3.2,0.7c-2.1,0-3.6-0.5-4.7-1.5
						s-1.6-2.6-1.6-4.8v-11.2H150.3z M169.1,228h-2.6v-17.1h2.6V228z M166.3,206.2c0-0.6,0.1-1,0.4-1.3s0.7-0.4,1.1-0.4
						c0.4,0,0.8,0.1,1.1,0.4s0.5,0.7,0.5,1.3s-0.2,1-0.5,1.3s-0.7,0.4-1.1,0.4c-0.4,0-0.8-0.1-1.1-0.4S166.3,206.8,166.3,206.2
						L166.3,206.2z M176.2,228h-2.6v-24.3h2.6V228z M192.4,225.7h-0.1c-1.2,1.7-3,2.6-5.4,2.6c-2.2,0-4-0.8-5.2-2.3
						s-1.9-3.7-1.9-6.5s0.6-5,1.9-6.6s3-2.3,5.2-2.3c2.3,0,4.1,0.8,5.3,2.5h0.2l-0.1-1.2l-0.1-1.2v-7h2.6V228h-2.1L192.4,225.7z
						 M187.2,226.1c1.8,0,3.1-0.5,3.9-1.4s1.2-2.5,1.2-4.7v-0.5c0-2.4-0.4-4.2-1.2-5.2s-2.1-1.6-3.9-1.6c-1.5,0-2.7,0.6-3.5,1.8
						s-1.2,2.9-1.2,5c0,2.2,0.4,3.8,1.2,5S185.6,226.1,187.2,226.1L187.2,226.1z"/>
					<path id="UX-study" class="st1" d="M142,325.7v6c0,1.1-0.3,1.9-1,2.5s-1.5,0.9-2.6,0.9s-2-0.3-2.6-0.9s-0.9-1.4-0.9-2.5v-6h1.1
						v6.1c0,0.8,0.2,1.4,0.6,1.8s1,0.6,1.9,0.6c0.8,0,1.4-0.2,1.8-0.6s0.6-1,0.6-1.8v-6H142z M150.6,335h-1.2l-2.5-4.1l-2.5,4.1
						h-1.1l3.1-4.8l-2.9-4.4h1.2l2.3,3.7l2.3-3.7h1.1l-2.9,4.4L150.6,335z M159.6,333.1c0,0.6-0.2,1.1-0.7,1.5s-1.2,0.5-2,0.5
						c-0.9,0-1.6-0.1-2.2-0.4v-1c0.3,0.2,0.7,0.3,1.1,0.4s0.8,0.1,1.1,0.1c0.6,0,1-0.1,1.3-0.3c0.3-0.2,0.4-0.4,0.4-0.8
						c0-0.3-0.1-0.5-0.4-0.7s-0.7-0.4-1.4-0.7c-0.6-0.2-1.1-0.5-1.4-0.6s-0.5-0.4-0.6-0.6s-0.2-0.5-0.2-0.8c0-0.6,0.2-1,0.7-1.3
						s1.1-0.5,1.9-0.5c0.7,0,1.5,0.2,2.2,0.5l-0.4,0.9c-0.7-0.3-1.3-0.4-1.9-0.4c-0.5,0-0.9,0.1-1.1,0.2s-0.4,0.4-0.4,0.6
						c0,0.2,0,0.3,0.1,0.5s0.2,0.3,0.5,0.4s0.6,0.3,1.2,0.5c0.8,0.3,1.4,0.6,1.7,0.9S159.6,332.6,159.6,333.1L159.6,333.1z
						 M163.6,334.3c0.2,0,0.4,0,0.5,0s0.3-0.1,0.4-0.1v0.8c-0.1,0.1-0.3,0.1-0.5,0.1s-0.4,0.1-0.6,0.1c-1.3,0-2-0.7-2-2.1v-4.1h-1
						v-0.5l1-0.4l0.4-1.5h0.6v1.6h2v0.8h-2v4.1c0,0.4,0.1,0.7,0.3,1S163.2,334.3,163.6,334.3L163.6,334.3z M166.9,328v4.5
						c0,0.6,0.1,1,0.4,1.3s0.7,0.4,1.2,0.4c0.7,0,1.3-0.2,1.6-0.6s0.5-1,0.5-1.9V328h1.1v7h-0.9l-0.2-0.9h-0.1
						c-0.2,0.3-0.5,0.6-0.9,0.8s-0.8,0.3-1.3,0.3c-0.8,0-1.5-0.2-1.9-0.6s-0.6-1-0.6-1.9V328H166.9z M178.7,334.1L178.7,334.1
						c-0.5,0.7-1.3,1.1-2.2,1.1c-0.9,0-1.6-0.3-2.1-0.9s-0.8-1.5-0.8-2.7s0.3-2,0.8-2.7s1.2-1,2.1-1c0.9,0,1.7,0.3,2.2,1h0.1l0-0.5
						l0-0.5v-2.8h1.1v9.9h-0.9L178.7,334.1z M176.5,334.2c0.7,0,1.2-0.2,1.6-0.6s0.5-1,0.5-1.9v-0.2c0-1-0.2-1.7-0.5-2.1
						s-0.9-0.6-1.6-0.6c-0.6,0-1.1,0.2-1.4,0.7s-0.5,1.2-0.5,2c0,0.9,0.2,1.6,0.5,2S175.9,334.2,176.5,334.2L176.5,334.2z
						 M180.8,328h1.1l1.5,4c0.3,0.9,0.5,1.6,0.6,2h0.1c0.1-0.2,0.2-0.6,0.3-1.1s0.8-2.1,1.7-4.8h1.1l-3,7.9c-0.3,0.8-0.6,1.3-1,1.7
						s-0.9,0.5-1.5,0.5c-0.3,0-0.6,0-1-0.1v-0.8c0.2,0.1,0.5,0.1,0.8,0.1c0.7,0,1.2-0.4,1.5-1.2l0.4-1L180.8,328z M132.2,346.4
						c0,0.9-0.3,1.7-1,2.2c-0.6,0.5-1.6,0.8-2.8,0.8h-1.1v3.6h-1.1v-9.3h2.4C131,343.7,132.2,344.6,132.2,346.4L132.2,346.4z
						 M127.4,348.4h1c1,0,1.6-0.2,2.1-0.5s0.6-0.8,0.6-1.5c0-0.6-0.2-1.1-0.6-1.4s-1-0.5-1.9-0.5h-1.2V348.4z M137.2,345.9
						c0.3,0,0.6,0,0.8,0.1l-0.1,1c-0.3-0.1-0.5-0.1-0.8-0.1c-0.6,0-1,0.2-1.4,0.7s-0.6,1-0.6,1.7v3.7H134v-7h0.9l0.1,1.3h0.1
						c0.3-0.5,0.6-0.8,0.9-1S136.7,345.9,137.2,345.9L137.2,345.9z M145.3,349.5c0,1.1-0.3,2-0.9,2.7s-1.4,1-2.4,1
						c-0.6,0-1.2-0.1-1.7-0.4s-0.9-0.7-1.1-1.3s-0.4-1.2-0.4-1.9c0-1.1,0.3-2,0.9-2.7s1.4-0.9,2.4-0.9c1,0,1.7,0.3,2.3,1
						S145.3,348.4,145.3,349.5L145.3,349.5z M140,349.5c0,0.9,0.2,1.6,0.5,2s0.9,0.7,1.6,0.7s1.2-0.2,1.6-0.7s0.5-1.1,0.5-2
						c0-0.9-0.2-1.6-0.5-2s-0.9-0.7-1.6-0.7c-0.7,0-1.2,0.2-1.6,0.7S140,348.6,140,349.5L140,349.5z M149.4,352.3c0.2,0,0.4,0,0.5,0
						s0.3-0.1,0.4-0.1v0.8c-0.1,0.1-0.3,0.1-0.5,0.1s-0.4,0.1-0.6,0.1c-1.3,0-2-0.7-2-2.1v-4.1h-1v-0.5l1-0.4l0.4-1.5h0.6v1.6h2v0.8
						h-2v4.1c0,0.4,0.1,0.7,0.3,1S149,352.3,149.4,352.3L149.4,352.3z M157.7,349.5c0,1.1-0.3,2-0.9,2.7s-1.4,1-2.4,1
						c-0.6,0-1.2-0.1-1.7-0.4s-0.9-0.7-1.1-1.3s-0.4-1.2-0.4-1.9c0-1.1,0.3-2,0.9-2.7s1.4-0.9,2.4-0.9c1,0,1.7,0.3,2.3,1
						S157.7,348.4,157.7,349.5L157.7,349.5z M152.4,349.5c0,0.9,0.2,1.6,0.5,2s0.9,0.7,1.6,0.7s1.2-0.2,1.6-0.7s0.5-1.1,0.5-2
						c0-0.9-0.2-1.6-0.5-2s-0.9-0.7-1.6-0.7c-0.7,0-1.2,0.2-1.6,0.7S152.4,348.6,152.4,349.5L152.4,349.5z M161.8,352.3
						c0.2,0,0.4,0,0.5,0s0.3-0.1,0.4-0.1v0.8c-0.1,0.1-0.3,0.1-0.5,0.1s-0.4,0.1-0.6,0.1c-1.3,0-2-0.7-2-2.1v-4.1h-1v-0.5l1-0.4
						l0.4-1.5h0.6v1.6h2v0.8h-2v4.1c0,0.4,0.1,0.7,0.3,1S161.5,352.3,161.8,352.3L161.8,352.3z M163.1,346h1.1l1.5,4
						c0.3,0.9,0.5,1.6,0.6,2h0.1c0.1-0.2,0.2-0.6,0.3-1.1s0.8-2.1,1.7-4.8h1.1l-3,7.9c-0.3,0.8-0.6,1.3-1,1.7s-0.9,0.5-1.5,0.5
						c-0.3,0-0.6,0-1-0.1v-0.8c0.2,0.1,0.5,0.1,0.8,0.1c0.7,0,1.2-0.4,1.5-1.2l0.4-1L163.1,346z M174,353.1c-0.5,0-0.9-0.1-1.2-0.3
						s-0.7-0.4-0.9-0.8h-0.1c0.1,0.4,0.1,0.8,0.1,1.2v2.9h-1.1V346h0.9l0.1,1h0.1c0.3-0.4,0.6-0.7,0.9-0.8s0.8-0.3,1.2-0.3
						c0.9,0,1.6,0.3,2.1,0.9s0.8,1.5,0.8,2.7c0,1.1-0.3,2-0.8,2.7S174.9,353.1,174,353.1L174,353.1z M173.8,346.8
						c-0.7,0-1.2,0.2-1.5,0.6s-0.5,1-0.5,1.9v0.2c0,1,0.2,1.7,0.5,2.1s0.8,0.6,1.6,0.6c0.6,0,1.1-0.2,1.4-0.7s0.5-1.2,0.5-2
						c0-0.9-0.2-1.5-0.5-2S174.4,346.8,173.8,346.8L173.8,346.8z M179.7,353h-1.1v-7h1.1V353z M178.6,344.2c0-0.2,0.1-0.4,0.2-0.5
						s0.3-0.2,0.4-0.2c0.2,0,0.3,0.1,0.4,0.2s0.2,0.3,0.2,0.5s-0.1,0.4-0.2,0.5s-0.3,0.2-0.4,0.2c-0.2,0-0.3-0.1-0.4-0.2
						S178.6,344.4,178.6,344.2L178.6,344.2z M186.7,353v-4.5c0-0.6-0.1-1-0.4-1.3s-0.7-0.4-1.2-0.4c-0.7,0-1.3,0.2-1.6,0.6
						s-0.5,1-0.5,1.9v3.6H182v-7h0.9l0.2,1h0.1c0.2-0.3,0.5-0.6,0.9-0.8s0.8-0.3,1.3-0.3c0.8,0,1.5,0.2,1.9,0.6s0.6,1.1,0.6,1.9v4.5
						H186.7z M195.7,346v0.7l-1.3,0.2c0.1,0.1,0.2,0.3,0.3,0.6s0.1,0.5,0.1,0.8c0,0.7-0.2,1.2-0.7,1.6s-1.1,0.6-1.9,0.6
						c-0.2,0-0.4,0-0.6-0.1c-0.4,0.2-0.7,0.5-0.7,0.9c0,0.2,0.1,0.3,0.2,0.4s0.4,0.1,0.8,0.1h1.2c0.8,0,1.3,0.2,1.7,0.5
						s0.6,0.8,0.6,1.4c0,0.8-0.3,1.4-0.9,1.8s-1.5,0.6-2.7,0.6c-0.9,0-1.6-0.2-2.1-0.5s-0.7-0.8-0.7-1.4c0-0.4,0.1-0.8,0.4-1.1
						s0.7-0.5,1.1-0.6c-0.2-0.1-0.3-0.2-0.4-0.4s-0.2-0.4-0.2-0.6c0-0.3,0.1-0.5,0.2-0.7s0.3-0.4,0.6-0.6c-0.4-0.1-0.7-0.4-0.9-0.8
						s-0.3-0.8-0.3-1.2c0-0.8,0.2-1.3,0.7-1.8s1.1-0.6,1.9-0.6c0.4,0,0.7,0,1,0.1H195.7z M190.1,354.2c0,0.4,0.2,0.7,0.5,0.9
						s0.8,0.3,1.4,0.3c0.9,0,1.5-0.1,2-0.4s0.6-0.6,0.6-1.1c0-0.4-0.1-0.6-0.3-0.8s-0.7-0.2-1.3-0.2h-1.3c-0.5,0-0.9,0.1-1.1,0.3
						S190.1,353.7,190.1,354.2L190.1,354.2z M190.7,348.3c0,0.5,0.1,0.9,0.4,1.1s0.7,0.4,1.1,0.4c1,0,1.5-0.5,1.5-1.5
						c0-1-0.5-1.6-1.6-1.6c-0.5,0-0.9,0.1-1.1,0.4S190.7,347.7,190.7,348.3L190.7,348.3z M150.1,362.6c-1,0-1.8,0.3-2.4,1
						s-0.9,1.6-0.9,2.8c0,1.2,0.3,2.2,0.9,2.8s1.4,1,2.4,1c0.6,0,1.4-0.1,2.2-0.3v0.9c-0.6,0.2-1.4,0.4-2.4,0.4
						c-1.4,0-2.4-0.4-3.2-1.2s-1.1-2-1.1-3.5c0-1,0.2-1.8,0.5-2.5s0.9-1.3,1.5-1.7s1.5-0.6,2.4-0.6c1,0,1.8,0.2,2.6,0.5l-0.5,0.9
						C151.5,362.7,150.8,362.6,150.1,362.6L150.1,362.6z M160.2,367.5c0,1.1-0.3,2-0.9,2.7s-1.4,1-2.4,1c-0.6,0-1.2-0.1-1.7-0.4
						s-0.9-0.7-1.1-1.3s-0.4-1.2-0.4-1.9c0-1.1,0.3-2,0.9-2.7s1.4-0.9,2.4-0.9c1,0,1.7,0.3,2.3,1S160.2,366.4,160.2,367.5
						L160.2,367.5z M154.9,367.5c0,0.9,0.2,1.6,0.5,2s0.9,0.7,1.6,0.7s1.2-0.2,1.6-0.7s0.5-1.1,0.5-2c0-0.9-0.2-1.6-0.5-2
						s-0.9-0.7-1.6-0.7c-0.7,0-1.2,0.2-1.6,0.7S154.9,366.6,154.9,367.5L154.9,367.5z M166.7,370.1L166.7,370.1
						c-0.5,0.7-1.3,1.1-2.2,1.1c-0.9,0-1.6-0.3-2.1-0.9s-0.8-1.5-0.8-2.7s0.3-2,0.8-2.7s1.2-1,2.1-1c0.9,0,1.7,0.3,2.2,1h0.1l0-0.5
						l0-0.5v-2.8h1.1v9.9h-0.9L166.7,370.1z M164.6,370.2c0.7,0,1.2-0.2,1.6-0.6s0.5-1,0.5-1.9v-0.2c0-1-0.2-1.7-0.5-2.1
						s-0.9-0.6-1.6-0.6c-0.6,0-1.1,0.2-1.4,0.7c-0.3,0.5-0.5,1.2-0.5,2c0,0.9,0.2,1.6,0.5,2S164,370.2,164.6,370.2L164.6,370.2z
						 M172.9,371.1c-1,0-1.8-0.3-2.4-0.9s-0.9-1.5-0.9-2.6c0-1.1,0.3-2,0.8-2.7s1.3-1,2.2-1c0.9,0,1.6,0.3,2.1,0.9s0.8,1.3,0.8,2.3
						v0.7h-4.8c0,0.8,0.2,1.4,0.6,1.9c0.4,0.4,0.9,0.6,1.7,0.6c0.7,0,1.5-0.2,2.2-0.5v0.9c-0.4,0.2-0.7,0.3-1.1,0.3
						S173.4,371.1,172.9,371.1L172.9,371.1z M172.6,364.8c-0.6,0-1,0.2-1.3,0.5s-0.5,0.9-0.6,1.5h3.6c0-0.7-0.1-1.2-0.4-1.5
						S173.2,364.8,172.6,364.8L172.6,364.8z"/>
				</g>
				<g id="arrow" transform="translate(150.000000, 0.000000)">
					<path id="Line" sketch:type="MSShapeGroup" class="st7" d="M297,222h14"/>
					<path id="Line-decoration-1" class="st7" d="M300.2,225l10.8-3l-10.8-3"/>
					<path id="Path-202" sketch:type="MSShapeGroup" class="st4" d="M305.8,222H140.1c0,0-14.1,0-14.1,14.1c0,14.1,0,9.5,0,9.5"/>
					<path id="One-week-Sprint" sketch:type="MSShapeGroup" class="st1" d="M184.1,207.2c0,1.1-0.2,2.2-0.6,3.1s-0.9,1.6-1.6,2.1
						s-1.5,0.7-2.4,0.7c-1.1,0-1.9-0.3-2.5-0.9s-0.9-1.5-0.9-2.7c0-1.1,0.2-2.1,0.6-3.1s1-1.6,1.7-2.1c0.7-0.5,1.5-0.7,2.4-0.7
						c1,0,1.8,0.3,2.4,1S184.1,206.1,184.1,207.2L184.1,207.2z M180.7,204.5c-0.7,0-1.3,0.2-1.8,0.6s-0.9,1-1.2,1.8
						s-0.4,1.6-0.4,2.5c0,0.8,0.2,1.5,0.6,2s1,0.7,1.7,0.7c0.6,0,1.2-0.2,1.7-0.6s0.9-1,1.2-1.8s0.4-1.6,0.4-2.6
						c0-0.8-0.2-1.5-0.6-2S181.4,204.5,180.7,204.5L180.7,204.5z M189.1,213l0.9-4.4c0.1-0.4,0.1-0.7,0.1-0.9c0-0.3-0.1-0.5-0.2-0.6
						s-0.4-0.2-0.7-0.2c-0.4,0-0.7,0.1-1.1,0.4s-0.7,0.6-0.9,1.1s-0.5,1-0.6,1.7l-0.6,3h-1.1l1.5-7h0.9l-0.1,1.3h0.1
						c0.4-0.5,0.8-0.9,1.2-1.1s0.8-0.3,1.2-0.3c0.5,0,1,0.1,1.3,0.4s0.5,0.7,0.5,1.2c0,0.3,0,0.7-0.1,1.1l-0.9,4.3H189.1z
						 M195.1,213.1c-0.8,0-1.4-0.2-1.8-0.7s-0.7-1.1-0.7-1.9c0-0.8,0.2-1.6,0.5-2.3s0.7-1.3,1.3-1.7s1.1-0.6,1.7-0.6
						c0.6,0,1.1,0.1,1.5,0.4s0.5,0.7,0.5,1.2c0,0.8-0.4,1.4-1.1,1.8s-1.7,0.7-3,0.7h-0.2l0,0.5c0,0.6,0.1,1,0.4,1.3s0.7,0.5,1.2,0.5
						c0.3,0,0.5,0,0.8-0.1s0.6-0.2,1.1-0.4v0.9c-0.4,0.2-0.7,0.3-1.1,0.4S195.5,213.1,195.1,213.1L195.1,213.1z M196,206.8
						c-0.4,0-0.8,0.2-1.2,0.6s-0.7,1-0.9,1.7h0.1c1,0,1.7-0.1,2.2-0.4s0.8-0.6,0.8-1.1c0-0.2-0.1-0.4-0.2-0.6S196.3,206.8,196,206.8
						L196,206.8z M207.1,213l-0.2-3.8c0-0.4,0-0.8,0-1.1v-1h-0.1l-0.3,0.7l-0.5,1.2l-1.8,4h-1.3l-0.3-7h1l0.1,3.8v0.6
						c0,0.6,0,1.2-0.1,1.7h0c0.2-0.5,0.5-1.2,0.9-2l1.9-4h1.2l0.2,3.8c0,0.7,0,1.3,0,1.7v0.3l0,0.3h0c0.1-0.4,0.3-0.8,0.5-1.4
						s0.9-2.1,2.1-4.6h1.1l-3.2,7H207.1z M214.2,213.1c-0.8,0-1.4-0.2-1.8-0.7s-0.7-1.1-0.7-1.9c0-0.8,0.2-1.6,0.5-2.3
						s0.7-1.3,1.3-1.7s1.1-0.6,1.7-0.6c0.6,0,1.1,0.1,1.5,0.4s0.5,0.7,0.5,1.2c0,0.8-0.4,1.4-1.1,1.8s-1.7,0.7-3,0.7h-0.2l0,0.5
						c0,0.6,0.1,1,0.4,1.3s0.7,0.5,1.2,0.5c0.3,0,0.5,0,0.8-0.1s0.6-0.2,1.1-0.4v0.9c-0.4,0.2-0.7,0.3-1.1,0.4
						S214.6,213.1,214.2,213.1L214.2,213.1z M215.1,206.8c-0.4,0-0.8,0.2-1.2,0.6s-0.7,1-0.9,1.7h0.1c1,0,1.7-0.1,2.2-0.4
						s0.8-0.6,0.8-1.1c0-0.2-0.1-0.4-0.2-0.6S215.5,206.8,215.1,206.8L215.1,206.8z M220.7,213.1c-0.8,0-1.4-0.2-1.8-0.7
						s-0.7-1.1-0.7-1.9c0-0.8,0.2-1.6,0.5-2.3s0.7-1.3,1.3-1.7s1.1-0.6,1.7-0.6c0.6,0,1.1,0.1,1.5,0.4s0.5,0.7,0.5,1.2
						c0,0.8-0.4,1.4-1.1,1.8s-1.7,0.7-3,0.7h-0.2l0,0.5c0,0.6,0.1,1,0.4,1.3s0.7,0.5,1.2,0.5c0.3,0,0.5,0,0.8-0.1s0.6-0.2,1.1-0.4
						v0.9c-0.4,0.2-0.7,0.3-1.1,0.4S221,213.1,220.7,213.1L220.7,213.1z M221.5,206.8c-0.4,0-0.8,0.2-1.2,0.6s-0.7,1-0.9,1.7h0.1
						c1,0,1.7-0.1,2.2-0.4s0.8-0.6,0.8-1.1c0-0.2-0.1-0.4-0.2-0.6S221.9,206.8,221.5,206.8L221.5,206.8z M226,209.5l3.3-3.4h1.3
						l-3,3l1.9,4h-1.2l-1.5-3.3l-1,0.8l-0.5,2.5h-1.1l2.1-9.9h1.1c-0.3,1.4-0.6,2.7-0.8,3.8S226.2,208.9,226,209.5L226,209.5z
						 M239.5,210.3c0,0.9-0.3,1.6-0.9,2.1s-1.4,0.7-2.5,0.7c-0.4,0-0.8,0-1.2-0.1s-0.7-0.2-1-0.3v-1.1c0.7,0.4,1.4,0.5,2.2,0.5
						c0.7,0,1.2-0.2,1.6-0.5s0.6-0.8,0.6-1.3c0-0.3-0.1-0.6-0.3-0.9s-0.6-0.5-1.2-0.9c-0.6-0.4-1.1-0.7-1.3-1.1s-0.4-0.8-0.4-1.3
						c0-0.8,0.3-1.4,0.8-1.9s1.3-0.7,2.2-0.7c0.4,0,0.8,0,1.2,0.1s0.7,0.2,1.1,0.4l-0.4,1c-0.3-0.2-0.6-0.3-0.9-0.4s-0.7-0.1-1-0.1
						c-0.6,0-1,0.1-1.4,0.4s-0.5,0.7-0.5,1.2c0,0.2,0,0.4,0.1,0.6s0.2,0.3,0.3,0.5s0.5,0.3,0.9,0.6c0.6,0.4,1,0.7,1.3,0.9
						c0.2,0.2,0.4,0.4,0.5,0.7S239.5,210,239.5,210.3L239.5,210.3z M243.6,213.1c-0.4,0-0.8-0.1-1.1-0.3s-0.5-0.5-0.7-0.9h-0.1
						l0,0.2c0,0.1,0,0.3-0.1,0.4s-0.3,1.4-0.7,3.5h-1.1L242,206h0.9l-0.2,1.3h0.1c0.8-1,1.5-1.4,2.4-1.4c0.6,0,1,0.2,1.4,0.6
						s0.5,1,0.5,1.7c0,0.9-0.1,1.7-0.4,2.5s-0.7,1.3-1.2,1.7S244.3,213.1,243.6,213.1L243.6,213.1z M244.8,206.8
						c-0.4,0-0.8,0.2-1.2,0.6s-0.8,0.9-1,1.5s-0.4,1.2-0.4,1.9c0,0.5,0.1,0.8,0.4,1.1s0.6,0.4,1,0.4c0.4,0,0.8-0.2,1.2-0.5
						s0.7-0.8,0.9-1.5s0.3-1.3,0.3-2C246,207.3,245.6,206.8,244.8,206.8L244.8,206.8z M252.5,205.9c0.3,0,0.5,0,0.8,0.1l-0.2,1
						c-0.2-0.1-0.4-0.1-0.7-0.1c-0.4,0-0.7,0.1-1.1,0.4s-0.6,0.6-0.9,1.1s-0.4,1-0.6,1.5l-0.7,3.2h-1.1l1.5-7h0.9l-0.1,1.3h0.1
						c0.3-0.4,0.6-0.7,0.8-0.9c0.2-0.2,0.4-0.3,0.6-0.4C252,206,252.2,205.9,252.5,205.9L252.5,205.9z M254.3,213h-1.1l1.5-7h1.1
						L254.3,213z M255,204.3c0-0.2,0.1-0.4,0.2-0.6s0.3-0.2,0.5-0.2c0.4,0,0.6,0.2,0.6,0.6c0,0.2-0.1,0.4-0.2,0.6
						c-0.1,0.2-0.3,0.2-0.5,0.2c-0.2,0-0.3-0.1-0.4-0.2S255,204.5,255,204.3L255,204.3z M260.8,213l0.9-4.4c0.1-0.4,0.1-0.7,0.1-0.9
						c0-0.3-0.1-0.5-0.2-0.6s-0.4-0.2-0.7-0.2c-0.4,0-0.7,0.1-1.1,0.4s-0.7,0.6-0.9,1.1s-0.5,1-0.6,1.7l-0.6,3h-1.1l1.5-7h0.9
						l-0.1,1.3h0.1c0.4-0.5,0.8-0.9,1.2-1.1s0.8-0.3,1.2-0.3c0.5,0,1,0.1,1.3,0.4s0.5,0.7,0.5,1.2c0,0.3,0,0.7-0.1,1.1l-0.9,4.3
						H260.8z M266.1,212.3c0.2,0,0.5-0.1,0.9-0.2v0.8c-0.1,0.1-0.3,0.1-0.5,0.2s-0.4,0.1-0.5,0.1c-0.5,0-0.9-0.1-1.2-0.4
						s-0.4-0.6-0.4-1.1c0-0.3,0-0.6,0.1-1l0.8-3.8h-1.1l0.1-0.5l1.2-0.5l0.8-1.4h0.6l-0.3,1.6h1.7l-0.2,0.8h-1.7l-0.8,3.8
						c-0.1,0.4-0.1,0.6-0.1,0.8c0,0.2,0.1,0.4,0.2,0.5S265.9,212.3,266.1,212.3L266.1,212.3z"/>
				</g>
			</g>
			<g id="step_1_" transform="translate(281.000000, 0.000000)">
				<g id="bg_1_" transform="translate(11.000000, 53.000000)" sketch:type="MSShapeGroup" class="st0">
					<circle id="Oval-20_3_" class="st1" cx="265.5" cy="342.5" r="139.5"/>
				</g>
				<path id="Oval-20_4_" sketch:type="MSShapeGroup" class="st2" d="M134.2,444L134.2,444c0.8,2.4,1.7,4.8,2.7,7.1
					C159,506.1,213,545,276,545c63.8,0,118.3-39.9,140-96c0.6-1.7,1.3-3.4,1.8-5.1 M417.7,345.8c-0.7-2.1-1.5-4.1-2.3-6.2
					c-22-55.4-76.2-94.6-139.4-94.6c-62.6,0-116.2,38.3-138.7,92.8c-1.1,2.7-2.1,5.3-3.1,8.1"/>
				<path id="Oval-20_5_" sketch:type="MSShapeGroup" class="st4" d="M137.3,337.8c-1.1,2.7-2.1,5.3-3.1,8.1
					c-5.3,15.4-8.2,31.9-8.2,49.1c0,17.1,2.9,33.6,8.2,49l0,0c0.8,2.4,1.7,4.8,2.7,7.1 M416,449c0.6-1.7,1.3-3.4,1.8-5.1
					c5.3-15.3,8.2-31.8,8.2-48.9c0-17.2-2.9-33.8-8.3-49.2c-0.7-2.1-1.5-4.1-2.3-6.2"/>
				<g id="icn_1_" transform="translate(113.000000, 147.000000)" sketch:type="MSShapeGroup">
					<path id="Rectangle-120_1_" class="st1" d="M163.5,203L163.5,203c20.7,0,37.5,16.8,37.5,37.5l0,0c0,20.7-16.8,37.5-37.5,37.5
						l0,0c-20.7,0-37.5-16.8-37.5-37.5l0,0C126,219.8,142.8,203,163.5,203z"/>
					<g id="icn-graph" transform="translate(17.000000, 22.000000)">
						<path id="Shape_8_" class="st8" d="M127,205v25c0,0.4,0.1,0.9,0.4,1.4c0.5,1,1.4,1.6,2.6,1.6h35c0.6,0,1-0.4,1-1s-0.4-1-1-1
							h-35c-0.5,0-0.7-0.1-0.9-0.4c-0.1-0.2-0.1-0.4-0.1-0.6v-25c0-0.6-0.4-1-1-1C127.4,204,127,204.4,127,205L127,205z"/>
						<path id="Shape_9_" class="st8" d="M134,227L134,227c0.6,0,1-0.4,1-1s-0.4-1-1-1s-1,0.4-1,1S133.4,227,134,227L134,227z
							 M134,228L134,228c-1.1,0-2-0.9-2-2s0.9-2,2-2s2,0.9,2,2S135.1,228,134,228L134,228z"/>
						<path id="Shape_10_" class="st8" d="M139,220L139,220c0.6,0,1-0.4,1-1s-0.4-1-1-1s-1,0.4-1,1S138.4,220,139,220L139,220z
							 M139,221L139,221c-1.1,0-2-0.9-2-2s0.9-2,2-2s2,0.9,2,2S140.1,221,139,221L139,221z"/>
						<path id="Shape_11_" class="st8" d="M144,226L144,226c0.6,0,1-0.4,1-1s-0.4-1-1-1s-1,0.4-1,1S143.4,226,144,226L144,226z
							 M144,227L144,227c-1.1,0-2-0.9-2-2s0.9-2,2-2s2,0.9,2,2S145.1,227,144,227L144,227z"/>
						<path id="Shape_12_" class="st8" d="M149,216L149,216c0.6,0,1-0.4,1-1s-0.4-1-1-1s-1,0.4-1,1S148.4,216,149,216L149,216z
							 M149,217L149,217c-1.1,0-2-0.9-2-2s0.9-2,2-2s2,0.9,2,2S150.1,217,149,217L149,217z"/>
						<path id="Shape_13_" class="st8" d="M154,219L154,219c0.6,0,1-0.4,1-1s-0.4-1-1-1s-1,0.4-1,1S153.4,219,154,219L154,219z
							 M154,220L154,220c-1.1,0-2-0.9-2-2s0.9-2,2-2s2,0.9,2,2S155.1,220,154,220L154,220z"/>
						<path id="Shape_14_" class="st8" d="M158,212L158,212c0.6,0,1-0.4,1-1s-0.4-1-1-1s-1,0.4-1,1S157.4,212,158,212L158,212z
							 M158,213L158,213c-1.1,0-2-0.9-2-2s0.9-2,2-2s2,0.9,2,2S159.1,213,158,213L158,213z"/>
						<path id="Shape_15_" class="st8" d="M135.5,225.2l2.9-5l-0.9-0.5l-2.9,5L135.5,225.2L135.5,225.2z"/>
						<path id="Shape_16_" class="st8" d="M139.7,220.2l3.1,3.9l0.8-0.6l-3.1-3.9L139.7,220.2L139.7,220.2z"/>
						<path id="Shape_17_" class="st8" d="M145.3,223.8l3.4-7.4l-0.9-0.4l-3.4,7.4L145.3,223.8L145.3,223.8z"/>
						<path id="Shape_18_" class="st8" d="M150,216.2l2.6,1.5l0.5-0.9l-2.6-1.5L150,216.2L150,216.2z"/>
						<path id="Shape_19_" class="st8" d="M155.2,216.9l2.5-4.6l-0.9-0.5l-2.5,4.6L155.2,216.9L155.2,216.9z"/>
						<path id="Path-28" class="st9" d="M126,206l2-3l2,3"/>
						<path id="Path-28_1_" class="st9" d="M164,230l3,2l-3,2"/>
						<path id="Shape_20_" class="st8" d="M128,204.5h1v-1h-1V204.5L128,204.5z M130,204.5h1v-1h-1V204.5L130,204.5z M132,204.5h1
							v-1h-1V204.5L132,204.5z M134,204.5h1v-1h-1V204.5L134,204.5z M136,204.5h1v-1h-1V204.5L136,204.5z M138,204.5h1v-1h-1V204.5
							L138,204.5z M140,204.5h1v-1h-1V204.5L140,204.5z M142,204.5h1v-1h-1V204.5L142,204.5z M144,204.5h1v-1h-1V204.5L144,204.5z
							 M146,204.5h1v-1h-1V204.5L146,204.5z M148,204.5h1v-1h-1V204.5L148,204.5z M150,204.5h1v-1h-1V204.5L150,204.5z M152,204.5h1
							v-1h-1V204.5L152,204.5z M154,204.5h1v-1h-1V204.5L154,204.5z M156,204.5h1v-1h-1V204.5L156,204.5z M158,204.5h1v-1h-1V204.5
							L158,204.5z M160,204.5h1v-1h-1V204.5L160,204.5z M162,204.5h1v-1h-1V204.5L162,204.5z M164,204.5h1v-1h-1V204.5L164,204.5z
							 M165.5,204v1h1v-1H165.5L165.5,204z M165.5,206v1h1v-1H165.5L165.5,206z M165.5,208v1h1v-1H165.5L165.5,208z M165.5,210v1h1
							v-1H165.5L165.5,210z M165.5,212v1h1v-1H165.5L165.5,212z M165.5,214v1h1v-1H165.5L165.5,214z M165.5,216v1h1v-1H165.5
							L165.5,216z M165.5,218v1h1v-1H165.5L165.5,218z M165.5,220v1h1v-1H165.5L165.5,220z M165.5,222v1h1v-1H165.5L165.5,222z
							 M165.5,224v1h1v-1H165.5L165.5,224z M165.5,226v1h1v-1H165.5L165.5,226z M165.5,228v1h1v-1H165.5L165.5,228z M165.5,230v1h1
							v-1H165.5L165.5,230z"/>
					</g>
				</g>
				<g id="labels_1_" transform="translate(93.000000, 112.000000)" sketch:type="MSShapeGroup">
					<path id="Measure" class="st1" d="M136.3,226l-7.8-20.2h-0.1c0.1,1.6,0.2,3.5,0.2,5.7V226h-2.5v-22.8h4l7.2,18.8h0.1l7.3-18.8
						h4V226h-2.7v-14.7c0-1.7,0.1-3.5,0.2-5.5h-0.1l-7.8,20.2H136.3z M160.9,226.3c-2.5,0-4.5-0.8-6-2.3s-2.2-3.7-2.2-6.4
						c0-2.8,0.7-5,2-6.6s3.2-2.4,5.5-2.4c2.1,0,3.8,0.7,5.1,2.1s1.9,3.3,1.9,5.6v1.6h-11.8c0.1,2,0.6,3.5,1.5,4.6s2.3,1.6,4.1,1.6
						c1.8,0,3.7-0.4,5.5-1.2v2.3c-0.9,0.4-1.8,0.7-2.6,0.9S162.1,226.3,160.9,226.3L160.9,226.3z M160.2,210.7
						c-1.4,0-2.5,0.4-3.3,1.3s-1.3,2.1-1.4,3.7h9c0-1.6-0.4-2.9-1.1-3.8S161.6,210.7,160.2,210.7L160.2,210.7z M181.2,226l-0.5-2.4
						h-0.1c-0.9,1.1-1.7,1.8-2.6,2.2s-1.9,0.6-3.2,0.6c-1.7,0-3-0.4-4-1.3s-1.4-2.1-1.4-3.7c0-3.5,2.8-5.3,8.3-5.4l2.9-0.1v-1.1
						c0-1.3-0.3-2.3-0.9-3s-1.5-1-2.8-1c-1.4,0-3,0.4-4.8,1.3l-0.8-2c0.8-0.5,1.8-0.8,2.8-1.1s2-0.4,3-0.4c2,0,3.6,0.5,4.5,1.4
						s1.5,2.4,1.5,4.4V226H181.2z M175.3,224.2c1.6,0,2.9-0.4,3.8-1.3s1.4-2.1,1.4-3.7v-1.5l-2.6,0.1c-2.1,0.1-3.5,0.4-4.5,1
						s-1.4,1.5-1.4,2.6c0,0.9,0.3,1.7,0.9,2.1S174.3,224.2,175.3,224.2L175.3,224.2z M198.5,221.3c0,1.6-0.6,2.8-1.8,3.7
						s-2.9,1.3-5,1.3c-2.3,0-4-0.4-5.3-1.1v-2.4c0.8,0.4,1.7,0.7,2.6,1s1.9,0.4,2.7,0.4c1.4,0,2.4-0.2,3.1-0.6s1.1-1.1,1.1-2
						c0-0.7-0.3-1.2-0.9-1.7s-1.7-1-3.4-1.7c-1.6-0.6-2.7-1.1-3.4-1.6s-1.2-0.9-1.5-1.5s-0.5-1.2-0.5-2c0-1.4,0.6-2.5,1.7-3.3
						s2.7-1.2,4.7-1.2c1.8,0,3.6,0.4,5.4,1.1l-0.9,2.1c-1.7-0.7-3.3-1.1-4.7-1.1c-1.2,0-2.2,0.2-2.8,0.6s-0.9,0.9-0.9,1.6
						c0,0.5,0.1,0.8,0.4,1.2s0.6,0.6,1.1,0.9s1.5,0.7,3,1.3c2,0.7,3.4,1.5,4.1,2.2S198.5,220.2,198.5,221.3L198.5,221.3z
						 M204.1,208.9V220c0,1.4,0.3,2.4,1,3.1s1.6,1,3,1c1.8,0,3.1-0.5,3.9-1.5s1.2-2.6,1.2-4.8v-9h2.6V226h-2.1l-0.4-2.3h-0.1
						c-0.5,0.8-1.3,1.5-2.2,1.9s-2,0.7-3.2,0.7c-2.1,0-3.6-0.5-4.7-1.5s-1.6-2.6-1.6-4.8v-11.2H204.1z M228.1,208.6
						c0.8,0,1.4,0.1,2,0.2l-0.4,2.4c-0.7-0.2-1.3-0.2-1.9-0.2c-1.4,0-2.6,0.6-3.6,1.7s-1.5,2.5-1.5,4.2v9.2h-2.6v-17.1h2.1l0.3,3.2
						h0.1c0.6-1.1,1.4-2,2.3-2.6S227.1,208.6,228.1,208.6L228.1,208.6z M239,226.3c-2.5,0-4.5-0.8-6-2.3s-2.2-3.7-2.2-6.4
						c0-2.8,0.7-5,2-6.6s3.2-2.4,5.5-2.4c2.1,0,3.8,0.7,5.1,2.1s1.9,3.3,1.9,5.6v1.6h-11.8c0.1,2,0.6,3.5,1.5,4.6s2.3,1.6,4.1,1.6
						c1.8,0,3.7-0.4,5.5-1.2v2.3c-0.9,0.4-1.8,0.7-2.6,0.9S240.1,226.3,239,226.3L239,226.3z M238.3,210.7c-1.4,0-2.5,0.4-3.3,1.3
						s-1.3,2.1-1.4,3.7h9c0-1.6-0.4-2.9-1.1-3.8S239.6,210.7,238.3,210.7L238.3,210.7z"/>
					<path id="Beta-release" class="st1" d="M147.4,323.7h2.6c1.2,0,2.1,0.2,2.7,0.6s0.8,1,0.8,1.7c0,0.6-0.2,1-0.5,1.4
						s-0.8,0.6-1.3,0.7v0.1c1.4,0.2,2.1,1,2.1,2.2c0,0.8-0.3,1.5-0.8,1.9s-1.3,0.7-2.4,0.7h-3.2V323.7z M148.4,327.7h1.8
						c0.8,0,1.3-0.1,1.6-0.4s0.5-0.6,0.5-1.2c0-0.5-0.2-0.9-0.6-1.1s-1-0.3-1.8-0.3h-1.6V327.7z M148.4,328.6v3.5h1.9
						c0.7,0,1.3-0.1,1.7-0.4s0.6-0.7,0.6-1.4c0-0.6-0.2-1-0.6-1.3s-1-0.4-1.8-0.4H148.4z M158.6,333.1c-1,0-1.8-0.3-2.4-0.9
						s-0.9-1.5-0.9-2.6c0-1.1,0.3-2,0.8-2.7s1.3-1,2.2-1c0.9,0,1.6,0.3,2.1,0.9s0.8,1.3,0.8,2.3v0.7h-4.8c0,0.8,0.2,1.4,0.6,1.9
						c0.4,0.4,0.9,0.6,1.7,0.6c0.7,0,1.5-0.2,2.2-0.5v0.9c-0.4,0.2-0.7,0.3-1.1,0.3S159,333.1,158.6,333.1L158.6,333.1z
						 M158.3,326.8c-0.6,0-1,0.2-1.3,0.5s-0.5,0.9-0.6,1.5h3.6c0-0.7-0.1-1.2-0.4-1.5S158.8,326.8,158.3,326.8L158.3,326.8z
						 M165.2,332.3c0.2,0,0.4,0,0.5,0s0.3-0.1,0.4-0.1v0.8c-0.1,0.1-0.3,0.1-0.5,0.1s-0.4,0.1-0.6,0.1c-1.3,0-2-0.7-2-2.1v-4.1h-1
						v-0.5l1-0.4l0.4-1.5h0.6v1.6h2v0.8h-2v4.1c0,0.4,0.1,0.7,0.3,1S164.8,332.3,165.2,332.3L165.2,332.3z M171.8,333l-0.2-1h-0.1
						c-0.3,0.4-0.7,0.7-1,0.9s-0.8,0.2-1.3,0.2c-0.7,0-1.2-0.2-1.6-0.5s-0.6-0.9-0.6-1.5c0-1.4,1.1-2.1,3.4-2.2l1.2,0v-0.4
						c0-0.5-0.1-0.9-0.4-1.2s-0.6-0.4-1.1-0.4c-0.6,0-1.2,0.2-2,0.5l-0.3-0.8c0.3-0.2,0.7-0.3,1.1-0.4s0.8-0.2,1.2-0.2
						c0.8,0,1.4,0.2,1.8,0.6s0.6,1,0.6,1.8v4.7H171.8z M169.4,332.3c0.7,0,1.2-0.2,1.5-0.5s0.6-0.9,0.6-1.5v-0.6l-1.1,0
						c-0.8,0-1.4,0.2-1.8,0.4s-0.6,0.6-0.6,1.1c0,0.4,0.1,0.7,0.3,0.9S169,332.3,169.4,332.3L169.4,332.3z M181.3,325.9
						c0.3,0,0.6,0,0.8,0.1l-0.1,1c-0.3-0.1-0.5-0.1-0.8-0.1c-0.6,0-1,0.2-1.4,0.7s-0.6,1-0.6,1.7v3.7h-1.1v-7h0.9l0.1,1.3h0.1
						c0.3-0.5,0.6-0.8,0.9-1S180.9,325.9,181.3,325.9L181.3,325.9z M186.4,333.1c-1,0-1.8-0.3-2.4-0.9s-0.9-1.5-0.9-2.6
						c0-1.1,0.3-2,0.8-2.7s1.3-1,2.2-1c0.9,0,1.6,0.3,2.1,0.9s0.8,1.3,0.8,2.3v0.7h-4.8c0,0.8,0.2,1.4,0.6,1.9
						c0.4,0.4,0.9,0.6,1.7,0.6c0.7,0,1.5-0.2,2.2-0.5v0.9c-0.4,0.2-0.7,0.3-1.1,0.3S186.8,333.1,186.4,333.1L186.4,333.1z
						 M186.1,326.8c-0.6,0-1,0.2-1.3,0.5s-0.5,0.9-0.6,1.5h3.6c0-0.7-0.1-1.2-0.4-1.5S186.6,326.8,186.1,326.8L186.1,326.8z
						 M191.8,333h-1.1v-9.9h1.1V333z M196.9,333.1c-1,0-1.8-0.3-2.4-0.9s-0.9-1.5-0.9-2.6c0-1.1,0.3-2,0.8-2.7s1.3-1,2.2-1
						c0.9,0,1.6,0.3,2.1,0.9s0.8,1.3,0.8,2.3v0.7h-4.8c0,0.8,0.2,1.4,0.6,1.9c0.4,0.4,0.9,0.6,1.7,0.6c0.7,0,1.5-0.2,2.2-0.5v0.9
						c-0.4,0.2-0.7,0.3-1.1,0.3S197.4,333.1,196.9,333.1L196.9,333.1z M196.7,326.8c-0.6,0-1,0.2-1.3,0.5s-0.5,0.9-0.6,1.5h3.6
						c0-0.7-0.1-1.2-0.4-1.5S197.2,326.8,196.7,326.8L196.7,326.8z M205.6,333l-0.2-1h-0.1c-0.3,0.4-0.7,0.7-1,0.9s-0.8,0.2-1.3,0.2
						c-0.7,0-1.2-0.2-1.6-0.5s-0.6-0.9-0.6-1.5c0-1.4,1.1-2.1,3.4-2.2l1.2,0v-0.4c0-0.5-0.1-0.9-0.4-1.2s-0.6-0.4-1.1-0.4
						c-0.6,0-1.2,0.2-2,0.5l-0.3-0.8c0.3-0.2,0.7-0.3,1.1-0.4s0.8-0.2,1.2-0.2c0.8,0,1.4,0.2,1.8,0.6s0.6,1,0.6,1.8v4.7H205.6z
						 M203.2,332.3c0.7,0,1.2-0.2,1.5-0.5s0.6-0.9,0.6-1.5v-0.6l-1.1,0c-0.8,0-1.4,0.2-1.8,0.4s-0.6,0.6-0.6,1.1
						c0,0.4,0.1,0.7,0.3,0.9S202.8,332.3,203.2,332.3L203.2,332.3z M213,331.1c0,0.6-0.2,1.1-0.7,1.5s-1.2,0.5-2,0.5
						c-0.9,0-1.6-0.1-2.2-0.4v-1c0.3,0.2,0.7,0.3,1.1,0.4s0.8,0.1,1.1,0.1c0.6,0,1-0.1,1.3-0.3s0.4-0.4,0.4-0.8
						c0-0.3-0.1-0.5-0.4-0.7s-0.7-0.4-1.4-0.7c-0.6-0.2-1.1-0.5-1.4-0.6s-0.5-0.4-0.6-0.6s-0.2-0.5-0.2-0.8c0-0.6,0.2-1,0.7-1.3
						s1.1-0.5,1.9-0.5c0.7,0,1.5,0.2,2.2,0.5l-0.4,0.9c-0.7-0.3-1.3-0.4-1.9-0.4c-0.5,0-0.9,0.1-1.1,0.2s-0.4,0.4-0.4,0.6
						c0,0.2,0,0.3,0.1,0.5s0.2,0.3,0.5,0.4s0.6,0.3,1.2,0.5c0.8,0.3,1.4,0.6,1.7,0.9S213,330.6,213,331.1L213,331.1z M217.7,333.1
						c-1,0-1.8-0.3-2.4-0.9s-0.9-1.5-0.9-2.6c0-1.1,0.3-2,0.8-2.7s1.3-1,2.2-1c0.9,0,1.6,0.3,2.1,0.9s0.8,1.3,0.8,2.3v0.7h-4.8
						c0,0.8,0.2,1.4,0.6,1.9c0.4,0.4,0.9,0.6,1.7,0.6c0.7,0,1.5-0.2,2.2-0.5v0.9c-0.4,0.2-0.7,0.3-1.1,0.3S218.1,333.1,217.7,333.1
						L217.7,333.1z M217.4,326.8c-0.6,0-1,0.2-1.3,0.5s-0.5,0.9-0.6,1.5h3.6c0-0.7-0.1-1.2-0.4-1.5S217.9,326.8,217.4,326.8
						L217.4,326.8z M155.4,351l-3.1-8.2h-0.1c0.1,0.7,0.1,1.4,0.1,2.3v5.9h-1v-9.3h1.6l2.9,7.7h0.1l3-7.7h1.6v9.3h-1.1v-6
						c0-0.7,0-1.4,0.1-2.2h-0.1l-3.2,8.2H155.4z M168.9,347.5c0,1.1-0.3,2-0.9,2.7s-1.4,1-2.4,1c-0.6,0-1.2-0.1-1.7-0.4
						s-0.9-0.7-1.1-1.3s-0.4-1.2-0.4-1.9c0-1.1,0.3-2,0.9-2.7s1.4-0.9,2.4-0.9c1,0,1.7,0.3,2.3,1S168.9,346.4,168.9,347.5
						L168.9,347.5z M163.6,347.5c0,0.9,0.2,1.6,0.5,2s0.9,0.7,1.6,0.7s1.2-0.2,1.6-0.7s0.5-1.1,0.5-2c0-0.9-0.2-1.6-0.5-2
						s-0.9-0.7-1.6-0.7c-0.7,0-1.2,0.2-1.6,0.7S163.6,346.6,163.6,347.5L163.6,347.5z M175.5,351v-4.5c0-0.6-0.1-1-0.4-1.3
						s-0.7-0.4-1.2-0.4c-0.7,0-1.3,0.2-1.6,0.6s-0.5,1-0.5,1.9v3.6h-1.1v-7h0.9l0.2,1h0.1c0.2-0.3,0.5-0.6,0.9-0.8s0.8-0.3,1.3-0.3
						c0.8,0,1.5,0.2,1.9,0.6s0.6,1.1,0.6,1.9v4.5H175.5z M179.7,351h-1.1v-7h1.1V351z M178.6,342.2c0-0.2,0.1-0.4,0.2-0.5
						s0.3-0.2,0.4-0.2c0.2,0,0.3,0.1,0.4,0.2s0.2,0.3,0.2,0.5s-0.1,0.4-0.2,0.5s-0.3,0.2-0.4,0.2c-0.2,0-0.3-0.1-0.4-0.2
						S178.6,342.4,178.6,342.2L178.6,342.2z M184.2,350.3c0.2,0,0.4,0,0.5,0s0.3-0.1,0.4-0.1v0.8c-0.1,0.1-0.3,0.1-0.5,0.1
						s-0.4,0.1-0.6,0.1c-1.3,0-2-0.7-2-2.1v-4.1h-1v-0.5l1-0.4l0.4-1.5h0.6v1.6h2v0.8h-2v4.1c0,0.4,0.1,0.7,0.3,1
						S183.9,350.3,184.2,350.3L184.2,350.3z M192.6,347.5c0,1.1-0.3,2-0.9,2.7s-1.4,1-2.4,1c-0.6,0-1.2-0.1-1.7-0.4
						s-0.9-0.7-1.1-1.3s-0.4-1.2-0.4-1.9c0-1.1,0.3-2,0.9-2.7s1.4-0.9,2.4-0.9c1,0,1.7,0.3,2.3,1S192.6,346.4,192.6,347.5
						L192.6,347.5z M187.3,347.5c0,0.9,0.2,1.6,0.5,2s0.9,0.7,1.6,0.7s1.2-0.2,1.6-0.7s0.5-1.1,0.5-2c0-0.9-0.2-1.6-0.5-2
						s-0.9-0.7-1.6-0.7c-0.7,0-1.2,0.2-1.6,0.7S187.3,346.6,187.3,347.5L187.3,347.5z M197.6,343.9c0.3,0,0.6,0,0.8,0.1l-0.1,1
						c-0.3-0.1-0.5-0.1-0.8-0.1c-0.6,0-1,0.2-1.4,0.7s-0.6,1-0.6,1.7v3.7h-1.1v-7h0.9l0.1,1.3h0.1c0.3-0.5,0.6-0.8,0.9-1
						S197.2,343.9,197.6,343.9L197.6,343.9z M200.8,351h-1.1v-7h1.1V351z M199.6,342.2c0-0.2,0.1-0.4,0.2-0.5s0.3-0.2,0.4-0.2
						c0.2,0,0.3,0.1,0.4,0.2s0.2,0.3,0.2,0.5s-0.1,0.4-0.2,0.5s-0.3,0.2-0.4,0.2c-0.2,0-0.3-0.1-0.4-0.2S199.6,342.4,199.6,342.2
						L199.6,342.2z M207.8,351v-4.5c0-0.6-0.1-1-0.4-1.3s-0.7-0.4-1.2-0.4c-0.7,0-1.3,0.2-1.6,0.6s-0.5,1-0.5,1.9v3.6H203v-7h0.9
						l0.2,1h0.1c0.2-0.3,0.5-0.6,0.9-0.8s0.8-0.3,1.3-0.3c0.8,0,1.5,0.2,1.9,0.6s0.6,1.1,0.6,1.9v4.5H207.8z M216.7,344v0.7
						l-1.3,0.2c0.1,0.1,0.2,0.3,0.3,0.6s0.1,0.5,0.1,0.8c0,0.7-0.2,1.2-0.7,1.6s-1.1,0.6-1.9,0.6c-0.2,0-0.4,0-0.6-0.1
						c-0.4,0.2-0.7,0.5-0.7,0.9c0,0.2,0.1,0.3,0.2,0.4s0.4,0.1,0.8,0.1h1.2c0.8,0,1.3,0.2,1.7,0.5s0.6,0.8,0.6,1.4
						c0,0.8-0.3,1.4-0.9,1.8s-1.5,0.6-2.7,0.6c-0.9,0-1.6-0.2-2.1-0.5s-0.7-0.8-0.7-1.4c0-0.4,0.1-0.8,0.4-1.1s0.7-0.5,1.1-0.6
						c-0.2-0.1-0.3-0.2-0.4-0.4s-0.2-0.4-0.2-0.6c0-0.3,0.1-0.5,0.2-0.7s0.3-0.4,0.6-0.6c-0.4-0.1-0.7-0.4-0.9-0.8s-0.3-0.8-0.3-1.2
						c0-0.8,0.2-1.3,0.7-1.8s1.1-0.6,1.9-0.6c0.4,0,0.7,0,1,0.1H216.7z M211.1,352.2c0,0.4,0.2,0.7,0.5,0.9s0.8,0.3,1.4,0.3
						c0.9,0,1.5-0.1,2-0.4s0.6-0.6,0.6-1.1c0-0.4-0.1-0.6-0.3-0.8s-0.7-0.2-1.3-0.2h-1.3c-0.5,0-0.9,0.1-1.1,0.3
						S211.1,351.7,211.1,352.2L211.1,352.2z M211.7,346.3c0,0.5,0.1,0.9,0.4,1.1s0.7,0.4,1.1,0.4c1,0,1.5-0.5,1.5-1.5
						c0-1-0.5-1.6-1.6-1.6c-0.5,0-0.9,0.1-1.1,0.4S211.7,345.7,211.7,346.3L211.7,346.3z M156.4,369l-1.2-3h-3.7l-1.1,3h-1.1
						l3.7-9.3h0.9l3.6,9.3H156.4z M154.9,365.1l-1.1-2.9c-0.1-0.4-0.3-0.8-0.4-1.3c-0.1,0.4-0.2,0.9-0.4,1.3l-1.1,2.9H154.9z
						 M162.1,359.7l-3.5,9.3h-1.1l3.5-9.3H162.1z M163.5,359.7h2.6c1.2,0,2.1,0.2,2.7,0.6s0.8,1,0.8,1.7c0,0.6-0.2,1-0.5,1.4
						s-0.8,0.6-1.3,0.7v0.1c1.4,0.2,2.1,1,2.1,2.2c0,0.8-0.3,1.5-0.8,1.9s-1.3,0.7-2.4,0.7h-3.2V359.7z M164.6,363.7h1.8
						c0.8,0,1.3-0.1,1.6-0.4s0.5-0.6,0.5-1.2c0-0.5-0.2-0.9-0.6-1.1s-1-0.3-1.8-0.3h-1.6V363.7z M164.6,364.6v3.5h1.9
						c0.7,0,1.3-0.1,1.7-0.4s0.6-0.7,0.6-1.4c0-0.6-0.2-1-0.6-1.3s-1-0.4-1.8-0.4H164.6z M178.2,369h-1.1v-8.3h-2.9v-1h7v1h-2.9V369
						z M185.3,369.1c-1,0-1.8-0.3-2.4-0.9s-0.9-1.5-0.9-2.6c0-1.1,0.3-2,0.8-2.7s1.3-1,2.2-1c0.9,0,1.6,0.3,2.1,0.9s0.8,1.3,0.8,2.3
						v0.7h-4.8c0,0.8,0.2,1.4,0.6,1.9c0.4,0.4,0.9,0.6,1.7,0.6c0.7,0,1.5-0.2,2.2-0.5v0.9c-0.4,0.2-0.7,0.3-1.1,0.3
						S185.8,369.1,185.3,369.1L185.3,369.1z M185,362.8c-0.6,0-1,0.2-1.3,0.5s-0.5,0.9-0.6,1.5h3.6c0-0.7-0.1-1.2-0.4-1.5
						S185.6,362.8,185,362.8L185,362.8z M194.2,367.1c0,0.6-0.2,1.1-0.7,1.5s-1.2,0.5-2,0.5c-0.9,0-1.6-0.1-2.2-0.4v-1
						c0.3,0.2,0.7,0.3,1.1,0.4s0.8,0.1,1.1,0.1c0.6,0,1-0.1,1.3-0.3s0.4-0.4,0.4-0.8c0-0.3-0.1-0.5-0.4-0.7s-0.7-0.4-1.4-0.7
						c-0.6-0.2-1.1-0.5-1.4-0.6s-0.5-0.4-0.6-0.6s-0.2-0.5-0.2-0.8c0-0.6,0.2-1,0.7-1.3s1.1-0.5,1.9-0.5c0.7,0,1.5,0.2,2.2,0.5
						l-0.4,0.9c-0.7-0.3-1.3-0.4-1.9-0.4c-0.5,0-0.9,0.1-1.1,0.2s-0.4,0.4-0.4,0.6c0,0.2,0,0.3,0.1,0.5s0.2,0.3,0.5,0.4
						s0.6,0.3,1.2,0.5c0.8,0.3,1.4,0.6,1.7,0.9S194.2,366.6,194.2,367.1L194.2,367.1z M198.1,368.3c0.2,0,0.4,0,0.5,0
						s0.3-0.1,0.4-0.1v0.8c-0.1,0.1-0.3,0.1-0.5,0.1s-0.4,0.1-0.6,0.1c-1.3,0-2-0.7-2-2.1v-4.1h-1v-0.5l1-0.4l0.4-1.5h0.6v1.6h2v0.8
						h-2v4.1c0,0.4,0.1,0.7,0.3,1S197.8,368.3,198.1,368.3L198.1,368.3z M201.5,369h-1.1v-7h1.1V369z M200.4,360.2
						c0-0.2,0.1-0.4,0.2-0.5s0.3-0.2,0.4-0.2c0.2,0,0.3,0.1,0.4,0.2s0.2,0.3,0.2,0.5s-0.1,0.4-0.2,0.5s-0.3,0.2-0.4,0.2
						c-0.2,0-0.3-0.1-0.4-0.2S200.4,360.4,200.4,360.2L200.4,360.2z M208.5,369v-4.5c0-0.6-0.1-1-0.4-1.3s-0.7-0.4-1.2-0.4
						c-0.7,0-1.3,0.2-1.6,0.6s-0.5,1-0.5,1.9v3.6h-1.1v-7h0.9l0.2,1h0.1c0.2-0.3,0.5-0.6,0.9-0.8s0.8-0.3,1.3-0.3
						c0.8,0,1.5,0.2,1.9,0.6s0.6,1.1,0.6,1.9v4.5H208.5z M217.4,362v0.7l-1.3,0.2c0.1,0.1,0.2,0.3,0.3,0.6s0.1,0.5,0.1,0.8
						c0,0.7-0.2,1.2-0.7,1.6s-1.1,0.6-1.9,0.6c-0.2,0-0.4,0-0.6-0.1c-0.4,0.2-0.7,0.5-0.7,0.9c0,0.2,0.1,0.3,0.2,0.4
						s0.4,0.1,0.8,0.1h1.2c0.8,0,1.3,0.2,1.7,0.5s0.6,0.8,0.6,1.4c0,0.8-0.3,1.4-0.9,1.8s-1.5,0.6-2.7,0.6c-0.9,0-1.6-0.2-2.1-0.5
						s-0.7-0.8-0.7-1.4c0-0.4,0.1-0.8,0.4-1.1s0.7-0.5,1.1-0.6c-0.2-0.1-0.3-0.2-0.4-0.4s-0.2-0.4-0.2-0.6c0-0.3,0.1-0.5,0.2-0.7
						s0.3-0.4,0.6-0.6c-0.4-0.1-0.7-0.4-0.9-0.8s-0.3-0.8-0.3-1.2c0-0.8,0.2-1.3,0.7-1.8s1.1-0.6,1.9-0.6c0.4,0,0.7,0,1,0.1H217.4z
						 M211.9,370.2c0,0.4,0.2,0.7,0.5,0.9s0.8,0.3,1.4,0.3c0.9,0,1.5-0.1,2-0.4s0.6-0.6,0.6-1.1c0-0.4-0.1-0.6-0.3-0.8
						s-0.7-0.2-1.3-0.2h-1.3c-0.5,0-0.9,0.1-1.1,0.3S211.9,369.7,211.9,370.2L211.9,370.2z M212.4,364.3c0,0.5,0.1,0.9,0.4,1.1
						s0.7,0.4,1.1,0.4c1,0,1.5-0.5,1.5-1.5c0-1-0.5-1.6-1.6-1.6c-0.5,0-0.9,0.1-1.1,0.4S212.4,363.7,212.4,364.3L212.4,364.3z"/>
				</g>
				<g id="arrow_1_" transform="translate(149.000000, 0.000000)">
					<path id="Line_1_" sketch:type="MSShapeGroup" class="st7" d="M297,222h14"/>
					<path id="Line-decoration-1_1_" class="st7" d="M300.2,225l10.8-3l-10.8-3"/>
					<path id="Path-202_1_" sketch:type="MSShapeGroup" class="st4" d="M305.8,222H140.1c0,0-14.1,0-14.1,14.1c0,14.1,0,9.5,0,9.5"
						/>
					<path id="Weekly-review" sketch:type="MSShapeGroup" class="st1" d="M189.2,213h-1.1l-0.3-6.1c0-0.6-0.1-1.2-0.1-1.8h0
						c-0.1,0.3-0.2,0.6-0.4,1s-1.2,2.7-3.2,6.9h-1.1l-0.4-9.3h1.1l0.2,5.7l0,0.6c0,0.4,0,1-0.1,1.6h0c0.4-1,0.7-1.8,1-2.4l2.6-5.5
						h1.1l0.3,5.5c0,0.6,0.1,1.3,0.1,1.9l0,0.5h0.1c0.3-0.9,0.6-1.7,0.8-2.2l2.5-5.7h1.2L189.2,213z M195.4,213.1
						c-0.8,0-1.4-0.2-1.8-0.7s-0.7-1.1-0.7-1.9c0-0.8,0.2-1.6,0.5-2.3s0.7-1.3,1.3-1.7s1.1-0.6,1.7-0.6c0.6,0,1.1,0.1,1.5,0.4
						s0.5,0.7,0.5,1.2c0,0.8-0.4,1.4-1.1,1.8s-1.7,0.7-3,0.7h-0.2l0,0.5c0,0.6,0.1,1,0.4,1.3s0.7,0.5,1.2,0.5c0.3,0,0.5,0,0.8-0.1
						s0.6-0.2,1.1-0.4v0.9c-0.4,0.2-0.7,0.3-1.1,0.4S195.8,213.1,195.4,213.1L195.4,213.1z M196.3,206.8c-0.4,0-0.8,0.2-1.2,0.6
						s-0.7,1-0.9,1.7h0.1c1,0,1.7-0.1,2.2-0.4s0.8-0.6,0.8-1.1c0-0.2-0.1-0.4-0.2-0.6S196.7,206.8,196.3,206.8L196.3,206.8z
						 M201.9,213.1c-0.8,0-1.4-0.2-1.8-0.7s-0.7-1.1-0.7-1.9c0-0.8,0.2-1.6,0.5-2.3s0.7-1.3,1.3-1.7s1.1-0.6,1.7-0.6
						c0.6,0,1.1,0.1,1.5,0.4s0.5,0.7,0.5,1.2c0,0.8-0.4,1.4-1.1,1.8s-1.7,0.7-3,0.7h-0.2l0,0.5c0,0.6,0.1,1,0.4,1.3s0.7,0.5,1.2,0.5
						c0.3,0,0.5,0,0.8-0.1s0.6-0.2,1.1-0.4v0.9c-0.4,0.2-0.7,0.3-1.1,0.4S202.2,213.1,201.9,213.1L201.9,213.1z M202.7,206.8
						c-0.4,0-0.8,0.2-1.2,0.6s-0.7,1-0.9,1.7h0.1c1,0,1.7-0.1,2.2-0.4s0.8-0.6,0.8-1.1c0-0.2-0.1-0.4-0.2-0.6
						S203.1,206.8,202.7,206.8L202.7,206.8z M207.2,209.5l3.3-3.4h1.3l-3,3l1.9,4h-1.2l-1.5-3.3l-1,0.8l-0.5,2.5h-1.1l2.1-9.9h1.1
						c-0.3,1.4-0.6,2.7-0.8,3.8S207.4,208.9,207.2,209.5L207.2,209.5z M212.9,213h-1.1l2.1-9.9h1.1L212.9,213z M215.4,206h1.1
						l0.5,3.5c0,0.3,0.1,0.7,0.1,1.3s0.1,1,0.1,1.4h0c0.1-0.4,0.3-0.8,0.6-1.3s0.4-0.8,0.5-1l2.1-3.9h1.1l-4.4,8.1
						c-0.4,0.7-0.8,1.2-1.2,1.5s-0.8,0.4-1.4,0.4c-0.3,0-0.6,0-0.9-0.1v-0.9c0.3,0.1,0.5,0.1,0.8,0.1c0.3,0,0.6-0.1,0.9-0.3
						s0.5-0.5,0.7-0.9l0.5-0.9L215.4,206z M228.9,205.9c0.3,0,0.5,0,0.8,0.1l-0.2,1c-0.2-0.1-0.4-0.1-0.7-0.1
						c-0.4,0-0.7,0.1-1.1,0.4s-0.6,0.6-0.9,1.1s-0.4,1-0.6,1.5l-0.7,3.2h-1.1l1.5-7h0.9l-0.1,1.3h0.1c0.3-0.4,0.6-0.7,0.8-0.9
						c0.2-0.2,0.4-0.3,0.6-0.4S228.7,205.9,228.9,205.9L228.9,205.9z M232.4,213.1c-0.8,0-1.4-0.2-1.8-0.7s-0.7-1.1-0.7-1.9
						c0-0.8,0.2-1.6,0.5-2.3s0.7-1.3,1.3-1.7s1.1-0.6,1.7-0.6c0.6,0,1.1,0.1,1.5,0.4c0.3,0.3,0.5,0.7,0.5,1.2c0,0.8-0.4,1.4-1.1,1.8
						s-1.7,0.7-3,0.7h-0.2l0,0.5c0,0.6,0.1,1,0.4,1.3s0.7,0.5,1.2,0.5c0.3,0,0.5,0,0.8-0.1c0.3-0.1,0.6-0.2,1.1-0.4v0.9
						c-0.4,0.2-0.7,0.3-1.1,0.4S232.8,213.1,232.4,213.1L232.4,213.1z M233.3,206.8c-0.4,0-0.8,0.2-1.2,0.6s-0.7,1-0.9,1.7h0.1
						c1,0,1.7-0.1,2.2-0.4s0.8-0.6,0.8-1.1c0-0.2-0.1-0.4-0.2-0.6S233.6,206.8,233.3,206.8L233.3,206.8z M237.1,213l-0.8-7h1.1
						l0.4,3.9c0.1,1.1,0.2,1.9,0.2,2.3h0c0.5-1.2,0.9-1.9,1.1-2.4l2.1-3.8h1.1l-3.8,7H237.1z M243.2,213h-1.1l1.5-7h1.1L243.2,213z
						 M243.9,204.3c0-0.2,0.1-0.4,0.2-0.6s0.3-0.2,0.5-0.2c0.4,0,0.6,0.2,0.6,0.6c0,0.2-0.1,0.4-0.2,0.6s-0.3,0.2-0.5,0.2
						c-0.2,0-0.3-0.1-0.4-0.2S243.9,204.5,243.9,204.3L243.9,204.3z M248.2,213.1c-0.8,0-1.4-0.2-1.8-0.7s-0.7-1.1-0.7-1.9
						c0-0.8,0.2-1.6,0.5-2.3s0.7-1.3,1.3-1.7s1.1-0.6,1.7-0.6c0.6,0,1.1,0.1,1.5,0.4s0.5,0.7,0.5,1.2c0,0.8-0.4,1.4-1.1,1.8
						s-1.7,0.7-3,0.7h-0.2l0,0.5c0,0.6,0.1,1,0.4,1.3s0.7,0.5,1.2,0.5c0.3,0,0.5,0,0.8-0.1c0.3-0.1,0.6-0.2,1.1-0.4v0.9
						c-0.4,0.2-0.7,0.3-1.1,0.4S248.5,213.1,248.2,213.1L248.2,213.1z M249,206.8c-0.4,0-0.8,0.2-1.2,0.6s-0.7,1-0.9,1.7h0.1
						c1,0,1.7-0.1,2.2-0.4s0.8-0.6,0.8-1.1c0-0.2-0.1-0.4-0.2-0.6S249.4,206.8,249,206.8L249,206.8z M256.7,213l-0.2-3.8
						c0-0.4,0-0.8,0-1.1v-1h-0.1l-0.3,0.7l-0.5,1.2l-1.8,4h-1.3l-0.3-7h1l0.1,3.8v0.6c0,0.6,0,1.2-0.1,1.7h0c0.2-0.5,0.5-1.2,0.9-2
						l1.9-4h1.2l0.2,3.8c0,0.7,0,1.3,0,1.7v0.3l0,0.3h0c0.1-0.4,0.3-0.8,0.5-1.4s0.9-2.1,2.1-4.6h1.1l-3.2,7H256.7z"/>
				</g>
			</g>
			<g id="step_2_" transform="translate(155.000000, 40.000000)">
				<g id="bg_2_" transform="translate(417.000000, 12.000000)" sketch:type="MSShapeGroup" class="st0">
					<circle id="Oval-20_6_" class="st1" cx="265.5" cy="342.5" r="139.5"/>
				</g>
				<rect id="Rectangle-5_1_" x="833" y="337" sketch:type="MSShapeGroup" class="st3" width="0.5" height="35">
				</rect>
				<path id="Shape_21_" sketch:type="MSShapeGroup" class="st10" d="M540.2,404c0.8,2.4,1.7,4.8,2.7,7.1C565,466.1,619,505,682,505
					c63.8,0,118.3-39.9,140-96c0.6-1.7,1.3-3.4,1.8-5.1c5.3-15.3,8.2-31.8,8.2-48.9c0-17.2-2.9-33.8-8.3-49.2
					c-0.7-2.1-1.5-4.1-2.3-6.2c-22-55.4-76.2-94.6-139.4-94.6c-62.6,0-116.2,38.3-138.7,92.8c-1.1,2.7-2.1,5.3-3.1,8.1
					c-5.3,15.4-8.2,31.9-8.2,49.1C532,372.1,534.9,388.6,540.2,404L540.2,404z M538.3,404.6L538.3,404.6
					c-5.5-15.8-8.3-32.5-8.3-49.6c0-17.1,2.8-33.9,8.3-49.8c1-2.8,2-5.5,3.1-8.2c23.3-56.4,78.4-94,140.6-94
					c62.8,0,118.5,38.5,141.3,95.9c0.8,2.1,1.6,4.2,2.3,6.3c5.5,15.9,8.4,32.7,8.4,49.9c0,17.1-2.8,33.7-8.3,49.6
					c-0.6,1.7-1.2,3.4-1.9,5.1C801.4,467.8,745.4,507,682,507c-62.5,0-118-38.1-141-95.2C540,409.5,539.1,407,538.3,404.6
					L538.3,404.6z"/>
				<path id="Oval-20_7_" sketch:type="MSShapeGroup" class="st2" d="M540.2,404L540.2,404c0.8,2.4,1.7,4.8,2.7,7.1
					C565,466.1,619,505,682,505c63.8,0,118.3-39.9,140-96c0.6-1.7,1.3-3.4,1.8-5.1c5.3-15.3,8.2-31.8,8.2-48.9
					c0-17.2-2.9-33.8-8.3-49.2c-0.7-2.1-1.5-4.1-2.3-6.2c-22-55.4-76.2-94.6-139.4-94.6c-62.6,0-116.2,38.3-138.7,92.8
					c-1.1,2.7-2.1,5.3-3.1,8.1"/>
				<path id="Oval-20_8_" sketch:type="MSShapeGroup" class="st4" d="M543.3,297.8c-1.1,2.7-2.1,5.3-3.1,8.1
					c-5.3,15.4-8.2,31.9-8.2,49.1c0,17.1,2.9,33.6,8.2,49l0,0c0.8,2.4,1.7,4.8,2.7,7.1"/>
				<g id="icn_2_" transform="translate(520.000000, 106.000000)" sketch:type="MSShapeGroup">
					<path id="Rectangle-120_2_" class="st1" d="M164,203L164,203c21,0,38,17,38,38l0,0c0,21-17,38-38,38l0,0c-21,0-38-17-38-38l0,0
						C126,220,143,203,164,203z"/>
					<g id="icn-chat" transform="translate(19.000000, 24.000000)">
						<path id="Shape_22_" class="st11" d="M130,211h20v-1h-20V211L130,211z"/>
						<path id="Shape_23_" class="st11" d="M130,215h1v-1h-1V215L130,215z"/>
						<path id="Shape_24_" class="st11" d="M132,215h1v-1h-1V215L132,215z"/>
						<path id="Shape_25_" class="st11" d="M134,215h1v-1h-1V215L134,215z"/>
						<path id="Shape_26_" class="st11" d="M148,213v-1h-18v1H148z"/>
						<path id="Shape_27_" class="st11" d="M142,217v-1h-12v1H142z"/>
						<path id="Shape_28_" class="st11" d="M142,221v-1h-12v1H142z"/>
						<path id="Shape_29_" class="st11" d="M160,223v-1h-6v1H160z"/>
						<path id="Shape_30_" class="st11" d="M160,225v-1h-3v1H160z"/>
						<path id="Shape_31_" class="st11" d="M146,219v-1h-16v1H146z"/>
						<path id="Path-27" class="st12" d="M128,203c0,0-2,0-2,2v22c0,0,0,2,2,2h2v5l6-5h26c0,0,2,0,2-2v-22c0,0,0-2-2-2H128z"/>
					</g>
				</g>
				<g id="labels_2_" transform="translate(521.000000, 72.000000)" sketch:type="MSShapeGroup">
					<path id="Learn" class="st1" d="M126.6,226v-22.8h2.7v20.4h10.1v2.4H126.6z M149.1,226.3c-2.5,0-4.5-0.8-6-2.3
						s-2.2-3.7-2.2-6.4c0-2.8,0.7-5,2-6.6s3.2-2.4,5.5-2.4c2.1,0,3.8,0.7,5.1,2.1s1.9,3.3,1.9,5.6v1.6h-11.8c0.1,2,0.6,3.5,1.5,4.6
						s2.3,1.6,4.1,1.6c1.8,0,3.7-0.4,5.5-1.2v2.3c-0.9,0.4-1.8,0.7-2.6,0.9S150.2,226.3,149.1,226.3L149.1,226.3z M148.4,210.7
						c-1.4,0-2.5,0.4-3.3,1.3s-1.3,2.1-1.4,3.7h9c0-1.6-0.4-2.9-1.1-3.8S149.7,210.7,148.4,210.7L148.4,210.7z M169.3,226l-0.5-2.4
						h-0.1c-0.9,1.1-1.7,1.8-2.6,2.2s-1.9,0.6-3.2,0.6c-1.7,0-3-0.4-4-1.3s-1.4-2.1-1.4-3.7c0-3.5,2.8-5.3,8.3-5.4l2.9-0.1v-1.1
						c0-1.3-0.3-2.3-0.9-3s-1.5-1-2.8-1c-1.4,0-3,0.4-4.8,1.3l-0.8-2c0.8-0.5,1.8-0.8,2.8-1.1s2-0.4,3-0.4c2,0,3.6,0.5,4.5,1.4
						s1.5,2.4,1.5,4.4V226H169.3z M163.5,224.2c1.6,0,2.9-0.4,3.8-1.3s1.4-2.1,1.4-3.7v-1.5l-2.6,0.1c-2.1,0.1-3.5,0.4-4.5,1
						s-1.4,1.5-1.4,2.6c0,0.9,0.3,1.7,0.9,2.1S162.4,224.2,163.5,224.2L163.5,224.2z M183.4,208.6c0.8,0,1.4,0.1,2,0.2l-0.4,2.4
						c-0.7-0.2-1.3-0.2-1.9-0.2c-1.4,0-2.6,0.6-3.6,1.7s-1.5,2.5-1.5,4.2v9.2h-2.6v-17.1h2.1l0.3,3.2h0.1c0.6-1.1,1.4-2,2.3-2.6
						S182.3,208.6,183.4,208.6L183.4,208.6z M199.4,226v-11.1c0-1.4-0.3-2.4-1-3.1s-1.6-1-3-1c-1.8,0-3.1,0.5-3.9,1.5
						s-1.2,2.6-1.2,4.8v9h-2.6v-17.1h2.1l0.4,2.3h0.1c0.5-0.8,1.3-1.5,2.2-2s2-0.7,3.2-0.7c2.1,0,3.6,0.5,4.7,1.5s1.6,2.6,1.6,4.8
						V226H199.4z"/>
					<path id="Metrics" class="st1" d="M146.1,333l-3.1-8.2h-0.1c0.1,0.7,0.1,1.4,0.1,2.3v5.9h-1v-9.3h1.6l2.9,7.7h0.1l3-7.7h1.6
						v9.3h-1.1v-6c0-0.7,0-1.4,0.1-2.2h-0.1l-3.2,8.2H146.1z M156.5,333.1c-1,0-1.8-0.3-2.4-0.9s-0.9-1.5-0.9-2.6
						c0-1.1,0.3-2,0.8-2.7s1.3-1,2.2-1c0.9,0,1.6,0.3,2.1,0.9s0.8,1.3,0.8,2.3v0.7h-4.8c0,0.8,0.2,1.4,0.6,1.9
						c0.4,0.4,0.9,0.6,1.7,0.6c0.7,0,1.5-0.2,2.2-0.5v0.9c-0.4,0.2-0.7,0.3-1.1,0.3S157,333.1,156.5,333.1L156.5,333.1z
						 M156.2,326.8c-0.6,0-1,0.2-1.3,0.5s-0.5,0.9-0.6,1.5h3.6c0-0.7-0.1-1.2-0.4-1.5S156.8,326.8,156.2,326.8L156.2,326.8z
						 M163.1,332.3c0.2,0,0.4,0,0.5,0s0.3-0.1,0.4-0.1v0.8c-0.1,0.1-0.3,0.1-0.5,0.1s-0.4,0.1-0.6,0.1c-1.3,0-2-0.7-2-2.1v-4.1h-1
						v-0.5l1-0.4l0.4-1.5h0.6v1.6h2v0.8h-2v4.1c0,0.4,0.1,0.7,0.3,1S162.7,332.3,163.1,332.3L163.1,332.3z M168.6,325.9
						c0.3,0,0.6,0,0.8,0.1l-0.1,1c-0.3-0.1-0.5-0.1-0.8-0.1c-0.6,0-1,0.2-1.4,0.7s-0.6,1-0.6,1.7v3.7h-1.1v-7h0.9l0.1,1.3h0.1
						c0.3-0.5,0.6-0.8,0.9-1S168.2,325.9,168.6,325.9L168.6,325.9z M171.8,333h-1.1v-7h1.1V333z M170.7,324.2c0-0.2,0.1-0.4,0.2-0.5
						s0.3-0.2,0.4-0.2c0.2,0,0.3,0.1,0.4,0.2s0.2,0.3,0.2,0.5c0,0.2-0.1,0.4-0.2,0.5s-0.3,0.2-0.4,0.2c-0.2,0-0.3-0.1-0.4-0.2
						S170.7,324.4,170.7,324.2L170.7,324.2z M176.8,333.1c-1,0-1.8-0.3-2.3-0.9s-0.8-1.5-0.8-2.6c0-1.2,0.3-2.1,0.8-2.7s1.4-1,2.4-1
						c0.3,0,0.7,0,1,0.1s0.6,0.2,0.8,0.3l-0.3,0.9c-0.2-0.1-0.5-0.2-0.8-0.2s-0.5-0.1-0.7-0.1c-1.4,0-2.1,0.9-2.1,2.7
						c0,0.9,0.2,1.5,0.5,2s0.9,0.7,1.5,0.7c0.6,0,1.2-0.1,1.8-0.4v0.9C178.1,333,177.5,333.1,176.8,333.1L176.8,333.1z M184.7,331.1
						c0,0.6-0.2,1.1-0.7,1.5s-1.2,0.5-2,0.5c-0.9,0-1.6-0.1-2.2-0.4v-1c0.3,0.2,0.7,0.3,1.1,0.4s0.8,0.1,1.1,0.1
						c0.6,0,1-0.1,1.3-0.3s0.4-0.4,0.4-0.8c0-0.3-0.1-0.5-0.4-0.7s-0.7-0.4-1.4-0.7c-0.6-0.2-1.1-0.5-1.4-0.6s-0.5-0.4-0.6-0.6
						s-0.2-0.5-0.2-0.8c0-0.6,0.2-1,0.7-1.3s1.1-0.5,1.9-0.5c0.7,0,1.5,0.2,2.2,0.5l-0.4,0.9c-0.7-0.3-1.3-0.4-1.9-0.4
						c-0.5,0-0.9,0.1-1.1,0.2s-0.4,0.4-0.4,0.6c0,0.2,0,0.3,0.1,0.5s0.2,0.3,0.5,0.4s0.6,0.3,1.2,0.5c0.8,0.3,1.4,0.6,1.7,0.9
						S184.7,330.6,184.7,331.1L184.7,331.1z M139.4,341.7h1.2l-3.3,9.3h-1.1l-3.3-9.3h1.1l2.1,6c0.2,0.7,0.4,1.4,0.6,2
						c0.2-0.7,0.4-1.4,0.6-2.1L139.4,341.7z M145.9,351l-0.2-1h-0.1c-0.3,0.4-0.7,0.7-1,0.9s-0.8,0.2-1.3,0.2
						c-0.7,0-1.2-0.2-1.6-0.5c-0.4-0.4-0.6-0.9-0.6-1.5c0-1.4,1.1-2.1,3.4-2.2l1.2,0v-0.4c0-0.5-0.1-0.9-0.4-1.2s-0.6-0.4-1.1-0.4
						c-0.6,0-1.2,0.2-2,0.5l-0.3-0.8c0.3-0.2,0.7-0.3,1.1-0.4s0.8-0.2,1.2-0.2c0.8,0,1.4,0.2,1.8,0.6s0.6,1,0.6,1.8v4.7H145.9z
						 M143.5,350.3c0.7,0,1.2-0.2,1.5-0.5s0.6-0.9,0.6-1.5v-0.6l-1.1,0c-0.8,0-1.4,0.2-1.8,0.4s-0.6,0.6-0.6,1.1
						c0,0.4,0.1,0.7,0.3,0.9S143.1,350.3,143.5,350.3L143.5,350.3z M149.9,351h-1.1v-9.9h1.1V351z M153.2,351h-1.1v-7h1.1V351z
						 M152.1,342.2c0-0.2,0.1-0.4,0.2-0.5s0.3-0.2,0.4-0.2c0.2,0,0.3,0.1,0.4,0.2s0.2,0.3,0.2,0.5s-0.1,0.4-0.2,0.5
						s-0.3,0.2-0.4,0.2c-0.2,0-0.3-0.1-0.4-0.2S152.1,342.4,152.1,342.2L152.1,342.2z M160.2,350.1L160.2,350.1
						c-0.5,0.7-1.3,1.1-2.2,1.1c-0.9,0-1.6-0.3-2.1-0.9s-0.8-1.5-0.8-2.7s0.3-2,0.8-2.7s1.2-1,2.1-1c0.9,0,1.7,0.3,2.2,1h0.1l0-0.5
						l0-0.5v-2.8h1.1v9.9h-0.9L160.2,350.1z M158.1,350.2c0.7,0,1.2-0.2,1.6-0.6s0.5-1,0.5-1.9v-0.2c0-1-0.2-1.7-0.5-2.1
						s-0.9-0.6-1.6-0.6c-0.6,0-1.1,0.2-1.4,0.7c-0.3,0.5-0.5,1.2-0.5,2c0,0.9,0.2,1.6,0.5,2S157.4,350.2,158.1,350.2L158.1,350.2z
						 M167.7,351l-0.2-1h-0.1c-0.3,0.4-0.7,0.7-1,0.9s-0.8,0.2-1.3,0.2c-0.7,0-1.2-0.2-1.6-0.5s-0.6-0.9-0.6-1.5
						c0-1.4,1.1-2.1,3.4-2.2l1.2,0v-0.4c0-0.5-0.1-0.9-0.4-1.2s-0.6-0.4-1.1-0.4c-0.6,0-1.2,0.2-2,0.5l-0.3-0.8
						c0.3-0.2,0.7-0.3,1.1-0.4s0.8-0.2,1.2-0.2c0.8,0,1.4,0.2,1.8,0.6s0.6,1,0.6,1.8v4.7H167.7z M165.3,350.3c0.7,0,1.2-0.2,1.5-0.5
						s0.6-0.9,0.6-1.5v-0.6l-1.1,0c-0.8,0-1.4,0.2-1.8,0.4s-0.6,0.6-0.6,1.1c0,0.4,0.1,0.7,0.3,0.9S164.9,350.3,165.3,350.3
						L165.3,350.3z M172.9,350.3c0.2,0,0.4,0,0.5,0s0.3-0.1,0.4-0.1v0.8c-0.1,0.1-0.3,0.1-0.5,0.1s-0.4,0.1-0.6,0.1
						c-1.3,0-2-0.7-2-2.1v-4.1h-1v-0.5l1-0.4l0.4-1.5h0.6v1.6h2v0.8h-2v4.1c0,0.4,0.1,0.7,0.3,1S172.5,350.3,172.9,350.3
						L172.9,350.3z M176.3,351h-1.1v-7h1.1V351z M175.1,342.2c0-0.2,0.1-0.4,0.2-0.5s0.3-0.2,0.4-0.2c0.2,0,0.3,0.1,0.4,0.2
						s0.2,0.3,0.2,0.5s-0.1,0.4-0.2,0.5s-0.3,0.2-0.4,0.2c-0.2,0-0.3-0.1-0.4-0.2S175.1,342.4,175.1,342.2L175.1,342.2z
						 M184.5,347.5c0,1.1-0.3,2-0.9,2.7s-1.4,1-2.4,1c-0.6,0-1.2-0.1-1.7-0.4s-0.9-0.7-1.1-1.3s-0.4-1.2-0.4-1.9
						c0-1.1,0.3-2,0.9-2.7s1.4-0.9,2.4-0.9c1,0,1.7,0.3,2.3,1S184.5,346.4,184.5,347.5L184.5,347.5z M179.2,347.5
						c0,0.9,0.2,1.6,0.5,2s0.9,0.7,1.6,0.7s1.2-0.2,1.6-0.7s0.5-1.1,0.5-2c0-0.9-0.2-1.6-0.5-2s-0.9-0.7-1.6-0.7
						c-0.7,0-1.2,0.2-1.6,0.7S179.2,346.6,179.2,347.5L179.2,347.5z M191.1,351v-4.5c0-0.6-0.1-1-0.4-1.3s-0.7-0.4-1.2-0.4
						c-0.7,0-1.3,0.2-1.6,0.6s-0.5,1-0.5,1.9v3.6h-1.1v-7h0.9l0.2,1h0.1c0.2-0.3,0.5-0.6,0.9-0.8s0.8-0.3,1.3-0.3
						c0.8,0,1.5,0.2,1.9,0.6s0.6,1.1,0.6,1.9v4.5H191.1z M133.5,369h-1.1v-9.3h5.2v1h-4.1v3.4h3.8v1h-3.8V369z M141.9,369.1
						c-1,0-1.8-0.3-2.4-0.9s-0.9-1.5-0.9-2.6c0-1.1,0.3-2,0.8-2.7s1.3-1,2.2-1c0.9,0,1.6,0.3,2.1,0.9s0.8,1.3,0.8,2.3v0.7h-4.8
						c0,0.8,0.2,1.4,0.6,1.9c0.4,0.4,0.9,0.6,1.7,0.6c0.7,0,1.5-0.2,2.2-0.5v0.9c-0.4,0.2-0.7,0.3-1.1,0.3S142.4,369.1,141.9,369.1
						L141.9,369.1z M141.6,362.8c-0.6,0-1,0.2-1.3,0.5s-0.5,0.9-0.6,1.5h3.6c0-0.7-0.1-1.2-0.4-1.5S142.2,362.8,141.6,362.8
						L141.6,362.8z M149.2,369.1c-1,0-1.8-0.3-2.4-0.9s-0.9-1.5-0.9-2.6c0-1.1,0.3-2,0.8-2.7s1.3-1,2.2-1c0.9,0,1.6,0.3,2.1,0.9
						s0.8,1.3,0.8,2.3v0.7H147c0,0.8,0.2,1.4,0.6,1.9c0.4,0.4,0.9,0.6,1.7,0.6c0.7,0,1.5-0.2,2.2-0.5v0.9c-0.4,0.2-0.7,0.3-1.1,0.3
						S149.7,369.1,149.2,369.1L149.2,369.1z M148.9,362.8c-0.6,0-1,0.2-1.3,0.5s-0.5,0.9-0.6,1.5h3.6c0-0.7-0.1-1.2-0.4-1.5
						S149.5,362.8,148.9,362.8L148.9,362.8z M158.3,368.1L158.3,368.1c-0.5,0.7-1.3,1.1-2.2,1.1c-0.9,0-1.6-0.3-2.1-0.9
						s-0.8-1.5-0.8-2.7s0.3-2,0.8-2.7s1.2-1,2.1-1c0.9,0,1.7,0.3,2.2,1h0.1l0-0.5l0-0.5v-2.8h1.1v9.9h-0.9L158.3,368.1z
						 M156.2,368.2c0.7,0,1.2-0.2,1.6-0.6s0.5-1,0.5-1.9v-0.2c0-1-0.2-1.7-0.5-2.1s-0.9-0.6-1.6-0.6c-0.6,0-1.1,0.2-1.4,0.7
						c-0.3,0.5-0.5,1.2-0.5,2c0,0.9,0.2,1.6,0.5,2S155.6,368.2,156.2,368.2L156.2,368.2z M164.8,361.9c0.9,0,1.6,0.3,2.1,0.9
						s0.8,1.5,0.8,2.7s-0.3,2-0.8,2.7s-1.2,0.9-2.1,0.9c-0.5,0-0.9-0.1-1.2-0.3s-0.7-0.4-0.9-0.8h-0.1l-0.2,0.9h-0.8v-9.9h1.1v2.4
						c0,0.5,0,1-0.1,1.4h0.1C163.1,362.3,163.8,361.9,164.8,361.9L164.8,361.9z M164.6,362.8c-0.7,0-1.2,0.2-1.6,0.6
						s-0.5,1.1-0.5,2.1s0.2,1.7,0.5,2.1s0.8,0.6,1.6,0.6c0.6,0,1.1-0.2,1.4-0.7s0.5-1.1,0.5-2c0-0.9-0.2-1.6-0.5-2
						S165.3,362.8,164.6,362.8L164.6,362.8z M173.8,369l-0.2-1h-0.1c-0.3,0.4-0.7,0.7-1,0.9s-0.8,0.2-1.3,0.2
						c-0.7,0-1.2-0.2-1.6-0.5s-0.6-0.9-0.6-1.5c0-1.4,1.1-2.1,3.4-2.2l1.2,0v-0.4c0-0.5-0.1-0.9-0.4-1.2s-0.6-0.4-1.1-0.4
						c-0.6,0-1.2,0.2-2,0.5l-0.3-0.8c0.3-0.2,0.7-0.3,1.1-0.4s0.8-0.2,1.2-0.2c0.8,0,1.4,0.2,1.8,0.6s0.6,1,0.6,1.8v4.7H173.8z
						 M171.4,368.3c0.7,0,1.2-0.2,1.5-0.5s0.6-0.9,0.6-1.5v-0.6l-1.1,0c-0.8,0-1.4,0.2-1.8,0.4s-0.6,0.6-0.6,1.1
						c0,0.4,0.1,0.7,0.3,0.9S171,368.3,171.4,368.3L171.4,368.3z M179.5,369.1c-1,0-1.8-0.3-2.3-0.9s-0.8-1.5-0.8-2.6
						c0-1.2,0.3-2.1,0.8-2.7s1.4-1,2.4-1c0.3,0,0.7,0,1,0.1s0.6,0.2,0.8,0.3l-0.3,0.9c-0.2-0.1-0.5-0.2-0.8-0.2s-0.5-0.1-0.7-0.1
						c-1.4,0-2.1,0.9-2.1,2.7c0,0.9,0.2,1.5,0.5,2s0.9,0.7,1.5,0.7c0.6,0,1.2-0.1,1.8-0.4v0.9C180.8,369,180.2,369.1,179.5,369.1
						L179.5,369.1z M184,365.4c0.2-0.3,0.5-0.6,0.8-1l2.2-2.4h1.3l-2.8,3l3,4h-1.3l-2.5-3.3l-0.8,0.7v2.6h-1v-9.9h1v5.2
						C184,364.6,184,365,184,365.4L184,365.4z M194.2,367.1c0,0.6-0.2,1.1-0.7,1.5s-1.2,0.5-2,0.5c-0.9,0-1.6-0.1-2.2-0.4v-1
						c0.3,0.2,0.7,0.3,1.1,0.4s0.8,0.1,1.1,0.1c0.6,0,1-0.1,1.3-0.3s0.4-0.4,0.4-0.8c0-0.3-0.1-0.5-0.4-0.7s-0.7-0.4-1.4-0.7
						c-0.6-0.2-1.1-0.5-1.4-0.6s-0.5-0.4-0.6-0.6s-0.2-0.5-0.2-0.8c0-0.6,0.2-1,0.7-1.3s1.1-0.5,1.9-0.5c0.7,0,1.5,0.2,2.2,0.5
						l-0.4,0.9c-0.7-0.3-1.3-0.4-1.9-0.4c-0.5,0-0.9,0.1-1.1,0.2s-0.4,0.4-0.4,0.6c0,0.2,0,0.3,0.1,0.5s0.2,0.3,0.5,0.4
						s0.6,0.3,1.2,0.5c0.8,0.3,1.4,0.6,1.7,0.9S194.2,366.6,194.2,367.1L194.2,367.1z"/>
				</g>
				<g id="arrow_2_" transform="translate(0.000000, 302.000000)">
					<path id="Line_2_" sketch:type="MSShapeGroup" class="st7" d="M139,228h-13"/>
					<path id="Line-decoration-1_2_" class="st7" d="M136.8,225l-10.8,3l10.8,3"/>
					<path id="Path-202_2_" sketch:type="MSShapeGroup" class="st4" d="M132,227.8h536.7c0,0,14.1,0,14.1-14.1c0-14.1,0-9.5,0-9.5"
						/>
					<path id="New-iteration" sketch:type="MSShapeGroup" class="st1" d="M373.2,247h-1.1l-2.9-7.8h0c-0.1,0.9-0.3,1.8-0.5,2.7
						l-1.1,5.1h-1l2-9.3h1.1l2.9,7.7h0c0.1-0.9,0.3-1.8,0.5-2.6l1.1-5.2h1L373.2,247z M378.3,247.1c-0.8,0-1.4-0.2-1.8-0.7
						s-0.7-1.1-0.7-1.9c0-0.8,0.2-1.6,0.5-2.3s0.7-1.3,1.3-1.7s1.1-0.6,1.7-0.6c0.6,0,1.1,0.1,1.5,0.4s0.5,0.7,0.5,1.2
						c0,0.8-0.4,1.4-1.1,1.8s-1.7,0.7-3,0.7h-0.2l0,0.5c0,0.6,0.1,1,0.4,1.3s0.7,0.5,1.2,0.5c0.3,0,0.5,0,0.8-0.1s0.6-0.2,1.1-0.4
						v0.9c-0.4,0.2-0.7,0.3-1.1,0.4S378.6,247.1,378.3,247.1L378.3,247.1z M379.2,240.8c-0.4,0-0.8,0.2-1.2,0.6s-0.7,1-0.9,1.7h0.1
						c1,0,1.7-0.1,2.2-0.4s0.8-0.6,0.8-1.1c0-0.2-0.1-0.4-0.2-0.6S379.5,240.8,379.2,240.8L379.2,240.8z M386.8,247l-0.2-3.8
						c0-0.4,0-0.8,0-1.1v-1h-0.1l-0.3,0.7l-0.5,1.2l-1.8,4h-1.3l-0.3-7h1l0.1,3.8v0.6c0,0.6,0,1.2-0.1,1.7h0c0.2-0.5,0.5-1.2,0.9-2
						l1.9-4h1.2l0.2,3.8c0,0.7,0,1.3,0,1.7v0.3l0,0.3h0c0.1-0.4,0.3-0.8,0.5-1.4s0.9-2.1,2.1-4.6h1.1l-3.2,7H386.8z M395.7,247h-1.1
						l1.5-7h1.1L395.7,247z M396.4,238.3c0-0.2,0.1-0.4,0.2-0.6s0.3-0.2,0.5-0.2c0.4,0,0.6,0.2,0.6,0.6c0,0.2-0.1,0.4-0.2,0.6
						s-0.3,0.2-0.5,0.2c-0.2,0-0.3-0.1-0.4-0.2S396.4,238.5,396.4,238.3L396.4,238.3z M400.1,246.3c0.2,0,0.5-0.1,0.9-0.2v0.8
						c-0.1,0.1-0.3,0.1-0.5,0.2s-0.4,0.1-0.5,0.1c-0.5,0-0.9-0.1-1.2-0.4s-0.4-0.6-0.4-1.1c0-0.3,0-0.6,0.1-1l0.8-3.8h-1.1l0.1-0.5
						l1.2-0.5l0.8-1.4h0.6l-0.3,1.6h1.7l-0.2,0.8h-1.7l-0.8,3.8c-0.1,0.4-0.1,0.6-0.1,0.8c0,0.2,0.1,0.4,0.2,0.5
						S399.8,246.3,400.1,246.3L400.1,246.3z M404.9,247.1c-0.8,0-1.4-0.2-1.8-0.7s-0.7-1.1-0.7-1.9c0-0.8,0.2-1.6,0.5-2.3
						s0.7-1.3,1.3-1.7s1.1-0.6,1.7-0.6c0.6,0,1.1,0.1,1.5,0.4s0.5,0.7,0.5,1.2c0,0.8-0.4,1.4-1.1,1.8s-1.7,0.7-3,0.7h-0.2l0,0.5
						c0,0.6,0.1,1,0.4,1.3s0.7,0.5,1.2,0.5c0.3,0,0.5,0,0.8-0.1s0.6-0.2,1.1-0.4v0.9c-0.4,0.2-0.7,0.3-1.1,0.4
						S405.3,247.1,404.9,247.1L404.9,247.1z M405.8,240.8c-0.4,0-0.8,0.2-1.2,0.6s-0.7,1-0.9,1.7h0.1c1,0,1.7-0.1,2.2-0.4
						s0.8-0.6,0.8-1.1c0-0.2-0.1-0.4-0.2-0.6S406.1,240.8,405.8,240.8L405.8,240.8z M413,239.9c0.3,0,0.5,0,0.8,0.1l-0.2,1
						c-0.2-0.1-0.4-0.1-0.7-0.1c-0.4,0-0.7,0.1-1.1,0.4s-0.6,0.6-0.9,1.1s-0.4,1-0.6,1.5l-0.7,3.2h-1.1l1.5-7h0.9l-0.1,1.3h0.1
						c0.3-0.4,0.6-0.7,0.8-0.9s0.4-0.3,0.6-0.4S412.7,239.9,413,239.9L413,239.9z M417.4,239.9c0.4,0,0.7,0.1,1,0.3s0.5,0.5,0.7,0.9
						h0.1l0.4-1.1h0.8l-1.5,7h-0.8l0.2-1.3h-0.1c-0.8,1-1.6,1.5-2.4,1.5c-0.6,0-1-0.2-1.4-0.6s-0.5-1-0.5-1.7c0-0.9,0.2-1.7,0.5-2.5
						s0.7-1.3,1.2-1.8S416.8,239.9,417.4,239.9L417.4,239.9z M416.2,246.2c0.4,0,0.8-0.2,1.2-0.6s0.7-0.9,1-1.5s0.4-1.3,0.4-1.9
						c0-0.4-0.1-0.8-0.4-1s-0.5-0.4-0.9-0.4c-0.4,0-0.8,0.2-1.2,0.5s-0.7,0.9-0.9,1.5s-0.3,1.3-0.3,2c0,0.5,0.1,0.8,0.3,1.1
						S415.8,246.2,416.2,246.2L416.2,246.2z M423.2,246.3c0.2,0,0.5-0.1,0.9-0.2v0.8c-0.1,0.1-0.3,0.1-0.5,0.2s-0.4,0.1-0.5,0.1
						c-0.5,0-0.9-0.1-1.2-0.4s-0.4-0.6-0.4-1.1c0-0.3,0-0.6,0.1-1l0.8-3.8h-1.1l0.1-0.5l1.2-0.5l0.8-1.4h0.6l-0.3,1.6h1.7l-0.2,0.8
						h-1.7l-0.8,3.8c-0.1,0.4-0.1,0.6-0.1,0.8c0,0.2,0.1,0.4,0.2,0.5S423,246.3,423.2,246.3L423.2,246.3z M426.3,247h-1.1l1.5-7h1.1
						L426.3,247z M427,238.3c0-0.2,0.1-0.4,0.2-0.6s0.3-0.2,0.5-0.2c0.4,0,0.6,0.2,0.6,0.6c0,0.2-0.1,0.4-0.2,0.6s-0.3,0.2-0.5,0.2
						c-0.2,0-0.3-0.1-0.4-0.2S427,238.5,427,238.3L427,238.3z M432.3,240c0.8,0,1.4,0.2,1.9,0.7s0.7,1.1,0.7,2
						c0,0.8-0.2,1.5-0.5,2.3s-0.7,1.3-1.2,1.6s-1.1,0.6-1.8,0.6c-0.8,0-1.4-0.2-1.9-0.7s-0.7-1.1-0.7-2c0-0.8,0.2-1.6,0.5-2.3
						s0.7-1.3,1.3-1.6S431.6,240,432.3,240L432.3,240z M433.8,242.5c0-0.5-0.1-0.9-0.4-1.2s-0.6-0.5-1.1-0.5c-0.5,0-0.9,0.2-1.2,0.5
						s-0.6,0.7-0.9,1.3s-0.3,1.2-0.3,1.9c0,0.6,0.1,1,0.4,1.3s0.7,0.5,1.2,0.5c0.4,0,0.8-0.2,1.2-0.5s0.6-0.7,0.8-1.3
						S433.8,243.2,433.8,242.5L433.8,242.5z M440.1,247l0.9-4.4c0.1-0.4,0.1-0.7,0.1-0.9c0-0.3-0.1-0.5-0.2-0.6s-0.4-0.2-0.7-0.2
						c-0.4,0-0.7,0.1-1.1,0.4s-0.7,0.6-0.9,1.1s-0.5,1-0.6,1.7l-0.6,3h-1.1l1.5-7h0.9l-0.1,1.3h0.1c0.4-0.5,0.8-0.9,1.2-1.1
						s0.8-0.3,1.2-0.3c0.5,0,1,0.1,1.3,0.4s0.5,0.7,0.5,1.2c0,0.3,0,0.7-0.1,1.1l-0.9,4.3H440.1z"/>
				</g>
			</g>
		</g>
	</g>
</g>
</svg>
