<?xml version="1.0" encoding="utf-8"?>
<!-- Generator: Adobe Illustrator 19.1.0, SVG Export Plug-In . SVG Version: 6.00 Build 0)  -->
<svg version="1.1" id="Layer_1" xmlns:sketch="http://www.bohemiancoding.com/sketch/ns"
	 xmlns="http://www.w3.org/2000/svg" xmlns:xlink="http://www.w3.org/1999/xlink" x="0px" y="0px" viewBox="-134 30 342 733"
	 style="enable-background:new -134 30 342 733;" xml:space="preserve">
<style type="text/css">
	.st0{opacity:4.415812e-02;}
	.st1{fill:#FFFFFF;}
	.st2{fill:none;stroke:#FFFFFF;stroke-width:1.6933;}
	.st3{opacity:1.000000e-02;fill:#FFFFFF;enable-background:new    ;}
	.st4{fill:none;stroke:#FFFFFF;stroke-width:1.6933;stroke-dasharray:1.6933;}
	.st5{fill:#9A4C84;}
	.st6{fill:none;stroke:#9A4C84;stroke-width:2;stroke-linecap:round;stroke-linejoin:round;}
	.st7{fill:none;stroke:#FFFFFF;stroke-width:2;stroke-linecap:square;}
	.st8{fill:none;stroke:#FFFFFF;stroke-width:2;stroke-dasharray:2;}
	.st9{fill:#D1697E;}
	.st10{fill:none;stroke:#D1697E;stroke-linejoin:round;}
	.st11{fill:#E9897C;}
	.st12{fill:none;stroke:#E9897C;stroke-width:2;}
</style>
<title>img-graph-mobile</title>
<desc>Created with Sketch.</desc>
<g id="icns" sketch:type="MSPage">
	<g id="imgs" transform="translate(-394.000000, -2702.000000)" sketch:type="MSArtboardGroup">
		<g id="graphs" transform="translate(0.000000, 1417.000000)" sketch:type="MSLayerGroup">
			<g id="img-graph-mobile" transform="translate(394.000000, 1285.000000)">
				<g id="step">
					
						<g id="bg" transform="translate(172.000000, 127.500000) rotate(-270.000000) translate(-172.000000, -127.500000) translate(44.500000, 0.500000)" sketch:type="MSShapeGroup">
						<g id="Oval-20" transform="translate(10.313333, 9.313333)" class="st0">
							<circle class="st1" cx="148.1" cy="252.1" r="118.1"/>
						</g>
						<path id="Oval-20_1_" class="st2" d="M278,219.3c-17.2-49.7-64.5-85.3-120-85.3c-55.6,0-102.8,35.7-120,85.4
							c-4.5,13-7,27-7,41.6c0,14.5,2.4,28.5,6.9,41.5l0,0C55.1,352.2,102.4,388,158,388c55.6,0,102.9-35.8,120.1-85.6"/>
						
							<rect id="Rectangle-909" x="-4.2" y="261.2" transform="matrix(2.535182e-06 1 -1 2.535182e-06 291.7499 231.2493)" class="st3" width="69" height="0.5"/>
						<path id="Oval-20_2_" class="st4" d="M276.5,306.7c0.5-1.4,1.1-2.8,1.6-4.3c4.5-13,6.9-26.9,6.9-41.4c0-14.6-2.5-28.6-7-41.7
							c-0.6-1.8-1.3-3.5-2-5.2"/>
					</g>
					<g id="icn" transform="translate(134.000000, 84.000000)" sketch:type="MSShapeGroup">
						<path id="Rectangle-120" class="st1" d="M-96,30L-96,30c21,0,38,17,38,38l0,0c0,21-17,38-38,38l0,0c-21,0-38-17-38-38l0,0
							C-134,47-117,30-96,30z"/>
						<g id="icn-develop" transform="translate(19.000000, 23.000000)">
							<circle id="Oval-32" class="st5" cx="-102" cy="55" r="1"/>
							<path id="Shape" class="st5" d="M-99,35L-99,35v-2c0-1.3-0.6-2.2-1.6-2.6c-0.5-0.3-1.1-0.4-1.4-0.4h-26
								c-0.4,0-0.9,0.1-1.4,0.4c-1,0.5-1.6,1.4-1.6,2.6c0,1,0,1,0,3c0,2.3,0,2.3,0,4.9c0,2.3,0,2.3,0,4.4c0,2.9,0,2.9,0,3.7l0,0
								c0,0.4,0.1,0.9,0.4,1.4c0.5,1,1.4,1.6,2.6,1.6h16c0.6,0,1-0.4,1-1s-0.4-1-1-1h-16c-0.5,0-0.7-0.1-0.9-0.4
								c-0.1-0.2-0.1-0.4-0.1-0.6l0,0c0-0.8,0-0.8,0-3.7c0-2.1,0-2.1,0-4.4c0-2.6,0-2.6,0-4.9c0-2,0-2,0-3c0-0.5,0.1-0.7,0.4-0.9
								c0.2-0.1,0.4-0.1,0.6-0.1h26c0.1,0,0.3,0,0.6,0.1c0.3,0.1,0.4,0.4,0.4,0.9v1.9V35c0,0.6,0.4,1,1,1S-99,35.6-99,35L-99,35z"/>
							<path id="Shape_1_" class="st5" d="M-106,38c-0.4,0-0.9,0.1-1.4,0.4c-1,0.5-1.6,1.4-1.6,2.6v16c0,0.4,0.1,0.9,0.4,1.4
								c0.5,1,1.4,1.6,2.6,1.6h8c0.4,0,0.9-0.1,1.4-0.4c1-0.5,1.6-1.4,1.6-2.6V41c0-0.4-0.1-0.9-0.4-1.4c-0.5-1-1.4-1.6-2.6-1.6
								H-106L-106,38z M-106,40h8c0.5,0,0.7,0.1,0.9,0.4C-97,40.7-97,40.9-97,41v16c0,0.5-0.1,0.7-0.4,0.9C-97.7,58-97.9,58-98,58
								h-8c-0.5,0-0.7-0.1-0.9-0.4c-0.1-0.2-0.1-0.4-0.1-0.6V41c0-0.5,0.1-0.7,0.4-0.9C-106.3,40-106.1,40-106,40L-106,40z"/>
							<path id="Shape_2_" class="st5" d="M-104,43h4v-1h-4V43L-104,43z"/>
							<path id="Path-133" class="st6" d="M-112,55h-22v3c0,0,0,1,3,1h19"/>
							<path id="Shape_3_" class="st5" d="M-126,37h4v-1h-4V37L-126,37z"/>
							<path id="Shape_4_" class="st5" d="M-126,41h4v-1h-4V41L-126,41z"/>
							<path id="Shape_5_" class="st5" d="M-118,39v-1h-8v1H-118z"/>
							<path id="Shape_6_" class="st5" d="M-118,43v-1h-8v1H-118z"/>
							<path id="Shape_7_" class="st5" d="M-118,45v-1h-8v1H-118z"/>
						</g>
					</g>
					<g id="labels" transform="translate(137.000000, 48.000000)" sketch:type="MSShapeGroup">
						<path id="Build" class="st1" d="M-131.4,32.2h6.5c3,0,5.2,0.5,6.6,1.4s2,2.3,2,4.3c0,1.4-0.4,2.5-1.1,3.4s-1.9,1.5-3.3,1.7V43
							c3.5,0.6,5.2,2.4,5.2,5.5c0,2-0.7,3.6-2.1,4.8s-3.3,1.7-5.8,1.7h-8V32.2z M-128.8,41.9h4.4c1.9,0,3.2-0.3,4-0.9s1.2-1.6,1.2-3
							c0-1.3-0.5-2.2-1.4-2.8s-2.4-0.9-4.4-0.9h-3.9V41.9z M-128.8,44.2v8.5h4.8c1.8,0,3.2-0.4,4.2-1.1s1.4-1.8,1.4-3.4
							c0-1.4-0.5-2.5-1.4-3.1s-2.4-1-4.4-1H-128.8z M-109.7,37.9V49c0,1.4,0.3,2.4,1,3.1s1.6,1,3,1c1.8,0,3.1-0.5,3.9-1.5
							s1.2-2.6,1.2-4.8v-9h2.6V55h-2.1l-0.4-2.3h-0.1c-0.5,0.8-1.3,1.5-2.2,1.9c-0.9,0.4-2,0.7-3.2,0.7c-2.1,0-3.6-0.5-4.7-1.5
							s-1.6-2.6-1.6-4.8V37.9H-109.7z M-90.9,55h-2.6V37.9h2.6V55z M-93.7,33.2c0-0.6,0.1-1,0.4-1.3s0.7-0.4,1.1-0.4
							c0.4,0,0.8,0.1,1.1,0.4c0.3,0.3,0.5,0.7,0.5,1.3s-0.2,1-0.5,1.3s-0.7,0.4-1.1,0.4c-0.4,0-0.8-0.1-1.1-0.4
							S-93.7,33.8-93.7,33.2L-93.7,33.2z M-83.8,55h-2.6V30.7h2.6V55z M-67.6,52.7h-0.1c-1.2,1.7-3,2.6-5.4,2.6
							c-2.2,0-4-0.8-5.2-2.3s-1.9-3.7-1.9-6.5s0.6-5,1.9-6.6s3-2.3,5.2-2.3c2.3,0,4.1,0.8,5.3,2.5h0.2l-0.1-1.2l-0.1-1.2v-7h2.6V55
							h-2.1L-67.6,52.7z M-72.8,53.1c1.8,0,3.1-0.5,3.9-1.4s1.2-2.5,1.2-4.7v-0.5c0-2.4-0.4-4.2-1.2-5.2s-2.1-1.6-3.9-1.6
							c-1.5,0-2.7,0.6-3.5,1.8s-1.2,2.9-1.2,5c0,2.2,0.4,3.8,1.2,5S-74.4,53.1-72.8,53.1L-72.8,53.1z"/>
						<path id="UX-study" class="st1" d="M-118,152.7v6c0,1.1-0.3,1.9-1,2.5s-1.5,0.9-2.6,0.9s-2-0.3-2.6-0.9s-0.9-1.4-0.9-2.5v-6
							h1.1v6.1c0,0.8,0.2,1.4,0.6,1.8s1,0.6,1.9,0.6c0.8,0,1.4-0.2,1.8-0.6s0.6-1,0.6-1.8v-6H-118z M-109.4,162h-1.2l-2.5-4.1
							l-2.5,4.1h-1.1l3.1-4.8l-2.9-4.4h1.2l2.3,3.7l2.3-3.7h1.1l-2.9,4.4L-109.4,162z M-100.4,160.1c0,0.6-0.2,1.1-0.7,1.5
							s-1.2,0.5-2,0.5c-0.9,0-1.6-0.1-2.2-0.4v-1c0.3,0.2,0.7,0.3,1.1,0.4s0.8,0.1,1.1,0.1c0.6,0,1-0.1,1.3-0.3s0.4-0.4,0.4-0.8
							c0-0.3-0.1-0.5-0.4-0.7s-0.7-0.4-1.4-0.7c-0.6-0.2-1.1-0.5-1.4-0.6s-0.5-0.4-0.6-0.6s-0.2-0.5-0.2-0.8c0-0.6,0.2-1,0.7-1.3
							s1.1-0.5,1.9-0.5c0.7,0,1.5,0.2,2.2,0.5l-0.4,0.9c-0.7-0.3-1.3-0.4-1.9-0.4c-0.5,0-0.9,0.1-1.1,0.2s-0.4,0.4-0.4,0.6
							c0,0.2,0,0.3,0.1,0.5s0.2,0.3,0.5,0.4s0.6,0.3,1.2,0.5c0.8,0.3,1.4,0.6,1.7,0.9S-100.4,159.6-100.4,160.1L-100.4,160.1z
							 M-96.4,161.3c0.2,0,0.4,0,0.5,0s0.3-0.1,0.4-0.1v0.8c-0.1,0.1-0.3,0.1-0.5,0.1s-0.4,0.1-0.6,0.1c-1.3,0-2-0.7-2-2.1v-4.1h-1
							v-0.5l1-0.4l0.4-1.5h0.6v1.6h2v0.8h-2v4.1c0,0.4,0.1,0.7,0.3,1S-96.8,161.3-96.4,161.3L-96.4,161.3z M-93.1,155v4.5
							c0,0.6,0.1,1,0.4,1.3s0.7,0.4,1.2,0.4c0.7,0,1.3-0.2,1.6-0.6s0.5-1,0.5-1.9V155h1.1v7h-0.9l-0.2-0.9h-0.1
							c-0.2,0.3-0.5,0.6-0.9,0.8s-0.8,0.3-1.3,0.3c-0.8,0-1.5-0.2-1.9-0.6s-0.6-1-0.6-1.9V155H-93.1z M-81.3,161.1L-81.3,161.1
							c-0.5,0.7-1.3,1.1-2.2,1.1c-0.9,0-1.6-0.3-2.1-0.9s-0.8-1.5-0.8-2.7s0.3-2,0.8-2.7s1.2-1,2.1-1c0.9,0,1.7,0.3,2.2,1h0.1l0-0.5
							l0-0.5v-2.8h1.1v9.9h-0.9L-81.3,161.1z M-83.5,161.2c0.7,0,1.2-0.2,1.6-0.6s0.5-1,0.5-1.9v-0.2c0-1-0.2-1.7-0.5-2.1
							s-0.9-0.6-1.6-0.6c-0.6,0-1.1,0.2-1.4,0.7s-0.5,1.2-0.5,2c0,0.9,0.2,1.6,0.5,2S-84.1,161.2-83.5,161.2L-83.5,161.2z
							 M-79.2,155h1.1l1.5,4c0.3,0.9,0.5,1.6,0.6,2h0.1c0.1-0.2,0.2-0.6,0.3-1.1s0.8-2.1,1.7-4.8h1.1l-3,7.9c-0.3,0.8-0.6,1.3-1,1.7
							s-0.9,0.5-1.5,0.5c-0.3,0-0.6,0-1-0.1v-0.8c0.2,0.1,0.5,0.1,0.8,0.1c0.7,0,1.2-0.4,1.5-1.2l0.4-1L-79.2,155z M-127.8,173.4
							c0,0.9-0.3,1.7-1,2.2c-0.6,0.5-1.6,0.8-2.8,0.8h-1.1v3.6h-1.1v-9.3h2.4C-129,170.7-127.8,171.6-127.8,173.4L-127.8,173.4z
							 M-132.6,175.4h1c1,0,1.6-0.2,2.1-0.5s0.6-0.8,0.6-1.5c0-0.6-0.2-1.1-0.6-1.4s-1-0.5-1.9-0.5h-1.2V175.4z M-122.8,172.9
							c0.3,0,0.6,0,0.8,0.1l-0.1,1c-0.3-0.1-0.5-0.1-0.8-0.1c-0.6,0-1,0.2-1.4,0.7s-0.6,1-0.6,1.7v3.7h-1.1v-7h0.9l0.1,1.3h0.1
							c0.3-0.5,0.6-0.8,0.9-1S-123.3,172.9-122.8,172.9L-122.8,172.9z M-114.7,176.5c0,1.1-0.3,2-0.9,2.7s-1.4,1-2.4,1
							c-0.6,0-1.2-0.1-1.7-0.4s-0.9-0.7-1.1-1.3s-0.4-1.2-0.4-1.9c0-1.1,0.3-2,0.9-2.7s1.4-0.9,2.4-0.9c1,0,1.7,0.3,2.3,1
							S-114.7,175.4-114.7,176.5L-114.7,176.5z M-120,176.5c0,0.9,0.2,1.6,0.5,2s0.9,0.7,1.6,0.7s1.2-0.2,1.6-0.7s0.5-1.1,0.5-2
							c0-0.9-0.2-1.6-0.5-2s-0.9-0.7-1.6-0.7c-0.7,0-1.2,0.2-1.6,0.7S-120,175.6-120,176.5L-120,176.5z M-110.6,179.3
							c0.2,0,0.4,0,0.5,0s0.3-0.1,0.4-0.1v0.8c-0.1,0.1-0.3,0.1-0.5,0.1s-0.4,0.1-0.6,0.1c-1.3,0-2-0.7-2-2.1v-4.1h-1v-0.5l1-0.4
							l0.4-1.5h0.6v1.6h2v0.8h-2v4.1c0,0.4,0.1,0.7,0.3,1S-111,179.3-110.6,179.3L-110.6,179.3z M-102.3,176.5c0,1.1-0.3,2-0.9,2.7
							s-1.4,1-2.4,1c-0.6,0-1.2-0.1-1.7-0.4s-0.9-0.7-1.1-1.3s-0.4-1.2-0.4-1.9c0-1.1,0.3-2,0.9-2.7s1.4-0.9,2.4-0.9
							c1,0,1.7,0.3,2.3,1S-102.3,175.4-102.3,176.5L-102.3,176.5z M-107.6,176.5c0,0.9,0.2,1.6,0.5,2s0.9,0.7,1.6,0.7
							s1.2-0.2,1.6-0.7s0.5-1.1,0.5-2c0-0.9-0.2-1.6-0.5-2s-0.9-0.7-1.6-0.7c-0.7,0-1.2,0.2-1.6,0.7S-107.6,175.6-107.6,176.5
							L-107.6,176.5z M-98.2,179.3c0.2,0,0.4,0,0.5,0s0.3-0.1,0.4-0.1v0.8c-0.1,0.1-0.3,0.1-0.5,0.1s-0.4,0.1-0.6,0.1
							c-1.3,0-2-0.7-2-2.1v-4.1h-1v-0.5l1-0.4l0.4-1.5h0.6v1.6h2v0.8h-2v4.1c0,0.4,0.1,0.7,0.3,1S-98.5,179.3-98.2,179.3
							L-98.2,179.3z M-96.9,173h1.1l1.5,4c0.3,0.9,0.5,1.6,0.6,2h0.1c0.1-0.2,0.2-0.6,0.3-1.1s0.8-2.1,1.7-4.8h1.1l-3,7.9
							c-0.3,0.8-0.6,1.3-1,1.7s-0.9,0.5-1.5,0.5c-0.3,0-0.6,0-1-0.1v-0.8c0.2,0.1,0.5,0.1,0.8,0.1c0.7,0,1.2-0.4,1.5-1.2l0.4-1
							L-96.9,173z M-86,180.1c-0.5,0-0.9-0.1-1.2-0.3s-0.7-0.4-0.9-0.8h-0.1c0.1,0.4,0.1,0.8,0.1,1.2v2.9h-1.1V173h0.9l0.1,1h0.1
							c0.3-0.4,0.6-0.7,0.9-0.8s0.8-0.3,1.2-0.3c0.9,0,1.6,0.3,2.1,0.9s0.8,1.5,0.8,2.7c0,1.1-0.3,2-0.8,2.7S-85.1,180.1-86,180.1
							L-86,180.1z M-86.2,173.8c-0.7,0-1.2,0.2-1.5,0.6s-0.5,1-0.5,1.9v0.2c0,1,0.2,1.7,0.5,2.1s0.8,0.6,1.6,0.6
							c0.6,0,1.1-0.2,1.4-0.7s0.5-1.2,0.5-2c0-0.9-0.2-1.5-0.5-2S-85.6,173.8-86.2,173.8L-86.2,173.8z M-80.3,180h-1.1v-7h1.1V180z
							 M-81.4,171.2c0-0.2,0.1-0.4,0.2-0.5s0.3-0.2,0.4-0.2c0.2,0,0.3,0.1,0.4,0.2s0.2,0.3,0.2,0.5s-0.1,0.4-0.2,0.5
							s-0.3,0.2-0.4,0.2c-0.2,0-0.3-0.1-0.4-0.2S-81.4,171.4-81.4,171.2L-81.4,171.2z M-73.3,180v-4.5c0-0.6-0.1-1-0.4-1.3
							s-0.7-0.4-1.2-0.4c-0.7,0-1.3,0.2-1.6,0.6s-0.5,1-0.5,1.9v3.6H-78v-7h0.9l0.2,1h0.1c0.2-0.3,0.5-0.6,0.9-0.8s0.8-0.3,1.3-0.3
							c0.8,0,1.5,0.2,1.9,0.6s0.6,1.1,0.6,1.9v4.5H-73.3z M-64.3,173v0.7l-1.3,0.2c0.1,0.1,0.2,0.3,0.3,0.6s0.1,0.5,0.1,0.8
							c0,0.7-0.2,1.2-0.7,1.6s-1.1,0.6-1.9,0.6c-0.2,0-0.4,0-0.6-0.1c-0.4,0.2-0.7,0.5-0.7,0.9c0,0.2,0.1,0.3,0.2,0.4
							s0.4,0.1,0.8,0.1h1.2c0.8,0,1.3,0.2,1.7,0.5s0.6,0.8,0.6,1.4c0,0.8-0.3,1.4-0.9,1.8s-1.5,0.6-2.7,0.6c-0.9,0-1.6-0.2-2.1-0.5
							s-0.7-0.8-0.7-1.4c0-0.4,0.1-0.8,0.4-1.1s0.7-0.5,1.1-0.6c-0.2-0.1-0.3-0.2-0.4-0.4s-0.2-0.4-0.2-0.6c0-0.3,0.1-0.5,0.2-0.7
							s0.3-0.4,0.6-0.6c-0.4-0.1-0.7-0.4-0.9-0.8s-0.3-0.8-0.3-1.2c0-0.8,0.2-1.3,0.7-1.8s1.1-0.6,1.9-0.6c0.4,0,0.7,0,1,0.1H-64.3z
							 M-69.9,181.2c0,0.4,0.2,0.7,0.5,0.9s0.8,0.3,1.4,0.3c0.9,0,1.5-0.1,2-0.4s0.6-0.6,0.6-1.1c0-0.4-0.1-0.6-0.3-0.8
							s-0.7-0.2-1.3-0.2h-1.3c-0.5,0-0.9,0.1-1.1,0.3S-69.9,180.7-69.9,181.2L-69.9,181.2z M-69.3,175.3c0,0.5,0.1,0.9,0.4,1.1
							s0.7,0.4,1.1,0.4c1,0,1.5-0.5,1.5-1.5c0-1-0.5-1.6-1.6-1.6c-0.5,0-0.9,0.1-1.1,0.4S-69.3,174.7-69.3,175.3L-69.3,175.3z
							 M-109.9,189.6c-1,0-1.8,0.3-2.4,1s-0.9,1.6-0.9,2.8c0,1.2,0.3,2.2,0.9,2.8s1.4,1,2.4,1c0.6,0,1.4-0.1,2.2-0.3v0.9
							c-0.6,0.2-1.4,0.4-2.4,0.4c-1.4,0-2.4-0.4-3.2-1.2s-1.1-2-1.1-3.5c0-1,0.2-1.8,0.5-2.5s0.9-1.3,1.5-1.7s1.5-0.6,2.4-0.6
							c1,0,1.8,0.2,2.6,0.5l-0.5,0.9C-108.5,189.7-109.2,189.6-109.9,189.6L-109.9,189.6z M-99.8,194.5c0,1.1-0.3,2-0.9,2.7
							s-1.4,1-2.4,1c-0.6,0-1.2-0.1-1.7-0.4s-0.9-0.7-1.1-1.3s-0.4-1.2-0.4-1.9c0-1.1,0.3-2,0.9-2.7s1.4-0.9,2.4-0.9
							c1,0,1.7,0.3,2.3,1S-99.8,193.4-99.8,194.5L-99.8,194.5z M-105.1,194.5c0,0.9,0.2,1.6,0.5,2s0.9,0.7,1.6,0.7s1.2-0.2,1.6-0.7
							s0.5-1.1,0.5-2c0-0.9-0.2-1.6-0.5-2s-0.9-0.7-1.6-0.7c-0.7,0-1.2,0.2-1.6,0.7S-105.1,193.6-105.1,194.5L-105.1,194.5z
							 M-93.3,197.1L-93.3,197.1c-0.5,0.7-1.3,1.1-2.2,1.1c-0.9,0-1.6-0.3-2.1-0.9s-0.8-1.5-0.8-2.7s0.3-2,0.8-2.7s1.2-1,2.1-1
							c0.9,0,1.7,0.3,2.2,1h0.1l0-0.5l0-0.5v-2.8h1.1v9.9h-0.9L-93.3,197.1z M-95.4,197.2c0.7,0,1.2-0.2,1.6-0.6s0.5-1,0.5-1.9v-0.2
							c0-1-0.2-1.7-0.5-2.1s-0.9-0.6-1.6-0.6c-0.6,0-1.1,0.2-1.4,0.7c-0.3,0.5-0.5,1.2-0.5,2c0,0.9,0.2,1.6,0.5,2
							S-96,197.2-95.4,197.2L-95.4,197.2z M-87.1,198.1c-1,0-1.8-0.3-2.4-0.9s-0.9-1.5-0.9-2.6c0-1.1,0.3-2,0.8-2.7s1.3-1,2.2-1
							c0.9,0,1.6,0.3,2.1,0.9s0.8,1.3,0.8,2.3v0.7h-4.8c0,0.8,0.2,1.4,0.6,1.9c0.4,0.4,0.9,0.6,1.7,0.6c0.7,0,1.5-0.2,2.2-0.5v0.9
							c-0.4,0.2-0.7,0.3-1.1,0.3S-86.6,198.1-87.1,198.1L-87.1,198.1z M-87.4,191.8c-0.6,0-1,0.2-1.3,0.5s-0.5,0.9-0.6,1.5h3.6
							c0-0.7-0.1-1.2-0.4-1.5S-86.8,191.8-87.4,191.8L-87.4,191.8z"/>
					</g>
					
						<g id="arrow" transform="translate(23.000000, 214.000000) rotate(-270.000000) translate(-23.000000, -214.000000) translate(-70.000000, 191.000000)">
						<path id="Line" sketch:type="MSShapeGroup" class="st7" d="M201,159h14"/>
						<path id="Line-decoration-1" class="st7" d="M204.2,162l10.8-3l-10.8-3"/>
						<path id="Path-202" sketch:type="MSShapeGroup" class="st8" d="M197.8,159H44.1c0,0-14.1,0-14.1-14.1c0-14.1,0-9.5,0-9.5"/>
						<path id="One-week-Sprint" sketch:type="MSShapeGroup" class="st1" d="M163.3,175c0-1.1,0.2-2.2,0.6-3.1s0.9-1.6,1.6-2.1
							s1.5-0.7,2.4-0.7c1.1,0,1.9,0.3,2.5,0.9s0.9,1.5,0.9,2.7c0,1.1-0.2,2.1-0.6,3.1s-1,1.6-1.7,2.1s-1.5,0.7-2.4,0.7
							c-1,0-1.8-0.3-2.4-1S163.3,176.1,163.3,175L163.3,175z M166.7,177.7c0.7,0,1.3-0.2,1.8-0.6s0.9-1,1.2-1.8s0.4-1.6,0.4-2.5
							c0-0.8-0.2-1.5-0.6-2s-1-0.7-1.7-0.7c-0.6,0-1.2,0.2-1.7,0.6s-0.9,1-1.2,1.8s-0.4,1.6-0.4,2.6c0,0.8,0.2,1.5,0.6,2
							S166,177.7,166.7,177.7L166.7,177.7z M158.2,169.2l-0.9,4.4c-0.1,0.4-0.1,0.7-0.1,0.9c0,0.3,0.1,0.5,0.2,0.6s0.4,0.2,0.7,0.2
							c0.4,0,0.7-0.1,1.1-0.4s0.7-0.6,0.9-1.1s0.5-1,0.6-1.7l0.6-3h1.1l-1.5,7h-0.9l0.1-1.3h-0.1c-0.4,0.5-0.8,0.9-1.2,1.1
							s-0.8,0.3-1.2,0.3c-0.5,0-1-0.1-1.3-0.4s-0.5-0.7-0.5-1.2c0-0.3,0-0.7,0.1-1.1l0.9-4.3H158.2z M152.2,169.1
							c0.8,0,1.4,0.2,1.8,0.7s0.7,1.1,0.7,1.9c0,0.8-0.2,1.6-0.5,2.3s-0.7,1.3-1.3,1.7s-1.1,0.6-1.7,0.6c-0.6,0-1.1-0.1-1.5-0.4
							s-0.5-0.7-0.5-1.2c0-0.8,0.4-1.4,1.1-1.8s1.7-0.7,3-0.7h0.2l0-0.5c0-0.6-0.1-1-0.4-1.3s-0.7-0.5-1.2-0.5c-0.3,0-0.5,0-0.8,0.1
							s-0.6,0.2-1.1,0.4v-0.9c0.4-0.2,0.7-0.3,1.1-0.4S151.9,169.1,152.2,169.1L152.2,169.1z M151.4,175.4c0.4,0,0.8-0.2,1.2-0.6
							s0.7-1,0.9-1.7h-0.1c-1,0-1.7,0.1-2.2,0.4s-0.8,0.6-0.8,1.1c0,0.2,0.1,0.4,0.2,0.6S151,175.4,151.4,175.4L151.4,175.4z
							 M140.3,169.2l0.2,3.8c0,0.4,0,0.8,0,1.1v1h0.1l0.3-0.7l0.5-1.2l1.8-4h1.3l0.3,7h-1l-0.1-3.8v-0.6c0-0.6,0-1.2,0.1-1.7h0
							c-0.2,0.5-0.5,1.2-0.9,2l-1.9,4h-1.2l-0.2-3.8c0-0.7,0-1.3,0-1.7v-0.3l0-0.3h0c-0.1,0.4-0.3,0.8-0.5,1.4s-0.9,2.1-2.1,4.6
							h-1.1l3.2-7H140.3z M133.1,169.1c0.8,0,1.4,0.2,1.8,0.7s0.7,1.1,0.7,1.9c0,0.8-0.2,1.6-0.5,2.3s-0.7,1.3-1.3,1.7
							s-1.1,0.6-1.7,0.6c-0.6,0-1.1-0.1-1.5-0.4s-0.5-0.7-0.5-1.2c0-0.8,0.4-1.4,1.1-1.8s1.7-0.7,3-0.7h0.2l0-0.5
							c0-0.6-0.1-1-0.4-1.3s-0.7-0.5-1.2-0.5c-0.3,0-0.5,0-0.8,0.1s-0.6,0.2-1.1,0.4v-0.9c0.4-0.2,0.7-0.3,1.1-0.4
							S132.8,169.1,133.1,169.1L133.1,169.1z M132.3,175.4c0.4,0,0.8-0.2,1.2-0.6s0.7-1,0.9-1.7h-0.1c-1,0-1.7,0.1-2.2,0.4
							s-0.8,0.6-0.8,1.1c0,0.2,0.1,0.4,0.2,0.6S131.9,175.4,132.3,175.4L132.3,175.4z M126.7,169.1c0.8,0,1.4,0.2,1.8,0.7
							s0.7,1.1,0.7,1.9c0,0.8-0.2,1.6-0.5,2.3s-0.7,1.3-1.3,1.7s-1.1,0.6-1.7,0.6c-0.6,0-1.1-0.1-1.5-0.4s-0.5-0.7-0.5-1.2
							c0-0.8,0.4-1.4,1.1-1.8s1.7-0.7,3-0.7h0.2l0-0.5c0-0.6-0.1-1-0.4-1.3s-0.7-0.5-1.2-0.5c-0.3,0-0.5,0-0.8,0.1s-0.6,0.2-1.1,0.4
							v-0.9c0.4-0.2,0.7-0.3,1.1-0.4S126.4,169.1,126.7,169.1L126.7,169.1z M125.8,175.4c0.4,0,0.8-0.2,1.2-0.6s0.7-1,0.9-1.7h-0.1
							c-1,0-1.7,0.1-2.2,0.4s-0.8,0.6-0.8,1.1c0,0.2,0.1,0.4,0.2,0.6S125.5,175.4,125.8,175.4L125.8,175.4z M121.3,172.8l-3.3,3.4
							h-1.3l3-3l-1.9-4h1.2l1.5,3.3l1-0.8l0.5-2.5h1.1l-2.1,9.9h-1.1c0.3-1.4,0.6-2.7,0.8-3.8S121.2,173.3,121.3,172.8L121.3,172.8z
							 M107.9,171.9c0-0.9,0.3-1.6,0.9-2.1s1.4-0.7,2.5-0.7c0.4,0,0.8,0,1.2,0.1s0.7,0.2,1,0.3v1.1c-0.7-0.4-1.4-0.5-2.2-0.5
							c-0.7,0-1.2,0.2-1.6,0.5s-0.6,0.8-0.6,1.3c0,0.3,0.1,0.6,0.3,0.9s0.6,0.5,1.2,0.9c0.6,0.4,1.1,0.7,1.3,1.1s0.4,0.8,0.4,1.3
							c0,0.8-0.3,1.4-0.8,1.9s-1.3,0.7-2.2,0.7c-0.4,0-0.8,0-1.2-0.1s-0.7-0.2-1.1-0.4l0.4-1c0.3,0.2,0.6,0.3,0.9,0.4s0.7,0.1,1,0.1
							c0.6,0,1-0.1,1.4-0.4s0.5-0.7,0.5-1.2c0-0.2,0-0.4-0.1-0.6s-0.2-0.3-0.3-0.5s-0.5-0.3-0.9-0.6c-0.6-0.4-1-0.7-1.3-0.9
							c-0.2-0.2-0.4-0.4-0.5-0.7S107.9,172.3,107.9,171.9L107.9,171.9z M103.7,169.1c0.4,0,0.8,0.1,1.1,0.3s0.5,0.5,0.7,0.9h0.1
							l0-0.2c0-0.1,0-0.3,0.1-0.4s0.3-1.4,0.7-3.5h1.1l-2.1,10.1h-0.9l0.2-1.3h-0.1c-0.8,1-1.5,1.4-2.4,1.4c-0.6,0-1-0.2-1.4-0.6
							s-0.5-1-0.5-1.7c0-0.9,0.1-1.7,0.4-2.5s0.7-1.3,1.2-1.7S103.1,169.1,103.7,169.1L103.7,169.1z M102.6,175.4
							c0.4,0,0.8-0.2,1.2-0.6s0.8-0.9,1-1.5s0.4-1.2,0.4-1.9c0-0.5-0.1-0.8-0.4-1.1s-0.6-0.4-1-0.4c-0.4,0-0.8,0.2-1.2,0.5
							s-0.7,0.8-0.9,1.5s-0.3,1.3-0.3,2C101.4,175,101.8,175.4,102.6,175.4L102.6,175.4z M94.9,176.3c-0.3,0-0.5,0-0.8-0.1l0.2-1
							c0.2,0.1,0.4,0.1,0.7,0.1c0.4,0,0.7-0.1,1.1-0.4s0.6-0.6,0.9-1.1s0.4-1,0.6-1.5l0.7-3.2h1.1l-1.5,7h-0.9l0.1-1.3H97
							c-0.3,0.4-0.6,0.7-0.8,0.9c-0.2,0.2-0.4,0.3-0.6,0.4C95.4,176.3,95.2,176.3,94.9,176.3L94.9,176.3z M93.1,169.2h1.1l-1.5,7
							h-1.1L93.1,169.2z M92.4,178c0,0.2-0.1,0.4-0.2,0.6s-0.3,0.2-0.5,0.2c-0.4,0-0.6-0.2-0.6-0.6c0-0.2,0.1-0.4,0.2-0.6
							s0.3-0.2,0.5-0.2c0.2,0,0.3,0.1,0.4,0.2S92.4,177.8,92.4,178L92.4,178z M86.6,169.2l-0.9,4.4c-0.1,0.4-0.1,0.7-0.1,0.9
							c0,0.3,0.1,0.5,0.2,0.6s0.4,0.2,0.7,0.2c0.4,0,0.7-0.1,1.1-0.4s0.7-0.6,0.9-1.1s0.5-1,0.6-1.7l0.6-3h1.1l-1.5,7h-0.9l0.1-1.3
							h-0.1c-0.4,0.5-0.8,0.9-1.2,1.1s-0.8,0.3-1.2,0.3c-0.5,0-1-0.1-1.3-0.4s-0.5-0.7-0.5-1.2c0-0.3,0-0.7,0.1-1.1l0.9-4.3H86.6z
							 M81.2,170c-0.2,0-0.5,0.1-0.9,0.2v-0.8c0.1-0.1,0.3-0.1,0.5-0.2s0.4-0.1,0.5-0.1c0.5,0,0.9,0.1,1.2,0.4s0.4,0.6,0.4,1.1
							c0,0.3,0,0.6-0.1,1l-0.8,3.8h1.1l-0.1,0.5l-1.2,0.5l-0.8,1.4h-0.6l0.3-1.6h-1.7l0.2-0.8H81l0.8-3.8c0.1-0.4,0.1-0.6,0.1-0.8
							c0-0.2-0.1-0.4-0.2-0.5S81.5,170,81.2,170L81.2,170z"/>
					</g>
				</g>
				<g id="step_1_" transform="translate(2.000000, 239.000000)">
					
						<g id="bg_1_" transform="translate(170.000000, 127.000000) rotate(-90.000000) translate(-170.000000, -127.000000) translate(43.000000, 0.000000)" sketch:type="MSShapeGroup">
						<g id="Oval-20_3_" transform="translate(9.313333, 9.313333)" class="st0">
							<circle class="st1" cx="88.1" cy="-15.9" r="118.1"/>
						</g>
						<path id="Oval-20_4_" class="st2" d="M-23.1,34.5L-23.1,34.5c0.7,2,1.5,4,2.3,6C-2,87.1,43.6,120,97,120
							c54,0,100.2-33.7,118.5-81.3c0.5-1.4,1.1-2.8,1.6-4.3 M217-48.7c-0.6-1.8-1.3-3.5-2-5.2C196.4-100.8,150.6-134,97-134
							c-53,0-98.4,32.5-117.4,78.6c-0.9,2.2-1.8,4.5-2.6,6.8"/>
						<path id="Oval-20_5_" class="st4" d="M-20.4-55.4c-0.9,2.2-1.8,4.5-2.6,6.8c-4.5,13-7,27-7,41.6c0,14.5,2.4,28.5,6.9,41.5l0,0
							c0.7,2,1.5,4,2.3,6 M215.5,38.7c0.5-1.4,1.1-2.8,1.6-4.3c4.5-13,6.9-26.9,6.9-41.4c0-14.6-2.5-28.6-7-41.7
							c-0.6-1.8-1.3-3.5-2-5.2"/>
					</g>
					<g id="icn_1_" transform="translate(133.000000, 82.000000)" sketch:type="MSShapeGroup">
						<path id="Rectangle-120_1_" class="st1" d="M-96.5,30L-96.5,30C-75.8,30-59,46.8-59,67.5l0,0c0,20.7-16.8,37.5-37.5,37.5l0,0
							c-20.7,0-37.5-16.8-37.5-37.5l0,0C-134,46.8-117.2,30-96.5,30z"/>
						<g id="icn-graph" transform="translate(17.000000, 22.000000)">
							<path id="Shape_8_" class="st9" d="M-133,32v25c0,0.4,0.1,0.9,0.4,1.4c0.5,1,1.4,1.6,2.6,1.6h35c0.6,0,1-0.4,1-1s-0.4-1-1-1
								h-35c-0.5,0-0.7-0.1-0.9-0.4c-0.1-0.2-0.1-0.4-0.1-0.6V32c0-0.6-0.4-1-1-1S-133,31.4-133,32L-133,32z"/>
							<path id="Shape_9_" class="st9" d="M-126,54L-126,54c0.6,0,1-0.4,1-1s-0.4-1-1-1s-1,0.4-1,1S-126.6,54-126,54L-126,54z
								 M-126,55L-126,55c-1.1,0-2-0.9-2-2s0.9-2,2-2s2,0.9,2,2S-124.9,55-126,55L-126,55z"/>
							<path id="Shape_10_" class="st9" d="M-121,47L-121,47c0.6,0,1-0.4,1-1s-0.4-1-1-1s-1,0.4-1,1S-121.6,47-121,47L-121,47z
								 M-121,48L-121,48c-1.1,0-2-0.9-2-2s0.9-2,2-2s2,0.9,2,2S-119.9,48-121,48L-121,48z"/>
							<path id="Shape_11_" class="st9" d="M-116,53L-116,53c0.6,0,1-0.4,1-1s-0.4-1-1-1s-1,0.4-1,1S-116.6,53-116,53L-116,53z
								 M-116,54L-116,54c-1.1,0-2-0.9-2-2s0.9-2,2-2s2,0.9,2,2S-114.9,54-116,54L-116,54z"/>
							<path id="Shape_12_" class="st9" d="M-111,43L-111,43c0.6,0,1-0.4,1-1s-0.4-1-1-1s-1,0.4-1,1S-111.6,43-111,43L-111,43z
								 M-111,44L-111,44c-1.1,0-2-0.9-2-2s0.9-2,2-2s2,0.9,2,2S-109.9,44-111,44L-111,44z"/>
							<path id="Shape_13_" class="st9" d="M-106,46L-106,46c0.6,0,1-0.4,1-1s-0.4-1-1-1s-1,0.4-1,1S-106.6,46-106,46L-106,46z
								 M-106,47L-106,47c-1.1,0-2-0.9-2-2s0.9-2,2-2s2,0.9,2,2S-104.9,47-106,47L-106,47z"/>
							<path id="Shape_14_" class="st9" d="M-102,39L-102,39c0.6,0,1-0.4,1-1s-0.4-1-1-1s-1,0.4-1,1S-102.6,39-102,39L-102,39z
								 M-102,40L-102,40c-1.1,0-2-0.9-2-2s0.9-2,2-2s2,0.9,2,2S-100.9,40-102,40L-102,40z"/>
							<path id="Shape_15_" class="st9" d="M-124.5,52.2l2.9-5l-0.9-0.5l-2.9,5L-124.5,52.2L-124.5,52.2z"/>
							<path id="Shape_16_" class="st9" d="M-120.3,47.2l3.1,3.9l0.8-0.6l-3.1-3.9L-120.3,47.2L-120.3,47.2z"/>
							<path id="Shape_17_" class="st9" d="M-114.7,50.8l3.4-7.4l-0.9-0.4l-3.4,7.4L-114.7,50.8L-114.7,50.8z"/>
							<path id="Shape_18_" class="st9" d="M-110,43.2l2.6,1.5l0.5-0.9l-2.6-1.5L-110,43.2L-110,43.2z"/>
							<path id="Shape_19_" class="st9" d="M-104.8,43.9l2.5-4.6l-0.9-0.5l-2.5,4.6L-104.8,43.9L-104.8,43.9z"/>
							<path id="Path-28" class="st10" d="M-134,33l2-3l2,3"/>
							<path id="Path-28_1_" class="st10" d="M-96,57l3,2l-3,2"/>
							<path id="Shape_20_" class="st9" d="M-132,31.5h1v-1h-1V31.5L-132,31.5z M-130,31.5h1v-1h-1V31.5L-130,31.5z M-128,31.5h1v-1
								h-1V31.5L-128,31.5z M-126,31.5h1v-1h-1V31.5L-126,31.5z M-124,31.5h1v-1h-1V31.5L-124,31.5z M-122,31.5h1v-1h-1V31.5
								L-122,31.5z M-120,31.5h1v-1h-1V31.5L-120,31.5z M-118,31.5h1v-1h-1V31.5L-118,31.5z M-116,31.5h1v-1h-1V31.5L-116,31.5z
								 M-114,31.5h1v-1h-1V31.5L-114,31.5z M-112,31.5h1v-1h-1V31.5L-112,31.5z M-110,31.5h1v-1h-1V31.5L-110,31.5z M-108,31.5h1
								v-1h-1V31.5L-108,31.5z M-106,31.5h1v-1h-1V31.5L-106,31.5z M-104,31.5h1v-1h-1V31.5L-104,31.5z M-102,31.5h1v-1h-1V31.5
								L-102,31.5z M-100,31.5h1v-1h-1V31.5L-100,31.5z M-98,31.5h1v-1h-1V31.5L-98,31.5z M-96,31.5h1v-1h-1V31.5L-96,31.5z
								 M-94.5,31v1h1v-1H-94.5L-94.5,31z M-94.5,33v1h1v-1H-94.5L-94.5,33z M-94.5,35v1h1v-1H-94.5L-94.5,35z M-94.5,37v1h1v-1
								H-94.5L-94.5,37z M-94.5,39v1h1v-1H-94.5L-94.5,39z M-94.5,41v1h1v-1H-94.5L-94.5,41z M-94.5,43v1h1v-1H-94.5L-94.5,43z
								 M-94.5,45v1h1v-1H-94.5L-94.5,45z M-94.5,47v1h1v-1H-94.5L-94.5,47z M-94.5,49v1h1v-1H-94.5L-94.5,49z M-94.5,51v1h1v-1
								H-94.5L-94.5,51z M-94.5,53v1h1v-1H-94.5L-94.5,53z M-94.5,55v1h1v-1H-94.5L-94.5,55z M-94.5,57v1h1v-1H-94.5L-94.5,57z"/>
						</g>
					</g>
					<g id="labels_1_" transform="translate(113.000000, 47.000000)" sketch:type="MSShapeGroup">
						<path id="Measure" class="st1" d="M-123.7,53l-7.8-20.2h-0.1c0.1,1.6,0.2,3.5,0.2,5.7V53h-2.5V30.2h4l7.2,18.8h0.1l7.3-18.8h4
							V53h-2.7V38.3c0-1.7,0.1-3.5,0.2-5.5h-0.1l-7.8,20.2H-123.7z M-99.1,53.3c-2.5,0-4.5-0.8-6-2.3s-2.2-3.7-2.2-6.4
							c0-2.8,0.7-5,2-6.6s3.2-2.4,5.5-2.4c2.1,0,3.8,0.7,5.1,2.1s1.9,3.3,1.9,5.6v1.6h-11.8c0.1,2,0.6,3.5,1.5,4.6s2.3,1.6,4.1,1.6
							c1.8,0,3.7-0.4,5.5-1.2v2.3c-0.9,0.4-1.8,0.7-2.6,0.9S-97.9,53.3-99.1,53.3L-99.1,53.3z M-99.8,37.7c-1.4,0-2.5,0.4-3.3,1.3
							s-1.3,2.1-1.4,3.7h9c0-1.6-0.4-2.9-1.1-3.8S-98.4,37.7-99.8,37.7L-99.8,37.7z M-78.8,53l-0.5-2.4h-0.1
							c-0.9,1.1-1.7,1.8-2.6,2.2s-1.9,0.6-3.2,0.6c-1.7,0-3-0.4-4-1.3s-1.4-2.1-1.4-3.7c0-3.5,2.8-5.3,8.3-5.4l2.9-0.1v-1.1
							c0-1.3-0.3-2.3-0.9-3s-1.5-1-2.8-1c-1.4,0-3,0.4-4.8,1.3l-0.8-2c0.8-0.5,1.8-0.8,2.8-1.1s2-0.4,3-0.4c2,0,3.6,0.5,4.5,1.4
							s1.5,2.4,1.5,4.4V53H-78.8z M-84.7,51.2c1.6,0,2.9-0.4,3.8-1.3s1.4-2.1,1.4-3.7v-1.5l-2.6,0.1c-2.1,0.1-3.5,0.4-4.5,1
							s-1.4,1.5-1.4,2.6c0,0.9,0.3,1.7,0.9,2.1S-85.7,51.2-84.7,51.2L-84.7,51.2z M-61.5,48.3c0,1.6-0.6,2.8-1.8,3.7s-2.9,1.3-5,1.3
							c-2.3,0-4-0.4-5.3-1.1v-2.4c0.8,0.4,1.7,0.7,2.6,1s1.9,0.4,2.7,0.4c1.4,0,2.4-0.2,3.1-0.6s1.1-1.1,1.1-2
							c0-0.7-0.3-1.2-0.9-1.7s-1.7-1-3.4-1.7c-1.6-0.6-2.7-1.1-3.4-1.6s-1.2-0.9-1.5-1.5s-0.5-1.2-0.5-2c0-1.4,0.6-2.5,1.7-3.3
							s2.7-1.2,4.7-1.2c1.8,0,3.6,0.4,5.4,1.1l-0.9,2.1c-1.7-0.7-3.3-1.1-4.7-1.1c-1.2,0-2.2,0.2-2.8,0.6s-0.9,0.9-0.9,1.6
							c0,0.5,0.1,0.8,0.4,1.2s0.6,0.6,1.1,0.9s1.5,0.7,3,1.3c2,0.7,3.4,1.5,4.1,2.2S-61.5,47.2-61.5,48.3L-61.5,48.3z M-55.9,35.9
							V47c0,1.4,0.3,2.4,1,3.1s1.6,1,3,1c1.8,0,3.1-0.5,3.9-1.5s1.2-2.6,1.2-4.8v-9h2.6V53h-2.1l-0.4-2.3h-0.1
							c-0.5,0.8-1.3,1.5-2.2,1.9s-2,0.7-3.2,0.7c-2.1,0-3.6-0.5-4.7-1.5s-1.6-2.6-1.6-4.8V35.9H-55.9z M-31.9,35.6
							c0.8,0,1.4,0.1,2,0.2l-0.4,2.4c-0.7-0.2-1.3-0.2-1.9-0.2c-1.4,0-2.6,0.6-3.6,1.7s-1.5,2.5-1.5,4.2V53h-2.6V35.9h2.1l0.3,3.2
							h0.1c0.6-1.1,1.4-2,2.3-2.6S-32.9,35.6-31.9,35.6L-31.9,35.6z M-21,53.3c-2.5,0-4.5-0.8-6-2.3s-2.2-3.7-2.2-6.4
							c0-2.8,0.7-5,2-6.6s3.2-2.4,5.5-2.4c2.1,0,3.8,0.7,5.1,2.1s1.9,3.3,1.9,5.6v1.6h-11.8c0.1,2,0.6,3.5,1.5,4.6s2.3,1.6,4.1,1.6
							c1.8,0,3.7-0.4,5.5-1.2v2.3c-0.9,0.4-1.8,0.7-2.6,0.9S-19.9,53.3-21,53.3L-21,53.3z M-21.7,37.7c-1.4,0-2.5,0.4-3.3,1.3
							s-1.3,2.1-1.4,3.7h9c0-1.6-0.4-2.9-1.1-3.8S-20.4,37.7-21.7,37.7L-21.7,37.7z"/>
						<path id="Beta-release" class="st1" d="M-112.6,150.7h2.6c1.2,0,2.1,0.2,2.7,0.6s0.8,1,0.8,1.7c0,0.6-0.2,1-0.5,1.4
							s-0.8,0.6-1.3,0.7v0.1c1.4,0.2,2.1,1,2.1,2.2c0,0.8-0.3,1.5-0.8,1.9s-1.3,0.7-2.4,0.7h-3.2V150.7z M-111.6,154.7h1.8
							c0.8,0,1.3-0.1,1.6-0.4s0.5-0.6,0.5-1.2c0-0.5-0.2-0.9-0.6-1.1s-1-0.3-1.8-0.3h-1.6V154.7z M-111.6,155.6v3.5h1.9
							c0.7,0,1.3-0.1,1.7-0.4s0.6-0.7,0.6-1.4c0-0.6-0.2-1-0.6-1.3s-1-0.4-1.8-0.4H-111.6z M-101.4,160.1c-1,0-1.8-0.3-2.4-0.9
							s-0.9-1.5-0.9-2.6c0-1.1,0.3-2,0.8-2.7s1.3-1,2.2-1c0.9,0,1.6,0.3,2.1,0.9s0.8,1.3,0.8,2.3v0.7h-4.8c0,0.8,0.2,1.4,0.6,1.9
							c0.4,0.4,0.9,0.6,1.7,0.6c0.7,0,1.5-0.2,2.2-0.5v0.9c-0.4,0.2-0.7,0.3-1.1,0.3S-101,160.1-101.4,160.1L-101.4,160.1z
							 M-101.7,153.8c-0.6,0-1,0.2-1.3,0.5s-0.5,0.9-0.6,1.5h3.6c0-0.7-0.1-1.2-0.4-1.5S-101.2,153.8-101.7,153.8L-101.7,153.8z
							 M-94.8,159.3c0.2,0,0.4,0,0.5,0s0.3-0.1,0.4-0.1v0.8c-0.1,0.1-0.3,0.1-0.5,0.1s-0.4,0.1-0.6,0.1c-1.3,0-2-0.7-2-2.1v-4.1h-1
							v-0.5l1-0.4l0.4-1.5h0.6v1.6h2v0.8h-2v4.1c0,0.4,0.1,0.7,0.3,1S-95.2,159.3-94.8,159.3L-94.8,159.3z M-88.2,160l-0.2-1h-0.1
							c-0.3,0.4-0.7,0.7-1,0.9s-0.8,0.2-1.3,0.2c-0.7,0-1.2-0.2-1.6-0.5s-0.6-0.9-0.6-1.5c0-1.4,1.1-2.1,3.4-2.2l1.2,0v-0.4
							c0-0.5-0.1-0.9-0.4-1.2s-0.6-0.4-1.1-0.4c-0.6,0-1.2,0.2-2,0.5l-0.3-0.8c0.3-0.2,0.7-0.3,1.1-0.4s0.8-0.2,1.2-0.2
							c0.8,0,1.4,0.2,1.8,0.6s0.6,1,0.6,1.8v4.7H-88.2z M-90.6,159.3c0.7,0,1.2-0.2,1.5-0.5s0.6-0.9,0.6-1.5v-0.6l-1.1,0
							c-0.8,0-1.4,0.2-1.8,0.4s-0.6,0.6-0.6,1.1c0,0.4,0.1,0.7,0.3,0.9S-91,159.3-90.6,159.3L-90.6,159.3z M-78.7,152.9
							c0.3,0,0.6,0,0.8,0.1l-0.1,1c-0.3-0.1-0.5-0.1-0.8-0.1c-0.6,0-1,0.2-1.4,0.7s-0.6,1-0.6,1.7v3.7h-1.1v-7h0.9l0.1,1.3h0.1
							c0.3-0.5,0.6-0.8,0.9-1S-79.1,152.9-78.7,152.9L-78.7,152.9z M-73.6,160.1c-1,0-1.8-0.3-2.4-0.9s-0.9-1.5-0.9-2.6
							c0-1.1,0.3-2,0.8-2.7s1.3-1,2.2-1c0.9,0,1.6,0.3,2.1,0.9s0.8,1.3,0.8,2.3v0.7h-4.8c0,0.8,0.2,1.4,0.6,1.9
							c0.4,0.4,0.9,0.6,1.7,0.6c0.7,0,1.5-0.2,2.2-0.5v0.9c-0.4,0.2-0.7,0.3-1.1,0.3S-73.2,160.1-73.6,160.1L-73.6,160.1z
							 M-73.9,153.8c-0.6,0-1,0.2-1.3,0.5s-0.5,0.9-0.6,1.5h3.6c0-0.7-0.1-1.2-0.4-1.5S-73.4,153.8-73.9,153.8L-73.9,153.8z
							 M-68.2,160h-1.1v-9.9h1.1V160z M-63.1,160.1c-1,0-1.8-0.3-2.4-0.9s-0.9-1.5-0.9-2.6c0-1.1,0.3-2,0.8-2.7s1.3-1,2.2-1
							c0.9,0,1.6,0.3,2.1,0.9s0.8,1.3,0.8,2.3v0.7h-4.8c0,0.8,0.2,1.4,0.6,1.9c0.4,0.4,0.9,0.6,1.7,0.6c0.7,0,1.5-0.2,2.2-0.5v0.9
							c-0.4,0.2-0.7,0.3-1.1,0.3S-62.6,160.1-63.1,160.1L-63.1,160.1z M-63.3,153.8c-0.6,0-1,0.2-1.3,0.5s-0.5,0.9-0.6,1.5h3.6
							c0-0.7-0.1-1.2-0.4-1.5S-62.8,153.8-63.3,153.8L-63.3,153.8z M-54.4,160l-0.2-1h-0.1c-0.3,0.4-0.7,0.7-1,0.9s-0.8,0.2-1.3,0.2
							c-0.7,0-1.2-0.2-1.6-0.5s-0.6-0.9-0.6-1.5c0-1.4,1.1-2.1,3.4-2.2l1.2,0v-0.4c0-0.5-0.1-0.9-0.4-1.2s-0.6-0.4-1.1-0.4
							c-0.6,0-1.2,0.2-2,0.5l-0.3-0.8c0.3-0.2,0.7-0.3,1.1-0.4s0.8-0.2,1.2-0.2c0.8,0,1.4,0.2,1.8,0.6s0.6,1,0.6,1.8v4.7H-54.4z
							 M-56.8,159.3c0.7,0,1.2-0.2,1.5-0.5s0.6-0.9,0.6-1.5v-0.6l-1.1,0c-0.8,0-1.4,0.2-1.8,0.4s-0.6,0.6-0.6,1.1
							c0,0.4,0.1,0.7,0.3,0.9S-57.2,159.3-56.8,159.3L-56.8,159.3z M-47,158.1c0,0.6-0.2,1.1-0.7,1.5s-1.2,0.5-2,0.5
							c-0.9,0-1.6-0.1-2.2-0.4v-1c0.3,0.2,0.7,0.3,1.1,0.4s0.8,0.1,1.1,0.1c0.6,0,1-0.1,1.3-0.3s0.4-0.4,0.4-0.8
							c0-0.3-0.1-0.5-0.4-0.7s-0.7-0.4-1.4-0.7c-0.6-0.2-1.1-0.5-1.4-0.6s-0.5-0.4-0.6-0.6s-0.2-0.5-0.2-0.8c0-0.6,0.2-1,0.7-1.3
							s1.1-0.5,1.9-0.5c0.7,0,1.5,0.2,2.2,0.5l-0.4,0.9c-0.7-0.3-1.3-0.4-1.9-0.4c-0.5,0-0.9,0.1-1.1,0.2s-0.4,0.4-0.4,0.6
							c0,0.2,0,0.3,0.1,0.5s0.2,0.3,0.5,0.4s0.6,0.3,1.2,0.5c0.8,0.3,1.4,0.6,1.7,0.9S-47,157.6-47,158.1L-47,158.1z M-42.3,160.1
							c-1,0-1.8-0.3-2.4-0.9s-0.9-1.5-0.9-2.6c0-1.1,0.3-2,0.8-2.7s1.3-1,2.2-1c0.9,0,1.6,0.3,2.1,0.9s0.8,1.3,0.8,2.3v0.7h-4.8
							c0,0.8,0.2,1.4,0.6,1.9c0.4,0.4,0.9,0.6,1.7,0.6c0.7,0,1.5-0.2,2.2-0.5v0.9c-0.4,0.2-0.7,0.3-1.1,0.3S-41.9,160.1-42.3,160.1
							L-42.3,160.1z M-42.6,153.8c-0.6,0-1,0.2-1.3,0.5s-0.5,0.9-0.6,1.5h3.6c0-0.7-0.1-1.2-0.4-1.5S-42.1,153.8-42.6,153.8
							L-42.6,153.8z M-104.6,178l-3.1-8.2h-0.1c0.1,0.7,0.1,1.4,0.1,2.3v5.9h-1v-9.3h1.6l2.9,7.7h0.1l3-7.7h1.6v9.3h-1.1v-6
							c0-0.7,0-1.4,0.1-2.2h-0.1l-3.2,8.2H-104.6z M-91.1,174.5c0,1.1-0.3,2-0.9,2.7s-1.4,1-2.4,1c-0.6,0-1.2-0.1-1.7-0.4
							s-0.9-0.7-1.1-1.3s-0.4-1.2-0.4-1.9c0-1.1,0.3-2,0.9-2.7s1.4-0.9,2.4-0.9c1,0,1.7,0.3,2.3,1S-91.1,173.4-91.1,174.5
							L-91.1,174.5z M-96.4,174.5c0,0.9,0.2,1.6,0.5,2s0.9,0.7,1.6,0.7s1.2-0.2,1.6-0.7s0.5-1.1,0.5-2c0-0.9-0.2-1.6-0.5-2
							s-0.9-0.7-1.6-0.7c-0.7,0-1.2,0.2-1.6,0.7S-96.4,173.6-96.4,174.5L-96.4,174.5z M-84.5,178v-4.5c0-0.6-0.1-1-0.4-1.3
							s-0.7-0.4-1.2-0.4c-0.7,0-1.3,0.2-1.6,0.6s-0.5,1-0.5,1.9v3.6h-1.1v-7h0.9l0.2,1h0.1c0.2-0.3,0.5-0.6,0.9-0.8s0.8-0.3,1.3-0.3
							c0.8,0,1.5,0.2,1.9,0.6s0.6,1.1,0.6,1.9v4.5H-84.5z M-80.3,178h-1.1v-7h1.1V178z M-81.4,169.2c0-0.2,0.1-0.4,0.2-0.5
							s0.3-0.2,0.4-0.2c0.2,0,0.3,0.1,0.4,0.2s0.2,0.3,0.2,0.5s-0.1,0.4-0.2,0.5s-0.3,0.2-0.4,0.2c-0.2,0-0.3-0.1-0.4-0.2
							S-81.4,169.4-81.4,169.2L-81.4,169.2z M-75.8,177.3c0.2,0,0.4,0,0.5,0s0.3-0.1,0.4-0.1v0.8c-0.1,0.1-0.3,0.1-0.5,0.1
							s-0.4,0.1-0.6,0.1c-1.3,0-2-0.7-2-2.1v-4.1h-1v-0.5l1-0.4l0.4-1.5h0.6v1.6h2v0.8h-2v4.1c0,0.4,0.1,0.7,0.3,1
							S-76.1,177.3-75.8,177.3L-75.8,177.3z M-67.4,174.5c0,1.1-0.3,2-0.9,2.7s-1.4,1-2.4,1c-0.6,0-1.2-0.1-1.7-0.4
							s-0.9-0.7-1.1-1.3s-0.4-1.2-0.4-1.9c0-1.1,0.3-2,0.9-2.7s1.4-0.9,2.4-0.9c1,0,1.7,0.3,2.3,1S-67.4,173.4-67.4,174.5
							L-67.4,174.5z M-72.7,174.5c0,0.9,0.2,1.6,0.5,2s0.9,0.7,1.6,0.7s1.2-0.2,1.6-0.7s0.5-1.1,0.5-2c0-0.9-0.2-1.6-0.5-2
							s-0.9-0.7-1.6-0.7c-0.7,0-1.2,0.2-1.6,0.7S-72.7,173.6-72.7,174.5L-72.7,174.5z M-62.4,170.9c0.3,0,0.6,0,0.8,0.1l-0.1,1
							c-0.3-0.1-0.5-0.1-0.8-0.1c-0.6,0-1,0.2-1.4,0.7s-0.6,1-0.6,1.7v3.7h-1.1v-7h0.9l0.1,1.3h0.1c0.3-0.5,0.6-0.8,0.9-1
							S-62.8,170.9-62.4,170.9L-62.4,170.9z M-59.2,178h-1.1v-7h1.1V178z M-60.4,169.2c0-0.2,0.1-0.4,0.2-0.5s0.3-0.2,0.4-0.2
							c0.2,0,0.3,0.1,0.4,0.2s0.2,0.3,0.2,0.5s-0.1,0.4-0.2,0.5s-0.3,0.2-0.4,0.2c-0.2,0-0.3-0.1-0.4-0.2S-60.4,169.4-60.4,169.2
							L-60.4,169.2z M-52.2,178v-4.5c0-0.6-0.1-1-0.4-1.3s-0.7-0.4-1.2-0.4c-0.7,0-1.3,0.2-1.6,0.6s-0.5,1-0.5,1.9v3.6H-57v-7h0.9
							l0.2,1h0.1c0.2-0.3,0.5-0.6,0.9-0.8s0.8-0.3,1.3-0.3c0.8,0,1.5,0.2,1.9,0.6s0.6,1.1,0.6,1.9v4.5H-52.2z M-43.3,171v0.7
							l-1.3,0.2c0.1,0.1,0.2,0.3,0.3,0.6s0.1,0.5,0.1,0.8c0,0.7-0.2,1.2-0.7,1.6s-1.1,0.6-1.9,0.6c-0.2,0-0.4,0-0.6-0.1
							c-0.4,0.2-0.7,0.5-0.7,0.9c0,0.2,0.1,0.3,0.2,0.4s0.4,0.1,0.8,0.1h1.2c0.8,0,1.3,0.2,1.7,0.5s0.6,0.8,0.6,1.4
							c0,0.8-0.3,1.4-0.9,1.8s-1.5,0.6-2.7,0.6c-0.9,0-1.6-0.2-2.1-0.5s-0.7-0.8-0.7-1.4c0-0.4,0.1-0.8,0.4-1.1s0.7-0.5,1.1-0.6
							c-0.2-0.1-0.3-0.2-0.4-0.4s-0.2-0.4-0.2-0.6c0-0.3,0.1-0.5,0.2-0.7s0.3-0.4,0.6-0.6c-0.4-0.1-0.7-0.4-0.9-0.8
							s-0.3-0.8-0.3-1.2c0-0.8,0.2-1.3,0.7-1.8s1.1-0.6,1.9-0.6c0.4,0,0.7,0,1,0.1H-43.3z M-48.9,179.2c0,0.4,0.2,0.7,0.5,0.9
							s0.8,0.3,1.4,0.3c0.9,0,1.5-0.1,2-0.4s0.6-0.6,0.6-1.1c0-0.4-0.1-0.6-0.3-0.8s-0.7-0.2-1.3-0.2h-1.3c-0.5,0-0.9,0.1-1.1,0.3
							S-48.9,178.7-48.9,179.2L-48.9,179.2z M-48.3,173.3c0,0.5,0.1,0.9,0.4,1.1s0.7,0.4,1.1,0.4c1,0,1.5-0.5,1.5-1.5
							c0-1-0.5-1.6-1.6-1.6c-0.5,0-0.9,0.1-1.1,0.4S-48.3,172.7-48.3,173.3L-48.3,173.3z M-103.6,196l-1.2-3h-3.7l-1.1,3h-1.1
							l3.7-9.3h0.9l3.6,9.3H-103.6z M-105.1,192.1l-1.1-2.9c-0.1-0.4-0.3-0.8-0.4-1.3c-0.1,0.4-0.2,0.9-0.4,1.3l-1.1,2.9H-105.1z
							 M-97.9,186.7l-3.5,9.3h-1.1l3.5-9.3H-97.9z M-96.5,186.7h2.6c1.2,0,2.1,0.2,2.7,0.6s0.8,1,0.8,1.7c0,0.6-0.2,1-0.5,1.4
							s-0.8,0.6-1.3,0.7v0.1c1.4,0.2,2.1,1,2.1,2.2c0,0.8-0.3,1.5-0.8,1.9s-1.3,0.7-2.4,0.7h-3.2V186.7z M-95.4,190.7h1.8
							c0.8,0,1.3-0.1,1.6-0.4s0.5-0.6,0.5-1.2c0-0.5-0.2-0.9-0.6-1.1s-1-0.3-1.8-0.3h-1.6V190.7z M-95.4,191.6v3.5h1.9
							c0.7,0,1.3-0.1,1.7-0.4s0.6-0.7,0.6-1.4c0-0.6-0.2-1-0.6-1.3s-1-0.4-1.8-0.4H-95.4z M-81.8,196h-1.1v-8.3h-2.9v-1h7v1h-2.9
							V196z M-74.7,196.1c-1,0-1.8-0.3-2.4-0.9s-0.9-1.5-0.9-2.6c0-1.1,0.3-2,0.8-2.7s1.3-1,2.2-1c0.9,0,1.6,0.3,2.1,0.9
							s0.8,1.3,0.8,2.3v0.7h-4.8c0,0.8,0.2,1.4,0.6,1.9c0.4,0.4,0.9,0.6,1.7,0.6c0.7,0,1.5-0.2,2.2-0.5v0.9
							c-0.4,0.2-0.7,0.3-1.1,0.3S-74.2,196.1-74.7,196.1L-74.7,196.1z M-75,189.8c-0.6,0-1,0.2-1.3,0.5s-0.5,0.9-0.6,1.5h3.6
							c0-0.7-0.1-1.2-0.4-1.5S-74.4,189.8-75,189.8L-75,189.8z M-65.8,194.1c0,0.6-0.2,1.1-0.7,1.5s-1.2,0.5-2,0.5
							c-0.9,0-1.6-0.1-2.2-0.4v-1c0.3,0.2,0.7,0.3,1.1,0.4s0.8,0.1,1.1,0.1c0.6,0,1-0.1,1.3-0.3s0.4-0.4,0.4-0.8
							c0-0.3-0.1-0.5-0.4-0.7s-0.7-0.4-1.4-0.7c-0.6-0.2-1.1-0.5-1.4-0.6s-0.5-0.4-0.6-0.6s-0.2-0.5-0.2-0.8c0-0.6,0.2-1,0.7-1.3
							s1.1-0.5,1.9-0.5c0.7,0,1.5,0.2,2.2,0.5l-0.4,0.9c-0.7-0.3-1.3-0.4-1.9-0.4c-0.5,0-0.9,0.1-1.1,0.2s-0.4,0.4-0.4,0.6
							c0,0.2,0,0.3,0.1,0.5s0.2,0.3,0.5,0.4s0.6,0.3,1.2,0.5c0.8,0.3,1.4,0.6,1.7,0.9S-65.8,193.6-65.8,194.1L-65.8,194.1z
							 M-61.9,195.3c0.2,0,0.4,0,0.5,0s0.3-0.1,0.4-0.1v0.8c-0.1,0.1-0.3,0.1-0.5,0.1s-0.4,0.1-0.6,0.1c-1.3,0-2-0.7-2-2.1v-4.1h-1
							v-0.5l1-0.4l0.4-1.5h0.6v1.6h2v0.8h-2v4.1c0,0.4,0.1,0.7,0.3,1S-62.2,195.3-61.9,195.3L-61.9,195.3z M-58.5,196h-1.1v-7h1.1
							V196z M-59.6,187.2c0-0.2,0.1-0.4,0.2-0.5s0.3-0.2,0.4-0.2c0.2,0,0.3,0.1,0.4,0.2s0.2,0.3,0.2,0.5s-0.1,0.4-0.2,0.5
							s-0.3,0.2-0.4,0.2c-0.2,0-0.3-0.1-0.4-0.2S-59.6,187.4-59.6,187.2L-59.6,187.2z M-51.5,196v-4.5c0-0.6-0.1-1-0.4-1.3
							s-0.7-0.4-1.2-0.4c-0.7,0-1.3,0.2-1.6,0.6s-0.5,1-0.5,1.9v3.6h-1.1v-7h0.9l0.2,1h0.1c0.2-0.3,0.5-0.6,0.9-0.8s0.8-0.3,1.3-0.3
							c0.8,0,1.5,0.2,1.9,0.6s0.6,1.1,0.6,1.9v4.5H-51.5z M-42.6,189v0.7l-1.3,0.2c0.1,0.1,0.2,0.3,0.3,0.6s0.1,0.5,0.1,0.8
							c0,0.7-0.2,1.2-0.7,1.6s-1.1,0.6-1.9,0.6c-0.2,0-0.4,0-0.6-0.1c-0.4,0.2-0.7,0.5-0.7,0.9c0,0.2,0.1,0.3,0.2,0.4
							s0.4,0.1,0.8,0.1h1.2c0.8,0,1.3,0.2,1.7,0.5s0.6,0.8,0.6,1.4c0,0.8-0.3,1.4-0.9,1.8s-1.5,0.6-2.7,0.6c-0.9,0-1.6-0.2-2.1-0.5
							s-0.7-0.8-0.7-1.4c0-0.4,0.1-0.8,0.4-1.1s0.7-0.5,1.1-0.6c-0.2-0.1-0.3-0.2-0.4-0.4s-0.2-0.4-0.2-0.6c0-0.3,0.1-0.5,0.2-0.7
							s0.3-0.4,0.6-0.6c-0.4-0.1-0.7-0.4-0.9-0.8s-0.3-0.8-0.3-1.2c0-0.8,0.2-1.3,0.7-1.8s1.1-0.6,1.9-0.6c0.4,0,0.7,0,1,0.1H-42.6z
							 M-48.1,197.2c0,0.4,0.2,0.7,0.5,0.9s0.8,0.3,1.4,0.3c0.9,0,1.5-0.1,2-0.4s0.6-0.6,0.6-1.1c0-0.4-0.1-0.6-0.3-0.8
							s-0.7-0.2-1.3-0.2h-1.3c-0.5,0-0.9,0.1-1.1,0.3S-48.1,196.7-48.1,197.2L-48.1,197.2z M-47.6,191.3c0,0.5,0.1,0.9,0.4,1.1
							s0.7,0.4,1.1,0.4c1,0,1.5-0.5,1.5-1.5c0-1-0.5-1.6-1.6-1.6c-0.5,0-0.9,0.1-1.1,0.4S-47.6,190.7-47.6,191.3L-47.6,191.3z"/>
					</g>
					
						<g id="arrow_1_" transform="translate(22.000000, 212.000000) rotate(-270.000000) translate(-22.000000, -212.000000) translate(-71.000000, 190.000000)">
						<path id="Line_1_" sketch:type="MSShapeGroup" class="st7" d="M201,159h14"/>
						<path id="Line-decoration-1_1_" class="st7" d="M204.2,162l10.8-3l-10.8-3"/>
						<path id="Path-202_1_" sketch:type="MSShapeGroup" class="st8" d="M197.8,159H44.1c0,0-14.1,0-14.1-14.1c0-14.1,0-9.5,0-9.5"
							/>
						<path id="Weekly-review" sketch:type="MSShapeGroup" class="st1" d="M157.7,167.2h1.1l0.3,6.1c0,0.6,0.1,1.2,0.1,1.8h0
							c0.1-0.3,0.2-0.6,0.4-1s1.2-2.7,3.2-6.9h1.1l0.4,9.3h-1.1l-0.2-5.7l0-0.6c0-0.4,0-1,0.1-1.6h0c-0.4,1-0.7,1.8-1,2.4l-2.6,5.5
							h-1.1l-0.3-5.5c0-0.6-0.1-1.3-0.1-1.9l0-0.5h-0.1c-0.3,0.9-0.6,1.7-0.8,2.2l-2.5,5.7h-1.2L157.7,167.2z M151.4,167.1
							c0.8,0,1.4,0.2,1.8,0.7s0.7,1.1,0.7,1.9c0,0.8-0.2,1.6-0.5,2.3s-0.7,1.3-1.3,1.7s-1.1,0.6-1.7,0.6c-0.6,0-1.1-0.1-1.5-0.4
							s-0.5-0.7-0.5-1.2c0-0.8,0.4-1.4,1.1-1.8s1.7-0.7,3-0.7h0.2l0-0.5c0-0.6-0.1-1-0.4-1.3s-0.7-0.5-1.2-0.5c-0.3,0-0.5,0-0.8,0.1
							s-0.6,0.2-1.1,0.4v-0.9c0.4-0.2,0.7-0.3,1.1-0.4S151.1,167.1,151.4,167.1L151.4,167.1z M150.6,173.4c0.4,0,0.8-0.2,1.2-0.6
							s0.7-1,0.9-1.7h-0.1c-1,0-1.7,0.1-2.2,0.4s-0.8,0.6-0.8,1.1c0,0.2,0.1,0.4,0.2,0.6S150.2,173.4,150.6,173.4L150.6,173.4z
							 M145,167.1c0.8,0,1.4,0.2,1.8,0.7s0.7,1.1,0.7,1.9c0,0.8-0.2,1.6-0.5,2.3s-0.7,1.3-1.3,1.7s-1.1,0.6-1.7,0.6
							c-0.6,0-1.1-0.1-1.5-0.4s-0.5-0.7-0.5-1.2c0-0.8,0.4-1.4,1.1-1.8s1.7-0.7,3-0.7h0.2l0-0.5c0-0.6-0.1-1-0.4-1.3
							s-0.7-0.5-1.2-0.5c-0.3,0-0.5,0-0.8,0.1s-0.6,0.2-1.1,0.4v-0.9c0.4-0.2,0.7-0.3,1.1-0.4S144.7,167.1,145,167.1L145,167.1z
							 M144.2,173.4c0.4,0,0.8-0.2,1.2-0.6s0.7-1,0.9-1.7h-0.1c-1,0-1.7,0.1-2.2,0.4s-0.8,0.6-0.8,1.1c0,0.2,0.1,0.4,0.2,0.6
							S143.8,173.4,144.2,173.4L144.2,173.4z M139.7,170.8l-3.3,3.4H135l3-3l-1.9-4h1.2l1.5,3.3l1-0.8l0.5-2.5h1.1l-2.1,9.9h-1.1
							c0.3-1.4,0.6-2.7,0.8-3.8S139.5,171.3,139.7,170.8L139.7,170.8z M134,167.2h1.1l-2.1,9.9h-1.1L134,167.2z M131.5,174.2h-1.1
							l-0.5-3.5c0-0.3-0.1-0.7-0.1-1.3s-0.1-1-0.1-1.4h0c-0.1,0.4-0.3,0.8-0.6,1.3s-0.4,0.8-0.5,1l-2.1,3.9h-1.1l4.4-8.1
							c0.4-0.7,0.8-1.2,1.2-1.5s0.8-0.4,1.4-0.4c0.3,0,0.6,0,0.9,0.1v0.9c-0.3-0.1-0.5-0.1-0.8-0.1c-0.3,0-0.6,0.1-0.9,0.3
							s-0.5,0.5-0.7,0.9l-0.5,0.9L131.5,174.2z M117.9,174.3c-0.3,0-0.5,0-0.8-0.1l0.2-1c0.2,0.1,0.4,0.1,0.7,0.1
							c0.4,0,0.7-0.1,1.1-0.4s0.6-0.6,0.9-1.1s0.4-1,0.6-1.5l0.7-3.2h1.1l-1.5,7H120l0.1-1.3h-0.1c-0.3,0.4-0.6,0.7-0.8,0.9
							c-0.2,0.2-0.4,0.3-0.6,0.4S118.2,174.3,117.9,174.3L117.9,174.3z M114.4,167.1c0.8,0,1.4,0.2,1.8,0.7s0.7,1.1,0.7,1.9
							c0,0.8-0.2,1.6-0.5,2.3s-0.7,1.3-1.3,1.7s-1.1,0.6-1.7,0.6c-0.6,0-1.1-0.1-1.5-0.4c-0.3-0.3-0.5-0.7-0.5-1.2
							c0-0.8,0.4-1.4,1.1-1.8s1.7-0.7,3-0.7h0.2l0-0.5c0-0.6-0.1-1-0.4-1.3s-0.7-0.5-1.2-0.5c-0.3,0-0.5,0-0.8,0.1
							c-0.3,0.1-0.6,0.2-1.1,0.4v-0.9c0.4-0.2,0.7-0.3,1.1-0.4S114.1,167.1,114.4,167.1L114.4,167.1z M113.6,173.4
							c0.4,0,0.8-0.2,1.2-0.6s0.7-1,0.9-1.7h-0.1c-1,0-1.7,0.1-2.2,0.4s-0.8,0.6-0.8,1.1c0,0.2,0.1,0.4,0.2,0.6
							S113.2,173.4,113.6,173.4L113.6,173.4z M109.7,167.2l0.8,7h-1.1l-0.4-3.9c-0.1-1.1-0.2-1.9-0.2-2.3h0
							c-0.5,1.2-0.9,1.9-1.1,2.4l-2.1,3.8h-1.1l3.8-7H109.7z M103.7,167.2h1.1l-1.5,7h-1.1L103.7,167.2z M103,176
							c0,0.2-0.1,0.4-0.2,0.6s-0.3,0.2-0.5,0.2c-0.4,0-0.6-0.2-0.6-0.6c0-0.2,0.1-0.4,0.2-0.6s0.3-0.2,0.5-0.2
							c0.2,0,0.3,0.1,0.4,0.2S103,175.8,103,176L103,176z M98.7,167.1c0.8,0,1.4,0.2,1.8,0.7s0.7,1.1,0.7,1.9c0,0.8-0.2,1.6-0.5,2.3
							s-0.7,1.3-1.3,1.7s-1.1,0.6-1.7,0.6c-0.6,0-1.1-0.1-1.5-0.4s-0.5-0.7-0.5-1.2c0-0.8,0.4-1.4,1.1-1.8s1.7-0.7,3-0.7h0.2l0-0.5
							c0-0.6-0.1-1-0.4-1.3s-0.7-0.5-1.2-0.5c-0.3,0-0.5,0-0.8,0.1c-0.3,0.1-0.6,0.2-1.1,0.4v-0.9c0.4-0.2,0.7-0.3,1.1-0.4
							S98.4,167.1,98.7,167.1L98.7,167.1z M97.9,173.4c0.4,0,0.8-0.2,1.2-0.6s0.7-1,0.9-1.7h-0.1c-1,0-1.7,0.1-2.2,0.4
							s-0.8,0.6-0.8,1.1c0,0.2,0.1,0.4,0.2,0.6S97.5,173.4,97.9,173.4L97.9,173.4z M90.2,167.2l0.2,3.8c0,0.4,0,0.8,0,1.1v1h0.1
							l0.3-0.7l0.5-1.2l1.8-4h1.3l0.3,7h-1l-0.1-3.8v-0.6c0-0.6,0-1.2,0.1-1.7h0c-0.2,0.5-0.5,1.2-0.9,2l-1.9,4h-1.2l-0.2-3.8
							c0-0.7,0-1.3,0-1.7v-0.3l0-0.3h0c-0.1,0.4-0.3,0.8-0.5,1.4s-0.9,2.1-2.1,4.6h-1.1l3.2-7H90.2z"/>
					</g>
				</g>
				<g id="step_2_" transform="translate(45.000000, 114.000000)">
					
						<g id="bg_2_" transform="translate(127.000000, 491.000000) rotate(-270.000000) translate(-127.000000, -491.000000) translate(-1.000000, 364.000000)" sketch:type="MSShapeGroup">
						<g id="Oval-20_6_" transform="translate(9.313333, 8.466667)" class="st0">
							<circle class="st1" cx="148.1" cy="252.1" r="118.1"/>
						</g>
						
							<rect id="Rectangle-909_1_" x="250.8" y="261.2" transform="matrix(2.535182e-06 1 -1 2.535182e-06 546.7493 -23.7507)" class="st3" width="69" height="0.5"/>
						<path id="Oval-20_7_" class="st2" d="M37,302.5L37,302.5c0.7,2,1.5,4,2.3,6c18.8,46.6,64.5,79.5,117.8,79.5
							c54,0,100.2-33.7,118.5-81.3c0.5-1.4,1.1-2.8,1.6-4.3c4.5-13,6.9-26.9,6.9-41.4c0-14.6-2.5-28.6-7-41.7
							c-0.6-1.8-1.3-3.5-2-5.2c-18.7-46.9-64.5-80.1-118.1-80.1c-53,0-98.4,32.5-117.4,78.6c-0.9,2.2-1.8,4.5-2.6,6.8"/>
						<path id="Oval-20_8_" class="st4" d="M39.6,212.6c-0.9,2.2-1.8,4.5-2.6,6.8c-4.5,13-7,27-7,41.6c0,14.5,2.4,28.5,6.9,41.5l0,0
							c0.7,2,1.5,4,2.3,6"/>
					</g>
					<g id="icn_2_" transform="translate(91.000000, 446.000000)" sketch:type="MSShapeGroup">
						<path id="Rectangle-120_2_" class="st1" d="M-96,30L-96,30c21,0,38,17,38,38l0,0c0,21-17,38-38,38l0,0c-21,0-38-17-38-38l0,0
							C-134,47-117,30-96,30z"/>
						<g id="icn-chat" transform="translate(19.000000, 24.000000)">
							<path id="Shape_21_" class="st11" d="M-130,38h20v-1h-20V38L-130,38z"/>
							<path id="Shape_22_" class="st11" d="M-130,42h1v-1h-1V42L-130,42z"/>
							<path id="Shape_23_" class="st11" d="M-128,42h1v-1h-1V42L-128,42z"/>
							<path id="Shape_24_" class="st11" d="M-126,42h1v-1h-1V42L-126,42z"/>
							<path id="Shape_25_" class="st11" d="M-112,40v-1h-18v1H-112z"/>
							<path id="Shape_26_" class="st11" d="M-118,44v-1h-12v1H-118z"/>
							<path id="Shape_27_" class="st11" d="M-118,48v-1h-12v1H-118z"/>
							<path id="Shape_28_" class="st11" d="M-100,50v-1h-6v1H-100z"/>
							<path id="Shape_29_" class="st11" d="M-100,52v-1h-3v1H-100z"/>
							<path id="Shape_30_" class="st11" d="M-114,46v-1h-16v1H-114z"/>
							<path id="Path-27" class="st12" d="M-132,30c0,0-2,0-2,2v22c0,0,0,2,2,2h2v5l6-5h26c0,0,2,0,2-2V32c0,0,0-2-2-2H-132z"/>
						</g>
					</g>
					<g id="labels_2_" transform="translate(92.000000, 412.000000)" sketch:type="MSShapeGroup">
						<path id="Learn" class="st1" d="M-133.4,53V30.2h2.7v20.4h10.1V53H-133.4z M-110.9,53.3c-2.5,0-4.5-0.8-6-2.3
							s-2.2-3.7-2.2-6.4c0-2.8,0.7-5,2-6.6s3.2-2.4,5.5-2.4c2.1,0,3.8,0.7,5.1,2.1s1.9,3.3,1.9,5.6v1.6h-11.8c0.1,2,0.6,3.5,1.5,4.6
							s2.3,1.6,4.1,1.6c1.8,0,3.7-0.4,5.5-1.2v2.3c-0.9,0.4-1.8,0.7-2.6,0.9S-109.8,53.3-110.9,53.3L-110.9,53.3z M-111.6,37.7
							c-1.4,0-2.5,0.4-3.3,1.3s-1.3,2.1-1.4,3.7h9c0-1.6-0.4-2.9-1.1-3.8S-110.3,37.7-111.6,37.7L-111.6,37.7z M-90.7,53l-0.5-2.4
							h-0.1c-0.9,1.1-1.7,1.8-2.6,2.2s-1.9,0.6-3.2,0.6c-1.7,0-3-0.4-4-1.3s-1.4-2.1-1.4-3.7c0-3.5,2.8-5.3,8.3-5.4l2.9-0.1v-1.1
							c0-1.3-0.3-2.3-0.9-3s-1.5-1-2.8-1c-1.4,0-3,0.4-4.8,1.3l-0.8-2c0.8-0.5,1.8-0.8,2.8-1.1s2-0.4,3-0.4c2,0,3.6,0.5,4.5,1.4
							s1.5,2.4,1.5,4.4V53H-90.7z M-96.5,51.2c1.6,0,2.9-0.4,3.8-1.3s1.4-2.1,1.4-3.7v-1.5l-2.6,0.1c-2.1,0.1-3.5,0.4-4.5,1
							s-1.4,1.5-1.4,2.6c0,0.9,0.3,1.7,0.9,2.1S-97.6,51.2-96.5,51.2L-96.5,51.2z M-76.6,35.6c0.8,0,1.4,0.1,2,0.2l-0.4,2.4
							c-0.7-0.2-1.3-0.2-1.9-0.2c-1.4,0-2.6,0.6-3.6,1.7s-1.5,2.5-1.5,4.2V53h-2.6V35.9h2.1L-82,39h0.1c0.6-1.1,1.4-2,2.3-2.6
							S-77.7,35.6-76.6,35.6L-76.6,35.6z M-60.6,53V41.9c0-1.4-0.3-2.4-1-3.1s-1.6-1-3-1c-1.8,0-3.1,0.5-3.9,1.5s-1.2,2.6-1.2,4.8v9
							h-2.6V35.9h2.1l0.4,2.3h0.1c0.5-0.8,1.3-1.5,2.2-2s2-0.7,3.2-0.7c2.1,0,3.6,0.5,4.7,1.5s1.6,2.6,1.6,4.8V53H-60.6z"/>
						<path id="Metrics" class="st1" d="M-113.9,160l-3.1-8.2h-0.1c0.1,0.7,0.1,1.4,0.1,2.3v5.9h-1v-9.3h1.6l2.9,7.7h0.1l3-7.7h1.6
							v9.3h-1.1v-6c0-0.7,0-1.4,0.1-2.2h-0.1l-3.2,8.2H-113.9z M-103.5,160.1c-1,0-1.8-0.3-2.4-0.9s-0.9-1.5-0.9-2.6
							c0-1.1,0.3-2,0.8-2.7s1.3-1,2.2-1c0.9,0,1.6,0.3,2.1,0.9s0.8,1.3,0.8,2.3v0.7h-4.8c0,0.8,0.2,1.4,0.6,1.9
							c0.4,0.4,0.9,0.6,1.7,0.6c0.7,0,1.5-0.2,2.2-0.5v0.9c-0.4,0.2-0.7,0.3-1.1,0.3S-103,160.1-103.5,160.1L-103.5,160.1z
							 M-103.8,153.8c-0.6,0-1,0.2-1.3,0.5s-0.5,0.9-0.6,1.5h3.6c0-0.7-0.1-1.2-0.4-1.5S-103.2,153.8-103.8,153.8L-103.8,153.8z
							 M-96.9,159.3c0.2,0,0.4,0,0.5,0s0.3-0.1,0.4-0.1v0.8c-0.1,0.1-0.3,0.1-0.5,0.1s-0.4,0.1-0.6,0.1c-1.3,0-2-0.7-2-2.1v-4.1h-1
							v-0.5l1-0.4l0.4-1.5h0.6v1.6h2v0.8h-2v4.1c0,0.4,0.1,0.7,0.3,1S-97.3,159.3-96.9,159.3L-96.9,159.3z M-91.4,152.9
							c0.3,0,0.6,0,0.8,0.1l-0.1,1c-0.3-0.1-0.5-0.1-0.8-0.1c-0.6,0-1,0.2-1.4,0.7s-0.6,1-0.6,1.7v3.7h-1.1v-7h0.9l0.1,1.3h0.1
							c0.3-0.5,0.6-0.8,0.9-1S-91.8,152.9-91.4,152.9L-91.4,152.9z M-88.2,160h-1.1v-7h1.1V160z M-89.3,151.2c0-0.2,0.1-0.4,0.2-0.5
							s0.3-0.2,0.4-0.2c0.2,0,0.3,0.1,0.4,0.2s0.2,0.3,0.2,0.5c0,0.2-0.1,0.4-0.2,0.5s-0.3,0.2-0.4,0.2c-0.2,0-0.3-0.1-0.4-0.2
							S-89.3,151.4-89.3,151.2L-89.3,151.2z M-83.2,160.1c-1,0-1.8-0.3-2.3-0.9s-0.8-1.5-0.8-2.6c0-1.2,0.3-2.1,0.8-2.7s1.4-1,2.4-1
							c0.3,0,0.7,0,1,0.1s0.6,0.2,0.8,0.3l-0.3,0.9c-0.2-0.1-0.5-0.2-0.8-0.2s-0.5-0.1-0.7-0.1c-1.4,0-2.1,0.9-2.1,2.7
							c0,0.9,0.2,1.5,0.5,2s0.9,0.7,1.5,0.7c0.6,0,1.2-0.1,1.8-0.4v0.9C-81.9,160-82.5,160.1-83.2,160.1L-83.2,160.1z M-75.3,158.1
							c0,0.6-0.2,1.1-0.7,1.5s-1.2,0.5-2,0.5c-0.9,0-1.6-0.1-2.2-0.4v-1c0.3,0.2,0.7,0.3,1.1,0.4s0.8,0.1,1.1,0.1
							c0.6,0,1-0.1,1.3-0.3s0.4-0.4,0.4-0.8c0-0.3-0.1-0.5-0.4-0.7s-0.7-0.4-1.4-0.7c-0.6-0.2-1.1-0.5-1.4-0.6s-0.5-0.4-0.6-0.6
							s-0.2-0.5-0.2-0.8c0-0.6,0.2-1,0.7-1.3s1.1-0.5,1.9-0.5c0.7,0,1.5,0.2,2.2,0.5l-0.4,0.9c-0.7-0.3-1.3-0.4-1.9-0.4
							c-0.5,0-0.9,0.1-1.1,0.2s-0.4,0.4-0.4,0.6c0,0.2,0,0.3,0.1,0.5s0.2,0.3,0.5,0.4s0.6,0.3,1.2,0.5c0.8,0.3,1.4,0.6,1.7,0.9
							S-75.3,157.6-75.3,158.1L-75.3,158.1z M-120.6,168.7h1.2l-3.3,9.3h-1.1l-3.3-9.3h1.1l2.1,6c0.2,0.7,0.4,1.4,0.6,2
							c0.2-0.7,0.4-1.4,0.6-2.1L-120.6,168.7z M-114.1,178l-0.2-1h-0.1c-0.3,0.4-0.7,0.7-1,0.9s-0.8,0.2-1.3,0.2
							c-0.7,0-1.2-0.2-1.6-0.5s-0.6-0.9-0.6-1.5c0-1.4,1.1-2.1,3.4-2.2l1.2,0v-0.4c0-0.5-0.1-0.9-0.4-1.2s-0.6-0.4-1.1-0.4
							c-0.6,0-1.2,0.2-2,0.5l-0.3-0.8c0.3-0.2,0.7-0.3,1.1-0.4s0.8-0.2,1.2-0.2c0.8,0,1.4,0.2,1.8,0.6s0.6,1,0.6,1.8v4.7H-114.1z
							 M-116.5,177.3c0.7,0,1.2-0.2,1.5-0.5s0.6-0.9,0.6-1.5v-0.6l-1.1,0c-0.8,0-1.4,0.2-1.8,0.4s-0.6,0.6-0.6,1.1
							c0,0.4,0.1,0.7,0.3,0.9S-116.9,177.3-116.5,177.3L-116.5,177.3z M-110.1,178h-1.1v-9.9h1.1V178z M-106.8,178h-1.1v-7h1.1V178z
							 M-107.9,169.2c0-0.2,0.1-0.4,0.2-0.5s0.3-0.2,0.4-0.2c0.2,0,0.3,0.1,0.4,0.2s0.2,0.3,0.2,0.5s-0.1,0.4-0.2,0.5
							s-0.3,0.2-0.4,0.2c-0.2,0-0.3-0.1-0.4-0.2S-107.9,169.4-107.9,169.2L-107.9,169.2z M-99.8,177.1L-99.8,177.1
							c-0.5,0.7-1.3,1.1-2.2,1.1c-0.9,0-1.6-0.3-2.1-0.9s-0.8-1.5-0.8-2.7s0.3-2,0.8-2.7s1.2-1,2.1-1c0.9,0,1.7,0.3,2.2,1h0.1l0-0.5
							l0-0.5v-2.8h1.1v9.9h-0.9L-99.8,177.1z M-101.9,177.2c0.7,0,1.2-0.2,1.6-0.6s0.5-1,0.5-1.9v-0.2c0-1-0.2-1.7-0.5-2.1
							s-0.9-0.6-1.6-0.6c-0.6,0-1.1,0.2-1.4,0.7c-0.3,0.5-0.5,1.2-0.5,2c0,0.9,0.2,1.6,0.5,2S-102.6,177.2-101.9,177.2L-101.9,177.2
							z M-92.3,178l-0.2-1h-0.1c-0.3,0.4-0.7,0.7-1,0.9s-0.8,0.2-1.3,0.2c-0.7,0-1.2-0.2-1.6-0.5s-0.6-0.9-0.6-1.5
							c0-1.4,1.1-2.1,3.4-2.2l1.2,0v-0.4c0-0.5-0.1-0.9-0.4-1.2s-0.6-0.4-1.1-0.4c-0.6,0-1.2,0.2-2,0.5l-0.3-0.8
							c0.3-0.2,0.7-0.3,1.1-0.4s0.8-0.2,1.2-0.2c0.8,0,1.4,0.2,1.8,0.6s0.6,1,0.6,1.8v4.7H-92.3z M-94.7,177.3
							c0.7,0,1.2-0.2,1.5-0.5s0.6-0.9,0.6-1.5v-0.6l-1.1,0c-0.8,0-1.4,0.2-1.8,0.4s-0.6,0.6-0.6,1.1c0,0.4,0.1,0.7,0.3,0.9
							S-95.1,177.3-94.7,177.3L-94.7,177.3z M-87.1,177.3c0.2,0,0.4,0,0.5,0s0.3-0.1,0.4-0.1v0.8c-0.1,0.1-0.3,0.1-0.5,0.1
							s-0.4,0.1-0.6,0.1c-1.3,0-2-0.7-2-2.1v-4.1h-1v-0.5l1-0.4l0.4-1.5h0.6v1.6h2v0.8h-2v4.1c0,0.4,0.1,0.7,0.3,1
							S-87.5,177.3-87.1,177.3L-87.1,177.3z M-83.7,178h-1.1v-7h1.1V178z M-84.9,169.2c0-0.2,0.1-0.4,0.2-0.5s0.3-0.2,0.4-0.2
							c0.2,0,0.3,0.1,0.4,0.2s0.2,0.3,0.2,0.5s-0.1,0.4-0.2,0.5s-0.3,0.2-0.4,0.2c-0.2,0-0.3-0.1-0.4-0.2S-84.9,169.4-84.9,169.2
							L-84.9,169.2z M-75.5,174.5c0,1.1-0.3,2-0.9,2.7s-1.4,1-2.4,1c-0.6,0-1.2-0.1-1.7-0.4s-0.9-0.7-1.1-1.3s-0.4-1.2-0.4-1.9
							c0-1.1,0.3-2,0.9-2.7s1.4-0.9,2.4-0.9c1,0,1.7,0.3,2.3,1S-75.5,173.4-75.5,174.5L-75.5,174.5z M-80.8,174.5
							c0,0.9,0.2,1.6,0.5,2s0.9,0.7,1.6,0.7s1.2-0.2,1.6-0.7s0.5-1.1,0.5-2c0-0.9-0.2-1.6-0.5-2s-0.9-0.7-1.6-0.7
							c-0.7,0-1.2,0.2-1.6,0.7S-80.8,173.6-80.8,174.5L-80.8,174.5z M-68.9,178v-4.5c0-0.6-0.1-1-0.4-1.3s-0.7-0.4-1.2-0.4
							c-0.7,0-1.3,0.2-1.6,0.6s-0.5,1-0.5,1.9v3.6h-1.1v-7h0.9l0.2,1h0.1c0.2-0.3,0.5-0.6,0.9-0.8s0.8-0.3,1.3-0.3
							c0.8,0,1.5,0.2,1.9,0.6s0.6,1.1,0.6,1.9v4.5H-68.9z M-126.5,196h-1.1v-9.3h5.2v1h-4.1v3.4h3.8v1h-3.8V196z M-118.1,196.1
							c-1,0-1.8-0.3-2.4-0.9s-0.9-1.5-0.9-2.6c0-1.1,0.3-2,0.8-2.7s1.3-1,2.2-1c0.9,0,1.6,0.3,2.1,0.9s0.8,1.3,0.8,2.3v0.7h-4.8
							c0,0.8,0.2,1.4,0.6,1.9c0.4,0.4,0.9,0.6,1.7,0.6c0.7,0,1.5-0.2,2.2-0.5v0.9c-0.4,0.2-0.7,0.3-1.1,0.3
							S-117.6,196.1-118.1,196.1L-118.1,196.1z M-118.4,189.8c-0.6,0-1,0.2-1.3,0.5s-0.5,0.9-0.6,1.5h3.6c0-0.7-0.1-1.2-0.4-1.5
							S-117.8,189.8-118.4,189.8L-118.4,189.8z M-110.8,196.1c-1,0-1.8-0.3-2.4-0.9s-0.9-1.5-0.9-2.6c0-1.1,0.3-2,0.8-2.7
							s1.3-1,2.2-1c0.9,0,1.6,0.3,2.1,0.9s0.8,1.3,0.8,2.3v0.7h-4.8c0,0.8,0.2,1.4,0.6,1.9c0.4,0.4,0.9,0.6,1.7,0.6
							c0.7,0,1.5-0.2,2.2-0.5v0.9c-0.4,0.2-0.7,0.3-1.1,0.3S-110.3,196.1-110.8,196.1L-110.8,196.1z M-111.1,189.8
							c-0.6,0-1,0.2-1.3,0.5s-0.5,0.9-0.6,1.5h3.6c0-0.7-0.1-1.2-0.4-1.5S-110.5,189.8-111.1,189.8L-111.1,189.8z M-101.7,195.1
							L-101.7,195.1c-0.5,0.7-1.3,1.1-2.2,1.1c-0.9,0-1.6-0.3-2.1-0.9s-0.8-1.5-0.8-2.7s0.3-2,0.8-2.7s1.2-1,2.1-1
							c0.9,0,1.7,0.3,2.2,1h0.1l0-0.5l0-0.5v-2.8h1.1v9.9h-0.9L-101.7,195.1z M-103.8,195.2c0.7,0,1.2-0.2,1.6-0.6s0.5-1,0.5-1.9
							v-0.2c0-1-0.2-1.7-0.5-2.1s-0.9-0.6-1.6-0.6c-0.6,0-1.1,0.2-1.4,0.7c-0.3,0.5-0.5,1.2-0.5,2c0,0.9,0.2,1.6,0.5,2
							S-104.4,195.2-103.8,195.2L-103.8,195.2z M-95.2,188.9c0.9,0,1.6,0.3,2.1,0.9s0.8,1.5,0.8,2.7s-0.3,2-0.8,2.7
							s-1.2,0.9-2.1,0.9c-0.5,0-0.9-0.1-1.2-0.3s-0.7-0.4-0.9-0.8h-0.1l-0.2,0.9h-0.8v-9.9h1.1v2.4c0,0.5,0,1-0.1,1.4h0.1
							C-96.9,189.3-96.2,188.9-95.2,188.9L-95.2,188.9z M-95.4,189.8c-0.7,0-1.2,0.2-1.6,0.6s-0.5,1.1-0.5,2.1s0.2,1.7,0.5,2.1
							s0.8,0.6,1.6,0.6c0.6,0,1.1-0.2,1.4-0.7s0.5-1.1,0.5-2c0-0.9-0.2-1.6-0.5-2S-94.7,189.8-95.4,189.8L-95.4,189.8z M-86.2,196
							l-0.2-1h-0.1c-0.3,0.4-0.7,0.7-1,0.9s-0.8,0.2-1.3,0.2c-0.7,0-1.2-0.2-1.6-0.5s-0.6-0.9-0.6-1.5c0-1.4,1.1-2.1,3.4-2.2l1.2,0
							v-0.4c0-0.5-0.1-0.9-0.4-1.2s-0.6-0.4-1.1-0.4c-0.6,0-1.2,0.2-2,0.5l-0.3-0.8c0.3-0.2,0.7-0.3,1.1-0.4s0.8-0.2,1.2-0.2
							c0.8,0,1.4,0.2,1.8,0.6s0.6,1,0.6,1.8v4.7H-86.2z M-88.6,195.3c0.7,0,1.2-0.2,1.5-0.5s0.6-0.9,0.6-1.5v-0.6l-1.1,0
							c-0.8,0-1.4,0.2-1.8,0.4s-0.6,0.6-0.6,1.1c0,0.4,0.1,0.7,0.3,0.9S-89,195.3-88.6,195.3L-88.6,195.3z M-80.5,196.1
							c-1,0-1.8-0.3-2.3-0.9s-0.8-1.5-0.8-2.6c0-1.2,0.3-2.1,0.8-2.7s1.4-1,2.4-1c0.3,0,0.7,0,1,0.1s0.6,0.2,0.8,0.3l-0.3,0.9
							c-0.2-0.1-0.5-0.2-0.8-0.2s-0.5-0.1-0.7-0.1c-1.4,0-2.1,0.9-2.1,2.7c0,0.9,0.2,1.5,0.5,2s0.9,0.7,1.5,0.7
							c0.6,0,1.2-0.1,1.8-0.4v0.9C-79.2,196-79.8,196.1-80.5,196.1L-80.5,196.1z M-76,192.4c0.2-0.3,0.5-0.6,0.8-1l2.2-2.4h1.3
							l-2.8,3l3,4h-1.3l-2.5-3.3l-0.8,0.7v2.6h-1v-9.9h1v5.2C-76,191.6-76,192-76,192.4L-76,192.4z M-65.8,194.1
							c0,0.6-0.2,1.1-0.7,1.5s-1.2,0.5-2,0.5c-0.9,0-1.6-0.1-2.2-0.4v-1c0.3,0.2,0.7,0.3,1.1,0.4s0.8,0.1,1.1,0.1
							c0.6,0,1-0.1,1.3-0.3s0.4-0.4,0.4-0.8c0-0.3-0.1-0.5-0.4-0.7s-0.7-0.4-1.4-0.7c-0.6-0.2-1.1-0.5-1.4-0.6s-0.5-0.4-0.6-0.6
							s-0.2-0.5-0.2-0.8c0-0.6,0.2-1,0.7-1.3s1.1-0.5,1.9-0.5c0.7,0,1.5,0.2,2.2,0.5l-0.4,0.9c-0.7-0.3-1.3-0.4-1.9-0.4
							c-0.5,0-0.9,0.1-1.1,0.2s-0.4,0.4-0.4,0.6c0,0.2,0,0.3,0.1,0.5s0.2,0.3,0.5,0.4s0.6,0.3,1.2,0.5c0.8,0.3,1.4,0.6,1.7,0.9
							S-65.8,193.6-65.8,194.1L-65.8,194.1z"/>
					</g>
					<g id="arrow_2_" transform="translate(254.000000, 0.000000)">
						<path id="Line_2_" sketch:type="MSShapeGroup" class="st7" d="M-109.5,43.5v-13"/>
						<path id="Line-decoration-1_2_" class="st7" d="M-106.5,41.3l-3-10.8l-3,10.8"/>
						<path id="New-iteration" sketch:type="MSShapeGroup" class="st1" d="M-92.1,309.4v1.1l-7.8,2.9v0c0.9,0.1,1.8,0.3,2.7,0.5
							l5.1,1.1v1l-9.3-2v-1.1l7.7-2.9v0c-0.9-0.1-1.8-0.3-2.6-0.5l-5.2-1.1v-1L-92.1,309.4z M-92,304.3c0,0.8-0.2,1.4-0.7,1.8
							s-1.1,0.7-1.9,0.7c-0.8,0-1.6-0.2-2.3-0.5s-1.3-0.7-1.7-1.3s-0.6-1.1-0.6-1.7c0-0.6,0.1-1.1,0.4-1.5s0.7-0.5,1.2-0.5
							c0.8,0,1.4,0.4,1.8,1.1s0.7,1.7,0.7,3v0.2l0.5,0c0.6,0,1-0.1,1.3-0.4s0.5-0.7,0.5-1.2c0-0.3,0-0.5-0.1-0.8s-0.2-0.6-0.4-1.1
							h0.9c0.2,0.4,0.3,0.7,0.4,1.1S-92,304-92,304.3L-92,304.3z M-98.3,303.4c0,0.4,0.2,0.8,0.6,1.2s1,0.7,1.7,0.9v-0.1
							c0-1-0.1-1.7-0.4-2.2s-0.6-0.8-1.1-0.8c-0.2,0-0.4,0.1-0.6,0.2S-98.3,303.1-98.3,303.4L-98.3,303.4z M-92.1,295.8l-3.8,0.2
							c-0.4,0-0.8,0-1.1,0h-1v0.1l0.7,0.3l1.2,0.5l4,1.8v1.3l-7,0.3v-1l3.8-0.1h0.6c0.6,0,1.2,0,1.7,0.1v0c-0.5-0.2-1.2-0.5-2-0.9
							l-4-1.9v-1.2l3.8-0.2c0.7,0,1.3,0,1.7,0h0.3l0.3,0v0c-0.4-0.1-0.8-0.3-1.4-0.5s-2.1-0.9-4.6-2.1v-1.1l7,3.2V295.8z
							 M-92.1,286.9v1.1l-7-1.5v-1.1L-92.1,286.9z M-100.8,286.2c-0.2,0-0.4-0.1-0.6-0.2s-0.2-0.3-0.2-0.5c0-0.4,0.2-0.6,0.6-0.6
							c0.2,0,0.4,0.1,0.6,0.2s0.2,0.3,0.2,0.5c0,0.2-0.1,0.3-0.2,0.4S-100.6,286.2-100.8,286.2L-100.8,286.2z M-92.8,282.5
							c0-0.2-0.1-0.5-0.2-0.9h0.8c0.1,0.1,0.1,0.3,0.2,0.5s0.1,0.4,0.1,0.5c0,0.5-0.1,0.9-0.4,1.2s-0.6,0.4-1.1,0.4
							c-0.3,0-0.6,0-1-0.1l-3.8-0.8v1.1l-0.5-0.1l-0.5-1.2l-1.4-0.8v-0.6l1.6,0.3v-1.7l0.8,0.2v1.7l3.8,0.8c0.4,0.1,0.6,0.1,0.8,0.1
							c0.2,0,0.4-0.1,0.5-0.2S-92.8,282.8-92.8,282.5L-92.8,282.5z M-92,277.7c0,0.8-0.2,1.4-0.7,1.8s-1.1,0.7-1.9,0.7
							c-0.8,0-1.6-0.2-2.3-0.5s-1.3-0.7-1.7-1.3s-0.6-1.1-0.6-1.7c0-0.6,0.1-1.1,0.4-1.5s0.7-0.5,1.2-0.5c0.8,0,1.4,0.4,1.8,1.1
							s0.7,1.7,0.7,3v0.2l0.5,0c0.6,0,1-0.1,1.3-0.4s0.5-0.7,0.5-1.2c0-0.3,0-0.5-0.1-0.8s-0.2-0.6-0.4-1.1h0.9
							c0.2,0.4,0.3,0.7,0.4,1.1S-92,277.3-92,277.7L-92,277.7z M-98.3,276.8c0,0.4,0.2,0.8,0.6,1.2s1,0.7,1.7,0.9v-0.1
							c0-1-0.1-1.7-0.4-2.2s-0.6-0.8-1.1-0.8c-0.2,0-0.4,0.1-0.6,0.2S-98.3,276.5-98.3,276.8L-98.3,276.8z M-99.2,269.6
							c0-0.3,0-0.5,0.1-0.8l1,0.2c-0.1,0.2-0.1,0.4-0.1,0.7c0,0.4,0.1,0.7,0.4,1.1s0.6,0.6,1.1,0.9s1,0.4,1.5,0.6l3.2,0.7v1.1
							l-7-1.5v-0.9l1.3,0.1v-0.1c-0.4-0.3-0.7-0.6-0.9-0.8s-0.3-0.4-0.4-0.6S-99.2,269.9-99.2,269.6L-99.2,269.6z M-99.2,265.2
							c0-0.4,0.1-0.7,0.3-1s0.5-0.5,0.9-0.7v-0.1L-99,263v-0.8l7,1.5v0.8l-1.3-0.2v0.1c1,0.8,1.5,1.6,1.5,2.4c0,0.6-0.2,1-0.6,1.4
							s-1,0.5-1.7,0.5c-0.9,0-1.7-0.2-2.5-0.5s-1.3-0.7-1.8-1.2S-99.2,265.8-99.2,265.2L-99.2,265.2z M-92.8,266.4
							c0-0.4-0.2-0.8-0.6-1.2s-0.9-0.7-1.5-1s-1.3-0.4-1.9-0.4c-0.4,0-0.8,0.1-1,0.4s-0.4,0.5-0.4,0.9c0,0.4,0.2,0.8,0.5,1.2
							s0.9,0.7,1.5,0.9s1.3,0.3,2,0.3c0.5,0,0.8-0.1,1.1-0.3S-92.8,266.8-92.8,266.4L-92.8,266.4z M-92.8,259.4
							c0-0.2-0.1-0.5-0.2-0.9h0.8c0.1,0.1,0.1,0.3,0.2,0.5s0.1,0.4,0.1,0.5c0,0.5-0.1,0.9-0.4,1.2s-0.6,0.4-1.1,0.4
							c-0.3,0-0.6,0-1-0.1l-3.8-0.8v1.1l-0.5-0.1l-0.5-1.2l-1.4-0.8v-0.6l1.6,0.3v-1.7l0.8,0.2v1.7l3.8,0.8c0.4,0.1,0.6,0.1,0.8,0.1
							c0.2,0,0.4-0.1,0.5-0.2S-92.8,259.6-92.8,259.4L-92.8,259.4z M-92.1,256.3v1.1l-7-1.5v-1.1L-92.1,256.3z M-100.8,255.6
							c-0.2,0-0.4-0.1-0.6-0.2s-0.2-0.3-0.2-0.5c0-0.4,0.2-0.6,0.6-0.6c0.2,0,0.4,0.1,0.6,0.2s0.2,0.3,0.2,0.5
							c0,0.2-0.1,0.3-0.2,0.4S-100.6,255.6-100.8,255.6L-100.8,255.6z M-99.1,250.3c0-0.8,0.2-1.4,0.7-1.9s1.1-0.7,2-0.7
							c0.8,0,1.5,0.2,2.3,0.5s1.3,0.7,1.6,1.2s0.6,1.1,0.6,1.8c0,0.8-0.2,1.4-0.7,1.9s-1.1,0.7-2,0.7c-0.8,0-1.6-0.2-2.3-0.5
							s-1.3-0.7-1.6-1.3S-99.1,251-99.1,250.3L-99.1,250.3z M-96.6,248.8c-0.5,0-0.9,0.1-1.2,0.4s-0.5,0.6-0.5,1.1
							c0,0.5,0.2,0.9,0.5,1.2s0.7,0.6,1.3,0.9c0.6,0.2,1.2,0.3,1.9,0.3c0.6,0,1-0.1,1.3-0.4s0.5-0.7,0.5-1.2c0-0.4-0.2-0.8-0.5-1.2
							s-0.7-0.6-1.3-0.8S-95.9,248.8-96.6,248.8L-96.6,248.8z M-92.1,242.5l-4.4-0.9c-0.4-0.1-0.7-0.1-0.9-0.1
							c-0.3,0-0.5,0.1-0.6,0.2s-0.2,0.4-0.2,0.7c0,0.4,0.1,0.7,0.4,1.1s0.6,0.7,1.1,0.9s1,0.5,1.7,0.6l3,0.6v1.1l-7-1.5v-0.9
							l1.3,0.1v-0.1c-0.5-0.4-0.9-0.8-1.1-1.2s-0.3-0.8-0.3-1.2c0-0.5,0.1-1,0.4-1.3s0.7-0.5,1.2-0.5c0.3,0,0.7,0,1.1,0.1l4.3,0.9
							V242.5z"/>
						<path id="Path-202_2_" sketch:type="MSShapeGroup" class="st8" d="M-109.4,45.8v457.7c0,0,0,14.1-14.1,14.1s-9.5,0-9.5,0"/>
					</g>
				</g>
			</g>
		</g>
	</g>
</g>
</svg>
