<?xml version="1.0" encoding="utf-8"?>
<!-- Generator: Adobe Illustrator 19.1.0, SVG Export Plug-In . SVG Version: 6.00 Build 0)  -->
<svg version="1.1" id="Layer_1" xmlns:sketch="http://www.bohemiancoding.com/sketch/ns"
	 xmlns="http://www.w3.org/2000/svg" xmlns:xlink="http://www.w3.org/1999/xlink" x="0px" y="0px" viewBox="-149 274 312 246"
	 style="enable-background:new -149 274 312 246;" xml:space="preserve">
<style type="text/css">
	.st0{fill:#4A4A4A;}
	.st1{fill:#FDE6C0;}
	.st2{fill:#F6A623;}
	.st3{fill:#F4F4F4;}
	.st4{fill:#FFFFFF;}
</style>
<title>img-ux</title>
<desc>Created with Sketch.</desc>
<g id="assets" sketch:type="MSPage">
	<g id="guidelines-assets" transform="translate(-43.000000, -111.000000)" sketch:type="MSArtboardGroup">
		<g id="img-ux" transform="translate(42.000000, 110.000000)" sketch:type="MSLayerGroup">
			<g id="sheet" transform="translate(49.000000, 1.000000)" sketch:type="MSShapeGroup">
				<g id="bg">
					<path id="Shape" class="st0" d="M-147,276v242H55V311.6L16.8,276H-147L-147,276z M-149,276L-149,276v-2h2H16.8h0.8l0.6,0.5
						l38.2,35.6l0.6,0.6v0.9V518v2h-2h-202h-2v-2V276z"/>
					<path id="Path-110" class="st1" d="M16,277v35h38L16,277z"/>
				</g>
				<g id="geometric" transform="translate(28.000000, 54.000000)">
					<path id="Shape_1_" class="st2" d="M-74.5,420L-74.5,420C-35.6,420-4,388.4-4,349.5S-35.6,279-74.5,279s-70.5,31.6-70.5,70.5
						S-113.4,420-74.5,420L-74.5,420z M-74.5,421L-74.5,421c-39.5,0-71.5-32-71.5-71.5s32-71.5,71.5-71.5S-3,310-3,349.5
						S-35,421-74.5,421L-74.5,421z"/>
					<rect id="Rectangle-104" x="-146" y="277" class="st0" width="143" height="2"/>
					<circle id="Oval-9" class="st1" cx="-75" cy="349" r="43"/>
					<circle id="Oval-11" class="st0" cx="-4" cy="278" r="2"/>
					<circle id="Oval-11_1_" class="st0" cx="-145" cy="278" r="2"/>
					<rect id="Rectangle-104_1_" x="-146" y="420" class="st0" width="143" height="2"/>
					<circle id="Oval-11_2_" class="st0" cx="-4" cy="421" r="2"/>
					<circle id="Oval-11_3_" class="st0" cx="-145" cy="421" r="2"/>
					<path id="Shape_2_" class="st0" d="M-77,275L-77,275v6h6v-6H-77z M-77,274L-77,274h6h1v1v6v1h-1h-6h-1v-1v-6v-1H-77z"/>
					<rect id="Rectangle-102" x="-77" y="275" class="st2" width="6" height="6"/>
					<path id="Shape_3_" class="st0" d="M-77,418L-77,418v6h6v-6H-77z M-77,417L-77,417h6h1v1v6v1h-1h-6h-1v-1v-6v-1H-77z"/>
					<rect id="Rectangle-102_1_" x="-77" y="418" class="st2" width="6" height="6"/>
					<path id="Shape_4_" class="st0" d="M-148,347L-148,347v6h6v-6H-148z M-148,346L-148,346h6h1v1v6v1h-1h-6h-1v-1v-6v-1H-148z"/>
					<rect id="Rectangle-102_2_" x="-148" y="347" class="st1" width="6" height="6"/>
					<path id="Shape_5_" class="st0" d="M-7,347L-7,347v6h6v-6H-7z M-7,346L-7,346h6h1v1v6v1h-1h-6h-1v-1v-6v-1H-7z"/>
					<rect id="Rectangle-102_3_" x="-7" y="347" class="st1" width="6" height="6"/>
				</g>
			</g>
			<g id="ruler" sketch:type="MSShapeGroup">
				<path id="Shape_6_" class="st0" d="M-146,277L-146,277v242h34V277H-146z M-146,275L-146,275h34h2v2v242v2h-2h-34h-2v-2V277v-2
					H-146z"/>
				<rect id="Rectangle-2" x="-116" y="330" class="st2" width="4" height="1"/>
				<rect id="Rectangle-2_1_" x="-116" y="332" class="st2" width="4" height="1"/>
				<rect id="Rectangle-2_2_" x="-116" y="334" class="st2" width="4" height="1"/>
				<rect id="Rectangle-2_3_" x="-116" y="336" class="st2" width="4" height="1"/>
				<rect id="Rectangle-2_4_" x="-116" y="338" class="st2" width="4" height="1"/>
				<rect id="Rectangle-2_5_" x="-116" y="340" class="st2" width="4" height="1"/>
				<rect id="Rectangle-2_6_" x="-116" y="342" class="st2" width="4" height="1"/>
				<rect id="Rectangle-2_7_" x="-116" y="344" class="st2" width="4" height="1"/>
				<rect id="Rectangle-2_8_" x="-120" y="346" class="st2" width="8" height="1"/>
				<rect id="Rectangle-2_9_" x="-116" y="348" class="st2" width="4" height="1"/>
				<rect id="Rectangle-2_10_" x="-116" y="350" class="st2" width="4" height="1"/>
				<rect id="Rectangle-2_11_" x="-116" y="352" class="st2" width="4" height="1"/>
				<rect id="Rectangle-2_12_" x="-116" y="354" class="st2" width="4" height="1"/>
				<rect id="Rectangle-2_13_" x="-116" y="356" class="st2" width="4" height="1"/>
				<rect id="Rectangle-2_14_" x="-116" y="358" class="st2" width="4" height="1"/>
				<rect id="Rectangle-2_15_" x="-116" y="360" class="st2" width="4" height="1"/>
				<rect id="Rectangle-2_16_" x="-116" y="362" class="st2" width="4" height="1"/>
				<rect id="Rectangle-2_17_" x="-120" y="364" class="st2" width="8" height="1"/>
				<rect id="Rectangle-2_18_" x="-116" y="366" class="st2" width="4" height="1"/>
				<rect id="Rectangle-2_19_" x="-116" y="368" class="st2" width="4" height="1"/>
				<rect id="Rectangle-2_20_" x="-116" y="370" class="st2" width="4" height="1"/>
				<rect id="Rectangle-2_21_" x="-116" y="372" class="st2" width="4" height="1"/>
				<rect id="Rectangle-2_22_" x="-116" y="374" class="st2" width="4" height="1"/>
				<rect id="Rectangle-2_23_" x="-116" y="376" class="st2" width="4" height="1"/>
				<rect id="Rectangle-2_24_" x="-116" y="378" class="st2" width="4" height="1"/>
				<rect id="Rectangle-2_25_" x="-116" y="380" class="st2" width="4" height="1"/>
				<rect id="Rectangle-2_26_" x="-120" y="382" class="st2" width="8" height="1"/>
				<rect id="Rectangle-2_27_" x="-116" y="384" class="st2" width="4" height="1"/>
				<rect id="Rectangle-2_28_" x="-116" y="386" class="st2" width="4" height="1"/>
				<rect id="Rectangle-2_29_" x="-116" y="388" class="st2" width="4" height="1"/>
				<rect id="Rectangle-2_30_" x="-116" y="390" class="st2" width="4" height="1"/>
				<rect id="Rectangle-2_31_" x="-116" y="392" class="st2" width="4" height="1"/>
				<rect id="Rectangle-2_32_" x="-116" y="394" class="st2" width="4" height="1"/>
				<rect id="Rectangle-2_33_" x="-116" y="396" class="st2" width="4" height="1"/>
				<rect id="Rectangle-2_34_" x="-116" y="398" class="st2" width="4" height="1"/>
				<rect id="Rectangle-2_35_" x="-120" y="400" class="st2" width="8" height="1"/>
				<rect id="Rectangle-2_36_" x="-116" y="402" class="st2" width="4" height="1"/>
				<rect id="Rectangle-2_37_" x="-116" y="404" class="st2" width="4" height="1"/>
				<rect id="Rectangle-2_38_" x="-116" y="406" class="st2" width="4" height="1"/>
				<rect id="Rectangle-2_39_" x="-116" y="408" class="st2" width="4" height="1"/>
				<rect id="Rectangle-2_40_" x="-116" y="410" class="st2" width="4" height="1"/>
				<rect id="Rectangle-2_41_" x="-116" y="412" class="st2" width="4" height="1"/>
				<rect id="Rectangle-2_42_" x="-116" y="414" class="st2" width="4" height="1"/>
				<rect id="Rectangle-2_43_" x="-116" y="416" class="st2" width="4" height="1"/>
				<rect id="Rectangle-2_44_" x="-120" y="418" class="st2" width="8" height="1"/>
				<rect id="Rectangle-2_45_" x="-116" y="420" class="st2" width="4" height="1"/>
				<rect id="Rectangle-2_46_" x="-116" y="422" class="st2" width="4" height="1"/>
				<rect id="Rectangle-2_47_" x="-116" y="424" class="st2" width="4" height="1"/>
				<rect id="Rectangle-2_48_" x="-116" y="426" class="st2" width="4" height="1"/>
				<rect id="Rectangle-2_49_" x="-116" y="428" class="st2" width="4" height="1"/>
				<rect id="Rectangle-2_50_" x="-116" y="430" class="st2" width="4" height="1"/>
				<rect id="Rectangle-2_51_" x="-116" y="432" class="st2" width="4" height="1"/>
				<rect id="Rectangle-2_52_" x="-116" y="434" class="st2" width="4" height="1"/>
				<rect id="Rectangle-2_53_" x="-120" y="436" class="st2" width="8" height="1"/>
				<rect id="Rectangle-2_54_" x="-116" y="438" class="st2" width="4" height="1"/>
				<rect id="Rectangle-2_55_" x="-116" y="440" class="st2" width="4" height="1"/>
				<rect id="Rectangle-2_56_" x="-116" y="442" class="st2" width="4" height="1"/>
				<rect id="Rectangle-2_57_" x="-116" y="444" class="st2" width="4" height="1"/>
				<rect id="Rectangle-2_58_" x="-116" y="446" class="st2" width="4" height="1"/>
				<rect id="Rectangle-2_59_" x="-116" y="448" class="st2" width="4" height="1"/>
				<rect id="Rectangle-2_60_" x="-116" y="450" class="st2" width="4" height="1"/>
				<rect id="Rectangle-2_61_" x="-116" y="452" class="st2" width="4" height="1"/>
				<rect id="Rectangle-2_62_" x="-120" y="454" class="st2" width="8" height="1"/>
				<rect id="Rectangle-2_63_" x="-116" y="456" class="st2" width="4" height="1"/>
				<rect id="Rectangle-2_64_" x="-116" y="458" class="st2" width="4" height="1"/>
				<rect id="Rectangle-2_65_" x="-116" y="460" class="st2" width="4" height="1"/>
				<rect id="Rectangle-2_66_" x="-116" y="462" class="st2" width="4" height="1"/>
				<rect id="Rectangle-2_67_" x="-116" y="464" class="st2" width="4" height="1"/>
				<rect id="Rectangle-2_68_" x="-116" y="466" class="st2" width="4" height="1"/>
				<rect id="Rectangle-2_69_" x="-116" y="468" class="st2" width="4" height="1"/>
				<rect id="Rectangle-2_70_" x="-116" y="470" class="st2" width="4" height="1"/>
				<rect id="Rectangle-2_71_" x="-120" y="472" class="st2" width="8" height="1"/>
				<rect id="Rectangle-2_72_" x="-116" y="474" class="st2" width="4" height="1"/>
				<rect id="Rectangle-2_73_" x="-116" y="476" class="st2" width="4" height="1"/>
				<rect id="Rectangle-2_74_" x="-116" y="478" class="st2" width="4" height="1"/>
				<rect id="Rectangle-2_75_" x="-116" y="480" class="st2" width="4" height="1"/>
				<rect id="Rectangle-2_76_" x="-116" y="482" class="st2" width="4" height="1"/>
				<rect id="Rectangle-2_77_" x="-116" y="484" class="st2" width="4" height="1"/>
				<rect id="Rectangle-2_78_" x="-116" y="486" class="st2" width="4" height="1"/>
				<rect id="Rectangle-2_79_" x="-116" y="488" class="st2" width="4" height="1"/>
				<rect id="Rectangle-2_80_" x="-120" y="490" class="st2" width="8" height="1"/>
				<rect id="Rectangle-2_81_" x="-116" y="492" class="st2" width="4" height="1"/>
				<rect id="Rectangle-2_82_" x="-116" y="494" class="st2" width="4" height="1"/>
				<rect id="Rectangle-2_83_" x="-116" y="496" class="st2" width="4" height="1"/>
				<rect id="Rectangle-2_84_" x="-116" y="498" class="st2" width="4" height="1"/>
				<rect id="Rectangle-2_85_" x="-116" y="500" class="st2" width="4" height="1"/>
				<rect id="Rectangle-2_86_" x="-116" y="502" class="st2" width="4" height="1"/>
				<rect id="Rectangle-2_87_" x="-116" y="504" class="st2" width="4" height="1"/>
				<rect id="Rectangle-2_88_" x="-116" y="506" class="st2" width="4" height="1"/>
				<rect id="Rectangle-2_89_" x="-120" y="508" class="st2" width="8" height="1"/>
				<rect id="Rectangle-2_90_" x="-116" y="312" class="st2" width="4" height="1"/>
				<rect id="Rectangle-2_91_" x="-116" y="314" class="st2" width="4" height="1"/>
				<rect id="Rectangle-2_92_" x="-116" y="316" class="st2" width="4" height="1"/>
				<rect id="Rectangle-2_93_" x="-116" y="318" class="st2" width="4" height="1"/>
				<rect id="Rectangle-2_94_" x="-116" y="320" class="st2" width="4" height="1"/>
				<rect id="Rectangle-2_95_" x="-116" y="322" class="st2" width="4" height="1"/>
				<rect id="Rectangle-2_96_" x="-116" y="324" class="st2" width="4" height="1"/>
				<rect id="Rectangle-2_97_" x="-116" y="326" class="st2" width="4" height="1"/>
				<rect id="Rectangle-2_98_" x="-120" y="328" class="st2" width="8" height="1"/>
				<rect id="Rectangle-2_99_" x="-120" y="310" class="st2" width="8" height="1"/>
				<path id="Shape_7_" class="st0" d="M-129,289L-129,289c1.7,0,3-1.3,3-3s-1.3-3-3-3c-1.7,0-3,1.3-3,3S-130.7,289-129,289
					L-129,289z M-129,290L-129,290c-2.2,0-4-1.8-4-4s1.8-4,4-4s4,1.8,4,4S-126.8,290-129,290L-129,290z"/>
			</g>
			<g id="mouse" transform="translate(265.000000, 154.000000)" sketch:type="MSShapeGroup">
				<path id="Path-111" class="st3" d="M-148,286c0,11,0,68,0,68s0.5,11.8,11.8,11.8s22.2,0,22.2,0s11.9,0.9,11.9-11.9
					c0-12.8,0-65.8,0-65.8s1-13-13-13s-21,0-21,0S-148,275-148,286z"/>
				<path id="Shape_8_" class="st0" d="M-149,286c0,12,0,12,0,33.1v24v7.9v3c0,0.5,0.1,1.2,0.3,2c0.3,1.5,0.8,2.9,1.5,4.3
					c2.1,4,5.7,6.4,11,6.4c11.2,0,11.2,0,19,0c2.7,0,2.7,0,3.3,0c0,0,0,0,0.1,0c0.6,0,1.4,0,2.3-0.1c1.4-0.2,2.7-0.5,4-1.1
					c4.1-1.9,6.5-5.7,6.5-11.7c0-12,0-12,0-31.5c0-10.7,0-10.7,0-20.1c0-5.9,0-5.9,0-10.2c0-3.2,0-3.2,0-4c0,0,0,0,0-0.1
					c0-0.7,0-1.5-0.1-2.5c-0.2-1.5-0.6-2.9-1.2-4.3c-2-4.4-6.1-7.1-12.6-7.1c-12.4,0-12.4,0-18.6,0c-1.9,0-1.9,0-2.3,0c0,0,0,0,0,0
					c-0.4,0-1.1,0-2,0.2c-1.5,0.2-3,0.6-4.4,1.3C-146.5,277.3-149,280.8-149,286L-149,286z M-147,286c0-4.4,2-7.1,5.4-8.7
					c1.2-0.6,2.5-0.9,3.8-1.1c0.5-0.1,0.9-0.1,1.3-0.1c0.2,0,0.4,0,0.5,0c0,0,0,0,0,0c0.4,0,0.4,0,2.3,0c6.2,0,6.2,0,18.6,0
					c5.7,0,9.1,2.2,10.8,5.9c0.5,1.2,0.9,2.4,1,3.7c0.1,0.9,0.1,1.6,0.1,2.2c0,0.1,0,0.1,0,0.1c0,0.8,0,0.8,0,4.1
					c0,4.3,0,4.3,0,10.2c0,9.4,0,9.4,0,20.1c0,19.5,0,19.5,0,31.5c0,5.2-2,8.3-5.4,9.9c-1.1,0.5-2.2,0.8-3.4,1
					c-0.8,0.1-1.5,0.1-2,0.1c-0.1,0-0.1,0-0.1,0c-0.7,0-0.7,0-3.3,0c-7.8,0-7.8,0-19,0c-4.5,0-7.5-2-9.2-5.3
					c-0.6-1.2-1.1-2.5-1.3-3.8c-0.1-0.5-0.2-0.9-0.2-1.2c0-0.2,0-0.4,0-0.4c0-0.5,0-0.5,0-3v-7.9v-24V286L-147,286z"/>
				<ellipse id="Oval-8" class="st4" cx="-125" cy="291" rx="4" ry="10"/>
				<path id="Shape_9_" class="st0" d="M-125,300L-125,300c1.4,0,3-4,3-9s-1.6-9-3-9s-3,4-3,9S-126.4,300-125,300L-125,300z
					 M-125,301L-125,301c-2.2,0-4-4.5-4-10s1.8-10,4-10s4,4.5,4,10S-122.8,301-125,301L-125,301z"/>
				<g id="Group-3" transform="translate(23.000000, 9.000000)">
					<path id="Shape_10_" class="st0" d="M-149,275.5h2v-1h-2V275.5L-149,275.5z"/>
					<path id="Shape_11_" class="st0" d="M-149,277.5h2v-1h-2V277.5L-149,277.5z"/>
					<path id="Shape_12_" class="st0" d="M-149,279.5h2v-1h-2V279.5L-149,279.5z"/>
					<path id="Shape_13_" class="st0" d="M-149,281.5h2v-1h-2V281.5L-149,281.5z"/>
					<path id="Shape_14_" class="st0" d="M-149,283.5h2v-1h-2V283.5L-149,283.5z"/>
					<path id="Shape_15_" class="st0" d="M-149,285.5h2v-1h-2V285.5L-149,285.5z"/>
					<path id="Shape_16_" class="st0" d="M-149,287.5h2v-1h-2V287.5L-149,287.5z"/>
					<path id="Shape_17_" class="st0" d="M-149,289.5h2v-1h-2V289.5L-149,289.5z"/>
				</g>
			</g>
		</g>
	</g>
</g>
</svg>
