<?xml version="1.0" encoding="UTF-8" standalone="no"?>
<svg width="312px" height="246px" viewBox="0 0 312 246" version="1.1" xmlns="http://www.w3.org/2000/svg" xmlns:xlink="http://www.w3.org/1999/xlink" xmlns:sketch="http://www.bohemiancoding.com/sketch/ns">
    <!-- Generator: Sketch 3.5.2 (25235) - http://www.bohemiancoding.com/sketch -->
    <title>img-ux</title>
    <desc>Created with Sketch.</desc>
    <defs></defs>
    <g id="assets" stroke="none" stroke-width="1" fill="none" fill-rule="evenodd" sketch:type="MSPage">
        <g id="guidelines-assets" sketch:type="MSArtboardGroup" transform="translate(-43.000000, -111.000000)">
            <g id="img-ux" sketch:type="MSLayerGroup" transform="translate(42.000000, 110.000000)">
                <g id="sheet" transform="translate(49.000000, 1.000000)" sketch:type="MSShapeGroup">
                    <g id="bg">
                        <path d="M2,2 L2,244 L204,244 L204,37.5501774 L165.755379,2 L2,2 L2,2 Z M0,2 L0,2 L0,0 L2,0 L165.755379,0 L166.541364,0 L167.117049,0.535125897 L205.36167,36.0853032 L206,36.6786615 L206,37.5501774 L206,244 L206,246 L204,246 L2,246 L0,246 L0,244 L0,2 Z" id="Shape" fill="#4A4A4A"></path>
                        <path d="M165,3 L165,38 L203,38 L165,3 Z" id="Path-110" fill="#FDE6C0"></path>
                    </g>
                    <g id="geometric" transform="translate(28.000000, 54.000000)">
                        <path d="M74.5,146 L74.5,146 C113.436075,146 145,114.436075 145,75.5 C145,36.5639251 113.436075,5 74.5,5 C35.5639251,5 4,36.5639251 4,75.5 C4,114.436075 35.5639251,146 74.5,146 L74.5,146 Z M74.5,147 L74.5,147 C35.0116404,147 3,114.98836 3,75.5 C3,36.0116404 35.0116404,4 74.5,4 C113.98836,4 146,36.0116404 146,75.5 C146,114.98836 113.98836,147 74.5,147 L74.5,147 Z" id="Shape" fill="#F6A623"></path>
                        <rect id="Rectangle-104" fill="#4A4A4A" x="3" y="3" width="143" height="2"></rect>
                        <circle id="Oval-9" fill="#FDE6C0" cx="74" cy="75" r="43"></circle>
                        <circle id="Oval-11" fill="#4A4A4A" cx="145" cy="4" r="2"></circle>
                        <circle id="Oval-11" fill="#4A4A4A" cx="4" cy="4" r="2"></circle>
                        <rect id="Rectangle-104" fill="#4A4A4A" x="3" y="146" width="143" height="2"></rect>
                        <circle id="Oval-11" fill="#4A4A4A" cx="145" cy="147" r="2"></circle>
                        <circle id="Oval-11" fill="#4A4A4A" cx="4" cy="147" r="2"></circle>
                        <path d="M72,1 L72,1 L72,7 L78,7 L78,1 L72,1 Z M72,0 L72,0 L78,0 L79,0 L79,1 L79,7 L79,8 L78,8 L72,8 L71,8 L71,7 L71,1 L71,0 L72,0 Z" id="Shape" fill="#4A4A4A"></path>
                        <rect id="Rectangle-102" fill="#F6A623" x="72" y="1" width="6" height="6"></rect>
                        <path d="M72,144 L72,144 L72,150 L78,150 L78,144 L72,144 Z M72,143 L72,143 L78,143 L79,143 L79,144 L79,150 L79,151 L78,151 L72,151 L71,151 L71,150 L71,144 L71,143 L72,143 Z" id="Shape" fill="#4A4A4A"></path>
                        <rect id="Rectangle-102" fill="#F6A623" x="72" y="144" width="6" height="6"></rect>
                        <path d="M1,73 L1,73 L1,79 L7,79 L7,73 L1,73 Z M1,72 L1,72 L7,72 L8,72 L8,73 L8,79 L8,80 L7,80 L1,80 L0,80 L0,79 L0,73 L0,72 L1,72 Z" id="Shape" fill="#4A4A4A"></path>
                        <rect id="Rectangle-102" fill="#FDE6C0" x="1" y="73" width="6" height="6"></rect>
                        <path d="M142,73 L142,73 L142,79 L148,79 L148,73 L142,73 Z M142,72 L142,72 L148,72 L149,72 L149,73 L149,79 L149,80 L148,80 L142,80 L141,80 L141,79 L141,73 L141,72 L142,72 Z" id="Shape" fill="#4A4A4A"></path>
                        <rect id="Rectangle-102" fill="#FDE6C0" x="142" y="73" width="6" height="6"></rect>
                    </g>
                </g>
                <g id="ruler" sketch:type="MSShapeGroup">
                    <path d="M3,3 L3,3 L3,245 L37,245 L37,3 L3,3 Z M3,1 L3,1 L37,1 L39,1 L39,3 L39,245 L39,247 L37,247 L3,247 L1,247 L1,245 L1,3 L1,1 L3,1 Z" id="Shape" fill="#4A4A4A"></path>
                    <rect id="Rectangle-2" fill="#F6A623" x="33" y="56" width="4" height="1"></rect>
                    <rect id="Rectangle-2" fill="#F6A623" x="33" y="58" width="4" height="1"></rect>
                    <rect id="Rectangle-2" fill="#F6A623" x="33" y="60" width="4" height="1"></rect>
                    <rect id="Rectangle-2" fill="#F6A623" x="33" y="62" width="4" height="1"></rect>
                    <rect id="Rectangle-2" fill="#F6A623" x="33" y="64" width="4" height="1"></rect>
                    <rect id="Rectangle-2" fill="#F6A623" x="33" y="66" width="4" height="1"></rect>
                    <rect id="Rectangle-2" fill="#F6A623" x="33" y="68" width="4" height="1"></rect>
                    <rect id="Rectangle-2" fill="#F6A623" x="33" y="70" width="4" height="1"></rect>
                    <rect id="Rectangle-2" fill="#F6A623" x="29" y="72" width="8" height="1"></rect>
                    <rect id="Rectangle-2" fill="#F6A623" x="33" y="74" width="4" height="1"></rect>
                    <rect id="Rectangle-2" fill="#F6A623" x="33" y="76" width="4" height="1"></rect>
                    <rect id="Rectangle-2" fill="#F6A623" x="33" y="78" width="4" height="1"></rect>
                    <rect id="Rectangle-2" fill="#F6A623" x="33" y="80" width="4" height="1"></rect>
                    <rect id="Rectangle-2" fill="#F6A623" x="33" y="82" width="4" height="1"></rect>
                    <rect id="Rectangle-2" fill="#F6A623" x="33" y="84" width="4" height="1"></rect>
                    <rect id="Rectangle-2" fill="#F6A623" x="33" y="86" width="4" height="1"></rect>
                    <rect id="Rectangle-2" fill="#F6A623" x="33" y="88" width="4" height="1"></rect>
                    <rect id="Rectangle-2" fill="#F6A623" x="29" y="90" width="8" height="1"></rect>
                    <rect id="Rectangle-2" fill="#F6A623" x="33" y="92" width="4" height="1"></rect>
                    <rect id="Rectangle-2" fill="#F6A623" x="33" y="94" width="4" height="1"></rect>
                    <rect id="Rectangle-2" fill="#F6A623" x="33" y="96" width="4" height="1"></rect>
                    <rect id="Rectangle-2" fill="#F6A623" x="33" y="98" width="4" height="1"></rect>
                    <rect id="Rectangle-2" fill="#F6A623" x="33" y="100" width="4" height="1"></rect>
                    <rect id="Rectangle-2" fill="#F6A623" x="33" y="102" width="4" height="1"></rect>
                    <rect id="Rectangle-2" fill="#F6A623" x="33" y="104" width="4" height="1"></rect>
                    <rect id="Rectangle-2" fill="#F6A623" x="33" y="106" width="4" height="1"></rect>
                    <rect id="Rectangle-2" fill="#F6A623" x="29" y="108" width="8" height="1"></rect>
                    <rect id="Rectangle-2" fill="#F6A623" x="33" y="110" width="4" height="1"></rect>
                    <rect id="Rectangle-2" fill="#F6A623" x="33" y="112" width="4" height="1"></rect>
                    <rect id="Rectangle-2" fill="#F6A623" x="33" y="114" width="4" height="1"></rect>
                    <rect id="Rectangle-2" fill="#F6A623" x="33" y="116" width="4" height="1"></rect>
                    <rect id="Rectangle-2" fill="#F6A623" x="33" y="118" width="4" height="1"></rect>
                    <rect id="Rectangle-2" fill="#F6A623" x="33" y="120" width="4" height="1"></rect>
                    <rect id="Rectangle-2" fill="#F6A623" x="33" y="122" width="4" height="1"></rect>
                    <rect id="Rectangle-2" fill="#F6A623" x="33" y="124" width="4" height="1"></rect>
                    <rect id="Rectangle-2" fill="#F6A623" x="29" y="126" width="8" height="1"></rect>
                    <rect id="Rectangle-2" fill="#F6A623" x="33" y="128" width="4" height="1"></rect>
                    <rect id="Rectangle-2" fill="#F6A623" x="33" y="130" width="4" height="1"></rect>
                    <rect id="Rectangle-2" fill="#F6A623" x="33" y="132" width="4" height="1"></rect>
                    <rect id="Rectangle-2" fill="#F6A623" x="33" y="134" width="4" height="1"></rect>
                    <rect id="Rectangle-2" fill="#F6A623" x="33" y="136" width="4" height="1"></rect>
                    <rect id="Rectangle-2" fill="#F6A623" x="33" y="138" width="4" height="1"></rect>
                    <rect id="Rectangle-2" fill="#F6A623" x="33" y="140" width="4" height="1"></rect>
                    <rect id="Rectangle-2" fill="#F6A623" x="33" y="142" width="4" height="1"></rect>
                    <rect id="Rectangle-2" fill="#F6A623" x="29" y="144" width="8" height="1"></rect>
                    <rect id="Rectangle-2" fill="#F6A623" x="33" y="146" width="4" height="1"></rect>
                    <rect id="Rectangle-2" fill="#F6A623" x="33" y="148" width="4" height="1"></rect>
                    <rect id="Rectangle-2" fill="#F6A623" x="33" y="150" width="4" height="1"></rect>
                    <rect id="Rectangle-2" fill="#F6A623" x="33" y="152" width="4" height="1"></rect>
                    <rect id="Rectangle-2" fill="#F6A623" x="33" y="154" width="4" height="1"></rect>
                    <rect id="Rectangle-2" fill="#F6A623" x="33" y="156" width="4" height="1"></rect>
                    <rect id="Rectangle-2" fill="#F6A623" x="33" y="158" width="4" height="1"></rect>
                    <rect id="Rectangle-2" fill="#F6A623" x="33" y="160" width="4" height="1"></rect>
                    <rect id="Rectangle-2" fill="#F6A623" x="29" y="162" width="8" height="1"></rect>
                    <rect id="Rectangle-2" fill="#F6A623" x="33" y="164" width="4" height="1"></rect>
                    <rect id="Rectangle-2" fill="#F6A623" x="33" y="166" width="4" height="1"></rect>
                    <rect id="Rectangle-2" fill="#F6A623" x="33" y="168" width="4" height="1"></rect>
                    <rect id="Rectangle-2" fill="#F6A623" x="33" y="170" width="4" height="1"></rect>
                    <rect id="Rectangle-2" fill="#F6A623" x="33" y="172" width="4" height="1"></rect>
                    <rect id="Rectangle-2" fill="#F6A623" x="33" y="174" width="4" height="1"></rect>
                    <rect id="Rectangle-2" fill="#F6A623" x="33" y="176" width="4" height="1"></rect>
                    <rect id="Rectangle-2" fill="#F6A623" x="33" y="178" width="4" height="1"></rect>
                    <rect id="Rectangle-2" fill="#F6A623" x="29" y="180" width="8" height="1"></rect>
                    <rect id="Rectangle-2" fill="#F6A623" x="33" y="182" width="4" height="1"></rect>
                    <rect id="Rectangle-2" fill="#F6A623" x="33" y="184" width="4" height="1"></rect>
                    <rect id="Rectangle-2" fill="#F6A623" x="33" y="186" width="4" height="1"></rect>
                    <rect id="Rectangle-2" fill="#F6A623" x="33" y="188" width="4" height="1"></rect>
                    <rect id="Rectangle-2" fill="#F6A623" x="33" y="190" width="4" height="1"></rect>
                    <rect id="Rectangle-2" fill="#F6A623" x="33" y="192" width="4" height="1"></rect>
                    <rect id="Rectangle-2" fill="#F6A623" x="33" y="194" width="4" height="1"></rect>
                    <rect id="Rectangle-2" fill="#F6A623" x="33" y="196" width="4" height="1"></rect>
                    <rect id="Rectangle-2" fill="#F6A623" x="29" y="198" width="8" height="1"></rect>
                    <rect id="Rectangle-2" fill="#F6A623" x="33" y="200" width="4" height="1"></rect>
                    <rect id="Rectangle-2" fill="#F6A623" x="33" y="202" width="4" height="1"></rect>
                    <rect id="Rectangle-2" fill="#F6A623" x="33" y="204" width="4" height="1"></rect>
                    <rect id="Rectangle-2" fill="#F6A623" x="33" y="206" width="4" height="1"></rect>
                    <rect id="Rectangle-2" fill="#F6A623" x="33" y="208" width="4" height="1"></rect>
                    <rect id="Rectangle-2" fill="#F6A623" x="33" y="210" width="4" height="1"></rect>
                    <rect id="Rectangle-2" fill="#F6A623" x="33" y="212" width="4" height="1"></rect>
                    <rect id="Rectangle-2" fill="#F6A623" x="33" y="214" width="4" height="1"></rect>
                    <rect id="Rectangle-2" fill="#F6A623" x="29" y="216" width="8" height="1"></rect>
                    <rect id="Rectangle-2" fill="#F6A623" x="33" y="218" width="4" height="1"></rect>
                    <rect id="Rectangle-2" fill="#F6A623" x="33" y="220" width="4" height="1"></rect>
                    <rect id="Rectangle-2" fill="#F6A623" x="33" y="222" width="4" height="1"></rect>
                    <rect id="Rectangle-2" fill="#F6A623" x="33" y="224" width="4" height="1"></rect>
                    <rect id="Rectangle-2" fill="#F6A623" x="33" y="226" width="4" height="1"></rect>
                    <rect id="Rectangle-2" fill="#F6A623" x="33" y="228" width="4" height="1"></rect>
                    <rect id="Rectangle-2" fill="#F6A623" x="33" y="230" width="4" height="1"></rect>
                    <rect id="Rectangle-2" fill="#F6A623" x="33" y="232" width="4" height="1"></rect>
                    <rect id="Rectangle-2" fill="#F6A623" x="29" y="234" width="8" height="1"></rect>
                    <rect id="Rectangle-2" fill="#F6A623" x="33" y="38" width="4" height="1"></rect>
                    <rect id="Rectangle-2" fill="#F6A623" x="33" y="40" width="4" height="1"></rect>
                    <rect id="Rectangle-2" fill="#F6A623" x="33" y="42" width="4" height="1"></rect>
                    <rect id="Rectangle-2" fill="#F6A623" x="33" y="44" width="4" height="1"></rect>
                    <rect id="Rectangle-2" fill="#F6A623" x="33" y="46" width="4" height="1"></rect>
                    <rect id="Rectangle-2" fill="#F6A623" x="33" y="48" width="4" height="1"></rect>
                    <rect id="Rectangle-2" fill="#F6A623" x="33" y="50" width="4" height="1"></rect>
                    <rect id="Rectangle-2" fill="#F6A623" x="33" y="52" width="4" height="1"></rect>
                    <rect id="Rectangle-2" fill="#F6A623" x="29" y="54" width="8" height="1"></rect>
                    <rect id="Rectangle-2" fill="#F6A623" x="29" y="36" width="8" height="1"></rect>
                    <path d="M20,15 L20,15 C21.6568542,15 23,13.6568542 23,12 C23,10.3431458 21.6568542,9 20,9 C18.3431458,9 17,10.3431458 17,12 C17,13.6568542 18.3431458,15 20,15 L20,15 Z M20,16 L20,16 C17.790861,16 16,14.209139 16,12 C16,9.790861 17.790861,8 20,8 C22.209139,8 24,9.790861 24,12 C24,14.209139 22.209139,16 20,16 L20,16 Z" id="Shape" fill="#4A4A4A"></path>
                </g>
                <g id="mouse" transform="translate(265.000000, 154.000000)" sketch:type="MSShapeGroup">
                    <path d="M1,12 C1,22.9999991 1,80 1,80 C1,80 1.53720459,91.7686041 12.7686023,91.7686023 C24,91.7686005 35.0006493,91.7686023 35.0006493,91.7686023 C35.0006493,91.7686023 46.9368544,92.6647974 46.9368529,79.8323987 C46.9368515,67 46.9368529,13.9999697 46.9368529,13.9999697 C46.9368529,13.9999697 47.9368064,1.03152009 33.9684032,1.03151999 C20,1.03151989 12.9999876,1.03151999 12.9999876,1.03151999 C12.9999876,1.03151999 1,1.0000009 1,12 Z" id="Path-111" fill="#F4F4F4"></path>
                    <path d="M0,12 C2.33146835e-15,23.9563576 2.33146835e-15,23.9563576 3.55271368e-15,45.0875673 L4.10782519e-15,69.0898648 L4.21884749e-15,76.9997128 L4.21884749e-15,80 C0.0200701471,80.4624908 0.0991184424,81.1570222 0.279744716,82.0393913 C0.579615383,83.5042758 1.06631321,84.9704406 1.78633623,86.3476223 C3.87340207,90.339535 7.46156402,92.7686032 12.7686025,92.7686023 C23.9487226,92.7686013 23.9487226,92.7686013 31.7326513,92.7686019 C34.389502,92.7686022 34.389502,92.7686022 35.0006492,92.7686023 C34.964874,92.7686418 35.0147054,92.7715366 35.0896625,92.7745343 C35.7152117,92.799551 36.5144873,92.770964 37.42666,92.6481624 C38.7836946,92.465471 40.1251016,92.1045603 41.3884979,91.5202915 C45.4695994,89.6329499 47.9368536,85.8394455 47.9368529,79.8323986 C47.9368523,67.8006089 47.9368523,67.8006089 47.9368523,48.3026421 C47.9368524,37.6506282 47.9368524,37.6506282 47.9368526,28.2159924 C47.9368527,22.2754243 47.9368527,22.2754243 47.9368528,17.9853072 C47.9368529,14.7360813 47.9368529,14.7360813 47.9368529,13.9999697 C47.9367579,14.0396984 47.9404102,13.9785198 47.9438507,13.8948693 C47.9717544,13.2164233 47.9417105,12.3515996 47.8099481,11.3660538 C47.6143597,9.90310612 47.2267269,8.45759855 46.5987703,7.09675537 C44.5664046,2.69242051 40.4724673,0.0315200392 33.9684032,0.0315199918 C21.5485309,0.0315199351 21.5485309,0.0315199351 15.3321535,0.0315199691 C13.3888771,0.0315199861 13.3888771,0.0315199861 12.9999876,0.0315199918 C13.0020573,0.0315220573 13.0020573,0.0315220573 13.001013,0.0315203474 C12.5667824,0.0309484443 11.8552095,0.0765830036 10.9561108,0.212629457 C9.4701696,0.437473555 7.98340393,0.843673313 6.58531492,1.48079251 C2.4973777,3.34369484 -1.33226763e-15,6.77103286 0,12 L0,12 Z M2,12 C2,7.60396793 4.00261764,4.85562611 7.41467265,3.30072815 C8.62874805,2.74746528 9.94057216,2.38906137 11.2553332,2.19011927 C11.7178801,2.12012932 12.1471931,2.07531689 12.5314134,2.0506761 C12.759034,2.03607834 12.9186096,2.03141355 12.9983789,2.03151861 C12.9978204,2.03151767 12.9978204,2.03151767 12.9982332,2.03151845 C13.3888771,2.03151999 13.3888771,2.03151999 15.3321535,2.03151997 C21.5485309,2.03151994 21.5485309,2.03151994 33.9684032,2.03151999 C39.6866918,2.03152003 43.0749988,4.23378819 44.7827882,7.93473433 C45.3204249,9.09984564 45.6569492,10.3547662 45.8275863,11.6310852 C45.9428625,12.4933193 45.9689357,13.2438444 45.9455401,13.8126811 C45.9430987,13.8720405 45.9408692,13.9093865 45.9398125,13.9230913 C45.9368529,14.7360812 45.9368529,14.7360812 45.9368528,17.9853071 C45.9368527,22.2754243 45.9368527,22.2754243 45.9368526,28.2159923 C45.9368524,37.6506282 45.9368524,37.6506282 45.9368523,48.3026421 C45.9368523,67.8006089 45.9368523,67.8006089 45.9368529,79.8323988 C45.9368535,85.0537013 43.9280311,88.1423481 40.5490044,89.705009 C39.4812492,90.1988018 38.3303171,90.5084646 37.1598164,90.6660437 C36.3707947,90.7722661 35.6856626,90.7967706 35.169582,90.7761317 C35.1183129,90.7740813 35.0812468,90.7719281 35.0755207,90.7714091 C34.3895023,90.7686022 34.3895023,90.7686022 31.7326515,90.7686019 C23.9487226,90.7686013 23.9487226,90.7686013 12.7686021,90.7686023 C8.24816693,90.768603 5.31721575,88.7844451 3.55871707,85.42098 C2.93279276,84.22378 2.5038758,82.9316786 2.23911279,81.6382969 C2.14644586,81.1856139 2.08115473,80.7664492 2.03860462,80.3925969 C2.01377479,80.1744379 2.00215809,80.0244657 1.99895979,79.9544002 C2,79.4544932 2,79.4544932 2,76.9997128 L2,69.0898648 L2,45.0875673 L2,12 L2,12 Z" id="Shape" fill="#4A4A4A"></path>
                    <ellipse id="Oval-8" fill="#FFFFFF" cx="24" cy="17" rx="4" ry="10"></ellipse>
                    <path d="M24,26 L24,26 C25.4064284,26 27,22.016071 27,17 C27,11.983929 25.4064284,8 24,8 C22.5935716,8 21,11.983929 21,17 C21,22.016071 22.5935716,26 24,26 L24,26 Z M24,27 L24,27 C21.790861,27 20,22.5228475 20,17 C20,11.4771525 21.790861,7 24,7 C26.209139,7 28,11.4771525 28,17 C28,22.5228475 26.209139,27 24,27 L24,27 Z" id="Shape" fill="#4A4A4A"></path>
                    <g id="Group-3" transform="translate(23.000000, 9.000000)" fill="#4A4A4A">
                        <path d="M0,1.5 L2,1.5 L2,0.5 L0,0.5 L0,1.5 L0,1.5 Z" id="Shape"></path>
                        <path d="M0,3.5 L2,3.5 L2,2.5 L0,2.5 L0,3.5 L0,3.5 Z" id="Shape"></path>
                        <path d="M0,5.5 L2,5.5 L2,4.5 L0,4.5 L0,5.5 L0,5.5 Z" id="Shape"></path>
                        <path d="M0,7.5 L2,7.5 L2,6.5 L0,6.5 L0,7.5 L0,7.5 Z" id="Shape"></path>
                        <path d="M0,9.5 L2,9.5 L2,8.5 L0,8.5 L0,9.5 L0,9.5 Z" id="Shape"></path>
                        <path d="M0,11.5 L2,11.5 L2,10.5 L0,10.5 L0,11.5 L0,11.5 Z" id="Shape"></path>
                        <path d="M0,13.5 L2,13.5 L2,12.5 L0,12.5 L0,13.5 L0,13.5 Z" id="Shape"></path>
                        <path d="M0,15.5 L2,15.5 L2,14.5 L0,14.5 L0,15.5 L0,15.5 Z" id="Shape"></path>
                    </g>
                </g>
            </g>
        </g>
    </g>
</svg>