<?xml version="1.0" encoding="UTF-8" standalone="no"?>
<svg width="152px" height="42px" viewBox="0 0 152 42" version="1.1" xmlns="http://www.w3.org/2000/svg" xmlns:xlink="http://www.w3.org/1999/xlink" xmlns:sketch="http://www.bohemiancoding.com/sketch/ns">
    <!-- Generator: Sketch 3.5.1 (25234) - http://www.bohemiancoding.com/sketch -->
    <title>logo-nodejs</title>
    <desc>Created with Sketch.</desc>
    <defs></defs>
    <g id="2016-website" stroke="none" stroke-width="1" fill="none" fill-rule="evenodd" sketch:type="MSPage">
        <g id="guidelines-assets" sketch:type="MSArtboardGroup" transform="translate(-362.000000, -737.000000)" fill="#FFFFFF">
            <g id="logo-nodejs" sketch:type="MSLayerGroup" transform="translate(438.000000, 758.000000) scale(1, -1) translate(-438.000000, -758.000000) translate(362.000000, 737.000000)">
                <path d="M22.7902146,19.58625 C22.7902146,20.03775 22.5580558,20.4528333 22.1764249,20.67675 L12.0088155,26.6565833 C11.8367554,26.75975 11.6440644,26.8135 11.4487639,26.8215833 L11.3436524,26.8215833 C11.1496567,26.8135 10.9566395,26.75975 10.7824592,26.6565833 L0.614773133,20.67675 C0.235715794,20.4528333 0,20.03775 0,19.58625 L0.0222975193,3.484375 C0.0222975193,3.26041667 0.136014721,3.05208333 0.328728541,2.94238333 C0.517620343,2.826825 0.750787854,2.826825 0.939040343,2.94238333 L6.98134206,6.47819167 C7.36358455,6.71028333 7.59642833,7.11946667 7.59642833,7.56705833 L7.59642833,15.0898333 C7.59642833,15.5384167 7.82896223,15.9534167 8.2096309,16.1764167 L10.7824592,17.69075 C10.9741717,17.804 11.1837425,17.8593333 11.3977983,17.8593333 C11.6074506,17.8593333 11.8224034,17.804 12.0088155,17.69075 L14.5809914,16.1764167 C14.9616438,15.9534167 15.1951073,15.5384167 15.1951073,15.0898333 L15.1951073,7.56705833 C15.1951073,7.11946667 15.4307725,6.70768333 15.8105279,6.47819167 L21.8515494,2.94238333 C22.0410601,2.826825 22.2773777,2.826825 22.4653391,2.94238333 C22.6526481,3.05208333 22.7704807,3.26041667 22.7704807,3.484375 L22.7902146,19.58625" id="path22" sketch:type="MSShapeGroup"></path>
                <path d="M76.1395236,11.2021667 C76.1395236,11.0901667 76.0808927,10.9863333 75.9856481,10.9306667 L72.4935622,8.87333333 C72.3986438,8.81766667 72.2817082,8.81766667 72.1867897,8.87333333 L68.6943777,10.9306667 C68.5994592,10.9863333 68.5408283,11.0901667 68.5408283,11.2021667 L68.5408283,15.32325 C68.5408283,15.4349167 68.5994592,15.53875 68.6940515,15.5950833 L72.1864635,17.65625 C72.2817082,17.7125833 72.3986438,17.7125833 72.4938884,17.65625 L75.9863004,15.5950833 C76.0808927,15.53875 76.1395236,15.4349167 76.1395236,15.32325 L76.1395236,11.2021667 L76.1395236,11.2021667 Z M77.083,41.7206667 C76.8928369,41.8290833 76.6606781,41.8265 76.4727167,41.7138333 C76.2850815,41.60125 76.1697768,41.3951667 76.1697768,41.1728333 L76.1697768,25.2265833 C76.1697768,25.07 76.0875794,24.9248333 75.9550687,24.8463333 C75.8222318,24.7675833 75.6582446,24.7675833 75.5250815,24.8463333 L72.9783476,26.3456667 C72.5986738,26.5693333 72.1310944,26.569 71.7513391,26.3454167 L61.5795708,20.3463333 C61.1992446,20.1220833 60.9654549,19.708 60.9654549,19.2594167 L60.9654549,7.25911667 C60.9654549,6.810875 61.1992446,6.39648333 61.5792446,6.171875 L71.7504421,0.16862 C72.1307682,-0.0556640833 72.599,-0.0556640833 72.9793262,0.16862 L83.1523176,6.171875 C83.5323176,6.39648333 83.7663519,6.810875 83.7663519,7.25911667 L83.7663519,37.1728333 C83.7663519,37.6279167 83.5249785,38.0471667 83.1360086,38.2691667 L77.083,41.7206667 L77.083,41.7206667 Z" id="path24" sketch:type="MSShapeGroup"></path>
                <path d="M113.474034,15.431 C113.852403,15.6555833 114.084807,16.069 114.084807,16.51625 L114.084807,19.4241667 C114.084807,19.8714167 113.852403,20.2851667 113.473219,20.50975 L103.367339,26.5065 C102.986524,26.7320833 102.517639,26.7324167 102.136009,26.5081667 L91.9681545,20.5090833 C91.5881545,20.2848333 91.3541202,19.87075 91.3541202,19.4221667 L91.3541202,7.42513333 C91.3541202,6.97395833 91.5914163,6.55761667 91.9746781,6.33463333 L102.079742,0.450520833 C102.452403,0.233073333 102.909056,0.230794167 103.284163,0.443685 L109.395966,3.91536667 C109.590043,4.02539167 109.71073,4.2334 109.711545,4.45963333 C109.713176,4.685875 109.594936,4.89550833 109.403305,5.00814167 L99.17103,11.0100833 C98.9793991,11.12175 98.8619742,11.32975 98.8619742,11.5543333 L98.8619742,15.3141667 C98.8619742,15.5384167 98.9793991,15.74575 99.1693991,15.85775 L102.354549,17.7340833 C102.543734,17.846 102.777768,17.846 102.967768,17.7340833 L106.153734,15.85775 C106.343734,15.74575 106.461159,15.5384167 106.461159,15.3141667 L106.461159,12.3560833 C106.461159,12.1315 106.578584,11.9238333 106.768584,11.8118333 C106.959399,11.6995833 107.193433,11.7005 107.383433,11.8131667 L113.474034,15.431" id="path26" sketch:type="MSShapeGroup"></path>
                <path d="M41.2863476,26.571 C41.6660215,26.79525 42.1342532,26.79525 42.513927,26.571 L52.6844721,20.57325 C53.0647983,20.34925 53.2989142,19.9349167 53.2989142,19.486 L53.2989142,7.48144167 C53.2989142,7.032875 53.0647983,6.61881667 52.6851245,6.39420833 L42.5145794,0.391601667 C42.1342532,0.1673175 41.6660215,0.1673175 41.2856953,0.391601667 L31.1177597,6.39420833 C30.7376781,6.61881667 30.5035622,7.032875 30.5035622,7.48144167 L30.5035622,19.4866667 C30.5035622,19.9349167 30.7376781,20.34925 31.1180043,20.57325 L41.2863476,26.571" id="path28" sketch:type="MSShapeGroup"></path>
                <path d="M133.220987,0.220051667 C132.870343,0.220051667 132.522146,0.313801667 132.215536,0.4951175 L129.013262,2.43131667 C128.535408,2.70475 128.768627,2.80143333 128.926009,2.85775 C129.564506,3.08398333 129.693348,3.13606667 130.374249,3.5306 C130.445193,3.57129167 130.53897,3.55599167 130.612361,3.51204167 L133.07176,2.01953333 C133.161459,1.969075 133.287039,1.969075 133.369399,2.01953333 L142.959099,7.67610833 C143.048798,7.72819167 143.10588,7.83333333 143.10588,7.94140833 L143.10588,19.2516667 C143.10588,19.3623333 143.048798,19.4658333 142.957468,19.5218333 L133.37103,25.1738333 C133.282146,25.2265833 133.164721,25.2265833 133.075021,25.1738333 L123.49103,19.5201667 C123.398069,19.4658333 123.339356,19.3590833 123.339356,19.2516667 L123.339356,7.94140833 C123.339356,7.83333333 123.398069,7.73079167 123.490215,7.67935833 L126.117597,6.12825833 C127.543004,5.40006667 128.416352,6.25781667 128.416352,7.11946667 L128.416352,18.2865 C128.416352,18.4443333 128.5403,18.569 128.694421,18.569 L129.911073,18.569 C130.062747,18.569 130.188326,18.4443333 130.188326,18.2865 L130.188326,7.11946667 C130.188326,5.17545833 129.152704,4.06055 127.348927,4.06055 C126.794421,4.06055 126.358155,4.06055 125.139871,4.67415 L122.625021,6.15365 C122.003648,6.52050833 121.619571,7.20670833 121.619571,7.94140833 L121.619571,19.2516667 C121.619571,19.9866667 122.003648,20.6725 122.625021,21.0380833 L132.215536,26.7011667 C132.822232,27.0520833 133.628712,27.0520833 134.230515,26.7011667 L143.820215,21.0380833 C144.441588,20.6709167 144.827296,19.9866667 144.827296,19.2516667 L144.827296,7.94140833 C144.827296,7.20670833 144.441588,6.52310833 143.820215,6.15365 L134.230515,0.4951175 C133.923906,0.313801667 133.576524,0.220051667 133.220987,0.220051667" id="path30" sketch:type="MSShapeGroup"></path>
                <path d="M136.183519,8.01236667 C131.986395,8.01236667 131.107339,9.98083333 131.107339,11.6321667 C131.107339,11.7890833 131.231288,11.9144167 131.384592,11.9144167 L132.624893,11.9144167 C132.763519,11.9144167 132.878498,11.8128333 132.900515,11.6745 C133.087253,10.3844167 133.645837,9.73341667 136.183519,9.73341667 C138.203391,9.73341667 139.063691,10.2005 139.063691,11.2959167 C139.063691,11.9274167 138.819871,12.3961667 135.680386,12.71025 C133.056266,12.9755833 131.433519,13.568 131.433519,15.71325 C131.433519,17.69075 133.064421,18.8700833 135.798627,18.8700833 C138.871245,18.8700833 140.391245,17.78025 140.583691,15.4424167 C140.59103,15.3616667 140.563305,15.2845 140.511116,15.22425 C140.458112,15.168 140.384721,15.13375 140.308069,15.13375 L139.062876,15.13375 C138.934034,15.13375 138.819871,15.2275 138.793777,15.3551667 C138.495322,16.7125833 137.768755,17.1465 135.798627,17.1465 C133.592833,17.1465 133.336781,16.361 133.336781,15.77275 C133.336781,15.0599167 133.639313,14.85225 136.617339,14.4495833 C139.564378,14.0514167 140.964506,13.4876667 140.964506,11.37075 C140.964506,9.23533333 139.221888,8.01236667 136.183519,8.01236667" id="path32" sketch:type="MSShapeGroup"></path>
                <path d="M149.695536,26.6751667 L150.159528,26.6751667 L150.844506,24.6129167 L151.527039,26.6751667 L151.987768,26.6751667 L151.987768,24.2353333 L151.678712,24.2353333 L151.678712,25.6751667 C151.678712,25.7255833 151.679528,25.8075833 151.681159,25.9215833 C151.684421,26.03875 151.686052,26.1624167 151.686052,26.2935833 L151.003519,24.2353333 L150.683047,24.2353333 L149.994807,26.2935833 L149.994807,26.2204167 C149.994807,26.1601667 149.994807,26.069 149.998884,25.9453333 C150.00133,25.8239167 150.004592,25.73375 150.004592,25.6751667 L150.004592,24.2353333 L149.695536,24.2353333 L149.695536,26.6751667" id="path36" sketch:type="MSShapeGroup"></path>
                <path d="M102.601631,15.9928333 C102.675021,16.0361667 102.764721,16.0361667 102.837296,15.9928333 L104.789485,14.8420833 C104.86206,14.7991667 104.90691,14.71975 104.90691,14.6335 L104.90691,12.3304167 C104.90691,12.2441667 104.86206,12.16475 104.789485,12.12175 L102.837296,10.971 C102.764721,10.92775 102.675021,10.92775 102.601631,10.971 L100.651888,12.12175 C100.578498,12.16475 100.533648,12.2441667 100.533648,12.3304167 L100.533648,14.6335 C100.533648,14.71975 100.578498,14.7991667 100.651888,14.8420833 L102.601631,15.9928333" id="path38" sketch:type="MSShapeGroup"></path>
            </g>
        </g>
    </g>
</svg>