<?xml version="1.0" encoding="UTF-8" standalone="no"?>
<svg width="134px" height="33px" viewBox="0 0 134 33" version="1.1" xmlns="http://www.w3.org/2000/svg" xmlns:xlink="http://www.w3.org/1999/xlink" xmlns:sketch="http://www.bohemiancoding.com/sketch/ns">
    <!-- Generator: Sketch 3.5.1 (25234) - http://www.bohemiancoding.com/sketch -->
    <title>logo-ephox</title>
    <desc>Created with Sketch.</desc>
    <defs></defs>
    <g id="guidelines" stroke="none" stroke-width="1" fill="none" fill-rule="evenodd" sketch:type="MSPage">
        <g id="guidelines-assets" sketch:type="MSArtboardGroup" transform="translate(-870.000000, -331.000000)" fill="#B8B8B8">
            <g id="logo-ephox" sketch:type="MSLayerGroup" transform="translate(870.000000, 331.000000)">
                <path d="M44.5381295,21.6582524 C45.3093525,22.4271845 46.4340528,22.7796117 47.9122302,22.7796117 C48.9726619,22.7796117 49.8724221,22.523301 50.6115108,21.9786408 C51.3827338,21.4660194 51.8326139,20.8893204 51.9932854,20.3126214 L56.5563549,20.3126214 C55.8172662,22.5873786 54.6925659,24.1893204 53.1822542,25.1825243 C51.6719424,26.1436893 49.8402878,26.6563107 47.6872902,26.6563107 C46.2091127,26.6563107 44.8594724,26.4320388 43.6705036,25.9514563 C42.4815348,25.4708738 41.4532374,24.7980583 40.6177458,23.9330097 C39.7822542,23.0679612 39.1395683,22.0106796 38.6896882,20.7932039 C38.2398082,19.5757282 38.0148681,18.2300971 38.0148681,16.7883495 C38.0148681,15.3786408 38.2398082,14.0650485 38.7218225,12.8475728 C39.1717026,11.6300971 39.8465228,10.5728155 40.7141487,9.67572816 C41.5817746,8.77864078 42.5779376,8.07378641 43.7669065,7.56116505 C44.9558753,7.04854369 46.2733813,6.79223301 47.7194245,6.79223301 C49.3261391,6.79223301 50.740048,7.11262136 51.9290168,7.72135922 C53.1179856,8.33009709 54.1141487,9.1631068 54.8853717,10.2203883 C55.6565947,11.2776699 56.2028777,12.4631068 56.5563549,13.8087379 C56.9098321,15.1543689 57.006235,16.5320388 56.9098321,18.0058252 L43.2527578,18.0058252 C43.3170264,19.6718447 43.7669065,20.8893204 44.5381295,21.6582524 L44.5381295,21.6582524 Z M50.418705,11.7262136 C49.8081535,11.0533981 48.8441247,10.7009709 47.5908873,10.7009709 C46.7553957,10.7009709 46.0805755,10.8291262 45.5342926,11.1174757 C44.9880096,11.4058252 44.5381295,11.7582524 44.2167866,12.1427184 C43.8954436,12.5592233 43.6705036,13.007767 43.5098321,13.4563107 C43.381295,13.9048544 43.2848921,14.3213592 43.2848921,14.7058252 L51.736211,14.7058252 C51.4791367,13.392233 51.0292566,12.3990291 50.418705,11.7262136 L50.418705,11.7262136 Z M62.6940048,7.30485437 L62.6940048,9.70776699 L62.7582734,9.70776699 C63.4009592,8.68252427 64.2043165,7.94563107 65.1683453,7.46504854 C66.1323741,7.01650485 67.22494,6.76019417 68.3817746,6.76019417 C69.859952,6.76019417 71.1453237,7.04854369 72.2378897,7.59320388 C73.2983213,8.13786408 74.1980815,8.90679612 74.905036,9.83592233 C75.6119904,10.7650485 76.1261391,11.8543689 76.4796163,13.0718447 C76.8330935,14.2893204 76.993765,15.5708738 76.993765,16.9165049 C76.993765,18.1980583 76.8330935,19.415534 76.4796163,20.568932 C76.1261391,21.7223301 75.6119904,22.7796117 74.9371703,23.676699 C74.2302158,24.5737864 73.3625899,25.3106796 72.3342926,25.823301 C71.3059952,26.3679612 70.0848921,26.6242718 68.7031175,26.6242718 C67.546283,26.6242718 66.453717,26.4 65.457554,25.9194175 C64.4613909,25.438835 63.6580336,24.7339806 63.0153477,23.8048544 L62.9510791,23.8048544 L62.9510791,32.7436893 L57.7453237,32.7436893 L57.7453237,7.2407767 L62.6940048,7.2407767 L62.6940048,7.30485437 Z M69.4743405,22.2669903 C70.0527578,21.9145631 70.5026379,21.4660194 70.8561151,20.9213592 C71.2095923,20.376699 71.4666667,19.7359223 71.5952038,18.9990291 C71.7558753,18.2621359 71.8201439,17.5252427 71.8201439,16.7563107 C71.8201439,15.9873786 71.7558753,15.2504854 71.5952038,14.5135922 C71.4345324,13.776699 71.177458,13.1359223 70.7918465,12.5592233 C70.4383693,11.9825243 69.9563549,11.5339806 69.3779376,11.1815534 C68.7995204,10.8291262 68.0925659,10.6368932 67.2570743,10.6368932 C66.3894484,10.6368932 65.682494,10.8291262 65.1040767,11.1815534 C64.5256595,11.5339806 64.0757794,11.9825243 63.7223022,12.5592233 C63.3688249,13.1359223 63.1117506,13.776699 62.9832134,14.4815534 C62.822542,15.2184466 62.7582734,15.9553398 62.7582734,16.7563107 C62.7582734,17.5252427 62.822542,18.2621359 62.9832134,18.9990291 C63.1438849,19.7359223 63.4009592,20.376699 63.7544365,20.9213592 C64.1079137,21.4660194 64.5899281,21.9145631 65.1683453,22.2669903 C65.7467626,22.6194175 66.453717,22.7796117 67.2892086,22.7796117 C68.1889688,22.7796117 68.8959233,22.6194175 69.4743405,22.2669903 L69.4743405,22.2669903 Z M83.1314149,0.0961165049 L83.1314149,9.93203883 L83.2278177,9.93203883 C83.9026379,8.84271845 84.7381295,8.04174757 85.7664269,7.52912621 C86.7947242,7.01650485 87.7908873,6.79223301 88.7549161,6.79223301 C90.1366906,6.79223301 91.2935252,6.98446602 92.1932854,7.36893204 C93.0930456,7.75339806 93.8,8.26601942 94.3141487,8.93883495 C94.8282974,9.61165049 95.1817746,10.4126214 95.4067146,11.3737864 C95.5995204,12.3349515 95.7280576,13.392233 95.7280576,14.5776699 L95.7280576,26.207767 L90.5223022,26.207767 L90.5223022,15.538835 C90.5223022,13.968932 90.2652278,12.815534 89.7832134,12.0466019 C89.301199,11.2776699 88.4335731,10.8932039 87.1803357,10.8932039 C85.7664269,10.8932039 84.7381295,11.3097087 84.0954436,12.1427184 C83.4527578,12.9757282 83.1314149,14.3533981 83.1314149,16.2757282 L83.1314149,26.1757282 L77.9256595,26.1757282 L77.9256595,0.0961165049 L83.1314149,0.0961165049 L83.1314149,0.0961165049 Z M97.4954436,12.6553398 C97.9453237,11.4378641 98.6201439,10.3805825 99.4877698,9.51553398 C100.355396,8.65048544 101.383693,7.9776699 102.572662,7.49708738 C103.761631,7.01650485 105.111271,6.79223301 106.589448,6.79223301 C108.067626,6.79223301 109.417266,7.01650485 110.638369,7.49708738 C111.859472,7.9776699 112.88777,8.65048544 113.723261,9.51553398 C114.590887,10.3805825 115.233573,11.4378641 115.715588,12.6553398 C116.165468,13.8728155 116.422542,15.2504854 116.422542,16.7563107 C116.422542,18.2621359 116.197602,19.6398058 115.715588,20.8572816 C115.265707,22.0747573 114.590887,23.1 113.723261,23.9650485 C112.855635,24.8300971 111.827338,25.5029126 110.638369,25.9514563 C109.417266,26.4 108.067626,26.6563107 106.589448,26.6563107 C105.111271,26.6563107 103.761631,26.4320388 102.572662,25.9514563 C101.383693,25.5029126 100.355396,24.8300971 99.4877698,23.9650485 C98.6201439,23.1 97.977458,22.0747573 97.4954436,20.8572816 C97.0455635,19.6398058 96.7884892,18.2621359 96.7884892,16.7563107 C96.8206235,15.2504854 97.0455635,13.8728155 97.4954436,12.6553398 L97.4954436,12.6553398 Z M102.219185,18.9669903 C102.379856,19.6718447 102.604796,20.3446602 102.958273,20.8893204 C103.311751,21.4660194 103.793765,21.9145631 104.372182,22.2669903 C104.9506,22.6194175 105.689688,22.7796117 106.557314,22.7796117 C107.42494,22.7796117 108.164029,22.6194175 108.77458,22.2669903 C109.385132,21.9145631 109.835012,21.4660194 110.188489,20.8893204 C110.541966,20.3126214 110.799041,19.6718447 110.927578,18.9669903 C111.088249,18.2621359 111.152518,17.5252427 111.152518,16.7563107 C111.152518,15.9873786 111.088249,15.2504854 110.927578,14.5135922 C110.766906,13.776699 110.541966,13.1359223 110.188489,12.5912621 C109.835012,12.0466019 109.352998,11.5660194 108.77458,11.2135922 C108.164029,10.861165 107.42494,10.668932 106.557314,10.668932 C105.689688,10.668932 104.9506,10.861165 104.372182,11.2135922 C103.793765,11.5660194 103.311751,12.0145631 102.958273,12.5912621 C102.604796,13.1679612 102.347722,13.8087379 102.219185,14.5135922 C102.058513,15.2504854 101.994245,15.9873786 101.994245,16.7563107 C101.994245,17.5252427 102.090647,18.2621359 102.219185,18.9669903 L102.219185,18.9669903 Z M114.751559,7.30485437 L120.696403,7.30485437 L124.038369,12.238835 L127.348201,7.30485437 L133.10024,7.30485437 L126.866187,16.1475728 L133.871463,26.1757282 L127.894484,26.1757282 L123.941966,20.2165049 L119.989448,26.1757282 L114.173141,26.1757282 L120.985612,16.2436893 L114.751559,7.30485437 L114.751559,7.30485437 Z" id="Shape" sketch:type="MSShapeGroup"></path>
                <path d="M8.86906475,16.5 L16.4848921,16.5 L16.4848921,24.0932039 C16.4848921,24.2854369 16.5170264,24.4456311 16.5170264,24.6378641 C16.5170264,29.1553398 12.853717,32.807767 8.32278177,32.807767 C3.79184652,32.807767 0.12853717,29.1553398 0.12853717,24.6378641 C0.12853717,20.1203883 3.79184652,16.4679612 8.32278177,16.4679612 C8.51558753,16.4679612 8.67625899,16.5 8.86906475,16.5 L8.86906475,16.5 Z" id="Shape" sketch:type="MSShapeGroup"></path>
                <path d="M24.1328537,16.5 L16.5170264,16.5 L16.5170264,8.90679612 C16.5170264,8.71456311 16.4848921,8.55436893 16.4848921,8.36213592 C16.4848921,3.84466019 20.1482014,0.19223301 24.6791367,0.19223301 C29.2100719,0.19223301 32.8733813,3.84466019 32.8733813,8.36213592 C32.8733813,12.8796117 29.2100719,16.5320388 24.6791367,16.5320388 C24.4863309,16.5 24.2935252,16.5 24.1328537,16.5 L24.1328537,16.5 Z" id="Shape" sketch:type="MSShapeGroup"></path>
                <path d="M7.16594724,12.6553398 L12.9501199,12.6553398 L12.9501199,6.92038835 L12.9501199,6.5038835 C12.9501199,3.10776699 10.1865707,0.32038835 6.74820144,0.32038835 C3.34196643,0.32038835 0.546282974,3.07572816 0.546282974,6.5038835 C0.546282974,9.9 3.30983213,12.6873786 6.74820144,12.6873786 C6.87673861,12.6553398 7.00527578,12.6553398 7.16594724,12.6553398 L7.16594724,12.6553398 Z" id="Shape" sketch:type="MSShapeGroup"></path>
                <path d="M25.9323741,20.0563107 L20.1803357,20.0563107 L20.1803357,25.7912621 L20.1803357,26.207767 C20.1803357,29.6038835 22.9438849,32.3912621 26.3822542,32.3912621 C29.7884892,32.3912621 32.5841727,29.6359223 32.5841727,26.207767 C32.5841727,22.7796117 29.8206235,20.0242718 26.3822542,20.0242718 C26.2215827,20.0563107 26.0930456,20.0563107 25.9323741,20.0563107 L25.9323741,20.0563107 Z" id="Shape" sketch:type="MSShapeGroup"></path>
            </g>
        </g>
    </g>
</svg>