<?xml version="1.0" encoding="UTF-8" standalone="no"?>
<svg width="156px" height="220px" viewBox="0 0 156 220" version="1.1" xmlns="http://www.w3.org/2000/svg" xmlns:xlink="http://www.w3.org/1999/xlink" xmlns:sketch="http://www.bohemiancoding.com/sketch/ns">
    <!-- Generator: Sketch 3.3.3 (12072) - http://www.bohemiancoding.com/sketch -->
    <title>lukibear-logo@2x</title>
    <desc>Created with Sketch.</desc>
    <defs>
        <linearGradient x1="50.011073%" y1="0.0213804714%" x2="50.011073%" y2="99.9846801%" id="linearGradient-1">
            <stop stop-color="#33B4FF" offset="30%"></stop>
            <stop stop-color="#001C82" offset="100%"></stop>
        </linearGradient>
    </defs>
    <g id="wip" stroke="none" stroke-width="1" fill="none" fill-rule="evenodd" sketch:type="MSPage">
        <g id="wip-desktop" sketch:type="MSArtboardGroup" transform="translate(-340.000000, -470.000000)">
            <g id="screen" sketch:type="MSLayerGroup" transform="translate(340.000000, 470.000000)">
                <g id="h1" sketch:type="MSShapeGroup">
                    <g id="lukibear-logo">
                        <g id="bear">
                            <path d="M11.5333334,0 L14.1149758,7.56738809 L22.6666666,8.85545416 L16.0512078,13.2026771 L18.1487922,20.9310735 L11.5333334,16.261834 L4.75652174,20.9310735 L7.01545894,13.2026771 L0.4,8.85545416 L8.79033816,7.56738809 L11.5333334,0 L11.5333334,0 Z" id="star" fill="#FF931E"></path>
                            <path d="M144.133334,158.328 L118.4,158.328 L100.933334,116.816793 L79.7333334,158.328 L37.3333334,158.328 L41.0666666,129.589472 L53.2,97.7908238 L47.2,91.8036305 L30.4,103.911065 L35.7333334,128.79118 L19.0666666,143.160444 L8.53333336,134.911422 L0.133333334,98.589116 L16.1333334,77.4343664 L40.2666666,30.6012101 L69.0666666,20.7556033 L90.4,11.5752404 L91.8666664,4.12451092 L99.4666664,0.266097479 L105.466666,6.38633949 L111.466666,6.38633949 L117.6,1.86268235 L123.6,7.84987563 L125.466666,15.4336538 L155.466666,35.1248672 L147.866666,46.4340101 L116.133334,48.6958387 L110.8,50.9576672 L122.8,72.3785143 L138.8,87.9452171 L135.066666,94.0654587 L144.133334,158.328 L144.133334,158.328 Z" id="gradient" fill="url(#linearGradient-1)"></path>
                            <g id="polygons">
                                <path d="M65.3333334,83.4215599 L47.2,91.8036305 L30.4,103.911065 L26.8,97.2586282 L44.8,54.0177883 L65.3333334,83.4215599 L65.3333334,83.4215599 Z" id="Shape" opacity="0.5" fill="#000000"></path>
                                <path d="M118.4,158.328 L100.933334,116.816793 L107.733334,103.911065 L135.066666,94.0654587 L144.133334,158.328 L118.4,158.328 L118.4,158.328 Z" id="Shape" opacity="0.5" fill="#000000"></path>
                                <path d="M47.2,91.8036305 L65.3333334,83.4215599 L44.8,54.0177883 L47.2,91.8036305 L47.2,91.8036305 Z" id="Shape" opacity="0.2" fill="#000000"></path>
                                <path d="M107.733334,103.911065 L97.8666664,56.2796168 L110.8,50.9576672 L107.733334,103.911065 L107.733334,103.911065 Z" id="Shape" opacity="0.2" fill="#FFFFFF"></path>
                                <path d="M125.466666,15.4336538 L111.466666,6.38633949 L117.6,1.86268235 L123.6,7.84987563 L125.466666,15.4336538 L125.466666,15.4336538 Z" id="Shape" opacity="0.3" fill="#000000"></path>
                                <path d="M147.866666,30.2020639 L150.533334,42.4425479 L155.466666,35.1248672 L147.866666,30.2020639 L147.866666,30.2020639 Z" id="Shape" opacity="0.7" fill="#000000"></path>
                                <path d="M127.466666,29.0046252 L116.8,27.5410891 L115.333334,19.1590185 L127.466666,29.0046252 L127.466666,29.0046252 Z" id="Shape" opacity="0.7" fill="#000000"></path>
                                <path d="M30.4,103.911065 L8.53333336,134.911422 L19.0666666,143.160444 L35.7333334,128.79118 L30.4,103.911065 L30.4,103.911065 Z" id="Shape" opacity="0.5" fill="#000000"></path>
                                <path d="M8.53333336,134.911422 L16.1333334,77.4343664 L0.133333334,98.589116 L8.53333336,134.911422 L8.53333336,134.911422 Z" id="Shape" opacity="0.3" fill="#000000"></path>
                                <path d="M26.8,97.2586282 L16.1333334,77.4343664 L44.8,54.0177883 L26.8,97.2586282 L26.8,97.2586282 Z" id="Shape" opacity="0.3" fill="#000000"></path>
                                <path d="M105.466666,6.38633949 L104.666666,22.4852369 L89.6,16.2319462 L105.466666,6.38633949 L105.466666,6.38633949 Z" id="Shape" opacity="0.3" fill="#000000"></path>
                                <path d="M104.933334,40.5798656 L97.8666664,56.2796168 L87.3333336,48.6958387 L104.933334,40.5798656 L104.933334,40.5798656 Z" id="Shape" opacity="0.3" fill="#000000"></path>
                                <path d="M89.6,16.2319462 L99.4666664,0.266097479 L105.466666,6.38633949 L89.6,16.2319462 L89.6,16.2319462 Z" id="Shape" opacity="0.1" fill="#FFFFFF"></path>
                                <path d="M111.466666,6.38633949 L105.466666,6.38633949 L115.333334,19.1590185 L127.466666,29.0046252 L147.866666,30.2020639 L111.466666,6.38633949 L111.466666,6.38633949 Z" id="Shape" opacity="0.3" fill="#FFFFFF"></path>
                                <path d="M116.133334,48.6958387 L97.8666664,56.2796168 L104.933334,40.5798656 L116.133334,48.6958387 L116.133334,48.6958387 Z" id="Shape" opacity="0.2" fill="#000000"></path>
                                <path d="M44.8,54.0177883 L65.3333334,83.4215599 L87.3333336,48.6958387 L44.8,54.0177883 L44.8,54.0177883 Z" id="Shape" opacity="0.2" fill="#000000"></path>
                                <path d="M122.8,72.3785143 L138.8,87.9452171 L135.066666,94.0654587 L122.8,72.3785143 L122.8,72.3785143 Z" id="Shape" opacity="0.8" fill="#000000"></path>
                                <path d="M100.933334,116.816793 L118.4,158.328 L135.066666,94.0654587 L107.733334,103.911065 L100.933334,116.816793 L100.933334,116.816793 Z" id="Shape" opacity="0.6" fill="#000000"></path>
                                <path d="M54,144.757028 L107.733334,103.911065 L67.6,112.160088 L54,144.757028 L54,144.757028 Z" id="Shape" opacity="0.2" fill="#000000"></path>
                                <path d="M67.6,112.160088 L65.3333334,83.4215599 L87.3333336,48.6958387 L67.6,112.160088 L67.6,112.160088 Z" id="Shape" opacity="0.4" fill="#000000"></path>
                                <path d="M51.7333334,158.328 L54,144.757028 L83.3333336,151.143368 L79.7333334,158.328 L51.7333334,158.328 L51.7333334,158.328 Z" id="Shape" opacity="0.3" fill="#000000"></path>
                                <path d="M116.133334,48.6958387 L127.466666,29.0046252 L116.8,27.5410891 L116.133334,48.6958387 L116.133334,48.6958387 Z" id="Shape" opacity="0.2" fill="#000000"></path>
                                <path d="M127.466666,29.0046252 L147.866666,46.4340101 L150.533334,42.4425479 L147.866666,30.2020639 L127.466666,29.0046252 L127.466666,29.0046252 Z" id="Shape" opacity="0.2" fill="#000000"></path>
                                <path d="M147.866666,46.4340101 L127.466666,29.0046252 L116.133334,48.6958387 L147.866666,46.4340101 L147.866666,46.4340101 Z" id="Shape" opacity="0.3" fill="#000000"></path>
                                <path d="M104.933334,40.5798656 L87.3333336,48.6958387 L94.1333336,32.8630387 L104.933334,40.5798656 L104.933334,40.5798656 Z" id="Shape" opacity="0.4" fill="#000000"></path>
                                <path d="M104.666666,22.4852369 L115.333334,19.1590185 L105.466666,6.38633949 L104.666666,22.4852369 L104.666666,22.4852369 Z" id="Shape" opacity="0.2" fill="#000000"></path>
                                <path d="M16.1333334,77.4343664 L40.2666666,30.6012101 L44.8,54.0177883 L16.1333334,77.4343664 L16.1333334,77.4343664 Z" id="Shape" opacity="0.2" fill="#000000"></path>
                                <path d="M44.8,54.0177883 L77.4666666,41.1120605 L69.0666666,20.7556033 L40.2666666,30.6012101 L44.8,54.0177883 L44.8,54.0177883 Z" id="Shape" opacity="0.1" fill="#000000"></path>
                                <path d="M8.53333336,134.911422 L16.1333334,77.4343664 L30.4,103.911065 L8.53333336,134.911422 L8.53333336,134.911422 Z" id="Shape" opacity="0.1" fill="#000000"></path>
                                <path d="M107.733334,103.911065 L135.066666,94.0654587 L109.066666,79.6961949 L107.733334,103.911065 L107.733334,103.911065 Z" id="Shape" opacity="0.7" fill="#000000"></path>
                                <path d="M116.8,27.5410891 L94.1333336,32.8630387 L116.133334,48.6958387 L116.8,27.5410891 L116.8,27.5410891 Z" id="Shape" opacity="0.2" fill="#FFFFFF"></path>
                                <path d="M109.066666,79.6961949 L135.066666,94.0654587 L110.8,50.9576672 L109.066666,79.6961949 L109.066666,79.6961949 Z" id="Shape" opacity="0.5" fill="#000000"></path>
                                <path d="M44.8,54.0177883 L87.3333336,48.6958387 L77.4666666,41.1120605 L44.8,54.0177883 L44.8,54.0177883 Z" id="Shape" opacity="0.5" fill="#000000"></path>
                                <path d="M47.2,91.8036305 L65.3333334,83.4215599 L67.6,112.160088 L47.2,91.8036305 L47.2,91.8036305 Z" id="Shape" opacity="0.8" fill="#000000"></path>
                                <path d="M91.8666664,4.12451092 L89.6,16.2319462 L99.4666664,0.266097479 L91.8666664,4.12451092 L91.8666664,4.12451092 Z" id="Shape" opacity="0.3" fill="#000000"></path>
                                <path d="M115.333334,19.1590185 L104.666666,22.4852369 L116.8,27.5410891 L115.333334,19.1590185 L115.333334,19.1590185 Z" id="Shape" opacity="0.1" fill="#000000"></path>
                                <path d="M94.1333336,32.8630387 L77.4666666,41.1120605 L89.6,16.2319462 L94.1333336,32.8630387 L94.1333336,32.8630387 Z" id="Shape" opacity="0.4" fill="#000000"></path>
                                <path d="M69.0666666,20.7556033 L89.6,16.2319462 L90.4,11.5752404 L69.0666666,20.7556033 L69.0666666,20.7556033 Z" id="Shape" opacity="0.5" fill="#000000"></path>
                                <path d="M77.4666666,41.1120605 L87.3333336,48.6958387 L94.1333336,32.8630387 L77.4666666,41.1120605 L77.4666666,41.1120605 Z" id="Shape" opacity="0.3" fill="#000000"></path>
                                <path d="M77.4666666,41.1120605 L69.0666666,20.7556033 L89.6,16.2319462 L77.4666666,41.1120605 L77.4666666,41.1120605 Z" id="Shape" opacity="0.3" fill="#000000"></path>
                                <path d="M44.8,54.0177883 L69.0666666,20.7556033 L77.4666666,41.1120605 L44.8,54.0177883 L44.8,54.0177883 Z" id="Shape" opacity="0.1" fill="#000000"></path>
                                <path d="M107.733334,103.911065 L118.4,158.328 L100.933334,116.816793 L107.733334,103.911065 L107.733334,103.911065 Z" id="Shape" opacity="0.5" fill="#000000"></path>
                                <path d="M41.0666666,129.589472 L54,144.757028 L67.6,112.160088 L41.0666666,129.589472 L41.0666666,129.589472 Z" id="Shape" opacity="0.85" fill="#000000"></path>
                                <path d="M53.2,97.7908238 L67.6,112.160088 L41.0666666,129.589472 L53.2,97.7908238 L53.2,97.7908238 Z" id="Shape" opacity="0.9" fill="#000000"></path>
                                <path d="M41.0666666,129.589472 L54,144.757028 L51.7333334,158.328 L37.3333334,158.328 L41.0666666,129.589472 L41.0666666,129.589472 Z" id="Shape" opacity="0.9" fill="#000000"></path>
                            </g>
                        </g>
                        <path d="M4.7968,169.203055 L0.72,169.203055 L0.72,198.309818 L4.7968,198.309818 L4.7968,169.203055 L4.7968,169.203055 Z M29.4506663,198.309818 L29.4506663,175.606543 L25.3738663,175.606543 L25.3738663,188.039289 C25.3738663,192.031073 23.0026663,195.108074 18.5930663,195.024912 C13.8090663,194.94175 12.7690663,192.072655 12.7690663,187.914545 L12.7690663,175.606543 L8.69226632,175.606543 L8.69226632,187.914545 C8.69226632,194.359615 11.6458663,198.642467 18.4682663,198.642467 C21.3802663,198.642467 23.9178663,197.810845 25.5818663,195.357561 L25.5818663,198.309818 L29.4506663,198.309818 L29.4506663,198.309818 Z M38.0053326,169.203055 L33.9285326,169.203055 L33.9285326,198.309818 L38.0053326,198.309818 L38.0053326,191.448938 L40.9173326,188.330356 L48.4885326,198.309818 L53.1893326,198.309818 L53.1893326,197.935588 L43.5381326,185.502842 L52.6069326,175.814448 L47.6981326,175.814448 L41.4581326,182.467423 L38.0053326,186.583951 L38.0053326,169.203055 L38.0053326,169.203055 Z M59.164799,198.309818 L55.087999,198.309818 L55.087999,175.564961 L59.164799,175.564961 L59.164799,198.309818 L59.164799,198.309818 Z M54.588799,170.034676 C54.588799,166.957676 59.663999,166.874513 59.663999,170.034676 C59.663999,173.194839 54.588799,173.194839 54.588799,170.034676 L54.588799,170.034676 L54.588799,170.034676 Z M68.1770654,169.203055 L64.1002654,169.203055 L64.1002654,198.309818 L68.1770654,198.309818 L68.1770654,195.274399 C69.7994654,197.727683 72.8778654,198.642467 75.6650654,198.684048 C83.5274656,198.684048 87.3130656,193.153763 87.3130656,186.95818 C87.3130656,180.887341 83.3610656,175.440218 75.7482654,175.440218 C72.9610654,175.440218 70.1322654,176.063935 68.1770654,178.725124 L68.1770654,169.203055 L68.1770654,169.203055 Z M68.1770654,187.041343 C68.1770654,181.635801 72.0042654,178.974611 75.8314654,179.016192 C80.7402656,179.099354 83.1946656,183.007977 83.2362656,186.95818 C83.2778656,191.074708 80.6570656,195.191236 75.4986654,195.066493 C71.7962654,194.983331 68.1770654,192.322141 68.1770654,187.041343 L68.1770654,187.041343 L68.1770654,187.041343 Z M112.341332,186.084977 C111.883732,179.016192 106.392532,175.481799 100.818132,175.481799 C94.869332,175.481799 89.128532,179.348841 89.128532,187.082924 C89.128532,194.817007 94.952532,198.725629 100.734932,198.725629 C105.352532,198.725629 109.970132,196.272345 111.675732,191.365776 L107.474132,191.365776 C106.142932,193.902223 103.563732,195.108074 100.776532,195.108074 C97.406932,195.108074 93.205332,192.446884 93.205332,188.039289 L112.258132,188.039289 C112.382932,187.457153 112.424532,186.750275 112.341332,186.084977 L112.341332,186.084977 L112.341332,186.084977 Z M93.371732,184.67122 C94.203732,180.679436 97.531732,179.057773 100.818132,179.057773 C104.062932,179.057773 107.266132,180.637855 108.056532,184.67122 L93.371732,184.67122 L93.371732,184.67122 Z M134.956798,175.814448 L134.998398,178.808287 C133.001598,176.105516 129.631998,175.440218 126.844798,175.440218 C119.231998,175.440218 114.822398,180.887341 114.822398,186.95818 C114.822398,193.153763 119.065598,198.684048 126.927998,198.684048 C129.715198,198.642467 133.334398,197.727683 134.956798,195.274399 L134.956798,198.309818 L139.033598,198.309818 L139.033598,175.814448 L134.956798,175.814448 L134.956798,175.814448 Z M134.956798,187.041343 C134.956798,192.322141 130.796798,194.983331 127.094398,195.066493 C121.935998,195.191236 118.899198,191.282614 118.899198,186.95818 C118.899198,182.550585 121.852798,179.099354 126.761598,179.016192 C130.588798,178.974611 134.956798,181.635801 134.956798,187.041343 L134.956798,187.041343 L134.956798,187.041343 Z M142.804264,175.856029 L142.804264,198.309818 L146.839464,198.309818 L146.839464,186.126559 C146.839464,181.261571 151.249064,177.893503 155.866664,179.265679 L155.866664,175.689705 C152.289064,174.858083 149.002664,175.564961 146.839464,178.600381 L146.839464,175.856029 L142.804264,175.856029 L142.804264,175.856029 Z" id="lukibear" fill="#FFFFFF"></path>
                        <path d="M2.0896,215.509197 C2.896,216.583908 4.0216,216.852586 5.1472,216.852586 C8.2216,216.852586 9.8344,214.652786 9.8344,212.184309 C9.8344,209.682247 8.3056,207.448862 5.1304,207.465655 C3.988,207.465655 2.7448,207.851879 2.0896,208.825836 L2.0896,207.616786 L0.4432,207.616786 L0.4432,219.354648 L2.0896,219.354648 L2.0896,215.509197 L2.0896,215.509197 Z M2.0896,212.150724 C2.0896,210.034886 3.568,208.943383 5.0632,208.909798 C7.1464,208.859421 8.2048,210.521865 8.188,212.184309 C8.188,213.779583 7.1632,215.358065 5.1808,215.39165 C3.6352,215.408443 2.0896,214.333731 2.0896,212.150724 L2.0896,212.150724 L2.0896,212.150724 Z M19.0752025,207.633578 L19.0752025,216.701455 L20.7048025,216.701455 L20.7048025,211.781292 C20.7048025,209.816585 22.4856025,208.456404 24.3504025,209.010552 L24.3504025,207.566409 C22.9056025,207.230561 21.5784025,207.516032 20.7048025,208.741874 L20.7048025,207.633578 L19.0752025,207.633578 L19.0752025,207.633578 Z M42.0584049,212.167516 C42.0584049,209.044137 39.6392049,207.465655 37.1864049,207.465655 C34.7168049,207.465655 32.2640049,209.027344 32.2640049,212.167516 C32.2640049,215.290896 34.7000049,216.869378 37.1360049,216.869378 C39.6056049,216.869378 42.0584049,215.307688 42.0584049,212.167516 L42.0584049,212.167516 L42.0584049,212.167516 Z M33.9104049,212.167516 C33.9104049,210.001301 35.5400049,208.92659 37.1864049,208.92659 C38.7992049,208.92659 40.4288049,210.018094 40.4288049,212.167516 C40.4288049,214.316939 38.7824049,215.408443 37.1360049,215.39165 C35.5232049,215.374858 33.9104049,214.300147 33.9104049,212.167516 L33.9104049,212.167516 L33.9104049,212.167516 Z M51.8536074,205.920757 L51.8536074,207.616786 L50.4928074,207.616786 L50.4928074,208.92659 L51.8536074,208.92659 L51.8536074,214.031469 C51.8536074,216.432777 53.3488074,216.886171 55.5496074,216.718247 L55.5496074,215.341273 C54.3400074,215.45882 53.5000074,215.408443 53.5000074,214.048261 L53.5000074,208.92659 L55.4992074,208.92659 L55.4992074,207.616786 L53.5000074,207.616786 L53.5000074,205.601702 L51.8536074,205.920757 L51.8536074,205.920757 Z M73.4424098,212.167516 C73.4424098,209.044137 71.0232098,207.465655 68.5704098,207.465655 C66.1008098,207.465655 63.6480098,209.027344 63.6480098,212.167516 C63.6480098,215.290896 66.0840098,216.869378 68.5200098,216.869378 C70.9896098,216.869378 73.4424098,215.307688 73.4424098,212.167516 L73.4424098,212.167516 L73.4424098,212.167516 Z M65.2944098,212.167516 C65.2944098,210.001301 66.9240098,208.92659 68.5704098,208.92659 C70.1832098,208.92659 71.8128098,210.018094 71.8128098,212.167516 C71.8128098,214.316939 70.1664098,215.408443 68.5200098,215.39165 C66.9072098,215.374858 65.2944098,214.300147 65.2944098,212.167516 L65.2944098,212.167516 L65.2944098,212.167516 Z M83.237612,205.920757 L83.237612,207.616786 L81.876812,207.616786 L81.876812,208.92659 L83.237612,208.92659 L83.237612,214.031469 C83.237612,216.432777 84.732812,216.886171 86.933612,216.718247 L86.933612,215.341273 C85.724012,215.45882 84.884012,215.408443 84.884012,214.048261 L84.884012,208.92659 L86.883212,208.92659 L86.883212,207.616786 L84.884012,207.616786 L84.884012,205.601702 L83.237612,205.920757 L83.237612,205.920757 Z M99.3160144,214.484863 L98.2912144,211.512614 L96.6448144,207.482447 L94.8976144,207.482447 L98.4424144,216.231268 L97.1656144,219.505779 L98.9128144,219.505779 L103.684014,207.482447 L101.936814,207.482447 L100.374414,211.529407 L99.3160144,214.484863 L99.3160144,214.484863 Z M113.932817,215.509197 C114.739217,216.583908 115.864817,216.852586 116.990417,216.852586 C120.064817,216.852586 121.677617,214.652786 121.677617,212.184309 C121.677617,209.682247 120.148817,207.448862 116.973617,207.465655 C115.831217,207.465655 114.588017,207.851879 113.932817,208.825836 L113.932817,207.616786 L112.286417,207.616786 L112.286417,219.354648 L113.932817,219.354648 L113.932817,215.509197 L113.932817,215.509197 Z M113.932817,212.150724 C113.932817,210.034886 115.411217,208.943383 116.906417,208.909798 C118.989617,208.859421 120.048017,210.521865 120.031217,212.184309 C120.031217,213.779583 119.006417,215.358065 117.024017,215.39165 C115.478417,215.408443 113.932817,214.333731 113.932817,212.150724 L113.932817,212.150724 L113.932817,212.150724 Z M139.839219,211.7645 C139.654419,208.909798 137.436819,207.482447 135.185619,207.482447 C132.783219,207.482447 130.464819,209.044137 130.464819,212.167516 C130.464819,215.290896 132.816819,216.869378 135.152019,216.869378 C137.016819,216.869378 138.881619,215.878629 139.570419,213.89713 L137.873619,213.89713 C137.336019,214.921464 136.294419,215.408443 135.168819,215.408443 C133.808019,215.408443 132.111219,214.333731 132.111219,212.553741 L139.805619,212.553741 C139.856019,212.318648 139.872819,212.033177 139.839219,211.7645 L139.839219,211.7645 L139.839219,211.7645 Z M132.178419,211.193559 C132.514419,209.581492 133.858419,208.92659 135.185619,208.92659 C136.496019,208.92659 137.789619,209.5647 138.108819,211.193559 L132.178419,211.193559 L132.178419,211.193559 Z M150.188822,210.236395 C150.188822,209.296022 151.129622,208.909798 152.137622,208.909798 C153.128822,208.909798 153.985622,209.296022 154.069622,210.102056 L155.699222,210.102056 C155.581622,208.204519 153.985622,207.43207 152.188022,207.43207 C150.424022,207.43207 148.559222,208.170934 148.559222,210.269979 C148.559222,212.301855 150.491222,212.805626 152.120822,212.872796 C152.910422,212.90638 154.338422,213.074304 154.321622,214.098638 C154.321622,215.139765 153.078422,215.408443 152.255222,215.425235 C151.112822,215.442027 150.138422,214.938256 150.071222,213.913922 L148.424822,213.913922 C148.542422,216.063345 150.289622,216.852586 152.171222,216.852586 C153.884822,216.852586 155.968022,216.231268 155.968022,214.115431 C155.968022,212.04997 154.019222,211.512614 152.305622,211.395068 C151.499222,211.344691 150.188822,211.378275 150.188822,210.236395 L150.188822,210.236395 L150.188822,210.236395 Z" id="prototypes" fill="#FFFFFF"></path>
                    </g>
                </g>
            </g>
        </g>
    </g>
</svg>