<?xml version="1.0" encoding="UTF-8" standalone="no"?>
<svg width="149px" height="33px" viewBox="0 0 149 33" version="1.1" xmlns="http://www.w3.org/2000/svg" xmlns:xlink="http://www.w3.org/1999/xlink" xmlns:sketch="http://www.bohemiancoding.com/sketch/ns">
    <!-- Generator: Sketch 3.5.2 (25235) - http://www.bohemiancoding.com/sketch -->
    <title>logo-adobe-white</title>
    <desc>Created with Sketch.</desc>
    <defs></defs>
    <g id="guidelines" stroke="none" stroke-width="1" fill="none" fill-rule="evenodd" sketch:type="MSPage">
        <g id="guidelines-assets" sketch:type="MSArtboardGroup" transform="translate(-73.000000, -744.000000)" fill="#9A9A9B">
            <g id="logo-adobe-white" sketch:type="MSLayerGroup" transform="translate(73.000000, 744.000000)">
                <path d="M23.3766234,0 L37.1657896,0 L37.1657896,32.6179866 L23.3766234,0" id="Fill-9" sketch:type="MSShapeGroup"></path>
                <path d="M13.8000707,0 L0,0 L0,32.6179866 L13.8000707,0" id="Fill-10" sketch:type="MSShapeGroup"></path>
                <path d="M18.302449,12.1578947 L27.0898676,32.7538734 L21.3313948,32.7538734 L18.702507,26.1944558 L12.2727273,26.1944558 L18.302449,12.1578947" id="Fill-11" sketch:type="MSShapeGroup"></path>
                <g id="Group-4" transform="translate(48.000000, 0.000000)" sketch:type="MSShapeGroup">
                    <path d="M84.8865544,22.2790837 C84.9501109,26.2879295 87.0667154,27.5974626 89.6923546,27.5974626 C91.3553177,27.5974626 92.7879616,27.2305374 93.841016,26.8298855 L94.5815361,30.7991894 C93.1179886,31.434185 90.8497815,31.826696 88.6818654,31.826696 C82.7378801,31.826696 79.5,27.7835419 79.5,20.8724405 C79.5,13.4536916 83.2591596,9 88.1769124,9 C92.918573,9 95.5482937,12.9355771 95.5482937,19.3628722 C95.5482937,20.8346432 95.4888189,21.6597885 95.3931927,22.3064141 L84.8865544,22.2790837 L84.8865544,22.2790837 Z M90.4602797,18.373163 C90.4876847,15.2563348 89.5728218,13.0780441 87.8223957,13.0780441 C85.8177438,13.0780441 84.9664373,16.000652 84.9022978,18.373163 L90.4602797,18.373163 L90.4602797,18.373163 Z" id="Fill-8"></path>
                    <path d="M6.8547666,23.2639824 L5.39121912,30.621674 L0,30.621674 L6.72357211,0 L13.3322761,0 L19.4430242,30.621674 L14.0197353,30.621674 L12.5917561,23.2639824 L6.8547666,23.2639824 L6.8547666,23.2639824 Z M12.0710597,18.9428722 L10.9532826,12.3056564 C10.6308357,10.3931101 10.2168442,7.40944493 9.91014062,5.34047577 L9.78710934,5.34047577 C9.45649921,7.42572687 8.99935928,10.4983612 8.66116903,12.3219383 L7.45184733,18.9428722 L12.0710597,18.9428722 L12.0710597,18.9428722 Z" id="Fill-2"></path>
                    <path d="M37.5025182,0 L37.5025182,25.082326 C37.5025182,27.0762819 37.6098062,29.5220617 37.6850244,31.4346079 L32.9107109,31.4346079 L32.5964272,28.8795066 L32.480976,28.8795066 C31.6815643,30.4507137 29.9358028,31.7933921 27.8471865,31.7933921 C23.267624,31.7933921 21,26.7564581 21,20.3989427 C21,12.6487401 24.3854011,8.87714537 28.0740072,8.87714537 C30.0034409,8.87714537 31.2483309,9.82324229 31.8803968,11.1862731 L31.9678598,11.1862731 L31.9678598,0 L37.5025182,0 L37.5025182,0 Z M31.9678598,17.7589427 C31.9678598,17.3460793 31.9678598,16.8698326 31.8920585,16.4371982 C31.6774826,14.9200705 30.8664091,13.5587841 29.573706,13.5587841 C27.3492305,13.5587841 26.5299937,16.7610925 26.5299937,20.5001233 C26.5299937,24.7927401 27.6955839,27.2425903 29.4938232,27.2425903 C30.3177246,27.2425903 31.2640742,26.8186784 31.7771905,25.0189427 C31.9043034,24.6578326 31.9678598,24.1780969 31.9678598,23.61637 L31.9678598,17.7589427 L31.9678598,17.7589427 Z" id="Fill-4"></path>
                    <path d="M48.7944075,31.9162467 C43.6982302,31.9162467 40.5,27.8300617 40.5,20.5258678 C40.5,12.5488811 44.6014315,9 48.9180219,9 C53.9465611,9 57.1098062,13.2850573 57.1098062,20.3903789 C57.1098062,29.5280352 52.1646483,31.9162467 48.8422206,31.9162467 L48.7944075,31.9162467 L48.7944075,31.9162467 Z M48.898197,27.6788722 C51.0066383,27.6788722 51.5319993,23.7095683 51.5319993,20.4246872 C51.5319993,17.3002996 51.0066383,13.2338855 48.8066523,13.2338855 C46.4673087,13.2338855 45.978099,17.3002996 45.978099,20.4246872 C45.978099,24.1957004 46.5990863,27.6788722 48.8544655,27.6788722 L48.898197,27.6788722 L48.898197,27.6788722 Z" id="Fill-5"></path>
                    <path d="M60.1836723,0 L65.7171646,0 L65.7171646,11.5613392 L65.8052106,11.5613392 C66.8955827,9.85522467 68.3474684,8.87714537 70.4518281,8.87714537 C74.6249792,8.87714537 76.7176772,13.6105374 76.7176772,19.791859 C76.7176772,27.6095154 73.5946651,31.7933921 69.5486269,31.7933921 C67.6191932,31.7933921 66.3299886,30.9409163 65.1760601,28.778326 L65.0571105,28.778326 L64.7469084,31.4346079 L60,31.4346079 C60.0758013,29.5895154 60.1836723,27.0762819 60.1836723,25.082326 L60.1836723,0 L60.1836723,0 Z M65.7171646,23.5111189 C65.7171646,24.0612159 65.8168724,24.5781674 65.9364051,24.9259031 C66.4891713,26.78437 67.4285239,27.2425903 68.1877027,27.2425903 C70.3241321,27.2425903 71.1876835,24.5368811 71.1876835,20.2117004 C71.1876835,16.2749604 70.2728205,13.5587841 68.1637961,13.5587841 C67.1142402,13.5587841 66.2308639,14.6973568 65.9247434,15.9196652 C65.8168724,16.2988018 65.7171646,16.901815 65.7171646,17.3140969 L65.7171646,23.5111189 L65.7171646,23.5111189 Z" id="Fill-6"></path>
                    <path d="M98.3832325,0 C99.8262583,0 100.979634,1.15001901 100.979634,2.57811639 C100.979634,4.02596429 99.8262583,5.17688106 98.372328,5.17688106 C96.9183977,5.17688106 95.7402597,4.02596429 95.7402597,2.57811639 C95.7402597,1.15001901 96.9183977,0 98.372328,0 L98.3832325,0 L98.3832325,0 Z M98.372328,0.435633666 C97.2189523,0.435633666 96.287301,1.3919629 96.287301,2.5888894 C96.287301,3.78559147 97.2189523,4.74034964 98.3832325,4.74034964 C99.536381,4.75089821 100.457128,3.78559147 100.457128,2.5888894 C100.457128,1.3919629 99.536381,0.435633666 98.3832325,0.435633666 L98.372328,0.435633666 L98.372328,0.435633666 Z M97.896393,4.08342036 L97.3709335,4.08342036 L97.3709335,1.20747508 C97.6158299,1.17223835 97.859136,1.12622861 98.243746,1.12622861 C98.7101396,1.12622861 99.000017,1.2189214 99.1860746,1.35739949 C99.3503233,1.48398238 99.4434657,1.67924322 99.4434657,1.95462833 C99.4434657,2.32472618 99.1969791,2.56352794 98.886883,2.64612103 L98.886883,2.66834037 C99.1410937,2.71502342 99.3039793,2.94417436 99.3612278,3.37060607 C99.430971,3.81993044 99.4898098,3.99162532 99.536381,4.08342036 L99.000017,4.08342036 C98.9302738,3.99162532 98.8727981,3.72746209 98.8139593,3.3481623 C98.7567108,3.0020793 98.5597487,2.86449896 98.1987651,2.86449896 L97.896393,2.86449896 L97.896393,4.08342036 L97.896393,4.08342036 Z M97.896393,2.46253095 L98.2094424,2.46253095 C98.5924621,2.46253095 98.908692,2.3361725 98.908692,2.00220914 C98.908692,1.74881892 98.7226343,1.51832135 98.2328416,1.51832135 C98.0808604,1.51832135 97.9754505,1.51832135 97.896393,1.52909437 L97.896393,2.46253095 L97.896393,2.46253095 Z" id="Fill-1"></path>
                </g>
            </g>
        </g>
    </g>
</svg>