<?xml version="1.0" encoding="UTF-8" standalone="no"?>
<svg width="134px" height="29px" viewBox="0 0 134 29" version="1.1" xmlns="http://www.w3.org/2000/svg" xmlns:xlink="http://www.w3.org/1999/xlink" xmlns:sketch="http://www.bohemiancoding.com/sketch/ns">
    <!-- Generator: Sketch 3.5.1 (25234) - http://www.bohemiancoding.com/sketch -->
    <title>logo-lukibear-grey</title>
    <desc>Created with Sketch.</desc>
    <defs>
        <circle id="path-1" cx="14.5" cy="14.5" r="14.5"></circle>
        <linearGradient x1="50.011073%" y1="0.0213804714%" x2="50.011073%" y2="99.9846801%" id="linearGradient-3">
            <stop stop-color="#33B4FF" offset="30%"></stop>
            <stop stop-color="#001C82" offset="100%"></stop>
        </linearGradient>
    </defs>
    <g id="2016-website" stroke="none" stroke-width="1" fill="none" fill-rule="evenodd" sketch:type="MSPage">
        <g id="guidelines-assets" sketch:type="MSArtboardGroup" transform="translate(-832.000000, -114.000000)">
            <g id="logo-lukibear-grey" sketch:type="MSLayerGroup" transform="translate(832.000000, 114.000000)">
                <path d="M39.5488759,5.92300863 L37,5.92300863 L37,23.7453945 L39.5488759,23.7453945 L39.5488759,5.92300863 L39.5488759,5.92300863 Z M54.9628396,23.7453945 L54.9628396,9.84393352 L52.4139636,9.84393352 L52.4139636,17.4566383 C52.4139636,19.9008513 50.9314541,21.784932 48.1745067,21.7340109 C45.1834788,21.6830898 44.5332553,19.9263118 44.5332553,17.3802567 L44.5332553,9.84393352 L41.9843794,9.84393352 L41.9843794,17.3802567 C41.9843794,21.3266421 43.831014,23.9490789 48.0964799,23.9490789 C49.9171055,23.9490789 51.5036508,23.4398679 52.5440083,21.9376954 L52.5440083,23.7453945 L54.9628396,23.7453945 L54.9628396,23.7453945 Z M60.3113441,5.92300863 L57.7624681,5.92300863 L57.7624681,23.7453945 L60.3113441,23.7453945 L60.3113441,19.5444035 L62.1319697,17.6348622 L66.8655965,23.7453945 L69.8046065,23.7453945 L69.8046065,23.5162495 L63.7705329,15.9035447 L69.4404814,9.97123627 L66.3714267,9.97123627 L62.4700859,14.0449245 L60.3113441,16.565519 L60.3113441,5.92300863 L60.3113441,5.92300863 Z M73.5405569,23.7453945 L70.991681,23.7453945 L70.991681,9.81847297 L73.5405569,9.81847297 L73.5405569,23.7453945 L73.5405569,23.7453945 Z M70.6795737,6.43221965 C70.6795737,4.54813886 73.8526642,4.49721776 73.8526642,6.43221965 C73.8526642,8.36722155 70.6795737,8.36722155 70.6795737,6.43221965 L70.6795737,6.43221965 L70.6795737,6.43221965 Z M79.1751598,5.92300863 L76.6262838,5.92300863 L76.6262838,23.7453945 L79.1751598,23.7453945 L79.1751598,21.8867742 C80.1895083,23.3889468 82.1141698,23.9490789 83.8567686,23.9745394 C88.7724581,23.9745394 91.1392715,20.5882861 91.1392715,16.794664 C91.1392715,13.0774235 88.6684224,9.74209131 83.9087865,9.74209131 C82.1661877,9.74209131 80.3975799,10.1239996 79.1751598,11.7534749 L79.1751598,5.92300863 L79.1751598,5.92300863 Z M79.1751598,16.8455851 C79.1751598,13.5357134 81.5679821,11.9062382 83.9608044,11.9316987 C87.0298593,11.9826198 88.5643866,14.3759116 88.5903955,16.794664 C88.6164045,19.3152586 86.9778414,21.8358531 83.7527329,21.7594715 C81.4379374,21.7085504 79.1751598,20.0790751 79.1751598,16.8455851 L79.1751598,16.8455851 L79.1751598,16.8455851 Z M106.787316,16.2599924 C106.501217,11.9316987 103.068037,9.76755186 99.5828397,9.76755186 C95.8635615,9.76755186 92.2743281,12.1353831 92.2743281,16.8710457 C92.2743281,21.6067082 95.9155794,24 99.5308218,24 C102.417814,24 105.304806,22.4978275 106.371173,19.4934824 L103.74427,19.4934824 C102.911984,21.0465761 101.29943,21.784932 99.5568308,21.784932 C97.4501068,21.784932 94.823204,20.1554568 94.823204,17.4566383 L106.735298,17.4566383 C106.813325,17.1001906 106.839333,16.6673612 106.787316,16.2599924 L106.787316,16.2599924 L106.787316,16.2599924 Z M94.9272398,15.3943337 C95.4474185,12.9501208 97.5281336,11.9571593 99.5828397,11.9571593 C101.611537,11.9571593 103.614225,12.9246602 104.108395,15.3943337 L94.9272398,15.3943337 L94.9272398,15.3943337 Z M120.926841,9.97123627 L120.95285,11.804396 C119.704421,10.1494601 117.597697,9.74209131 115.855098,9.74209131 C111.095463,9.74209131 108.338515,13.0774235 108.338515,16.794664 C108.338515,20.5882861 110.991427,23.9745394 115.907116,23.9745394 C117.649715,23.9490789 119.912493,23.3889468 120.926841,21.8867742 L120.926841,23.7453945 L123.475717,23.7453945 L123.475717,9.97123627 L120.926841,9.97123627 L120.926841,9.97123627 Z M120.926841,16.8455851 C120.926841,20.0790751 118.325947,21.7085504 116.011152,21.7594715 C112.786044,21.8358531 110.887391,19.4425613 110.887391,16.794664 C110.887391,14.0958456 112.734026,11.9826198 115.80308,11.9316987 C118.195903,11.9062382 120.926841,13.5357134 120.926841,16.8455851 L120.926841,16.8455851 L120.926841,16.8455851 Z M125.833193,9.99669682 L125.833193,23.7453945 L128.35606,23.7453945 L128.35606,16.285453 C128.35606,13.3065685 131.113008,11.2442638 134,12.084462 L134,9.89485462 C131.763231,9.38564359 129.708525,9.81847297 128.35606,11.6770932 L128.35606,9.99669682 L125.833193,9.99669682 L125.833193,9.99669682 Z" id="logo" fill="#616161" sketch:type="MSShapeGroup"></path>
                <g id="bear">
                    <mask id="mask-2" sketch:name="Mask" fill="white">
                        <use xlink:href="#path-1"></use>
                    </mask>
                    <use id="Mask" fill="#E1E1E1" sketch:type="MSShapeGroup" xlink:href="#path-1"></use>
                    <path d="M23.2096298,53.9168 L14.9177778,53.9168 L9.28962984,40.5409666 L2.45851854,53.9168 L-11.2037037,53.9168 L-10.0007408,44.6566076 L-6.09111111,34.4103766 L-8.02444444,32.4811698 L-13.4377778,36.3824543 L-11.7192592,44.3993802 L-17.0896297,49.0294764 L-20.4837037,46.3714582 L-23.1903704,34.667604 L-18.0348148,27.8510736 L-10.2585185,12.7603899 L-0.97851854,9.58791662 L5.89555556,6.62979968 L6.36814806,4.22900907 L8.81703695,2.98574252 L10.7503702,4.9578205 L12.6837035,4.9578205 L14.66,3.50019765 L16.5933333,5.42940437 L17.1948146,7.87306622 L26.8614813,14.2180128 L24.4125924,17.8620699 L14.1874076,18.5908814 L12.4688889,19.3196928 L16.3355556,26.2219657 L21.4911111,31.2379033 L20.2881479,33.2099811 L23.2096298,53.9168 L23.2096298,53.9168 L23.2096298,53.9168 Z" id="gradient" fill="url(#linearGradient-3)" sketch:type="MSShapeGroup" mask="url(#mask-2)"></path>
                    <g id="polygons" mask="url(#mask-2)" sketch:type="MSShapeGroup">
                        <g transform="translate(-23.233333, 2.900000)" id="Shape">
                            <path d="M34.7140743,33.4824543 L31.5348147,18.1345432 L35.7022222,16.4196928 L34.7140743,33.4824543 L34.7140743,33.4824543 L34.7140743,33.4824543 Z" opacity="0.2" fill="#FFFFFF"></path>
                            <path d="M40.4281479,4.97306622 L35.9170368,2.0578205 L37.8933333,0.600197646 L39.8266667,2.52940437 L40.4281479,4.97306622 L40.4281479,4.97306622 L40.4281479,4.97306622 Z" opacity="0.3" fill="#000000"></path>
                            <path d="M47.6459257,9.73177615 L48.5051854,13.6759321 L50.0948146,11.3180128 L47.6459257,9.73177615 L47.6459257,9.73177615 L47.6459257,9.73177615 Z" opacity="0.7" fill="#000000"></path>
                            <path d="M41.0725924,9.34593479 L37.6355556,8.87435093 L37.1629632,6.17346152 L41.0725924,9.34593479 L41.0725924,9.34593479 L41.0725924,9.34593479 Z" opacity="0.7" fill="#000000"></path>
                            <path d="M33.9837035,2.0578205 L33.7259257,7.245243 L28.8711111,5.23029378 L33.9837035,2.0578205 L33.9837035,2.0578205 L33.9837035,2.0578205 Z" opacity="0.3" fill="#000000"></path>
                            <path d="M33.8118521,13.0757345 L31.5348147,18.1345432 L28.1407408,15.6908814 L33.8118521,13.0757345 L33.8118521,13.0757345 L33.8118521,13.0757345 Z" opacity="0.3" fill="#000000"></path>
                            <path d="M28.8711111,5.23029378 L32.0503703,0.085742521 L33.9837035,2.0578205 L28.8711111,5.23029378 L28.8711111,5.23029378 L28.8711111,5.23029378 Z" opacity="0.1" fill="#FFFFFF"></path>
                            <path d="M35.9170368,2.0578205 L33.9837035,2.0578205 L37.1629632,6.17346152 L41.0725924,9.34593479 L47.6459257,9.73177615 L35.9170368,2.0578205 L35.9170368,2.0578205 L35.9170368,2.0578205 Z" opacity="0.3" fill="#FFFFFF"></path>
                            <path d="M37.420741,15.6908814 L31.5348147,18.1345432 L33.8118521,13.0757345 L37.420741,15.6908814 L37.420741,15.6908814 L37.420741,15.6908814 Z" opacity="0.2" fill="#000000"></path>
                            <path d="M14.4355556,17.4057318 L21.0518519,26.8802804 L28.1407408,15.6908814 L14.4355556,17.4057318 L14.4355556,17.4057318 L14.4355556,17.4057318 Z" opacity="0.2" fill="#000000"></path>
                            <path d="M39.5688889,23.3219657 L44.7244444,28.3379033 L43.5214813,30.3099811 L39.5688889,23.3219657 L39.5688889,23.3219657 L39.5688889,23.3219657 Z" opacity="0.8" fill="#000000"></path>
                            <path d="M21.7822222,36.1404728 L21.0518519,26.8802804 L28.1407408,15.6908814 L21.7822222,36.1404728 L21.7822222,36.1404728 L21.7822222,36.1404728 Z" opacity="0.4" fill="#000000"></path>
                            <path d="M37.420741,15.6908814 L41.0725924,9.34593479 L37.6355556,8.87435093 L37.420741,15.6908814 L37.420741,15.6908814 L37.420741,15.6908814 Z" opacity="0.2" fill="#000000"></path>
                            <path d="M41.0725924,9.34593479 L47.6459257,14.9620699 L48.5051854,13.6759321 L47.6459257,9.73177615 L41.0725924,9.34593479 L41.0725924,9.34593479 L41.0725924,9.34593479 Z" opacity="0.2" fill="#000000"></path>
                            <path d="M47.6459257,14.9620699 L41.0725924,9.34593479 L37.420741,15.6908814 L47.6459257,14.9620699 L47.6459257,14.9620699 L47.6459257,14.9620699 Z" opacity="0.3" fill="#000000"></path>
                            <path d="M33.8118521,13.0757345 L28.1407408,15.6908814 L30.3318519,10.5892014 L33.8118521,13.0757345 L33.8118521,13.0757345 L33.8118521,13.0757345 Z" opacity="0.4" fill="#000000"></path>
                            <path d="M33.7259257,7.245243 L37.1629632,6.17346152 L33.9837035,2.0578205 L33.7259257,7.245243 L33.7259257,7.245243 L33.7259257,7.245243 Z" opacity="0.2" fill="#000000"></path>
                            <path d="M14.4355556,17.4057318 L24.9614815,13.2472195 L22.2548148,6.68791662 L12.9748148,9.86038992 L14.4355556,17.4057318 L14.4355556,17.4057318 L14.4355556,17.4057318 Z" opacity="0.1" fill="#000000"></path>
                            <path d="M34.7140743,33.4824543 L43.5214813,30.3099811 L35.1437035,25.679885 L34.7140743,33.4824543 L34.7140743,33.4824543 L34.7140743,33.4824543 Z" opacity="0.7" fill="#000000"></path>
                            <path d="M37.6355556,8.87435093 L30.3318519,10.5892014 L37.420741,15.6908814 L37.6355556,8.87435093 L37.6355556,8.87435093 L37.6355556,8.87435093 Z" opacity="0.2" fill="#FFFFFF"></path>
                            <path d="M35.1437035,25.679885 L43.5214813,30.3099811 L35.7022222,16.4196928 L35.1437035,25.679885 L35.1437035,25.679885 L35.1437035,25.679885 Z" opacity="0.5" fill="#000000"></path>
                            <path d="M14.4355556,17.4057318 L28.1407408,15.6908814 L24.9614815,13.2472195 L14.4355556,17.4057318 L14.4355556,17.4057318 L14.4355556,17.4057318 Z" opacity="0.5" fill="#000000"></path>
                            <path d="M29.6014814,1.32900907 L28.8711111,5.23029378 L32.0503703,0.085742521 L29.6014814,1.32900907 L29.6014814,1.32900907 L29.6014814,1.32900907 Z" opacity="0.3" fill="#000000"></path>
                            <path d="M37.1629632,6.17346152 L33.7259257,7.245243 L37.6355556,8.87435093 L37.1629632,6.17346152 L37.1629632,6.17346152 L37.1629632,6.17346152 Z" opacity="0.1" fill="#000000"></path>
                            <path d="M30.3318519,10.5892014 L24.9614815,13.2472195 L28.8711111,5.23029378 L30.3318519,10.5892014 L30.3318519,10.5892014 L30.3318519,10.5892014 Z" opacity="0.4" fill="#000000"></path>
                            <path d="M22.2548148,6.68791662 L28.8711111,5.23029378 L29.1288889,3.72979968 L22.2548148,6.68791662 L22.2548148,6.68791662 L22.2548148,6.68791662 Z" opacity="0.5" fill="#000000"></path>
                            <path d="M24.9614815,13.2472195 L28.1407408,15.6908814 L30.3318519,10.5892014 L24.9614815,13.2472195 L24.9614815,13.2472195 L24.9614815,13.2472195 Z" opacity="0.3" fill="#000000"></path>
                            <path d="M24.9614815,13.2472195 L22.2548148,6.68791662 L28.8711111,5.23029378 L24.9614815,13.2472195 L24.9614815,13.2472195 L24.9614815,13.2472195 Z" opacity="0.3" fill="#000000"></path>
                            <path d="M14.4355556,17.4057318 L22.2548148,6.68791662 L24.9614815,13.2472195 L14.4355556,17.4057318 L14.4355556,17.4057318 L14.4355556,17.4057318 Z" opacity="0.1" fill="#000000"></path>
                        </g>
                    </g>
                </g>
            </g>
        </g>
    </g>
</svg>